<?xml version="1.0" encoding="UTF-8"?>
<svg version="1.1" xmlns="http://www.w3.org/2000/svg" width="512" height="512">
<path d="M0 0 C0.90186035 0.17692383 1.8037207 0.35384766 2.73291016 0.53613281 C9.20599895 1.83501287 15.60888488 3.34657126 22 5 C22.82000488 5.20963379 23.64000977 5.41926758 24.48486328 5.63525391 C58.17024255 14.44485883 88.96649009 31.29229379 116 53 C117.50046875 54.19109375 117.50046875 54.19109375 119.03125 55.40625 C132.90792458 66.75989283 146.25040909 79.61879053 157 94 C157.86190416 95.12115141 158.72388867 96.24224106 159.5859375 97.36328125 C166.76550525 106.81675946 173.05762882 116.73015517 179 127 C179.39429199 127.67724121 179.78858398 128.35448242 180.19482422 129.05224609 C195.10285371 154.97123809 204.66151819 184.46351638 209 214 C209.17732666 215.20462891 209.35465332 216.40925781 209.53735352 217.65039062 C211.136325 229.30767354 211.3584053 240.87186098 211.3125 252.625 C211.30976578 254.07983292 211.30976578 254.07983292 211.30697632 255.5640564 C211.26158309 269.91556055 210.7562347 283.87942918 208 298 C207.83902832 298.89702637 207.67805664 299.79405273 207.51220703 300.71826172 C200.37927556 340.13781478 183.6310207 377.43743545 159 409 C158.31550781 409.89589844 157.63101562 410.79179687 156.92578125 411.71484375 C144.59221107 427.55084765 129.98908132 442.84917551 114 455 C113.45972168 455.41668945 112.91944336 455.83337891 112.36279297 456.26269531 C102.3677884 463.9459873 91.90790964 470.68842968 81 477 C80.32275879 477.39429199 79.64551758 477.78858398 78.94775391 478.19482422 C53.02876191 493.10285371 23.53648362 502.66151819 -6 507 C-7.20462891 507.17732666 -8.40925781 507.35465332 -9.65039062 507.53735352 C-21.30767354 509.136325 -32.87186098 509.3584053 -44.625 509.3125 C-46.07983292 509.30976578 -46.07983292 509.30976578 -47.5640564 509.30697632 C-61.91556055 509.26158309 -75.87942918 508.7562347 -90 506 C-90.89702637 505.83902832 -91.79405273 505.67805664 -92.71826172 505.51220703 C-132.13781478 498.37927556 -169.43743545 481.6310207 -201 457 C-201.89589844 456.31550781 -202.79179687 455.63101562 -203.71484375 454.92578125 C-219.55084765 442.59221107 -234.84917551 427.98908132 -247 412 C-247.41668945 411.45972168 -247.83337891 410.91944336 -248.26269531 410.36279297 C-255.9459873 400.3677884 -262.68842968 389.90790964 -269 379 C-269.39429199 378.32275879 -269.78858398 377.64551758 -270.19482422 376.94775391 C-285.10285371 351.02876191 -294.66151819 321.53648362 -299 292 C-299.17732666 290.79537109 -299.35465332 289.59074219 -299.53735352 288.34960938 C-301.13632494 276.6923269 -301.35840972 265.12813934 -301.3125 253.375 C-301.30976578 251.92066559 -301.30976578 251.92066559 -301.30697632 250.43695068 C-301.26162737 236.10520741 -300.84295422 222.09104488 -298 208 C-297.82307617 207.09813965 -297.64615234 206.1962793 -297.46386719 205.26708984 C-296.16498713 198.79400105 -294.65342874 192.39111512 -293 186 C-292.79036621 185.17999512 -292.58073242 184.35999023 -292.36474609 183.51513672 C-283.55514117 149.82975745 -266.70770621 119.03350991 -245 92 C-244.2059375 90.9996875 -243.411875 89.999375 -242.59375 88.96875 C-231.2484048 75.10221698 -218.3970719 61.7100169 -204 51 C-203.40026367 50.54028809 -202.80052734 50.08057617 -202.18261719 49.60693359 C-169.0520577 24.2542212 -131.06397758 7.36894442 -90 0 C-89.16871582 -0.16226074 -88.33743164 -0.32452148 -87.48095703 -0.49169922 C-59.86348528 -5.76694663 -27.54597458 -5.55756833 0 0 Z M-195.82421875 102.6328125 C-202.1586753 109.49381078 -205.10294241 117.70577073 -205 127 C-204.30560617 135.62821266 -200.02431984 143.52449424 -193.6875 149.375 C-186.26278984 155.12263747 -178.07689015 157.56954424 -168.71875 156.81640625 C-160.26929591 155.3734537 -152.49026574 150.68059115 -147.24609375 143.90625 C-142.13305539 136.08442329 -139.97483035 127.79686969 -141.5625 118.5 C-143.78660565 110.12253537 -148.73302805 102.75033617 -156 98 C-169.63889342 90.08638834 -184.16292467 92.19508033 -195.82421875 102.6328125 Z M-125.5 175.0625 C-146.6172581 196.72199868 -157.141871 225.98503109 -157 256 C-155.75457675 287.10297852 -142.27966147 314.6420651 -120.12890625 336.23828125 C-98.39436466 355.99248658 -68.87748739 366.07622643 -39.67089844 364.90673828 C-15.51444795 363.30415901 6.67444605 354.49416546 26 340 C25.66226563 340.6084375 25.32453125 341.216875 24.9765625 341.84375 C19.18832807 353.21947084 17.08836017 366.6558907 21 379 C26.81029824 393.27584031 34.58479893 402.61084928 48.73046875 409.2890625 C60.45268251 413.99148014 72.83757237 414.29875888 84.5859375 409.55078125 C98.20066419 403.3097166 106.74627933 394.59380728 112.375 380.5625 C116.51449308 368.00127961 115.62181208 355.59461209 109.8125 343.75 C103.19435689 331.05148085 93.47227213 323.22026582 79.8125 318.71875 C66.25377512 315.25374253 54.25641527 317.67877795 42 324 C42.36351562 323.46632813 42.72703125 322.93265625 43.1015625 322.3828125 C61.77106378 294.7136542 70.82921727 265.24954853 65 232 C59.14458169 202.75218556 42.05069825 176.66724906 17.33251953 159.92944336 C-28.9674628 129.82956055 -86.04027671 137.72968378 -125.5 175.0625 Z M108.17578125 230.6328125 C101.8413247 237.49381078 98.89705759 245.70577073 99 255 C99.69439383 263.62821266 103.97568016 271.52449424 110.3125 277.375 C117.73721016 283.12263747 125.92310985 285.56954424 135.28125 284.81640625 C143.73070409 283.3734537 151.50973426 278.68059115 156.75390625 271.90625 C161.86694461 264.08442329 164.02516965 255.79686969 162.4375 246.5 C160.21339435 238.12253537 155.26697195 230.75033617 148 226 C134.36110658 218.08638834 119.83707533 220.19508033 108.17578125 230.6328125 Z " fill="#FFFFFF" transform="translate(301,3)"/>
</svg>
