<?xml version="1.0" encoding="UTF-8"?>
<svg version="1.1" xmlns="http://www.w3.org/2000/svg" width="2048" height="2048">
<path d="M0 0 C0.70563802 0.19921765 1.41127603 0.3984353 2.13829702 0.60368985 C4.49927819 1.27268124 6.85626341 1.95477905 9.21348572 2.6368866 C10.9241528 3.12457052 12.63505154 3.61144243 14.34616089 4.09757233 C19.04381157 5.43472945 23.7380912 6.78339457 28.43189931 8.13396859 C33.48426248 9.5855465 38.53965911 11.02648633 43.59469604 12.46871948 C52.35999465 14.97110286 61.12332012 17.48029799 69.88536072 19.99406433 C82.71768125 23.67554701 95.55301667 27.34642766 108.38902593 31.01502538 C135.25753573 38.694636 162.12122891 46.39101915 188.9841212 54.0902518 C201.43614207 57.65902822 213.88884804 61.22541118 226.34165955 64.79142761 C228.50009641 65.40953718 230.65853286 66.02764815 232.81696892 66.64576054 C236.02570521 67.5646452 239.23444216 68.48352757 242.4431814 69.40240198 C254.09481287 72.73904541 265.74634733 76.07602753 277.39781189 79.41325378 C278.44036896 79.7118618 279.48292603 80.01046982 280.55707574 80.31812656 C294.33617533 84.26478054 308.11486573 88.21286002 321.89323616 92.16205883 C379.32306043 108.6227484 436.76743254 125.03167598 494.22457564 141.39674836 C508.19508702 145.37586084 522.16522513 149.35628181 536.13511658 153.33757019 C537.18813926 153.63767073 538.24116193 153.93777127 539.32609439 154.24696577 C557.33658632 159.37982156 575.34685267 164.51346879 593.35698891 169.64757252 C604.24587189 172.75160006 615.13490578 175.85509682 626.0242157 178.95762634 C650.20421984 185.84707062 674.38285764 192.74124997 698.55761051 199.64910126 C709.8140871 202.86543906 721.07180902 206.07733323 732.33136946 209.28285903 C739.91929543 211.44357716 747.50553462 213.61014771 755.09046072 215.78137285 C759.43815718 217.02575059 763.78652393 218.26763102 768.13692284 219.50253105 C772.12165313 220.63370188 776.10417546 221.77233453 780.08514822 222.91665673 C781.51298497 223.3257211 782.941571 223.73218254 784.37102187 224.13557029 C805.13764832 230.00051399 824.12184789 238.17424037 840.68589783 252.15715027 C841.45329285 252.7969281 841.45329285 252.7969281 842.2361908 253.44963074 C861.32948821 269.53935203 874.2574753 290.98029311 881.43589783 314.78215027 C881.63473572 315.43812195 881.83357361 316.09409363 882.03843689 316.76994324 C884.9853827 327.06403441 885.98202156 337.23469791 885.94037342 347.91149902 C885.9435799 349.1446757 885.94678638 350.37785238 885.95009002 351.64839804 C885.95692931 355.05137839 885.9549076 358.45413818 885.9490343 361.8571059 C885.94484415 365.56742984 885.95227728 369.27773421 885.95818681 372.98805332 C885.96693347 379.48521246 885.96826636 385.98234007 885.96468353 392.47950363 C885.95936894 402.14282632 885.96547993 411.80611858 885.97376647 421.46943796 C885.98900506 439.7425588 885.99071119 458.01566579 885.98824344 476.28879166 C885.98640882 490.41761187 885.98817396 504.54642755 885.99246788 518.67524719 C885.9930703 520.70725125 885.9936715 522.73925531 885.99427148 524.77125937 C885.99517879 527.83374907 885.99608746 530.89623877 885.99700383 533.95872847 C886.00543499 562.4403305 886.0097685 590.92193083 886.00559711 619.40353394 C886.00544074 620.47732012 886.00528436 621.5511063 886.00512325 622.65743146 C886.00431751 628.09931218 886.00347174 633.54119289 886.00260995 638.98307359 C886.00243886 640.06375879 886.00226777 641.14444398 886.0020915 642.25787722 C886.00174484 644.44329543 886.00139631 646.62871365 886.00104591 648.81413187 C885.99570033 682.74521341 886.00358525 716.6762689 886.02207947 750.60734558 C886.04285887 788.77531486 886.05350994 826.943268 886.04950398 865.11124325 C886.04910869 869.19314511 886.04874713 873.27504698 886.0484066 877.35694885 C886.0482705 878.8644117 886.0482705 878.8644117 886.04813166 880.40232835 C886.04697153 895.49448815 886.0535699 910.58663153 886.06421852 925.67878723 C886.07634767 942.88626843 886.0777426 960.09371381 886.06542835 977.30119562 C886.05943593 986.06400598 886.05800692 994.82675229 886.07043076 1003.58955765 C886.11781976 1038.86961502 886.01486821 1073.99607339 882.68589783 1109.15715027 C882.61198347 1109.94588996 882.5380691 1110.73462965 882.46191491 1111.54727054 C874.20448538 1199.26851284 853.50555876 1286.19348258 813.68589783 1380.15715027 C813.12253662 1381.43040403 812.55922488 1382.70367969 811.99595642 1383.97697449 C799.95888551 1411.13050159 787.13631152 1437.78831164 772.22251892 1463.49406433 C770.70803574 1466.11878352 769.21851172 1468.75606873 767.73667908 1471.39933777 C757.20076406 1490.1480258 745.81454979 1508.39733846 733.68589783 1526.15715027 C733.24826111 1526.80055359 732.81062439 1527.44395691 732.35972595 1528.1068573 C725.93181414 1537.5504171 719.39325897 1546.90992887 712.68589783 1556.15715027 C711.8909491 1557.25398132 711.8909491 1557.25398132 711.0799408 1558.37297058 C703.62079984 1568.64073469 695.9862707 1578.72072409 687.97740173 1588.56584167 C686.13619925 1590.83445373 684.3178953 1593.12111498 682.49839783 1595.40715027 C672.23771135 1608.21720649 661.72034357 1620.78310093 650.68980408 1632.93840027 C648.87277801 1634.9502342 647.08645391 1636.9837546 645.31089783 1639.03215027 C641.52972807 1643.36963005 637.641465 1647.60684811 633.74009705 1651.83586121 C631.88506097 1653.84902537 630.04113757 1655.87031438 628.20518494 1657.90104675 C619.47092339 1667.5039269 610.31864542 1676.67659499 601.13023376 1685.84318542 C598.42366458 1688.54435913 595.72252887 1691.25088456 593.02183533 1693.95793152 C591.27996863 1695.69913792 589.53779203 1697.44003436 587.79527283 1699.18058777 C586.99925659 1699.97862823 586.20324036 1700.7766687 585.38310242 1701.59889221 C581.18115689 1705.78344401 576.89729651 1709.80319481 572.40364075 1713.67298889 C570.4038849 1715.4008146 568.47882874 1717.19410802 566.57261658 1719.02433777 C565.88772156 1719.67765076 565.20282654 1720.33096375 564.49717712 1721.0040741 C563.79632996 1721.67333923 563.09548279 1722.34260437 562.37339783 1723.03215027 C556.84354572 1728.27888163 551.26077268 1733.27922395 545.29136658 1738.02043152 C542.31889224 1740.45812787 539.498199 1743.03906383 536.68589783 1745.65715027 C532.10673107 1749.91258946 527.39302327 1753.93038881 522.52183533 1757.85246277 C519.98350669 1759.91529183 517.48730795 1762.01586424 515.00132751 1764.14079285 C508.34973091 1769.8257732 501.54495799 1775.28062586 494.63267517 1780.64445496 C492.53863079 1782.27158049 490.44990516 1783.90537784 488.36167908 1785.53996277 C451.16528913 1814.62114249 412.4426766 1841.69705596 372.68589783 1867.15715027 C371.96386169 1867.62056824 371.24182556 1868.08398621 370.49790955 1868.56144714 C293.36663667 1917.98240775 211.47500452 1960.24969684 11.66542053 2040.34675598 C10.07678944 2040.87940202 8.49017541 2041.41810933 6.90583801 2041.96339417 C4.71485567 2042.71444931 2.51679134 2043.43910401 0.31480408 2044.15715027 C-0.92197083 2044.56965027 -2.15874573 2044.98215027 -3.43299866 2045.40715027 C-12.29680147 2047.12002705 -20.1621834 2044.54309657 -28.51332092 2041.64933777 C-29.56947098 2041.29219193 -30.62562103 2040.93504608 -31.71377563 2040.56707764 C-35.14738108 2039.40103061 -38.57474148 2038.21786073 -42.00160217 2037.03215027 C-43.18226257 2036.62699188 -44.36292297 2036.2218335 -45.57936096 2035.80439758 C-67.03306448 2028.44021515 -88.27955024 2020.64358683 -109.31410217 2012.15715027 C-110.13980713 2011.82412903 -110.96551208 2011.49110779 -111.8162384 2011.147995 C-136.88514296 2001.0179474 -161.69675662 1990.33793367 -186.31410217 1979.15715027 C-186.92737366 1978.87909546 -187.54064514 1978.60104065 -188.17250061 1978.31455994 C-225.9241738 1961.18930496 -263.13652391 1942.80528868 -299.42103577 1922.75382996 C-302.54449924 1921.02999442 -305.67345258 1919.31635248 -308.80238342 1917.60246277 C-323.21033408 1909.68374762 -337.38287267 1901.44137956 -351.43177795 1892.90324402 C-354.16572022 1891.24703912 -356.90745452 1889.60494229 -359.65394592 1887.96965027 C-401.25574382 1863.199175 -441.46601533 1836.04247474 -480.31410217 1807.15715027 C-481.00890686 1806.64152527 -481.70371155 1806.12590027 -482.41957092 1805.59465027 C-501.64061578 1791.31828426 -520.50103702 1776.57464819 -538.72669983 1761.04362488 C-542.11453223 1758.15873169 -545.54315411 1755.33184632 -549.00160217 1752.53215027 C-553.39280597 1748.96072258 -557.59520155 1745.22598814 -561.77503967 1741.41105652 C-564.43305683 1739.05155514 -567.16802511 1736.81990912 -569.93910217 1734.59465027 C-573.93838512 1731.36034971 -577.63011807 1728.00444031 -581.16957092 1724.27433777 C-583.04783627 1722.42002116 -584.96918016 1720.69964777 -586.96424866 1718.9740448 C-600.49645766 1707.16719173 -613.19766544 1694.43557759 -625.87464905 1681.72697449 C-628.46789501 1679.12829713 -631.06654165 1676.53510446 -633.66566467 1673.94230652 C-635.34306924 1672.26424215 -637.02016412 1670.58586814 -638.69691467 1668.90715027 C-639.84234238 1667.76475891 -639.84234238 1667.76475891 -641.01091003 1666.59928894 C-645.1101142 1662.48227229 -649.03782895 1658.27503682 -652.83073425 1653.87409973 C-654.49067963 1651.95276769 -656.20696544 1650.0967892 -657.96253967 1648.26261902 C-658.57073547 1647.62284119 -659.17893127 1646.98306335 -659.80555725 1646.32389832 C-660.42712708 1645.67074646 -661.0486969 1645.0175946 -661.68910217 1644.34465027 C-666.77145755 1638.96813527 -671.59804372 1633.51839437 -676.20863342 1627.73136902 C-678.48611064 1624.94684679 -680.87722225 1622.30301224 -683.31410217 1619.65715027 C-688.20789696 1614.32734919 -692.77430734 1608.78879449 -697.31410217 1603.15715027 C-698.32344311 1601.92710011 -699.33392815 1600.69798817 -700.34535217 1599.46965027 C-707.41688029 1590.8625477 -714.21181488 1582.09228302 -720.83900452 1573.13957214 C-722.29456653 1571.18340472 -723.76433407 1569.23889863 -725.23988342 1567.29777527 C-777.58374618 1498.34923258 -820.37030011 1421.10189108 -906.72316394 1001.17309883 C-906.71544577 992.35603567 -906.72558041 983.53901144 -906.73584285 974.72195406 C-906.75534387 957.46171932 -906.75789016 940.20151486 -906.75264764 922.94127173 C-906.74806684 907.85032941 -906.74871905 892.75939898 -906.75448799 877.66845703 C-906.75524489 875.6338331 -906.75600087 873.59920917 -906.75675594 871.56458524 C-906.75790126 868.49775155 -906.75905116 865.43091786 -906.76021518 862.36408417 C-906.770892 833.92241192 -906.77567339 805.48074358 -906.76774502 777.03907013 C-906.76744784 775.97079121 -906.76715067 774.90251229 -906.76684449 773.80186127 C-906.76439621 765.12979696 -906.76178431 756.4577327 -906.75916036 747.78566844 C-906.74904014 713.90329203 -906.75745839 680.02096511 -906.78065491 646.13859558 C-906.80674189 607.97355111 -906.81957359 569.8085364 -906.81246716 531.64348269 C-906.81175118 527.57374351 -906.81107678 523.50400433 -906.81042671 519.43426514 C-906.8102569 518.43235976 -906.81008709 517.43045439 -906.80991214 516.39818824 C-906.80761366 501.30541535 -906.81556341 486.21267023 -906.82871819 471.11990356 C-906.84364193 453.96813011 -906.84445419 436.81642163 -906.82664727 419.66464955 C-906.81710441 410.07935171 -906.81847837 400.49420561 -906.83588196 390.90891799 C-906.84640826 384.49565372 -906.84221969 378.08250445 -906.82640193 371.66925141 C-906.81781123 368.02338686 -906.81524341 364.37781856 -906.83067124 360.73196977 C-906.90559503 341.72817537 -906.16617197 323.32198025 -899.12660217 305.40715027 C-898.6855011 304.25267395 -898.6855011 304.25267395 -898.23548889 303.07487488 C-893.17442628 290.3014042 -886.06776159 278.73507796 -877.31410217 268.15715027 C-876.88822815 267.64088074 -876.46235413 267.12461121 -876.02357483 266.59269714 C-860.98987851 248.64168943 -841.41089069 235.87596067 -819.2169342 228.5900116 C-818.20107805 228.25468068 -817.1852219 227.91934977 -816.13858223 227.57385731 C-800.17549295 222.39752517 -783.98875042 217.93851847 -767.84440374 213.36918044 C-762.83443624 211.94981158 -757.82634268 210.52385893 -752.81803894 209.09863281 C-744.1569959 206.63477036 -735.49493632 204.17451187 -726.83216858 201.71672058 C-712.95597199 197.77960699 -699.08203857 193.83455626 -685.20863342 189.88761902 C-684.03428883 189.55352626 -682.85994424 189.2194335 -681.65001345 188.87521672 C-675.66366753 187.17211276 -669.67735498 185.46889159 -663.69106293 183.7655983 C-658.83023394 182.38257354 -653.96932463 180.99983161 -649.10834503 179.61733627 C-614.75356721 169.84658444 -580.40715577 160.04712065 -546.07191467 150.20793152 C-544.49437585 149.75587715 -544.49437585 149.75587715 -542.88496757 149.29469037 C-530.19741247 145.65885839 -517.51028442 142.02153757 -504.82330662 138.38369173 C-484.54358999 132.56877275 -464.2631292 126.7564506 -443.98207092 120.94621277 C-442.39142488 120.49050624 -442.39142488 120.49050624 -440.76864457 120.02559352 C-406.97443549 110.34418372 -373.17263124 100.6896101 -339.36488342 91.05558777 C-338.27024702 90.74364574 -337.17561061 90.43170371 -336.0478034 90.11030889 C-314.19884155 83.88404639 -292.34906849 77.66063501 -270.4981519 71.44123608 C-258.82844581 68.11967079 -247.15901994 64.79712224 -235.48988342 61.47355652 C-234.45006522 61.17741038 -233.41024701 60.88126424 -232.33891916 60.57614398 C-201.80332022 51.87886132 -171.2811714 43.13572874 -140.77042198 34.35167694 C-134.62595933 32.58274711 -128.4810944 30.81521775 -122.33615112 29.04795837 C-118.3550769 27.9029139 -114.3740175 26.75781789 -110.39295959 25.61271667 C-109.42216748 25.333499 -108.45137537 25.05428133 -107.45116532 24.76660252 C-96.06713279 21.49210559 -84.68491773 18.21144019 -73.30560786 14.92056769 C-66.3350809 12.90512242 -59.36275476 10.89599158 -52.38896555 8.89186364 C-47.6356828 7.52550365 -42.88469155 6.1515541 -38.13540286 4.77137923 C-35.26543236 3.93946313 -32.39328589 3.11528139 -29.5204252 2.29340768 C-27.59043229 1.73883064 -25.66309591 1.17503406 -23.73587513 0.61089897 C-22.58711242 0.28402155 -21.4383497 -0.04285587 -20.254776 -0.37963867 C-19.2690712 -0.66435122 -18.28336639 -0.94906378 -17.26779175 -1.24240398 C-11.09578761 -2.49709021 -5.99900575 -1.71689732 0 0 Z M-20.46325684 267 C-21.16324989 267.19921765 -21.86324295 267.3984353 -22.58444792 267.60368985 C-24.93202666 268.27389703 -27.27616845 268.95541074 -29.62049866 269.6368866 C-31.31959378 270.12447017 -33.01889233 270.61134532 -34.71837616 271.09757233 C-38.41370455 272.15651317 -42.10751502 273.22054905 -45.80026054 274.28846169 C-51.79798439 276.02295393 -57.79884584 277.74641647 -63.80007935 279.46871948 C-72.51936357 281.97234174 -81.23706673 284.48140437 -89.95375061 286.99406433 C-103.90868857 291.01648985 -117.86689929 295.02748034 -131.82582092 299.03605652 C-134.20945811 299.72059796 -136.59309522 300.40513967 -138.97673225 301.08968163 C-142.58200143 302.12504472 -146.18727625 303.1603881 -149.79256833 304.19567144 C-157.12595713 306.30155742 -164.45910429 308.40828245 -171.79207003 310.51564109 C-205.12327825 320.09421789 -238.46441071 329.63729866 -271.81800842 339.13761902 C-272.8758211 339.43893226 -273.93363379 339.74024551 -275.0235014 340.05068946 C-287.78020305 343.68424836 -300.53739125 347.31609729 -313.29474401 350.9473694 C-333.48306247 356.69390761 -353.67034149 362.44409524 -373.85707092 368.19621277 C-375.44204801 368.64783071 -375.44204801 368.64783071 -377.05904484 369.10857224 C-412.87683506 379.31469558 -448.68582454 389.55140231 -484.48988342 399.80558777 C-485.68878063 400.14894763 -486.88767783 400.49230749 -488.12290525 400.8460722 C-512.56715263 407.84702121 -537.01034174 414.85166103 -561.45271015 421.8591671 C-568.89659228 423.99328285 -576.3405876 426.12700363 -583.78460091 428.26066172 C-589.64991491 429.94189326 -595.51502021 431.62385015 -601.37994587 433.30643582 C-604.96639522 434.33520154 -608.55301739 435.36336375 -612.13968182 436.39137936 C-613.76543175 436.8574935 -615.39111003 437.32385769 -617.01670361 437.79051685 C-617.77102578 438.00705009 -618.52534796 438.22358332 -619.30252838 438.44667816 C-619.95056254 438.63278924 -620.5985967 438.81890031 -621.26626825 439.01065111 C-628.12042744 440.97113065 -634.9810769 442.90576471 -641.85111523 444.80990791 C-642.67086522 445.03735728 -643.49061522 445.26480665 -644.33520612 445.49914843 C-646.32810275 446.05206348 -648.32109253 446.60464272 -650.31410217 447.15715027 C-650.33123774 502.42459033 -650.34715609 557.69203065 -650.35644531 612.95947266 C-650.35658337 613.77875573 -650.35672143 614.5980388 -650.35686367 615.44214862 C-650.35985727 633.25166624 -650.36262736 651.06118388 -650.3651675 668.87070156 C-650.36641473 677.60575153 -650.3677113 686.34080149 -650.36903381 695.07585144 C-650.36916457 695.94504756 -650.36929533 696.81424368 -650.36943005 697.70977908 C-650.37368378 725.83213325 -650.38118937 753.95448539 -650.39039939 782.07683834 C-650.3998545 811.00039148 -650.40599282 839.92394352 -650.40801716 868.84749818 C-650.40830528 872.9421382 -650.40863091 877.03677822 -650.40897942 881.13141823 C-650.40904684 881.93722284 -650.40911426 882.74302746 -650.40918373 883.57325039 C-650.41036084 896.49220522 -650.41498639 909.41115658 -650.42093421 922.33011 C-650.42685356 935.34966351 -650.42906218 948.3692136 -650.42760355 961.3887684 C-650.42691462 968.43016629 -650.427801 975.47155488 -650.43330765 982.5129509 C-650.60742304 1030.40867758 -650.60742304 1030.40867758 -648.06410217 1078.21965027 C-648.00130066 1078.97687378 -647.93849915 1079.73409729 -647.87379456 1080.51426697 C-640.82496668 1164.35129047 -616.85563033 1245.00157779 -473.31410217 1469.15715027 C-471.91821003 1470.71959773 -470.52237843 1472.28209928 -469.12660217 1473.84465027 C-467.52502453 1475.61782551 -465.92063705 1477.38846514 -464.31410217 1479.15715027 C-463.8713092 1479.64651062 -463.42851624 1480.13587097 -462.9723053 1480.64006042 C-454.55817138 1489.90541845 -445.77784375 1498.79971102 -436.93910217 1507.65715027 C-436.3753891 1508.22345154 -435.81167603 1508.78975281 -435.23088074 1509.37321472 C-429.66835894 1514.9558653 -424.10521902 1520.48900457 -418.10707092 1525.60929871 C-414.97548972 1528.31276069 -412.00361609 1531.18670759 -409.00160217 1534.03215027 C-403.80306787 1538.92564875 -398.49419864 1543.56825147 -392.91175842 1548.02433777 C-390.17855331 1550.26844302 -387.59273625 1552.62582779 -385.00160217 1555.03215027 C-380.47346642 1559.19521709 -375.77896947 1563.01929333 -370.91712952 1566.77653503 C-366.9570397 1569.84366342 -363.08131357 1572.9931384 -359.23817444 1576.20549011 C-350.27783247 1583.69160771 -341.00589163 1590.64995729 -331.56166077 1597.51066589 C-328.83882588 1599.50532139 -326.15095759 1601.54307831 -323.46546936 1603.58757019 C-301.54617329 1620.24094395 -278.38510094 1635.16898745 -255.31410217 1650.15715027 C-254.35520081 1650.78105652 -253.39629944 1651.40496277 -252.40834045 1652.04777527 C-222.31983632 1671.55550754 -190.94146903 1689.29272375 -159.31410217 1706.15715027 C-157.98282288 1706.86726257 -157.98282288 1706.86726257 -156.62464905 1707.59172058 C-149.88506727 1711.17354325 -143.10794217 1714.67947491 -136.31410217 1718.15715027 C-135.65239014 1718.49637512 -134.9906781 1718.83559998 -134.30891418 1719.18510437 C-111.93911254 1730.64492016 -89.36316514 1741.40434059 -66.30921936 1751.41593933 C-62.65788702 1753.00340859 -59.01938552 1754.6184545 -55.38441467 1756.24308777 C-44.79099663 1760.97168529 -34.14107627 1765.51792736 -23.37660217 1769.84465027 C-22.29677063 1770.27954773 -21.21693909 1770.71444519 -20.10438538 1771.16252136 C-18.61684753 1771.75347595 -18.61684753 1771.75347595 -17.09925842 1772.35636902 C-16.22148743 1772.70530212 -15.34371643 1773.05423523 -14.43934631 1773.41374207 C-12.37471545 1774.26721072 -12.37471545 1774.26721072 -10.31410217 1774.15715027 C-10.31410217 1357.03715027 -10.31410217 939.91715027 -10.31410217 510.15715027 C91.65589783 539.36215027 91.65589783 539.36215027 195.68589783 569.15715027 C243.86098333 582.90756524 243.86098333 582.90756524 292.04288197 596.63397336 C310.76076542 601.96138518 329.47692355 607.29485932 348.1933713 612.62731242 C351.39923671 613.54066914 354.605117 614.45397359 357.81100082 615.3672657 C407.86003933 629.62546462 457.8987414 643.91981774 507.93589783 658.21965027 C509.98173123 658.80430796 512.02756481 659.38896499 514.07339859 659.97362137 C529.14290571 664.28019287 544.21237855 668.5868844 559.28160667 672.89443207 C560.50500914 673.24414175 560.50500914 673.24414175 561.7531268 673.60091627 C563.36839375 674.06266298 564.98365147 674.524442 566.59889966 674.98625433 C570.45822017 676.08962881 574.31768183 677.19250331 578.17750263 678.29412651 C585.17652609 680.2922633 592.1738782 682.29579576 599.16633725 684.31680375 C602.44004341 685.26264688 605.71457037 686.20562937 608.98917341 687.14836204 C610.54336881 687.59669097 612.09715382 688.04644528 613.65050173 688.49770176 C615.78415739 689.11746848 617.91914554 689.73242263 620.05448914 690.34634399 C621.26650875 690.69709205 622.47852837 691.0478401 623.72727585 691.40921688 C626.66203228 692.27969416 626.66203228 692.27969416 629.68589783 692.15715027 C629.68589783 611.30715027 629.68589783 530.45715027 629.68589783 447.15715027 C599.77964783 438.63902527 569.87339783 430.12090027 539.06089783 421.34465027 C519.92250485 415.89152538 500.78414605 410.4382895 481.64683533 404.98136902 C480.46356769 404.64397382 479.28030005 404.30657863 478.06117582 403.95895934 C442.15136053 393.71939738 406.24698533 383.46099356 370.34996033 373.17668152 C369.29823426 372.87536827 368.2465082 372.57405503 367.16291165 372.26361108 C349.23468567 367.12712702 331.30710184 361.98840279 313.37958908 356.84943008 C298.57179039 352.60476054 283.76381084 348.36072275 268.95542908 344.11808777 C267.9045551 343.81700914 266.85368112 343.51593051 265.77096248 343.20572829 C229.96238254 332.94694509 194.14496234 322.71931828 158.32261658 312.50871277 C157.11799475 312.16535291 155.91337293 311.82199305 154.67224741 311.46822834 C130.08592999 304.46046099 105.49856422 297.45637583 80.91038799 290.45513344 C73.41745032 288.32158445 65.92462447 286.18764287 58.4318164 284.05363882 C52.52365455 282.37102458 46.61528759 280.68913318 40.70674264 279.00786471 C37.09499206 277.97999832 33.4834122 276.95153305 29.87187386 275.92292118 C28.23296862 275.45627854 26.59399241 274.9898851 24.95493317 274.52378368 C23.43554997 274.09169485 21.91626614 273.65925646 20.3970896 273.22644162 C18.95316996 272.8151062 17.50901909 272.40458144 16.06461942 271.9949348 C12.37302536 270.94349378 8.69408386 269.86031945 5.02483559 268.73319626 C4.25930487 268.50038606 3.49377414 268.26757585 2.70504552 268.0277108 C1.253857 267.58486735 -0.19533138 267.13538992 -1.64196044 266.67787182 C-8.60934785 264.55999555 -13.52843986 265.00291675 -20.46325684 267 Z " fill="#E9DB98" transform="translate(1034.3141021728516,1.8428497314453125)"/>
</svg>
