<?xml version="1.0" encoding="UTF-8"?>
<svg version="1.1" xmlns="http://www.w3.org/2000/svg" width="512" height="512">
<path d="M0 0 C-1.62554388 8.31866638 -4.25792624 16.26066573 -6.91870117 24.29182434 C-7.42925283 25.84342528 -7.93944109 27.39514584 -8.44929886 28.94697493 C-9.8465941 33.19585993 -11.24947468 37.4428822 -12.65341449 41.68957555 C-13.85799403 45.33559921 -15.0593116 48.98269424 -16.26064688 52.6297879 C-27.639606 87.17341873 -39.08439396 121.69546546 -50.54006958 156.21371937 C-52.02925575 160.70128387 -53.5183417 165.1888816 -55.00732422 169.67651367 C-55.37739696 170.79185546 -55.7474697 171.90719724 -56.12875676 173.05633726 C-62.13072524 191.14819959 -68.10244502 209.2499023 -74.06241906 227.3556364 C-80.18306135 245.94752547 -86.3330736 264.52949871 -92.51133633 283.10232085 C-95.97910004 293.52960421 -99.4334065 303.9609446 -102.8543396 314.40369606 C-105.76564735 323.29067691 -108.70302671 332.1684768 -111.67523652 341.03528497 C-113.19106629 345.56012783 -114.69384027 350.08826864 -116.16293526 354.62852287 C-117.50797501 358.78440137 -118.88842378 362.92668362 -120.2981106 367.06106492 C-120.80179105 368.55902502 -121.29228647 370.06149643 -121.76817262 371.56851695 C-125.28265166 382.66137362 -125.28265166 382.66137362 -129.05664021 385.60309517 C-131.67875767 386.70264771 -134.23197259 387.35029291 -137 388 C-139.34959102 388.79297287 -141.69307116 389.6041742 -144.03176022 390.42874527 C-145.35794592 390.87597891 -146.68514192 391.32022556 -148.0132255 391.76179147 C-148.7081279 391.99283752 -149.4030303 392.22388357 -150.11899035 392.46193102 C-150.84034594 392.70171119 -151.56170153 392.94149136 -152.30491638 393.1885376 C-153.84591872 393.70321326 -155.38683428 394.21814879 -156.92767102 394.73332 C-161.13977604 396.14077074 -165.35311216 397.54450258 -169.56667125 398.94759321 C-174.11877703 400.46413748 -178.66973103 401.98413103 -183.22084045 403.50366211 C-192.12576765 406.47621454 -201.03178384 409.44549092 -209.93821906 412.41352156 C-217.17368671 414.82474941 -224.40879987 417.23703796 -231.64366341 419.65007782 C-232.67387672 419.99368065 -233.70409003 420.33728349 -234.76552193 420.69129853 C-236.85837364 421.38931968 -238.9512251 422.08734155 -241.04407633 422.78536412 C-260.65400642 429.32563002 -280.26523689 435.8619896 -299.8768639 442.39716503 C-317.83310165 448.38085205 -335.78768844 454.36947571 -353.74150848 460.36041263 C-372.17459334 466.51122375 -390.60878157 472.65871705 -409.04417855 478.8025949 C-419.39532908 482.2523399 -429.74603132 485.70341596 -440.09557915 489.15796661 C-448.89917108 492.09645598 -457.70379546 495.03182559 -466.50979017 497.9631069 C-471.00506017 499.45955915 -475.49982726 500.95747908 -479.99331284 502.45928192 C-484.1015818 503.83229648 -488.21119734 505.2011956 -492.3219545 506.56674191 C-493.81347565 507.06302559 -495.3044854 507.56084927 -496.79494338 508.06031683 C-498.81165603 508.73589056 -500.83011322 509.40596243 -502.84912777 510.07461929 C-503.97261558 510.44913357 -505.0961034 510.82364785 -506.2536363 511.20951104 C-509 512 -509 512 -512 512 C-510.37445612 503.68133362 -507.74207376 495.73933427 -505.08129883 487.70817566 C-504.57074717 486.15657472 -504.06055891 484.60485416 -503.55070114 483.05302507 C-502.1534059 478.80414007 -500.75052532 474.5571178 -499.34658551 470.31042445 C-498.14200597 466.66440079 -496.9406884 463.01730576 -495.73935312 459.3702121 C-484.360394 424.82658127 -472.91560604 390.30453454 -461.45993042 355.78628063 C-459.97074425 351.29871613 -458.4816583 346.8111184 -456.99267578 342.32348633 C-456.62260304 341.20814454 -456.2525303 340.09280276 -455.87124324 338.94366274 C-449.86927476 320.85180041 -443.89755498 302.7500977 -437.93758094 284.6443636 C-431.81693865 266.05247453 -425.6669264 247.47050129 -419.48866367 228.89767915 C-416.02089996 218.47039579 -412.5665935 208.0390554 -409.1456604 197.59630394 C-406.23435265 188.70932309 -403.29697329 179.8315232 -400.32476348 170.96471503 C-398.80893371 166.43987217 -397.30615973 161.91173136 -395.83706474 157.37147713 C-394.49202499 153.21559863 -393.11157622 149.07331638 -391.7018894 144.93893508 C-391.19820895 143.44097498 -390.70771353 141.93850357 -390.23182738 140.43148305 C-386.71734834 129.33862638 -386.71734834 129.33862638 -382.94335979 126.39690483 C-380.32124233 125.29735229 -377.76802741 124.64970709 -375 124 C-372.65040898 123.20702713 -370.30692884 122.3958258 -367.96823978 121.57125473 C-366.64205408 121.12402109 -365.31485808 120.67977444 -363.9867745 120.23820853 C-363.2918721 120.00716248 -362.5969697 119.77611643 -361.88100965 119.53806898 C-361.15965406 119.29828881 -360.43829847 119.05850864 -359.69508362 118.8114624 C-358.15408128 118.29678674 -356.61316572 117.78185121 -355.07232898 117.26668 C-350.86022396 115.85922926 -346.64688784 114.45549742 -342.43332875 113.05240679 C-337.88122297 111.53586252 -333.33026897 110.01586897 -328.77915955 108.49633789 C-319.87423235 105.52378546 -310.96821616 102.55450908 -302.06178094 99.58647844 C-294.82631329 97.17525059 -287.59120013 94.76296204 -280.35633659 92.34992218 C-278.81101662 91.83451793 -278.81101662 91.83451793 -277.23447807 91.30870147 C-275.14162636 90.61068032 -273.0487749 89.91265845 -270.95592367 89.21463588 C-251.34599358 82.67436998 -231.73476311 76.1380104 -212.1231361 69.60283497 C-194.16689835 63.61914795 -176.21231156 57.63052429 -158.25849152 51.63958737 C-139.82540666 45.48877625 -121.39121843 39.34128295 -102.95582145 33.1974051 C-92.60467092 29.7476601 -82.25396868 26.29658404 -71.90442085 22.84203339 C-63.10082892 19.90354402 -54.29620454 16.96817441 -45.49020983 14.0368931 C-40.99493983 12.54044085 -36.50017274 11.04252092 -32.00668716 9.54071808 C-27.8984182 8.16770352 -23.78880266 6.7988044 -19.6780455 5.43325809 C-18.18652435 4.93697441 -16.6955146 4.43915073 -15.20505662 3.93968317 C-13.18834397 3.26410944 -11.16988678 2.59403757 -9.15087223 1.92538071 C-8.02738442 1.55086643 -6.9038966 1.17635215 -5.7463637 0.79048896 C-3 0 -3 0 0 0 Z M-60.09003353 53.54942131 C-61.14900874 53.89507728 -62.20798395 54.24073324 -63.29904932 54.59686363 C-64.46653965 54.98302821 -65.63402998 55.36919279 -66.8368988 55.76705933 C-68.07395618 56.17244246 -69.31101356 56.57782559 -70.58555752 56.99549305 C-74.02711601 58.12357136 -77.46675878 59.25739319 -80.90608656 60.39225149 C-83.85433543 61.36428008 -86.80366756 62.33299824 -89.7530046 63.30171911 C-117.70373357 72.48267757 -145.63275926 81.73010544 -173.55802822 90.98817253 C-177.19270478 92.19306227 -180.82741437 93.39785228 -184.4621582 94.60253906 C-185.36556873 94.90196805 -186.26897926 95.20139704 -187.19976587 95.50989963 C-201.83890241 100.36098829 -216.48782506 105.18181639 -231.14083397 109.99081825 C-246.17978132 114.92711932 -261.20877112 119.89282565 -276.22867161 124.88678658 C-284.66411658 127.69060505 -293.10352433 130.48094484 -301.55441093 133.23791122 C-308.75075635 135.58563406 -315.93778867 137.95947742 -323.11398082 140.36813514 C-326.77610669 141.59638653 -330.44128767 142.81156586 -334.11880302 143.99302864 C-338.10612128 145.27439844 -342.07074722 146.61534852 -346.03611755 147.96310425 C-347.20137716 148.32696161 -348.36663677 148.69081897 -349.56720728 149.06570232 C-355.28446087 150.99621204 -355.28446087 150.99621204 -359.47388923 155.10610849 C-360.55392506 157.70907472 -361.29241192 160.2729455 -362 163 C-362.66314792 164.94168912 -363.33794059 166.87942976 -364.02269363 168.81360531 C-364.75198436 170.98930195 -365.47805716 173.16607901 -366.20147705 175.34373474 C-366.60508288 176.55072669 -367.00868871 177.75771863 -367.42452502 179.00128609 C-368.53552622 182.32407195 -369.64282779 185.64808016 -370.74947548 188.97231805 C-371.94699682 192.56736043 -373.14797247 196.16124884 -374.34848022 199.7552948 C-376.69537787 206.78327323 -379.03900919 213.81233662 -381.38138917 220.8418219 C-383.28441668 226.55268998 -385.18850664 232.26320276 -387.09334564 237.97346687 C-387.36478908 238.78720201 -387.63623253 239.60093715 -387.91590153 240.43933092 C-388.46736068 242.09249663 -389.01882055 243.74566209 -389.57028112 245.39882732 C-394.73423194 260.87981855 -399.89428097 276.36210819 -405.0531424 291.84479601 C-409.77585649 306.01811644 -414.50350916 320.18978383 -419.23347202 334.36068665 C-424.09154969 348.91556885 -428.94630787 363.47155429 -433.79745173 378.02874905 C-436.52060945 386.20013712 -439.24509575 394.37107649 -441.97306061 402.54086113 C-444.29304817 409.4889448 -446.60991266 416.43806004 -448.92269233 423.38854646 C-450.10320414 426.93599266 -451.28517904 430.48293383 -452.47104263 434.02859497 C-453.75437795 437.86583958 -455.03077837 441.70535412 -456.30645752 445.54515076 C-456.68504197 446.67352983 -457.06362643 447.80190891 -457.45368314 448.96448129 C-457.79258911 449.98840575 -458.13149508 451.01233021 -458.48067093 452.06728268 C-458.77620338 452.95382501 -459.07173583 453.84036734 -459.3762238 454.75377458 C-460.13378703 457.0932306 -460.13378703 457.0932306 -460 460 C-451.68224482 458.25701991 -443.66125908 455.90670628 -435.5871582 453.27148438 C-433.98337048 452.75587046 -432.37447055 452.25590302 -430.76098633 451.77148438 C-428.40378629 451.06200565 -426.06802603 450.30266572 -423.73046875 449.53125 C-423.01376511 449.32665161 -422.29706146 449.12205322 -421.55863953 448.91125488 C-418.62025695 447.89132444 -416.55559301 446.98381141 -414.98721409 444.20661831 C-414.57112086 443.08744565 -414.57112086 443.08744565 -414.1466217 441.94566345 C-413.81032147 441.04398626 -413.47402124 440.14230907 -413.1275301 439.21330833 C-410.73121973 432.38414778 -408.41506638 425.53124677 -406.12988281 418.66430664 C-405.54826204 416.92379789 -404.96639181 415.18337248 -404.3842926 413.44302368 C-402.81354402 408.74410014 -401.2465981 404.04391712 -399.6806078 399.34340596 C-398.37182131 395.41597358 -397.06124521 391.48913934 -395.75070167 387.56229299 C-392.66126961 378.30506548 -389.57501632 369.04678244 -386.49072266 359.7878418 C-383.3073868 350.23177668 -380.11852408 340.67756851 -376.92699742 331.12423617 C-374.1848459 322.91536824 -371.446161 314.70534945 -368.71026301 306.4943952 C-367.07695635 301.59265974 -365.44230829 296.69138191 -363.8042984 291.7912159 C-362.26703428 287.19195166 -360.73408941 282.59127071 -359.20451164 277.98944473 C-358.64168802 276.29859874 -358.0773182 274.60826656 -357.5113163 272.91848183 C-356.7410391 270.61803823 -355.97628918 268.3158307 -355.21295166 266.01307678 C-354.98611419 265.33993866 -354.75927672 264.66680053 -354.52556539 263.97326428 C-353.60411962 261.17622409 -353 258.96907946 -353 256 C-352.18038882 256.01474869 -351.36077765 256.02949738 -350.51632977 256.04469299 C-330.54304978 256.39854885 -310.5703122 256.66304891 -290.59455395 256.82899475 C-280.9340403 256.91138699 -271.2756228 257.02363471 -261.61645508 257.20703125 C-253.19404863 257.36686898 -244.77316021 257.46981211 -236.34927922 257.50541592 C-231.8907982 257.5262218 -227.43665822 257.57483168 -222.9795742 257.69168091 C-205.62139822 258.94961962 -205.62139822 258.94961962 -189.46622086 254.45039368 C-185.67948103 250.84537599 -183.5580947 246.83149596 -181.78454781 241.96182251 C-180.57145419 238.92838804 -178.76410108 236.58041961 -176.8125 233.96875 C-175.86793945 232.61330078 -175.86793945 232.61330078 -174.90429688 231.23046875 C-173.96166992 229.87888672 -173.96166992 229.87888672 -173 228.5 C-168.48109603 222.0128434 -163.97023463 215.52080098 -159.5 209 C-154.33801536 201.4701325 -149.12004103 193.97961198 -143.90234375 186.48828125 C-140.08428476 181.0038967 -136.27847717 175.51172358 -132.5 170 C-127.33801536 162.4701325 -122.12004103 154.97961198 -116.90234375 147.48828125 C-113.08428476 142.0038967 -109.27847717 136.51172358 -105.5 131 C-100.33801536 123.4701325 -95.12004103 115.97961198 -89.90234375 108.48828125 C-86.08428422 103.00389593 -82.27856096 97.5116667 -78.5 92 C-73.90148843 85.29405932 -69.26731139 78.61318579 -64.625 71.9375 C-63.94630859 70.96103516 -63.26761719 69.98457031 -62.56835938 68.97851562 C-61.91931641 68.04587891 -61.27027344 67.11324219 -60.6015625 66.15234375 C-59.98571289 65.26659668 -59.36986328 64.38084961 -58.73535156 63.46826172 C-57.19106294 61.27175666 -55.61328444 59.10496113 -54.0234375 56.94140625 C-51.81107967 54.32040222 -51.81107967 54.32040222 -52 52 C-55.1297949 52 -57.12957215 52.57653991 -60.09003353 53.54942131 Z " fill="#FFFFFF" transform="translate(512,0)"/>
<path d="M0 0 C0.33 0 0.66 0 1 0 C1.25802324 14.4910896 1.45071596 28.98181842 1.56993389 43.47474098 C1.62643468 50.20562576 1.70332545 56.93507589 1.82983398 63.66503906 C1.94996733 70.16856333 2.01525358 76.67060306 2.04364967 83.17515182 C2.06386657 85.64788542 2.10334683 88.12054405 2.16303062 90.59263992 C2.69868732 113.71365849 2.69868732 113.71365849 -5.83125019 122.96781349 C-7.19633478 124.33675062 -8.59710557 125.66983761 -10 127 C-11.2011487 128.43857676 -12.3855156 129.89191067 -13.53125 131.375 C-14.51991519 132.58408468 -15.50948029 133.79243414 -16.5 135 C-20.55097647 139.96136239 -24.55807175 144.95156557 -28.5 150 C-32.97585767 155.73223877 -37.54467534 161.3834083 -42.14648438 167.01489258 C-46.27895525 172.0823535 -50.33142985 177.20762089 -54.31054688 182.39648438 C-56.99290108 185.85718162 -59.88420536 188.92989245 -63 192 C-63.25802324 177.5089104 -63.45071596 163.01818158 -63.56993389 148.52525902 C-63.62643468 141.79437424 -63.70332545 135.06492411 -63.82983398 128.33496094 C-63.94996733 121.83143667 -64.01525358 115.32939694 -64.04364967 108.82484818 C-64.06386657 106.35211458 -64.10334683 103.87945595 -64.16303062 101.40736008 C-64.69868732 78.28634151 -64.69868732 78.28634151 -56.16874981 69.03218651 C-54.80366522 67.66324938 -53.40289443 66.33016239 -52 65 C-50.7988513 63.56142324 -49.6144844 62.10808933 -48.46875 60.625 C-47.48008481 59.41591532 -46.49051971 58.20756586 -45.5 57 C-41.44902353 52.03863761 -37.44192825 47.04843443 -33.5 42 C-29.55805044 36.95153829 -25.54974791 31.96238392 -21.5 27 C-16.37384138 20.71845775 -11.33080364 14.37763702 -6.33984375 7.98828125 C-5.56769531 7.00214844 -4.79554687 6.01601562 -4 5 C-2.88818359 3.56720703 -2.88818359 3.56720703 -1.75390625 2.10546875 C-1.17511719 1.41066406 -0.59632812 0.71585937 0 0 Z " fill="#FFFFFF" transform="translate(95,0)"/>
</svg>
