<?xml version="1.0" encoding="UTF-8"?>
<svg version="1.1" xmlns="http://www.w3.org/2000/svg" width="512" height="512">
<path d="M0 0 C24.17443553 -0.14034308 48.34880974 -0.24605585 72.52357101 -0.31087303 C83.74908846 -0.34177266 94.97435236 -0.38387881 106.19970703 -0.45263672 C115.98706495 -0.51255784 125.77423918 -0.55117743 135.56177545 -0.56453097 C140.7412823 -0.5723332 145.92026376 -0.59058888 151.09960175 -0.63438034 C155.98180807 -0.67532231 160.86327619 -0.68762565 165.74563789 -0.67864609 C167.53057693 -0.68028712 169.31554247 -0.69209303 171.10033226 -0.71523285 C183.4081916 -0.86688122 191.97556871 0.72411599 202.11889648 8.3425293 C202.86212158 9.07898682 203.60534668 9.81544434 204.37109375 10.57421875 C205.21220703 11.40759766 206.05332031 12.24097656 206.91992188 13.09960938 C207.75072266 13.95361328 208.58152344 14.80761719 209.4375 15.6875 C210.29537109 16.52216797 211.15324219 17.35683594 212.03710938 18.21679688 C213.28524414 19.4765332 213.28524414 19.4765332 214.55859375 20.76171875 C215.29392334 21.50381592 216.02925293 22.24591309 216.78686523 23.01049805 C223.54660512 32.14155319 224.73772181 40.69505001 224.6628418 51.82788086 C224.67127333 53.2878601 224.68180651 54.74782846 224.69425964 56.20777893 C224.72113119 60.14188811 224.71665433 64.07535853 224.70455909 68.00951838 C224.69738703 71.30701119 224.70595457 74.60438888 224.71446449 77.90187269 C224.73436156 85.6872117 224.7289104 93.47224324 224.70678711 101.25756836 C224.68442918 109.26093005 224.70202699 117.26348482 224.73983639 125.2667703 C224.77117072 132.16569843 224.77895616 139.0643781 224.76788265 145.96336848 C224.7614276 150.07177516 224.7632429 154.17971682 224.78720665 158.28806877 C224.80861016 162.15368491 224.80028766 166.01817189 224.77011299 169.88371849 C224.76383736 171.29289218 224.76751975 172.70215549 224.78252411 174.11126328 C224.89129873 185.2381509 222.35365845 193.20344067 215.6574707 202.11889648 C214.55278442 203.23373413 214.55278442 203.23373413 213.42578125 204.37109375 C212.59240234 205.21220703 211.75902344 206.05332031 210.90039062 206.91992188 C210.04638672 207.75072266 209.19238281 208.58152344 208.3125 209.4375 C207.47783203 210.29537109 206.64316406 211.15324219 205.78320312 212.03710938 C204.94337891 212.86919922 204.10355469 213.70128906 203.23828125 214.55859375 C202.49618408 215.29392334 201.75408691 216.02925293 200.98950195 216.78686523 C191.85844681 223.54660512 183.30494999 224.73772181 172.17211914 224.6628418 C170.7121399 224.67127333 169.25217154 224.68180651 167.79222107 224.69425964 C163.85811189 224.72113119 159.92464147 224.71665433 155.99048162 224.70455909 C152.69298881 224.69738703 149.39561112 224.70595457 146.09812731 224.71446449 C138.3127883 224.73436156 130.52775676 224.7289104 122.74243164 224.70678711 C114.73906995 224.68442918 106.73651518 224.70202699 98.7332297 224.73983639 C91.83430157 224.77117072 84.9356219 224.77895616 78.03663152 224.76788265 C73.92822484 224.7614276 69.82028318 224.7632429 65.71193123 224.78720665 C61.84631509 224.80861016 57.98182811 224.80028766 54.11628151 224.77011299 C52.70710782 224.76383736 51.29784451 224.76751975 49.88873672 224.78252411 C38.7618491 224.89129873 30.79655933 222.35365845 21.88110352 215.6574707 C20.76626587 214.55278442 20.76626587 214.55278442 19.62890625 213.42578125 C18.36723633 212.17571289 18.36723633 212.17571289 17.08007812 210.90039062 C16.24927734 210.04638672 15.41847656 209.19238281 14.5625 208.3125 C13.70462891 207.47783203 12.84675781 206.64316406 11.96289062 205.78320312 C11.13080078 204.94337891 10.29871094 204.10355469 9.44140625 203.23828125 C8.70607666 202.49618408 7.97074707 201.75408691 7.21313477 200.98950195 C-0.49151001 190.58206949 -0.70153329 181.00593025 -0.56762695 168.58520508 C-0.56621442 166.74124185 -0.56701246 164.89727581 -0.56983948 163.05331421 C-0.57126704 158.07660151 -0.54198457 153.10049818 -0.50696969 148.1239264 C-0.4755957 142.91229529 -0.47276677 137.70064836 -0.46684265 132.48893738 C-0.45133658 122.6329061 -0.41035201 112.77715395 -0.3600952 102.92124528 C-0.30410084 91.69512478 -0.27668988 80.46899057 -0.25161803 69.24276507 C-0.19943323 46.16168896 -0.11155407 23.08086016 0 0 Z M109.01315308 66.74633789 C108.20040924 67.56352295 107.38766541 68.38070801 106.55029297 69.22265625 C105.62948944 70.14361084 104.70868591 71.06456543 103.75997925 72.01342773 C102.75394197 73.02967954 101.74801397 74.04603955 100.7421875 75.0625 C99.7141505 76.09426589 98.68567195 77.125592 97.6567688 78.15649414 C94.94634895 80.87456015 92.24198775 83.59857825 89.53881836 86.32385254 C86.78079483 89.10231337 84.01712003 91.87514009 81.25390625 94.6484375 C75.83037075 100.09344023 70.41321945 105.54473927 65 111 C66.50684968 114.53239023 68.55366612 116.7962166 71.26611328 119.49316406 C72.14687531 120.37377502 73.02763733 121.25438599 73.93508911 122.16168213 C74.89672351 123.11310431 75.8584672 124.06441603 76.8203125 125.015625 C77.80438107 125.99596129 78.78800742 126.97674168 79.77120972 127.95794678 C82.35442714 130.53354467 84.94359512 133.10307857 87.53405762 135.67138672 C90.1786762 138.29551067 92.8176101 140.92533771 95.45703125 143.5546875 C100.63248072 148.7087167 105.81423122 153.85635157 111 159 C114.53239023 157.49315032 116.7962166 155.44633388 119.49316406 152.73388672 C120.37377502 151.85312469 121.25438599 150.97236267 122.16168213 150.06491089 C123.11310431 149.10327649 124.06441603 148.1415328 125.015625 147.1796875 C125.99596129 146.19561893 126.97674168 145.21199258 127.95794678 144.22879028 C130.53354467 141.64557286 133.10307857 139.05640488 135.67138672 136.46594238 C138.29551067 133.8213238 140.92533771 131.1823899 143.5546875 128.54296875 C148.7087167 123.36751928 153.85635157 118.18576878 159 113 C157.49484133 109.48109194 155.45879258 107.20556035 152.765625 104.50683594 C151.89131836 103.62622498 151.01701172 102.74561401 150.11621094 101.83831787 C149.16106205 100.8867478 148.20565216 99.93543964 147.25 98.984375 C146.27086602 98.00389341 145.29202907 97.02311513 144.31347656 96.04205322 C142.26560571 93.99123841 140.21417216 91.94407365 138.16015625 89.89941406 C135.52359985 87.27428192 132.89616355 84.64023305 130.27130127 82.00341415 C128.25380379 79.9787041 126.23158501 77.95876392 124.20788574 75.94025421 C123.23674562 74.97045069 122.26709572 73.99915258 121.2989502 73.02635956 C119.94892166 71.67127264 118.59182027 70.32324314 117.234375 68.97558594 C116.46319336 68.20599548 115.69201172 67.43640503 114.89746094 66.64349365 C112.24258583 64.34396258 111.64672928 64.4315577 109.01315308 66.74633789 Z " fill="#FFFFFF" transform="translate(272,272)"/>
<path d="M0 0 C1.84396323 0.00141253 3.68792927 0.0006145 5.53189087 -0.00221252 C10.50860357 -0.00364009 15.4847069 0.02564239 20.46127868 0.06065726 C25.67290979 0.09203125 30.88455672 0.09486019 36.0962677 0.1007843 C45.95229898 0.11629037 55.80805113 0.15727494 65.6639598 0.20753175 C76.89008029 0.26352611 88.11621451 0.29093707 99.34244001 0.31600893 C122.42351612 0.36819372 145.50434492 0.45607289 168.58520508 0.56762695 C168.72554816 24.74206248 168.83126093 48.91643669 168.89607811 73.09119797 C168.92697774 84.31671542 168.96908388 95.54197931 169.0378418 106.76733398 C169.09776292 116.55469191 169.1363825 126.34186613 169.14973605 136.1294024 C169.15753827 141.30890925 169.17579396 146.48789072 169.21958542 151.6672287 C169.26052739 156.54943503 169.27283073 161.43090314 169.26385117 166.31326485 C169.2654922 168.09820388 169.27729811 169.88316943 169.30043793 171.66795921 C169.4520863 183.97581856 167.86108909 192.54319566 160.24267578 202.68652344 C159.1379895 203.80136108 159.1379895 203.80136108 158.01098633 204.9387207 C157.17760742 205.77983398 156.34422852 206.62094727 155.4855957 207.48754883 C154.6315918 208.31834961 153.77758789 209.14915039 152.89770508 210.00512695 C152.06303711 210.86299805 151.22836914 211.72086914 150.3684082 212.60473633 C149.52858398 213.43682617 148.68875977 214.26891602 147.82348633 215.1262207 C147.08138916 215.86155029 146.33929199 216.59687988 145.57470703 217.35449219 C136.44365188 224.11423207 127.89015507 225.30534876 116.75732422 225.23046875 C115.29734498 225.23890028 113.83737662 225.24943346 112.37742615 225.2618866 C108.44331697 225.28875815 104.50984655 225.28428128 100.57568669 225.27218604 C97.27819389 225.26501399 93.9808162 225.27358153 90.68333238 225.28209144 C82.89799338 225.30198851 75.11296184 225.29653735 67.32763672 225.27441406 C59.32427503 225.25205613 51.32172026 225.26965395 43.31843477 225.30746335 C36.41950665 225.33879767 29.52082697 225.34658311 22.6218366 225.3355096 C18.51342992 225.32905456 14.40548826 225.33086985 10.29713631 225.3548336 C6.43152016 225.37623711 2.56703319 225.36791461 -1.29851341 225.33773994 C-2.70768711 225.33146431 -4.11695041 225.3351467 -5.5260582 225.35015106 C-16.65294582 225.45892568 -24.61823559 222.92128541 -33.53369141 216.22509766 C-34.64852905 215.12041138 -34.64852905 215.12041138 -35.78588867 213.9934082 C-37.04755859 212.74333984 -37.04755859 212.74333984 -38.3347168 211.46801758 C-39.16551758 210.61401367 -39.99631836 209.76000977 -40.85229492 208.88012695 C-41.71016602 208.04545898 -42.56803711 207.21079102 -43.4519043 206.35083008 C-44.28399414 205.51100586 -45.11608398 204.67118164 -45.97338867 203.8059082 C-46.70871826 203.06381104 -47.44404785 202.32171387 -48.20166016 201.55712891 C-54.96140004 192.42607376 -56.15251673 183.87257694 -56.07763672 172.73974609 C-56.08606825 171.27976686 -56.09660143 169.8197985 -56.10905457 168.35984802 C-56.13592612 164.42573884 -56.13144925 160.49226842 -56.11935401 156.55810857 C-56.11218196 153.26061577 -56.1207495 149.96323808 -56.12925941 146.66575426 C-56.14915648 138.88041525 -56.14370532 131.09538372 -56.12158203 123.31005859 C-56.0992241 115.30669691 -56.11682191 107.30414214 -56.15463132 99.30085665 C-56.18596564 92.40192852 -56.19375108 85.50324885 -56.18267757 78.60425848 C-56.17622253 74.49585179 -56.17803782 70.38791014 -56.20200157 66.27955818 C-56.22340508 62.41394204 -56.21508258 58.54945506 -56.18490791 54.68390846 C-56.17863228 53.27473477 -56.18231467 51.86547146 -56.19731903 50.45636368 C-56.30609365 39.32947606 -53.76845338 31.36418628 -47.07226562 22.44873047 C-46.33580811 21.70550537 -45.59935059 20.96228027 -44.84057617 20.1965332 C-44.00719727 19.35541992 -43.17381836 18.51430664 -42.31518555 17.64770508 C-41.46118164 16.8169043 -40.60717773 15.98610352 -39.72729492 15.13012695 C-38.89262695 14.27225586 -38.05795898 13.41438477 -37.19799805 12.53051758 C-35.93826172 11.28238281 -35.93826172 11.28238281 -34.65307617 10.0090332 C-33.53993042 8.90603882 -33.53993042 8.90603882 -32.40429688 7.78076172 C-21.99686441 0.07611694 -12.42072517 -0.13390633 0 0 Z M53.59835815 67.31396484 C52.78561432 68.1311499 51.97287048 68.94833496 51.13549805 69.7902832 C50.21469452 70.71123779 49.29389099 71.63219238 48.34518433 72.58105469 C47.33914705 73.5973065 46.33321905 74.6136665 45.32739258 75.63012695 C44.29935558 76.66189285 43.27087703 77.69321895 42.24197388 78.72412109 C39.53155402 81.4421871 36.82719283 84.16620521 34.12402344 86.89147949 C31.36599991 89.66994032 28.60232511 92.44276705 25.83911133 95.21606445 C20.41557583 100.66106718 14.99842453 106.11236623 9.58520508 111.56762695 C11.09205475 115.10001719 13.1388712 117.36384355 15.85131836 120.06079102 C16.73208038 120.94140198 17.61284241 121.82201294 18.52029419 122.72930908 C19.48192859 123.68073126 20.44367228 124.63204298 21.40551758 125.58325195 C22.38958615 126.56358825 23.3732125 127.54436863 24.35641479 128.52557373 C26.93963222 131.10117162 29.5288002 133.67070553 32.1192627 136.23901367 C34.76388127 138.86313762 37.40281518 141.49296466 40.04223633 144.12231445 C45.2176858 149.27634366 50.3994363 154.42397852 55.58520508 159.56762695 C59.11759531 158.06077728 61.38142167 156.01396084 64.07836914 153.30151367 C64.9589801 152.42075165 65.83959106 151.53998962 66.74688721 150.63253784 C67.69830939 149.67090345 68.64962111 148.70915975 69.60083008 147.74731445 C70.58116637 146.76324588 71.56194676 145.77961954 72.54315186 144.79641724 C75.11874975 142.21319981 77.68828365 139.62403183 80.2565918 137.03356934 C82.88071575 134.38895076 85.51054279 131.75001686 88.13989258 129.1105957 C93.29392178 123.93514623 98.44155665 118.75339573 103.58520508 113.56762695 C102.08004641 110.04871889 100.04399765 107.77318731 97.35083008 105.07446289 C96.47652344 104.19385193 95.6022168 103.31324097 94.70141602 102.40594482 C93.74626712 101.45437475 92.79085724 100.50306659 91.83520508 99.55200195 C90.8560711 98.57152037 89.87723415 97.59074208 88.89868164 96.60968018 C86.85081078 94.55886536 84.79937724 92.5117006 82.74536133 90.46704102 C80.10880493 87.84190888 77.48136863 85.20786 74.85650635 82.57104111 C72.83900886 80.54633105 70.81679009 78.52639087 68.79309082 76.50788116 C67.82195069 75.53807765 66.85230079 74.56677953 65.88415527 73.59398651 C64.53412674 72.23889959 63.17702535 70.8908701 61.81958008 69.54321289 C61.04839844 68.77362244 60.2772168 68.00403198 59.48266602 67.21112061 C56.82779091 64.91158953 56.23193436 64.99918465 53.59835815 67.31396484 Z " fill="#FFFFFF" transform="translate(71.414794921875,271.432373046875)"/>
<path d="M0 0 C1.45997924 -0.00843153 2.9199476 -0.01896471 4.37989807 -0.03141785 C8.31400725 -0.0582894 12.24747767 -0.05381253 16.18163753 -0.04171729 C19.47913033 -0.03454524 22.77650802 -0.04311278 26.07399184 -0.05162269 C33.85933084 -0.07151976 41.64436238 -0.0660686 49.4296875 -0.04394531 C57.43304919 -0.02158738 65.43560396 -0.0391852 73.43888944 -0.0769946 C80.33781757 -0.10832892 87.23649725 -0.11611436 94.13548762 -0.10504085 C98.2438943 -0.09858581 102.35183596 -0.1004011 106.46018791 -0.12436485 C110.32580405 -0.14576836 114.19029103 -0.13744586 118.05583763 -0.10727119 C119.46501132 -0.10099556 120.87427463 -0.10467795 122.28338242 -0.11968231 C133.41027004 -0.22845693 141.37555981 2.30918334 150.29101562 9.00537109 C151.03424072 9.74182861 151.77746582 10.47828613 152.54321289 11.23706055 C153.38432617 12.07043945 154.22543945 12.90381836 155.09204102 13.76245117 C155.9228418 14.61645508 156.75364258 15.47045898 157.60961914 16.3503418 C158.46749023 17.18500977 159.32536133 18.01967773 160.20922852 18.87963867 C161.45736328 20.139375 161.45736328 20.139375 162.73071289 21.42456055 C163.46604248 22.16665771 164.20137207 22.90875488 164.95898438 23.67333984 C171.71872426 32.80439499 172.90984095 41.35789181 172.83496094 52.49072266 C172.84339247 53.95070189 172.85392565 55.41067025 172.86637878 56.87062073 C172.89325034 60.80472991 172.88877347 64.73820033 172.87667823 68.67236018 C172.86950617 71.96985298 172.87807371 75.26723067 172.88658363 78.56471449 C172.9064807 86.3500535 172.90102954 94.13508503 172.87890625 101.92041016 C172.85654832 109.92377184 172.87414613 117.92632661 172.91195554 125.9296121 C172.94328986 132.82854023 172.9510753 139.7272199 172.94000179 146.62621027 C172.93354675 150.73461696 172.93536204 154.84255861 172.95932579 158.95091057 C172.9807293 162.81652671 172.9724068 166.68101369 172.94223213 170.54656029 C172.9359565 171.95573398 172.93963889 173.36499729 172.95464325 174.77410507 C173.06341787 185.90099269 170.5257776 193.86628247 163.82958984 202.78173828 C162.72490356 203.89657593 162.72490356 203.89657593 161.59790039 205.03393555 C160.76452148 205.87504883 159.93114258 206.71616211 159.07250977 207.58276367 C158.21850586 208.41356445 157.36450195 209.24436523 156.48461914 210.1003418 C155.64995117 210.95821289 154.8152832 211.81608398 153.95532227 212.69995117 C153.11549805 213.53204102 152.27567383 214.36413086 151.41040039 215.22143555 C150.66830322 215.95676514 149.92620605 216.69209473 149.16162109 217.44970703 C138.75418863 225.15435181 129.17804939 225.36437508 116.75732422 225.23046875 C114.91336099 225.22905622 113.06939495 225.22985425 111.22543335 225.23268127 C106.24872065 225.23410884 101.27261732 225.20482636 96.29604554 225.16981149 C91.08441443 225.1384375 85.8727675 225.13560856 80.66105652 225.12968445 C70.80502524 225.11417838 60.94927309 225.07319381 51.09336442 225.022937 C39.86724392 224.96694264 28.64110971 224.93953168 17.41488421 224.91445982 C-5.6661919 224.86227503 -28.7470207 224.77439586 -51.82788086 224.6628418 C-51.96822394 200.48840627 -52.07393671 176.31403206 -52.13875389 152.13927078 C-52.16965352 140.91375333 -52.21175967 129.68848944 -52.28051758 118.46313477 C-52.3404387 108.67577684 -52.37905829 98.88860262 -52.39241183 89.10106635 C-52.40021405 83.9215595 -52.41846974 78.74257803 -52.4622612 73.56324005 C-52.50320317 68.68103372 -52.51550651 63.79956561 -52.50652695 58.9172039 C-52.50816798 57.13226487 -52.51997389 55.34729932 -52.54311371 53.56250954 C-52.69476208 41.25465019 -51.10376487 32.68727309 -43.48535156 22.54394531 C-42.74889404 21.80072021 -42.01243652 21.05749512 -41.25366211 20.29174805 C-40.4202832 19.45063477 -39.5869043 18.60952148 -38.72827148 17.74291992 C-37.87426758 16.91211914 -37.02026367 16.08131836 -36.14038086 15.2253418 C-35.30571289 14.3674707 -34.47104492 13.50959961 -33.61108398 12.62573242 C-32.35134766 11.37759766 -32.35134766 11.37759766 -31.06616211 10.10424805 C-29.95301636 9.00125366 -29.95301636 9.00125366 -28.81738281 7.87597656 C-19.68632767 1.11623668 -11.13283085 -0.07488001 0 0 Z M57.18527222 67.40917969 C56.37252838 68.22636475 55.55978455 69.0435498 54.72241211 69.88549805 C53.80160858 70.80645264 52.88080505 71.72740723 51.93209839 72.67626953 C50.92606111 73.69252134 49.92013312 74.70888135 48.91430664 75.7253418 C47.88626965 76.75710769 46.85779109 77.7884338 45.82888794 78.81933594 C43.11846809 81.53740195 40.41410689 84.26142005 37.7109375 86.98669434 C34.95291397 89.76515516 32.18923917 92.53798189 29.42602539 95.3112793 C24.00248989 100.75628203 18.58533859 106.20758107 13.17211914 111.6628418 C14.67896882 115.19523203 16.72578526 117.45905839 19.43823242 120.15600586 C20.31899445 121.03661682 21.19975647 121.91722778 22.10720825 122.82452393 C23.06884265 123.77594611 24.03058634 124.72725783 24.99243164 125.6784668 C25.97650021 126.65880309 26.96012656 127.63958348 27.94332886 128.62078857 C30.52654628 131.19638646 33.11571426 133.76592037 35.70617676 136.33422852 C38.35079534 138.95835247 40.98972924 141.58817951 43.62915039 144.2175293 C48.80459986 149.3715585 53.98635036 154.51919336 59.17211914 159.6628418 C62.70450937 158.15599212 64.96833574 156.10917568 67.6652832 153.39672852 C68.54589417 152.51596649 69.42650513 151.63520447 70.33380127 150.72775269 C71.28522345 149.76611829 72.23653517 148.80437459 73.18774414 147.8425293 C74.16808043 146.85846073 75.14886082 145.87483438 76.13006592 144.89163208 C78.70566381 142.30841466 81.27519771 139.71924668 83.84350586 137.12878418 C86.46762981 134.4841656 89.09745685 131.8452317 91.72680664 129.20581055 C96.88083584 124.03036108 102.02847071 118.84861057 107.17211914 113.6628418 C105.66696047 110.14393374 103.63091172 107.86840215 100.93774414 105.16967773 C100.0634375 104.28906677 99.18913086 103.40845581 98.28833008 102.50115967 C97.33318119 101.5495896 96.3777713 100.59828144 95.42211914 99.6472168 C94.44298517 98.66673521 93.46414822 97.68595693 92.4855957 96.70489502 C90.43772485 94.65408021 88.3862913 92.60691544 86.33227539 90.56225586 C83.69571899 87.93712372 81.06828269 85.30307484 78.44342041 82.66625595 C76.42592293 80.6415459 74.40370415 78.62160571 72.38000488 76.60309601 C71.40886476 75.63329249 70.43921486 74.66199437 69.47106934 73.68920135 C68.1210408 72.33411443 66.76393941 70.98608494 65.40649414 69.63842773 C64.6353125 68.86883728 63.86413086 68.09924683 63.06958008 67.30633545 C60.41470497 65.00680438 59.81884842 65.09439949 57.18527222 67.40917969 Z " fill="#FFFFFF" transform="translate(323.827880859375,15.337158203125)"/>
<path d="M0 0 C1.45997924 -0.00843153 2.9199476 -0.01896471 4.37989807 -0.03141785 C8.31400725 -0.0582894 12.24747767 -0.05381253 16.18163753 -0.04171729 C19.47913033 -0.03454524 22.77650802 -0.04311278 26.07399184 -0.05162269 C33.85933084 -0.07151976 41.64436238 -0.0660686 49.4296875 -0.04394531 C57.43304919 -0.02158738 65.43560396 -0.0391852 73.43888944 -0.0769946 C80.33781757 -0.10832892 87.23649725 -0.11611436 94.13548762 -0.10504085 C98.2438943 -0.09858581 102.35183596 -0.1004011 106.46018791 -0.12436485 C110.32580405 -0.14576836 114.19029103 -0.13744586 118.05583763 -0.10727119 C119.46501132 -0.10099556 120.87427463 -0.10467795 122.28338242 -0.11968231 C133.41027004 -0.22845693 141.37555981 2.30918334 150.29101562 9.00537109 C151.03424072 9.74182861 151.77746582 10.47828613 152.54321289 11.23706055 C153.38432617 12.07043945 154.22543945 12.90381836 155.09204102 13.76245117 C155.9228418 14.61645508 156.75364258 15.47045898 157.60961914 16.3503418 C158.46749023 17.18500977 159.32536133 18.01967773 160.20922852 18.87963867 C161.45736328 20.139375 161.45736328 20.139375 162.73071289 21.42456055 C163.46604248 22.16665771 164.20137207 22.90875488 164.95898438 23.67333984 C172.66362915 34.08077231 172.87365243 43.65691155 172.73974609 56.07763672 C172.73833356 57.92159995 172.7391316 59.76556598 172.74195862 61.60952759 C172.74338618 66.58624029 172.71410371 71.56234362 172.67908883 76.5389154 C172.64771484 81.75054651 172.64488591 86.96219344 172.63896179 92.17390442 C172.62345572 102.0299357 172.58247115 111.88568784 172.53221434 121.74159652 C172.47621998 132.96771701 172.44880902 144.19385123 172.42373717 155.42007673 C172.37155237 178.50115284 172.28367321 201.58198164 172.17211914 224.6628418 C147.99768361 224.80318488 123.8233094 224.90889765 99.64854813 224.97371483 C88.42303068 225.00461446 77.19776678 225.0467206 65.97241211 225.11547852 C56.18505419 225.17539964 46.39787996 225.21401922 36.61034369 225.22737277 C31.43083685 225.23517499 26.25185538 225.25343068 21.0725174 225.29722214 C16.19031107 225.33816411 11.30884295 225.35046744 6.42648125 225.34148788 C4.64154222 225.34312891 2.85657667 225.35493483 1.07178688 225.37807465 C-11.23607246 225.52972302 -19.80344957 223.93872581 -29.94677734 216.3203125 C-31.06161499 215.21562622 -31.06161499 215.21562622 -32.19897461 214.08862305 C-33.46064453 212.83855469 -33.46064453 212.83855469 -34.74780273 211.56323242 C-35.57860352 210.70922852 -36.4094043 209.85522461 -37.26538086 208.9753418 C-38.12325195 208.14067383 -38.98112305 207.30600586 -39.86499023 206.44604492 C-40.69708008 205.6062207 -41.52916992 204.76639648 -42.38647461 203.90112305 C-43.1218042 203.15902588 -43.85713379 202.41692871 -44.61474609 201.65234375 C-51.37448598 192.5212886 -52.56560266 183.96779178 -52.49072266 172.83496094 C-52.49915419 171.3749817 -52.50968737 169.91501334 -52.5221405 168.45506287 C-52.54901205 164.52095369 -52.54453519 160.58748327 -52.53243995 156.65332341 C-52.52526789 153.35583061 -52.53383543 150.05845292 -52.54234535 146.7609691 C-52.56224242 138.9756301 -52.55679126 131.19059856 -52.53466797 123.40527344 C-52.51231004 115.40191175 -52.52990785 107.39935698 -52.56771725 99.39607149 C-52.59905158 92.49714337 -52.60683702 85.59846369 -52.5957635 78.69947332 C-52.58930846 74.59106664 -52.59112376 70.48312498 -52.61508751 66.37477303 C-52.63649102 62.50915688 -52.62816852 58.6446699 -52.59799385 54.77912331 C-52.59171822 53.36994961 -52.59540061 51.96068631 -52.61040497 50.55157852 C-52.71917959 39.4246909 -50.18153931 31.45940113 -43.48535156 22.54394531 C-42.74889404 21.80072021 -42.01243652 21.05749512 -41.25366211 20.29174805 C-40.4202832 19.45063477 -39.5869043 18.60952148 -38.72827148 17.74291992 C-37.87426758 16.91211914 -37.02026367 16.08131836 -36.14038086 15.2253418 C-35.30571289 14.3674707 -34.47104492 13.50959961 -33.61108398 12.62573242 C-32.35134766 11.37759766 -32.35134766 11.37759766 -31.06616211 10.10424805 C-29.95301636 9.00125366 -29.95301636 9.00125366 -28.81738281 7.87597656 C-19.68632767 1.11623668 -11.13283085 -0.07488001 0 0 Z M57.18527222 67.40917969 C56.37252838 68.22636475 55.55978455 69.0435498 54.72241211 69.88549805 C53.80160858 70.80645264 52.88080505 71.72740723 51.93209839 72.67626953 C50.92606111 73.69252134 49.92013312 74.70888135 48.91430664 75.7253418 C47.88626965 76.75710769 46.85779109 77.7884338 45.82888794 78.81933594 C43.11846809 81.53740195 40.41410689 84.26142005 37.7109375 86.98669434 C34.95291397 89.76515516 32.18923917 92.53798189 29.42602539 95.3112793 C24.00248989 100.75628203 18.58533859 106.20758107 13.17211914 111.6628418 C14.67896882 115.19523203 16.72578526 117.45905839 19.43823242 120.15600586 C20.31899445 121.03661682 21.19975647 121.91722778 22.10720825 122.82452393 C23.06884265 123.77594611 24.03058634 124.72725783 24.99243164 125.6784668 C25.97650021 126.65880309 26.96012656 127.63958348 27.94332886 128.62078857 C30.52654628 131.19638646 33.11571426 133.76592037 35.70617676 136.33422852 C38.35079534 138.95835247 40.98972924 141.58817951 43.62915039 144.2175293 C48.80459986 149.3715585 53.98635036 154.51919336 59.17211914 159.6628418 C62.70450937 158.15599212 64.96833574 156.10917568 67.6652832 153.39672852 C68.54589417 152.51596649 69.42650513 151.63520447 70.33380127 150.72775269 C71.28522345 149.76611829 72.23653517 148.80437459 73.18774414 147.8425293 C74.16808043 146.85846073 75.14886082 145.87483438 76.13006592 144.89163208 C78.70566381 142.30841466 81.27519771 139.71924668 83.84350586 137.12878418 C86.46762981 134.4841656 89.09745685 131.8452317 91.72680664 129.20581055 C96.88083584 124.03036108 102.02847071 118.84861057 107.17211914 113.6628418 C105.66696047 110.14393374 103.63091172 107.86840215 100.93774414 105.16967773 C100.0634375 104.28906677 99.18913086 103.40845581 98.28833008 102.50115967 C97.33318119 101.5495896 96.3777713 100.59828144 95.42211914 99.6472168 C94.44298517 98.66673521 93.46414822 97.68595693 92.4855957 96.70489502 C90.43772485 94.65408021 88.3862913 92.60691544 86.33227539 90.56225586 C83.69571899 87.93712372 81.06828269 85.30307484 78.44342041 82.66625595 C76.42592293 80.6415459 74.40370415 78.62160571 72.38000488 76.60309601 C71.40886476 75.63329249 70.43921486 74.66199437 69.47106934 73.68920135 C68.1210408 72.33411443 66.76393941 70.98608494 65.40649414 69.63842773 C64.6353125 68.86883728 63.86413086 68.09924683 63.06958008 67.30633545 C60.41470497 65.00680438 59.81884842 65.09439949 57.18527222 67.40917969 Z " fill="#FFFFFF" transform="translate(67.827880859375,15.337158203125)"/>
</svg>
