<?xml version="1.0" encoding="UTF-8"?>
<svg version="1.1" xmlns="http://www.w3.org/2000/svg" width="2048" height="2048">
<path d="M0 0 C2.5062359 -0.00343676 5.01247029 -0.00818575 7.51870152 -0.01412097 C12.96580767 -0.02401002 18.41279239 -0.02465833 23.85989998 -0.01704793 C32.01443705 -0.00570958 40.16889965 -0.01177535 48.32343599 -0.02111193 C62.2243476 -0.03651902 76.12522786 -0.03772762 90.02614498 -0.0311327 C104.10836119 -0.02449993 118.19055502 -0.02438629 132.27277088 -0.03217983 C133.16305434 -0.03266783 134.05333779 -0.03315583 134.97059953 -0.03365862 C138.59674162 -0.03566685 142.22288367 -0.03771996 145.8490257 -0.03983036 C182.64019829 -0.06121998 219.43135433 -0.06328681 256.22253158 -0.05777332 C261.30457045 -0.05701759 266.38660932 -0.05628997 271.4686482 -0.05559134 C272.47808655 -0.05545225 273.4875249 -0.05531316 274.52755229 -0.05516986 C296.90518775 -0.05221669 319.28282123 -0.05523122 341.66045634 -0.05948763 C344.72372344 -0.06006979 347.78699054 -0.06063864 350.85025765 -0.06120327 C359.06198001 -0.06271824 367.27370238 -0.06424515 375.48542474 -0.06579627 C432.80520718 -0.07655194 490.12498777 -0.0812559 547.44477081 -0.07332611 C548.52508963 -0.0731778 549.60540844 -0.0730295 550.71846419 -0.0728767 C562.76500128 -0.07121772 574.81153835 -0.06946814 586.85807542 -0.06768369 C588.48949426 -0.06744215 588.48949426 -0.06744215 590.15387105 -0.06719574 C598.98007329 -0.06588805 598.98007329 -0.06588805 603.34903545 -0.06523455 C672.92052634 -0.05484265 742.49199193 -0.06261074 812.06347942 -0.086236 C829.59459364 -0.09217945 847.12570787 -0.09807103 864.6568222 -0.10364532 C866.27603242 -0.10416098 866.27603242 -0.10416098 867.92795395 -0.10468705 C901.19920443 -0.11521509 934.47045279 -0.12080844 967.74170494 -0.12120247 C968.78630886 -0.12121525 969.83091279 -0.12122803 970.90717137 -0.1212412 C993.83884228 -0.1214695 1016.77051301 -0.12046336 1039.70218382 -0.11833215 C1047.90749934 -0.11757739 1056.11281486 -0.11689918 1064.31813038 -0.116252 C1066.35938031 -0.11608931 1068.40063024 -0.11592164 1070.44188017 -0.11574898 C1102.96089068 -0.11302831 1135.47988583 -0.12157983 1167.99889304 -0.13560309 C1201.66181596 -0.15001321 1235.32470967 -0.14955753 1268.9876316 -0.13222837 C1272.60390425 -0.13042421 1276.22017692 -0.12868402 1279.83644962 -0.12699413 C1280.72393566 -0.12657363 1281.61142169 -0.12615313 1282.52580124 -0.12571989 C1296.56767286 -0.11942675 1310.6095043 -0.12651905 1324.65137027 -0.13920333 C1338.46502845 -0.15139801 1352.27862334 -0.14926455 1366.09227675 -0.13198302 C1374.1860487 -0.12228092 1382.27964063 -0.12341408 1390.37340071 -0.140813 C1396.39071303 -0.15251704 1402.40780459 -0.14323938 1408.42511133 -0.12596715 C1410.83798767 -0.12224257 1413.25088616 -0.12515969 1415.66374243 -0.13568023 C1457.96278736 -0.30735028 1489.76792468 14.99598097 1519.60010052 44.58153439 C1522.96107611 47.92367015 1526.31561405 51.27221619 1529.6696806 54.62128353 C1531.52664635 56.47197527 1533.38379859 58.3224799 1535.24112225 60.17281246 C1540.78730599 65.69937296 1546.32877072 71.23065318 1551.86960936 76.76257178 C1553.96200068 78.85144542 1556.05470546 80.94000486 1558.14742595 83.02854871 C1567.39174771 92.2544246 1576.63472119 101.48164881 1585.87367535 110.71290016 C1588.12695654 112.96427196 1590.38024324 115.21563824 1592.63354778 117.46698666 C1593.47345581 118.30616908 1593.47345581 118.30616908 1594.33033168 119.16230468 C1603.40155707 128.22522913 1612.481273 137.27959712 1621.56456649 146.33042469 C1630.9176659 155.65036888 1640.26313804 164.97790689 1649.60126877 174.31284934 C1654.8334808 179.54290524 1660.06887538 184.76968211 1665.31283855 189.98795795 C1670.24686763 194.89787072 1675.17043256 199.81807203 1680.08729458 204.74517536 C1681.88566376 206.54403787 1683.68741393 208.33952819 1685.49291134 210.13123608 C1697.68304605 222.23351136 1708.58670886 234.22324986 1716.50171185 249.63031673 C1716.91300335 250.42478207 1717.32429485 251.2192474 1717.74804974 252.03778744 C1720.45281286 257.42019693 1722.75003294 262.86537966 1724.68921185 268.56781673 C1725.02324017 269.54379818 1725.02324017 269.54379818 1725.36401653 270.53949642 C1730.34668117 286.33200976 1730.68194201 301.72153995 1730.63202858 318.12860489 C1730.63546534 320.63484079 1730.64021433 323.14107518 1730.64614955 325.64730641 C1730.6560386 331.09441256 1730.65668691 336.54139728 1730.64907651 341.98850486 C1730.63773816 350.14304194 1730.64380393 358.29750454 1730.65314051 366.45204088 C1730.6685476 380.35295248 1730.6697562 394.25383275 1730.66316128 408.15474987 C1730.65652851 422.23696608 1730.65641487 436.3191599 1730.66420841 450.40137577 C1730.66469641 451.29165923 1730.66518441 452.18194268 1730.66568719 453.09920442 C1730.66769543 456.7253465 1730.66974854 460.35148856 1730.67185894 463.97763059 C1730.69324856 500.76880318 1730.69531539 537.55995922 1730.6898019 574.35113647 C1730.68904617 579.43317534 1730.68831855 584.51521421 1730.68761992 589.59725308 C1730.68748083 590.60669143 1730.68734174 591.61612979 1730.68719844 592.65615718 C1730.68424527 615.03379264 1730.6872598 637.41142612 1730.69151621 659.78906123 C1730.69209837 662.85232833 1730.69266722 665.91559543 1730.69323185 668.97886253 C1730.69474682 677.1905849 1730.69627373 685.40230727 1730.69782485 693.61402963 C1730.70858052 750.93381207 1730.71328448 808.25359266 1730.70535469 865.5733757 C1730.70520638 866.65369452 1730.70505808 867.73401333 1730.70490528 868.84706908 C1730.7032463 880.89360617 1730.70149672 892.94014324 1730.69971227 904.98668031 C1730.69955124 906.07429287 1730.69939022 907.16190543 1730.69922432 908.28247594 C1730.69791663 917.10867822 1730.69791663 917.10867822 1730.69726313 921.47764034 C1730.68687123 991.04913123 1730.69463932 1060.62059681 1730.71826458 1130.19208431 C1730.72420803 1147.72319853 1730.73009961 1165.25431276 1730.7356739 1182.78542709 C1730.73618956 1184.40463731 1730.73618956 1184.40463731 1730.73671563 1186.05655884 C1730.74724367 1219.32780932 1730.75283702 1252.59905768 1730.75323105 1285.87030983 C1730.75324383 1286.91491375 1730.75325661 1287.95951767 1730.75326978 1289.03577626 C1730.75349808 1311.96744717 1730.75249194 1334.8991179 1730.75036073 1357.83078871 C1730.74960597 1366.03610422 1730.74892776 1374.24141975 1730.74828058 1382.44673527 C1730.74811789 1384.4879852 1730.74795022 1386.52923513 1730.74777756 1388.57048506 C1730.74505689 1421.08949557 1730.75360841 1453.60849072 1730.76763167 1486.12749793 C1730.78204179 1519.79042084 1730.78158611 1553.45331456 1730.76425695 1587.11623649 C1730.76245279 1590.73250913 1730.76071259 1594.34878181 1730.75902271 1597.96505451 C1730.75860221 1598.85254054 1730.75818171 1599.74002658 1730.75774847 1600.65440612 C1730.75145533 1614.69627775 1730.75854763 1628.73810919 1730.77123191 1642.77997516 C1730.78342659 1656.59363334 1730.78129313 1670.40722823 1730.7640116 1684.22088164 C1730.7543095 1692.31465359 1730.75544266 1700.40824552 1730.77284158 1708.5020056 C1730.78454562 1714.51931792 1730.77526796 1720.53640948 1730.75799573 1726.55371622 C1730.75427115 1728.96659255 1730.75718826 1731.37949105 1730.76770881 1733.79234732 C1730.93937886 1776.09139225 1715.63604761 1807.89652957 1686.05049419 1837.72870541 C1682.70835843 1841.089681 1679.35981239 1844.44421894 1676.01074505 1847.79828548 C1674.16005331 1849.65525124 1672.30954868 1851.51240348 1670.45921612 1853.36972713 C1664.93265562 1858.91591088 1659.4013754 1864.45737561 1653.8694568 1869.99821424 C1651.78058316 1872.09060557 1649.69202372 1874.18331034 1647.60347987 1876.27603084 C1638.37760398 1885.5203526 1629.15037977 1894.76332607 1619.91912842 1904.00228024 C1617.66775662 1906.25556143 1615.41639034 1908.50884813 1613.16504192 1910.76215267 C1612.60558698 1911.32209136 1612.04613203 1911.88203005 1611.4697239 1912.45893657 C1602.40679945 1921.53016196 1593.35243146 1930.60987789 1584.30160389 1939.69317138 C1574.98165969 1949.04627079 1565.65412169 1958.39174293 1556.31917924 1967.72987366 C1551.08912334 1972.96208569 1545.86234647 1978.19748027 1540.64407063 1983.44144344 C1535.73415786 1988.37547252 1530.81395655 1993.29903745 1525.88685322 1998.21589947 C1524.08799071 2000.01426865 1522.29250039 2001.81601882 1520.5007925 2003.62151623 C1508.39851722 2015.81165094 1496.40877872 2026.71531375 1481.00171185 2034.63031673 C1480.20724651 2035.04160824 1479.41278118 2035.45289974 1478.59424114 2035.87665462 C1473.21183165 2038.58141775 1467.76664892 2040.87863782 1462.06421185 2042.81781673 C1461.41355755 2043.04050228 1460.76290325 2043.26318783 1460.09253216 2043.49262142 C1444.30001882 2048.47528606 1428.91048863 2048.8105469 1412.50342369 2048.76063347 C1409.99718779 2048.76407023 1407.4909534 2048.76881921 1404.98472217 2048.77475443 C1399.53761602 2048.78464349 1394.0906313 2048.7852918 1388.64352372 2048.7776814 C1380.48898664 2048.76634305 1372.33452404 2048.77240882 1364.1799877 2048.78174539 C1350.27907609 2048.79715249 1336.37819583 2048.79836109 1322.47727871 2048.79176617 C1308.3950625 2048.7851334 1294.31286867 2048.78501976 1280.23065281 2048.7928133 C1279.34036935 2048.7933013 1278.4500859 2048.7937893 1277.53282416 2048.79429208 C1273.90668208 2048.79630032 1270.28054002 2048.79835343 1266.65439799 2048.80046383 C1229.8632254 2048.82185345 1193.07206936 2048.82392028 1156.28089211 2048.81840679 C1151.19885324 2048.81765106 1146.11681437 2048.81692344 1141.0347755 2048.81622481 C1140.02533715 2048.81608572 1139.01589879 2048.81594663 1137.9758714 2048.81580332 C1115.59823594 2048.81285015 1093.22060246 2048.81586469 1070.84296735 2048.8201211 C1067.77970025 2048.82070326 1064.71643315 2048.8212721 1061.65316604 2048.82183673 C1053.44144368 2048.82335171 1045.22972131 2048.82487862 1037.01799895 2048.82642974 C979.69821651 2048.83718541 922.37843592 2048.84188937 865.05865288 2048.83395958 C863.97833406 2048.83381127 862.89801525 2048.83366297 861.7849595 2048.83351017 C849.73842241 2048.83185119 837.69188534 2048.8301016 825.64534827 2048.82831716 C824.55773571 2048.82815613 823.47012315 2048.82799511 822.34955264 2048.8278292 C813.52335036 2048.82652152 813.52335036 2048.82652152 809.15438824 2048.82586801 C739.58289735 2048.81547612 670.01143177 2048.82324421 600.43994427 2048.84686947 C582.90883005 2048.85281292 565.37771582 2048.8587045 547.84660149 2048.86427879 C546.76712801 2048.86462256 545.68765453 2048.86496633 544.57546974 2048.86532052 C511.30421926 2048.87584856 478.0329709 2048.88144191 444.76171875 2048.88183594 C443.71711483 2048.88184872 442.67251091 2048.8818615 441.59625232 2048.88187467 C418.66458141 2048.88210297 395.73291068 2048.88109683 372.80123987 2048.87896562 C364.59592435 2048.87821086 356.39060883 2048.87753265 348.18529331 2048.87688547 C346.14404338 2048.87672278 344.10279345 2048.87655511 342.06154352 2048.87638245 C309.54253301 2048.87366178 277.02353786 2048.8822133 244.50453065 2048.89623656 C210.84160774 2048.91064667 177.17871402 2048.91019099 143.51579209 2048.89286184 C139.89951945 2048.89105768 136.28324677 2048.88931748 132.66697407 2048.8876276 C131.77948804 2048.8872071 130.892002 2048.8867866 129.97762245 2048.88635336 C115.93575083 2048.88006022 101.89391939 2048.88715252 87.85205342 2048.8998368 C74.03839524 2048.91203148 60.22480035 2048.90989802 46.41114694 2048.89261649 C38.31737499 2048.88291439 30.22378306 2048.88404754 22.13002298 2048.90144647 C16.11271066 2048.91315051 10.0956191 2048.90387285 4.07831236 2048.88660062 C1.66543603 2048.88287604 -0.74746247 2048.88579315 -3.16031874 2048.8963137 C-45.45936367 2049.06798375 -77.26450099 2033.7646525 -107.09667683 2004.17909908 C-110.45765242 2000.83696332 -113.81219036 1997.48841727 -117.1662569 1994.13934994 C-119.02322266 1992.2886582 -120.8803749 1990.43815357 -122.73769855 1988.58782101 C-128.2838823 1983.06126051 -133.82534703 1977.52998029 -139.36618567 1971.99806169 C-141.45857699 1969.90918805 -143.55128177 1967.82062861 -145.64400226 1965.73208475 C-154.88832402 1956.50620887 -164.13129749 1947.27898466 -173.37025166 1938.04773331 C-175.62353285 1935.79636151 -177.87681955 1933.54499523 -180.13012409 1931.29364681 C-180.69006278 1930.73419187 -181.25000147 1930.17473692 -181.82690799 1929.59832879 C-190.89813338 1920.53540434 -199.97784931 1911.48103635 -209.0611428 1902.43020878 C-218.41424221 1893.11026458 -227.75971435 1883.78272657 -237.09784508 1874.44778413 C-242.33005711 1869.21772823 -247.56545169 1863.99095136 -252.80941486 1858.77267551 C-257.74344394 1853.86276275 -262.66700887 1848.94256144 -267.58387089 1844.01545811 C-269.38224007 1842.21659559 -271.18399024 1840.42110528 -272.98948765 1838.62939739 C-285.17962236 1826.52712211 -296.08328517 1814.53738361 -303.99828815 1799.13031673 C-304.40957966 1798.3358514 -304.82087116 1797.54138607 -305.24462605 1796.72284603 C-307.94938917 1791.34043654 -310.24660924 1785.89525381 -312.18578815 1780.19281673 C-312.4084737 1779.54216244 -312.63115925 1778.89150814 -312.86059284 1778.22113705 C-317.84325748 1762.42862371 -318.17851832 1747.03909352 -318.12860489 1730.63202858 C-318.13204165 1728.12579267 -318.13679064 1725.61955829 -318.14272586 1723.11332706 C-318.15261491 1717.66622091 -318.15326322 1712.21923619 -318.14565282 1706.7721286 C-318.13431447 1698.61759153 -318.14038024 1690.46312893 -318.14971681 1682.30859259 C-318.16512391 1668.40768098 -318.16633251 1654.50680072 -318.15973759 1640.6058836 C-318.15310482 1626.52366739 -318.15299118 1612.44147356 -318.16078472 1598.3592577 C-318.16127272 1597.46897424 -318.16176072 1596.57869079 -318.1622635 1595.66142905 C-318.16427174 1592.03528696 -318.16632485 1588.40914491 -318.16843525 1584.78300288 C-318.18982487 1547.99183029 -318.1918917 1511.20067425 -318.18637821 1474.409497 C-318.18562248 1469.32745813 -318.18489486 1464.24541926 -318.18419623 1459.16338038 C-318.18405714 1458.15394203 -318.18391805 1457.14450368 -318.18377474 1456.10447629 C-318.18082158 1433.72684083 -318.18383611 1411.34920735 -318.18809252 1388.97157224 C-318.18867468 1385.90830514 -318.18924352 1382.84503804 -318.18980815 1379.78177093 C-318.19132313 1371.57004856 -318.19285004 1363.3583262 -318.19440116 1355.14660384 C-318.20515683 1297.8268214 -318.20986079 1240.50704081 -318.201931 1183.18725777 C-318.20178269 1182.10693895 -318.20163439 1181.02662014 -318.20148159 1179.91356439 C-318.19982261 1167.8670273 -318.19807302 1155.82049023 -318.19628858 1143.77395316 C-318.19612755 1142.6863406 -318.19596653 1141.59872804 -318.19580062 1140.47815753 C-318.19449294 1131.65195529 -318.19449294 1131.65195529 -318.19383944 1127.28299313 C-318.18344754 1057.71150224 -318.19121563 988.14003665 -318.21484089 918.56854916 C-318.22078434 901.03743494 -318.22667592 883.50632071 -318.23225021 865.97520638 C-318.23259398 864.8957329 -318.23293775 863.81625942 -318.23329194 862.70407463 C-318.24381998 829.43282415 -318.24941333 796.16157579 -318.24980736 762.89032364 C-318.24982014 761.84571972 -318.24983292 760.80111579 -318.24984609 759.72485721 C-318.25007439 736.7931863 -318.24906825 713.86151557 -318.24693704 690.92984476 C-318.24618228 682.72452924 -318.24550407 674.51921372 -318.24485689 666.3138982 C-318.2446942 664.27264827 -318.24452653 662.23139834 -318.24435387 660.19014841 C-318.2416332 627.6711379 -318.25018472 595.15214275 -318.26420798 562.63313554 C-318.2786181 528.97021262 -318.27816242 495.30731891 -318.26083326 461.64439698 C-318.2590291 458.02812433 -318.2572889 454.41185166 -318.25559902 450.79557896 C-318.25517852 449.90809292 -318.25475802 449.02060689 -318.25432478 448.10622734 C-318.24803164 434.06435572 -318.25512394 420.02252427 -318.26780822 405.98065831 C-318.2800029 392.16700013 -318.27786944 378.35340524 -318.26058791 364.53975183 C-318.25088581 356.44597988 -318.25201896 348.35238795 -318.26941789 340.25862787 C-318.28112193 334.24131555 -318.27184427 328.22422399 -318.25457204 322.20691724 C-318.25084746 319.79404091 -318.25376457 317.38114242 -318.26428512 314.96828615 C-318.43595517 272.66924122 -303.13262392 240.8641039 -273.5470705 211.03192806 C-270.20493474 207.67095247 -266.85638869 204.31641453 -263.50732136 200.96234798 C-261.65662962 199.10538223 -259.80612499 197.24822999 -257.95579243 195.39090633 C-252.42923193 189.84472259 -246.89795171 184.30325786 -241.36603311 178.76241922 C-239.27715947 176.6700279 -237.18860003 174.57732312 -235.10005618 172.48460263 C-225.87418029 163.24028087 -216.64695608 153.99730739 -207.41570473 144.75835323 C-205.16433293 142.50507204 -202.91296665 140.25178534 -200.66161823 137.9984808 C-200.10216329 137.43854211 -199.54270834 136.87860342 -198.96630021 136.3016969 C-189.90337576 127.23047151 -180.84900777 118.15075558 -171.7981802 109.06746209 C-162.478236 99.71436268 -153.150698 90.36889054 -143.81575555 81.03075981 C-138.58569965 75.79854778 -133.35892278 70.5631532 -128.14064693 65.31919003 C-123.23073417 60.38516095 -118.31053286 55.46159602 -113.38342953 50.544734 C-111.58456702 48.74636482 -109.7890767 46.94461465 -107.99736881 45.13911724 C-95.89509353 32.94898253 -83.90535503 22.04531972 -68.49828815 14.13031673 C-67.30659016 13.51337948 -67.30659016 13.51337948 -66.09081745 12.88397884 C-60.70840796 10.17921572 -55.26322523 7.88199564 -49.56078815 5.94281673 C-48.91013386 5.72013119 -48.25947956 5.49744564 -47.58910847 5.26801205 C-31.79659513 0.28534741 -16.40706494 -0.04991344 0 0 Z M258.23506432 396.70362701 C256.88551514 399.00470958 255.31703242 401.11334076 253.70483685 403.23578548 C253.17761028 403.94992611 252.65038372 404.66406673 252.1071806 405.39984798 C251.57737591 406.11527767 251.04757122 406.83070736 250.50171185 407.56781673 C249.29855813 409.19670177 248.09543398 410.82560866 246.89233685 412.45453548 C246.28970013 413.26970638 245.68706341 414.08487728 245.06616497 414.92475033 C242.123765 418.90680885 239.18800745 422.89375612 236.25171185 426.88031673 C235.08507851 428.46367463 233.91841181 430.04700793 232.75171185 431.63031673 C231.88546185 432.80594173 231.88546185 432.80594173 231.00171185 434.00531673 C225.75171184 441.13031674 225.75171184 441.13031674 224.0014677 443.50556087 C222.83550378 445.08799858 221.66965081 446.67051805 220.50390911 448.25311947 C217.57739741 452.2258356 214.64893651 456.19708667 211.7165556 460.16547298 C206.02206585 467.87571131 200.35288242 475.60195262 194.75171185 483.38031673 C188.57069922 491.96390943 182.30385518 500.48232922 176.01782513 508.98920345 C173.09215082 512.95022836 170.17220879 516.91547391 167.25171185 520.88031673 C166.08507294 522.46367052 164.91840627 524.04700385 163.75171185 525.63031673 C163.17421185 526.41406673 162.59671185 527.19781673 162.00171185 528.00531673 C142.75171185 554.13031673 142.75171185 554.13031673 141.0014677 556.50556087 C139.83550378 558.08799858 138.66965081 559.67051805 137.50390911 561.25311947 C134.57739741 565.2258356 131.64893651 569.19708667 128.7165556 573.16547298 C122.97747703 580.93631547 117.26741566 588.7252037 111.62671185 596.56781673 C107.08175308 602.88668502 102.45489911 609.13572506 97.76636028 615.34857845 C93.51440771 620.9969647 89.37356838 626.72128547 85.24560833 632.460639 C79.5661487 640.35022796 73.79496888 648.17100422 68.01782513 655.98920345 C65.09215082 659.95022836 62.17220879 663.91547391 59.25171185 667.88031673 C58.08507294 669.46367052 56.91840627 671.04700385 55.75171185 672.63031673 C54.88546185 673.80594173 54.88546185 673.80594173 54.00171185 675.00531673 C34.75171184 701.13031674 34.75171184 701.13031674 33.0014677 703.50556087 C31.83550378 705.08799858 30.66965081 706.67051805 29.50390911 708.25311947 C26.57739741 712.2258356 23.64893651 716.19708667 20.7165556 720.16547298 C14.97747703 727.93631547 9.26741566 735.7252037 3.62671185 743.56781673 C-0.91824692 749.88668502 -5.54510089 756.13572506 -10.23363972 762.34857845 C-14.48559229 767.9969647 -18.62643162 773.72128547 -22.75439167 779.460639 C-28.42100783 787.33238652 -34.17868071 795.13584731 -39.94262409 802.93646908 C-43.06768172 807.16602923 -46.18952866 811.39795334 -49.31078815 815.63031673 C-49.88240681 816.4043182 -50.45402546 817.17831966 -51.04296589 817.97577572 C-52.11461506 819.42873817 -53.18091446 820.88566674 -54.24096394 822.34711361 C-55.23748687 823.69130586 -56.26722221 825.011561 -57.32983112 826.30414486 C-58.9727449 828.28103324 -58.9727449 828.28103324 -60.74828815 831.38031673 C-60.08297624 835.88660467 -56.76018687 838.99629763 -53.81078815 842.31781673 C-49.87606916 846.85513282 -46.05747494 851.4496373 -42.37328815 856.19281673 C-38.39313071 861.30709351 -34.34719707 866.36069085 -30.24828815 871.38031673 C-25.74051167 876.90356679 -21.29985876 882.4721649 -16.91235065 888.09125423 C-13.41052569 892.56468382 -9.84017651 896.97898875 -6.24828815 901.38031673 C-1.74068843 906.90371358 2.70013826 912.47216109 7.08764935 918.09125423 C10.58947431 922.56468382 14.15982349 926.97898875 17.75171185 931.38031673 C22.25931157 936.90371358 26.70013826 942.47216109 31.08764935 948.09125423 C34.58947431 952.56468382 38.15982349 956.97898875 41.75171185 961.38031673 C46.25931157 966.90371358 50.70013826 972.47216109 55.08764935 978.09125423 C58.58947431 982.56468382 62.15982349 986.97898875 65.75171185 991.38031673 C70.25931157 996.90371358 74.70013826 1002.47216109 79.08764935 1008.09125423 C82.58947431 1012.56468382 86.15982349 1016.97898875 89.75171185 1021.38031673 C94.25931157 1026.90371358 98.70013826 1032.47216109 103.08764935 1038.09125423 C106.58947431 1042.56468382 110.15982349 1046.97898875 113.75171185 1051.38031673 C118.25931157 1056.90371358 122.70013826 1062.47216109 127.08764935 1068.09125423 C130.58947431 1072.56468382 134.15982349 1076.97898875 137.75171185 1081.38031673 C142.25931157 1086.90371358 146.70013826 1092.47216109 151.08764935 1098.09125423 C154.58947431 1102.56468382 158.15982349 1106.97898875 161.75171185 1111.38031673 C166.25931157 1116.90371358 170.70013826 1122.47216109 175.08764935 1128.09125423 C178.58947431 1132.56468382 182.15982349 1136.97898875 185.75171185 1141.38031673 C190.25931157 1146.90371358 194.70013826 1152.47216109 199.08764935 1158.09125423 C202.58947431 1162.56468382 206.15982349 1166.97898875 209.75171185 1171.38031673 C214.25931157 1176.90371358 218.70013826 1182.47216109 223.08764935 1188.09125423 C226.58947431 1192.56468382 230.15982349 1196.97898875 233.75171185 1201.38031673 C238.25931157 1206.90371358 242.70013826 1212.47216109 247.08764935 1218.09125423 C250.58947431 1222.56468382 254.15982349 1226.97898875 257.75171185 1231.38031673 C262.25931157 1236.90371358 266.70013826 1242.47216109 271.08764935 1248.09125423 C274.58947431 1252.56468382 278.15982349 1256.97898875 281.75171185 1261.38031673 C286.25931157 1266.90371358 290.70013826 1272.47216109 295.08764935 1278.09125423 C298.58947431 1282.56468382 302.15982349 1286.97898875 305.75171185 1291.38031673 C310.25931157 1296.90371358 314.70013826 1302.47216109 319.08764935 1308.09125423 C322.58947431 1312.56468382 326.15982349 1316.97898875 329.75171185 1321.38031673 C334.25931157 1326.90371358 338.70013826 1332.47216109 343.08764935 1338.09125423 C346.58947431 1342.56468382 350.15982349 1346.97898875 353.75171185 1351.38031673 C358.25931157 1356.90371358 362.70013826 1362.47216109 367.08764935 1368.09125423 C370.58947431 1372.56468382 374.15982349 1376.97898875 377.75171185 1381.38031673 C382.25931157 1386.90371358 386.70013826 1392.47216109 391.08764935 1398.09125423 C394.58947431 1402.56468382 398.15982349 1406.97898875 401.75171185 1411.38031673 C406.25931157 1416.90371358 410.70013826 1422.47216109 415.08764935 1428.09125423 C418.58947431 1432.56468382 422.15982349 1436.97898875 425.75171185 1441.38031673 C430.25931157 1446.90371358 434.70013826 1452.47216109 439.08764935 1458.09125423 C442.58947431 1462.56468382 446.15982349 1466.97898875 449.75171185 1471.38031673 C454.25931157 1476.90371358 458.70013826 1482.47216109 463.08764935 1488.09125423 C466.58947431 1492.56468382 470.15982349 1496.97898875 473.75171185 1501.38031673 C478.25931157 1506.90371358 482.70013826 1512.47216109 487.08764935 1518.09125423 C490.58947431 1522.56468382 494.15982349 1526.97898875 497.75171185 1531.38031673 C502.25931157 1536.90371358 506.70013826 1542.47216109 511.08764935 1548.09125423 C514.58947431 1552.56468382 518.15982349 1556.97898875 521.75171185 1561.38031673 C526.25931157 1566.90371358 530.70013826 1572.47216109 535.08764935 1578.09125423 C538.58947431 1582.56468382 542.15982349 1586.97898875 545.75171185 1591.38031673 C550.25931157 1596.90371358 554.70013826 1602.47216109 559.08764935 1608.09125423 C562.58947431 1612.56468382 566.15982349 1616.97898875 569.75171185 1621.38031673 C574.25931157 1626.90371358 578.70013826 1632.47216109 583.08764935 1638.09125423 C586.58947431 1642.56468382 590.15982349 1646.97898875 593.75171185 1651.38031673 C598.25931157 1656.90371358 602.70013826 1662.47216109 607.08764935 1668.09125423 C610.58947431 1672.56468382 614.15982349 1676.97898875 617.75171185 1681.38031673 C622.25931157 1686.90371358 626.70013826 1692.47216109 631.08764935 1698.09125423 C634.58947431 1702.56468382 638.15982349 1706.97898875 641.75171185 1711.38031673 C646.25931157 1716.90371358 650.70013826 1722.47216109 655.08764935 1728.09125423 C658.58947431 1732.56468382 662.15982349 1736.97898875 665.75171185 1741.38031673 C670.2579982 1746.90210424 674.69897742 1752.46784633 679.08325481 1758.0868597 C683.1577532 1763.29472091 687.34035775 1768.41127145 691.53222942 1773.52484798 C695.72218098 1778.66152802 699.68340119 1783.9306514 703.5446806 1789.31781673 C704.10800091 1789.99844173 704.67132122 1790.67906673 705.25171185 1791.38031673 C705.91171185 1791.38031673 706.57171185 1791.38031673 707.25171185 1791.38031673 C708.93638448 1789.41639964 710.50680951 1787.44222969 712.06421185 1785.38031673 C713.05899025 1784.08763678 714.0551389 1782.7960104 715.0524931 1781.50531673 C715.57536907 1780.82726986 716.09824505 1780.14922298 716.63696575 1779.45062923 C719.28883309 1776.0505937 722.02103404 1772.71713428 724.75171185 1769.38031673 C728.80219605 1764.41854798 732.80977575 1759.42876121 736.75171185 1754.38031673 C741.23371295 1748.64021006 745.81127742 1742.98338427 750.41577435 1737.34125423 C753.90701267 1733.05580055 757.34990073 1728.7370222 760.75171185 1724.38031673 C765.23371295 1718.64021006 769.81127742 1712.98338427 774.41577435 1707.34125423 C777.90701267 1703.05580055 781.34990073 1698.7370222 784.75171185 1694.38031673 C789.23371295 1688.64021006 793.81127742 1682.98338427 798.41577435 1677.34125423 C801.90701267 1673.05580055 805.34990073 1668.7370222 808.75171185 1664.38031673 C813.23371295 1658.64021006 817.81127742 1652.98338427 822.41577435 1647.34125423 C825.90701267 1643.05580055 829.34990073 1638.7370222 832.75171185 1634.38031673 C837.23371295 1628.64021006 841.81127742 1622.98338427 846.41577435 1617.34125423 C849.90701267 1613.05580055 853.34990073 1608.7370222 856.75171185 1604.38031673 C861.23371295 1598.64021006 865.81127742 1592.98338427 870.41577435 1587.34125423 C873.90701267 1583.05580055 877.34990073 1578.7370222 880.75171185 1574.38031673 C885.23371295 1568.64021006 889.81127742 1562.98338427 894.41577435 1557.34125423 C897.90701267 1553.05580055 901.34990073 1548.7370222 904.75171185 1544.38031673 C909.23371295 1538.64021006 913.81127742 1532.98338427 918.41577435 1527.34125423 C921.90701267 1523.05580055 925.34990073 1518.7370222 928.75171185 1514.38031673 C933.23371295 1508.64021006 937.81127742 1502.98338427 942.41577435 1497.34125423 C945.90701267 1493.05580055 949.34990073 1488.7370222 952.75171185 1484.38031673 C957.23371295 1478.64021006 961.81127742 1472.98338427 966.41577435 1467.34125423 C969.90701267 1463.05580055 973.34990073 1458.7370222 976.75171185 1454.38031673 C981.23371295 1448.64021006 985.81127742 1442.98338427 990.41577435 1437.34125423 C993.90701267 1433.05580055 997.34990073 1428.7370222 1000.75171185 1424.38031673 C1005.23371295 1418.64021006 1009.81127742 1412.98338427 1014.41577435 1407.34125423 C1017.90701267 1403.05580055 1021.34990073 1398.7370222 1024.75171185 1394.38031673 C1029.23371295 1388.64021006 1033.81127742 1382.98338427 1038.41577435 1377.34125423 C1041.90701267 1373.05580055 1045.34990073 1368.7370222 1048.75171185 1364.38031673 C1053.23371295 1358.64021006 1057.81127742 1352.98338427 1062.41577435 1347.34125423 C1065.90701267 1343.05580055 1069.34990073 1338.7370222 1072.75171185 1334.38031673 C1077.23371295 1328.64021006 1081.81127742 1322.98338427 1086.41577435 1317.34125423 C1089.90701267 1313.05580055 1093.34990073 1308.7370222 1096.75171185 1304.38031673 C1101.23371295 1298.64021006 1105.81127742 1292.98338427 1110.41577435 1287.34125423 C1113.90701267 1283.05580055 1117.34990073 1278.7370222 1120.75171185 1274.38031673 C1125.23371295 1268.64021006 1129.81127742 1262.98338427 1134.41577435 1257.34125423 C1137.90701267 1253.05580055 1141.34990073 1248.7370222 1144.75171185 1244.38031673 C1149.23371295 1238.64021006 1153.81127742 1232.98338427 1158.41577435 1227.34125423 C1161.90701267 1223.05580055 1165.34990073 1218.7370222 1168.75171185 1214.38031673 C1173.23371295 1208.64021006 1177.81127742 1202.98338427 1182.41577435 1197.34125423 C1185.90701267 1193.05580055 1189.34990073 1188.7370222 1192.75171185 1184.38031673 C1197.23371295 1178.64021006 1201.81127742 1172.98338427 1206.41577435 1167.34125423 C1209.90701267 1163.05580055 1213.34990073 1158.7370222 1216.75171185 1154.38031673 C1221.23371295 1148.64021006 1225.81127742 1142.98338427 1230.41577435 1137.34125423 C1233.90701267 1133.05580055 1237.34990073 1128.7370222 1240.75171185 1124.38031673 C1245.23371295 1118.64021006 1249.81127742 1112.98338427 1254.41577435 1107.34125423 C1257.90701267 1103.05580055 1261.34990073 1098.7370222 1264.75171185 1094.38031673 C1269.23371295 1088.64021006 1273.81127742 1082.98338427 1278.41577435 1077.34125423 C1281.90701267 1073.05580055 1285.34990073 1068.7370222 1288.75171185 1064.38031673 C1293.23371295 1058.64021006 1297.81127742 1052.98338427 1302.41577435 1047.34125423 C1305.90701267 1043.05580055 1309.34990073 1038.7370222 1312.75171185 1034.38031673 C1317.23371295 1028.64021006 1321.81127742 1022.98338427 1326.41577435 1017.34125423 C1329.90701267 1013.05580055 1333.34990073 1008.7370222 1336.75171185 1004.38031673 C1341.23371295 998.64021006 1345.81127742 992.98338427 1350.41577435 987.34125423 C1353.90701267 983.05580055 1357.34990073 978.7370222 1360.75171185 974.38031673 C1365.23371295 968.64021006 1369.81127742 962.98338427 1374.41577435 957.34125423 C1377.90701267 953.05580055 1381.34990073 948.7370222 1384.75171185 944.38031673 C1389.23371295 938.64021006 1393.81127742 932.98338427 1398.41577435 927.34125423 C1401.90701267 923.05580055 1405.34990073 918.7370222 1408.75171185 914.38031673 C1413.23371295 908.64021006 1417.81127742 902.98338427 1422.41577435 897.34125423 C1425.90701267 893.05580055 1429.34990073 888.7370222 1432.75171185 884.38031673 C1436.6936635 879.33185234 1440.70208605 874.34280212 1444.75171185 869.38031673 C1449.29193518 863.81423535 1453.79896989 858.22588215 1458.19970989 852.54852962 C1460.56095752 849.50503716 1462.96527865 846.51488441 1465.4509306 843.57172298 C1465.97155071 842.94346615 1466.49217083 842.31520931 1467.02856731 841.66791439 C1468.03001933 840.46139557 1469.04546992 839.26632016 1470.07641888 838.08490658 C1471.62227624 836.28494071 1471.62227624 836.28494071 1473.25171185 833.38031673 C1472.53904303 828.71827489 1468.78222037 824.85899227 1465.93921185 821.19281673 C1464.84789383 819.76295116 1463.75810467 818.33191768 1462.6696806 816.89984798 C1462.10555462 816.15815365 1461.54142864 815.41645931 1460.96020794 814.65228939 C1458.16607956 810.93663368 1455.46010339 807.15868005 1452.75171185 803.38031673 C1448.64691087 797.6653351 1444.49129004 791.99604552 1440.25171185 786.38031673 C1435.49725836 780.08039226 1430.8540108 773.70733627 1426.24560833 767.29999447 C1420.5661487 759.41040551 1414.79496888 751.58962925 1409.01782513 743.77143002 C1406.09215082 739.81040511 1403.17220879 735.84515956 1400.25171185 731.88031673 C1399.08507294 730.29696294 1397.91840627 728.71362962 1396.75171185 727.13031673 C1389.75171185 717.63031673 1382.75171185 708.13031673 1375.75171185 698.63031673 C1375.17413128 697.84648617 1374.59655071 697.0626556 1374.0014677 696.25507259 C1372.83550378 694.67263488 1371.66965081 693.09011542 1370.50390911 691.507514 C1367.57739741 687.53479787 1364.64893651 683.5635468 1361.7165556 679.59516048 C1355.97747703 671.82431799 1350.26741566 664.03542977 1344.62671185 656.19281673 C1340.56203506 650.54168577 1336.44488964 644.93675977 1332.25171185 639.38031673 C1327.49738875 633.08029162 1322.85401324 626.70733966 1318.24560833 620.29999447 C1312.5661487 612.41040551 1306.79496888 604.58962925 1301.01782513 596.77143002 C1298.09215082 592.81040511 1295.17220879 588.84515956 1292.25171185 584.88031673 C1291.08507294 583.29696294 1289.91840627 581.71362962 1288.75171185 580.13031673 C1281.75171185 570.63031673 1274.75171185 561.13031673 1267.75171185 551.63031673 C1267.17413128 550.84648617 1266.59655071 550.0626556 1266.0014677 549.25507259 C1264.83550378 547.67263488 1263.66965081 546.09011542 1262.50390911 544.507514 C1259.57739741 540.53479787 1256.64893651 536.5635468 1253.7165556 532.59516048 C1247.97747703 524.82431799 1242.26741566 517.03542977 1236.62671185 509.19281673 C1232.56203506 503.54168577 1228.44488964 497.93675977 1224.25171185 492.38031673 C1219.49738875 486.08029162 1214.85401324 479.70733966 1210.24560833 473.29999447 C1204.5661487 465.41040551 1198.79496888 457.58962925 1193.01782513 449.77143002 C1190.09215082 445.81040511 1187.17220879 441.84515956 1184.25171185 437.88031673 C1183.08507294 436.29696294 1181.91840627 434.71362962 1180.75171185 433.13031673 C1178.41837851 429.96365007 1176.08504518 426.7969834 1173.75171185 423.63031673 C1173.17340618 422.84551937 1172.59510052 422.06072201 1171.99927044 421.25214291 C1170.84056388 419.67952007 1169.68203326 418.10676759 1168.5236845 416.53388119 C1165.4867086 412.41055959 1162.44609451 408.28998691 1159.40014935 404.17328548 C1158.76850872 403.31863705 1158.1368681 402.46398861 1157.48608685 401.58344173 C1156.28149233 399.95369622 1155.07583041 398.32473889 1153.86889935 396.69672298 C1153.32233685 395.95680111 1152.77577435 395.21687923 1152.21264935 394.45453548 C1151.49794476 393.48906796 1151.49794476 393.48906796 1150.76880169 392.50409603 C1149.25171185 390.38031673 1149.25171185 390.38031673 1148.04291308 387.29616761 C1146.37885873 384.84644367 1145.4684108 384.42494774 1142.52356605 383.81843171 C1138.7014388 383.59339113 1134.9015841 383.56929262 1131.07540226 383.60292339 C1129.57638382 383.5942409 1128.07737867 383.58293461 1126.57839769 383.56923425 C1122.43470578 383.53908064 1118.29178596 383.54655922 1114.14803682 383.55990052 C1109.64927719 383.56787087 1105.15070313 383.54131152 1100.65200961 383.51911378 C1092.75924557 383.48504393 1084.86669404 383.47355107 1076.97386074 383.47666836 C1065.23695042 383.48129469 1053.50029779 383.45192829 1041.76345027 383.41608797 C1019.58362896 383.34976705 997.40387734 383.32512547 975.22396819 383.31447133 C972.77654833 383.31329212 970.32912848 383.31210538 967.88170862 383.31091118 C966.05912758 383.31002401 966.05912758 383.31002401 964.19972672 383.30911891 C950.74840374 383.30193753 937.2970978 383.28417707 923.84578609 383.26591396 C883.23398183 383.21180966 842.62219776 383.16675809 802.01035404 383.16215801 C800.71071898 383.16200105 799.41108392 383.16184408 798.07206598 383.16168236 C791.48457865 383.16090184 784.89709131 383.16020071 778.30960397 383.15950283 C775.66546936 383.1592144 773.02133474 383.1589258 770.37720013 383.15863705 C768.412151 383.15843708 768.412151 383.15843708 766.40740392 383.15823308 C725.24091826 383.15364713 684.07481062 383.0944419 642.90845013 382.99457455 C596.68587978 382.88245654 550.46356433 382.81779819 504.24085009 382.8190558 C499.31407744 382.81901141 494.38730483 382.81877537 489.46053219 382.8184042 C488.2473863 382.81833928 487.03424041 382.81827436 485.78433252 382.81820747 C466.24127588 382.81602712 446.69858188 382.76839225 427.1556396 382.70490103 C407.52081042 382.64233066 387.88648367 382.63178562 368.25159614 382.67421827 C356.57983818 382.69795314 344.90964395 382.68273403 333.23806812 382.6119719 C325.44538301 382.56858054 317.65381842 382.5758928 309.86116806 382.62472634 C305.41775124 382.65113007 300.97735646 382.65530846 296.53416483 382.5978795 C292.48971277 382.5460518 288.45076923 382.55886844 284.40653913 382.62290911 C282.95436697 382.63465083 281.50176577 382.62300815 280.05004593 382.58491133 C267.90591334 382.28743223 263.86327429 386.83208821 258.23506432 396.70362701 Z " fill="#FFBD00" transform="translate(317.74828815460205,-0.38031673431396484)"/>
<path d="M0 0 C168.96 0 337.92 0 512 0 C512 221.76 512 443.52 512 672 C508.49401765 668.49401765 505.63267116 665.39202015 502.6875 661.5 C502.27000488 660.95085938 501.85250977 660.40171875 501.42236328 659.8359375 C500.47619044 658.59099097 499.53162597 657.34482099 498.58837891 656.09765625 C496.84915319 653.80078761 495.10292381 651.50936365 493.35546875 649.21875 C489.93317893 644.73251598 486.51445301 640.24358169 483.09667969 635.75390625 C479.73235411 631.33499701 476.36610805 626.91755149 473 622.5 C471.66665685 620.75000748 470.33332353 619.00000747 469 617.25 C468.34 616.38375 467.68 615.5175 467 614.625 C368 484.6875 368 484.6875 29 39.75 C28.00818726 38.44844971 28.00818726 38.44844971 26.99633789 37.12060547 C25.67468096 35.385658 24.35354707 33.65031196 23.03295898 31.91455078 C19.52535466 27.30569663 16.0066397 22.70585475 12.47265625 18.1171875 C11.36567383 16.67569336 11.36567383 16.67569336 10.23632812 15.20507812 C8.81515796 13.35487546 7.39080719 11.50711041 5.96289062 9.66210938 C5.32673828 8.83259766 4.69058594 8.00308594 4.03515625 7.1484375 C3.4719165 6.41802246 2.90867676 5.68760742 2.32836914 4.93505859 C1 3 1 3 0 0 Z " fill="#FFBD00" transform="translate(512,832)"/>
</svg>
