<?xml version="1.0" encoding="UTF-8"?>
<svg version="1.1" xmlns="http://www.w3.org/2000/svg" width="512" height="512">
<path d="M0 0 C3.50140003 1.50003147 5.76018609 3.51053673 8.44338608 6.19449711 C9.77728099 7.52149383 9.77728099 7.52149383 11.13812327 8.87529856 C12.12079812 9.86298849 13.10337915 10.85077178 14.08587646 11.83863831 C15.13247814 12.88365208 16.17951731 13.92822784 17.22695661 14.97240204 C20.10703543 17.84605776 22.98082502 20.72593252 25.85363889 23.6068486 C28.95156801 26.71134739 32.05524775 29.81008763 35.15821838 32.9095459 C41.23652845 38.98281049 47.30947762 45.06140879 53.38063994 51.14181776 C60.44463723 58.21618788 67.51384734 65.28533928 74.58327594 72.35428118 C87.19130778 84.96181222 99.7944992 97.57417101 112.39501953 110.18920898 C124.63520614 122.44349087 136.87889721 134.69425714 149.12646484 146.94116211 C149.88112383 147.69578114 150.63578282 148.45040017 151.41331026 149.22788645 C152.1666378 149.98117363 152.91996533 150.73446081 153.69612098 151.51057488 C167.62321236 165.43697732 181.5470154 179.36666334 195.46928196 193.29788907 C200.4013298 198.23295923 205.33435939 203.16704676 210.26769257 208.10083199 C216.2735155 214.1073354 222.27745383 220.1157154 228.27900997 226.1264822 C231.34404398 229.1961488 234.40987636 232.26500673 237.47785378 235.3317318 C240.28139159 238.13418064 243.0826361 240.93889996 245.88199571 243.74552225 C246.89983804 244.76518915 247.91853969 245.78399907 248.93814442 246.80190367 C250.31437821 248.1760951 251.68728601 249.55361514 253.05997849 250.93134403 C253.82636414 251.69843412 254.5927498 252.4655242 255.38235927 253.25585943 C257 255 257 255 257 256 C214.76 256 172.52 256 129 256 C129 284.38 129 312.76 129 342 C122.24311049 337.70016122 115.50164891 333.39395868 108.8125 328.9921875 C107.96833023 328.43724609 107.12416046 327.88230469 106.25440979 327.31054688 C103.50205343 325.50004038 100.75087839 323.68775123 98 321.875 C97.04535858 321.24627991 96.09071716 320.61755981 95.10714722 319.9697876 C81.44144884 310.96535528 67.83391822 301.87882394 54.27764893 292.71054077 C51.58010302 290.88690029 48.88094065 289.06568013 46.18115234 287.24536133 C45.30890015 286.65720139 44.43664795 286.06904144 43.53796387 285.46305847 C41.81674524 284.30250654 40.09547341 283.14203353 38.37414551 281.98164368 C33.63361204 278.78389197 28.90303833 275.57216114 24.18070984 272.34759521 C21.46209902 270.49653236 18.7337691 268.66025348 16.00216675 266.82843018 C14.76584574 265.99467576 13.53386607 265.15444168 12.30667114 264.30731201 C10.65593737 263.16865802 8.98856056 262.05424196 7.3203125 260.94140625 C6.40523926 260.31951416 5.49016602 259.69762207 4.54736328 259.05688477 C2.08960242 257.75791908 2.08960242 257.75791908 -0.29492188 258.47119141 C-4.17420348 260.66361572 -7.89151977 263.05298773 -11.6015625 265.51953125 C-12.45390472 266.0813208 -13.30624695 266.64311035 -14.18441772 267.22192383 C-17.00111683 269.08069883 -19.8131695 270.94636976 -22.625 272.8125 C-24.60406397 274.12149317 -26.58323225 275.43032865 -28.5625 276.73901367 C-44.75893597 287.46126939 -60.86694184 298.31337426 -76.95831299 309.19238281 C-87.35890157 316.22354888 -97.77482124 323.23119758 -108.21533203 330.20297241 C-109.81160555 331.2691966 -111.40731645 332.3362636 -113.00244141 333.40420532 C-115.1797781 334.86163203 -117.35908336 336.31606109 -119.5390625 337.76953125 C-120.18469147 338.20233398 -120.83032043 338.63513672 -121.49551392 339.08105469 C-125.88536952 342 -125.88536952 342 -127 342 C-127 313.62 -127 285.24 -127 256 C-169.24 256 -211.48 256 -255 256 C-251.48356396 251.89749129 -248.15866145 248.03370744 -244.37298775 244.24993992 C-243.49367596 243.36863708 -242.61436417 242.48733424 -241.70840657 241.57932526 C-240.74747273 240.62124349 -239.78649221 239.66320854 -238.82546997 238.70521545 C-237.79300306 237.67231193 -236.76075616 236.63918845 -235.7287091 235.60586542 C-232.90551298 232.7804422 -230.07922341 229.95813153 -227.25240183 227.13633621 C-224.19953865 224.08780305 -221.14957787 221.03636852 -218.09925842 217.98529053 C-212.8184174 212.70392588 -207.53575272 207.42439108 -202.25183487 202.14610481 C-194.61223682 194.51464372 -186.97541099 186.88041341 -179.3392527 179.24551063 C-166.94915316 166.85759816 -154.55682345 154.47191918 -142.16308594 142.08764648 C-130.12577966 130.05952325 -118.08952711 118.03034717 -106.0546875 105.99975586 C-105.31250194 105.25783302 -104.57031638 104.51591019 -103.80564035 103.75150485 C-100.08221321 100.02938276 -96.35880674 96.30723999 -92.63541055 92.58508694 C-61.76014556 61.72018382 -30.88125883 30.85890602 0 0 Z " fill="#FFFFFF" transform="translate(255,0)"/>
<path d="M0 0 C4.01104532 1.7561668 7.54088195 4.11027684 11.16992188 6.54638672 C12.02217346 7.1095459 12.87442505 7.67270508 13.75250244 8.25292969 C16.57143965 10.11890724 19.38240957 11.9965276 22.19335938 13.87451172 C24.1736362 15.18917374 26.15427332 16.5032932 28.13525391 17.81689453 C38.01935044 24.38045223 47.87083895 30.9923265 57.70898438 37.62451172 C59.05042259 38.52669182 59.05042259 38.52669182 60.41896057 39.44709778 C64.88209691 42.45289793 69.32654285 45.48132712 73.74194336 48.55688477 C82.50021077 54.62058087 91.2145756 60.1208652 100.71289062 64.95654297 C125.2454864 77.83453696 125.2454864 77.83453696 128.51702881 86.69335938 C131.7070044 100.21186965 129.80889367 114.59150317 127.56835938 128.12451172 C122.55532137 126.46463501 118.53447254 123.56560995 114.22070312 120.60498047 C113.39324585 120.0431456 112.56578857 119.48131073 111.71325684 118.90245056 C109.91779628 117.68307688 108.12368833 116.46170973 106.33078003 115.23858643 C101.47997686 111.93037503 96.61816369 108.63844326 91.75585938 105.34716797 C90.74937851 104.6656366 89.74289764 103.98410522 88.70591736 103.28192139 C77.29051309 95.56448741 65.77796826 87.99575333 54.25164795 80.44534302 C44.5760579 74.10704389 34.93649368 67.73111657 25.41992188 61.15576172 C24.62350784 60.60757782 23.82709381 60.05939392 23.00654602 59.49459839 C19.27707835 56.92705829 15.55817726 54.34669289 11.85717773 51.73828125 C10.55431926 50.83773395 9.25104116 49.93779332 7.94726562 49.03857422 C7.08018478 48.41444641 7.08018478 48.41444641 6.19558716 47.77770996 C3.83921183 46.17161565 2.08945174 45.14293935 -0.79272461 45.04101562 C-4.86966361 46.71494062 -8.38260004 49.09580974 -12.03320312 51.54638672 C-12.88554535 52.10959122 -13.73788757 52.67279572 -14.61605835 53.25306702 C-17.4349281 55.11896399 -20.24581587 56.99652175 -23.05664062 58.87451172 C-25.03546099 60.18842859 -27.0146331 61.50181587 -28.99414062 62.81469727 C-46.06332398 74.15130384 -63.04481381 85.6188092 -80.02148438 97.09326172 C-89.5334998 103.52182894 -99.05171606 109.94098267 -108.59204102 116.32748413 C-110.18204516 117.3928669 -111.77093061 118.45992131 -113.35864258 119.52871704 C-115.52722439 120.9881902 -117.69956464 122.44188157 -119.87304688 123.89404297 C-120.51351456 124.3268457 -121.15398224 124.75964844 -121.81385803 125.20556641 C-126.20314554 128.12451172 -126.20314554 128.12451172 -128.43164062 128.12451172 C-131.15203296 114.18107422 -134.08338386 97.66012428 -128.43164062 84.12451172 C-120.50112011 72.82951902 -105.64187476 66.46091684 -93.77330017 60.19018555 C-83.77130978 54.90365323 -74.54691464 48.72605306 -65.26950073 42.27249146 C-60.88513521 39.23614403 -56.4545022 36.26882902 -52.02929688 33.29248047 C-45.68383427 29.01072014 -39.35248095 24.70886572 -33.03138733 20.39122009 C-29.41062479 17.92204061 -25.78183644 15.4648448 -22.15127563 13.01010132 C-20.43496939 11.84550171 -18.72230739 10.67551152 -17.01351929 9.49990845 C-14.66449849 7.88446387 -12.30377891 6.2877504 -9.93945312 4.69482422 C-8.90352272 3.97224174 -8.90352272 3.97224174 -7.84666443 3.23506165 C-5.23769433 1.49873615 -3.17672137 0.16266344 0 0 Z " fill="#FFFFFF" transform="translate(256.431640625,383.87548828125)"/>
<path d="M0 0 C0.83853516 0.54060059 1.67707031 1.08120117 2.54101562 1.63818359 C3.12971939 2.00900558 3.71842316 2.37982758 4.32496643 2.7618866 C6.5428448 4.18604704 8.71551567 5.6662318 10.88867188 7.15771484 C11.71599319 7.71945908 12.54331451 8.28120331 13.39570618 8.85997009 C15.19102894 10.07925291 16.98499947 11.30052864 18.777771 12.52355957 C23.63273541 15.8345872 28.49875185 19.12927348 33.36523438 22.42333984 C34.37233459 23.10528412 35.37943481 23.78722839 36.41705322 24.48983765 C45.04048151 30.31975495 53.71661441 36.06625089 62.42260742 41.77197266 C66.0919868 44.17881407 69.74088419 46.61286313 73.3762207 49.07080078 C81.35628267 54.44126988 89.2745979 59.6189156 97.81758118 64.05793762 C124.06831104 77.70980395 124.06831104 77.70980395 127.45782471 87.20703125 C130.55676869 100.74661582 128.72568857 115.08594423 126.54101562 128.63818359 C120.39050509 125.34589169 114.5572719 121.76511135 108.80273438 117.82568359 C107.98080093 117.26800293 107.15886749 116.71032227 106.31202698 116.13574219 C104.54063367 114.93376774 102.77027239 113.73027118 101.00085449 112.52539062 C96.2067898 109.26193943 91.40376902 106.01174957 86.59960938 102.76318359 C85.60611481 102.09134033 84.61262024 101.41949707 83.58901978 100.72729492 C71.22468072 92.38004075 58.75311578 84.19582909 46.27197266 76.0246582 C37.79976592 70.47086196 29.37121882 64.87300853 21.06054688 59.07958984 C20.32985992 58.57285736 19.59917297 58.06612488 18.84634399 57.54403687 C15.46909387 55.20171102 12.10483516 52.84480034 8.76269531 50.45263672 C7.59691617 49.63998096 6.43060949 48.82808122 5.26367188 48.01708984 C4.27117432 47.31140869 3.27867676 46.60572754 2.25610352 45.87866211 C-0.33067135 44.38063116 -0.33067135 44.38063116 -2.79492188 45.08203125 C-6.57564418 47.29045537 -10.19721203 49.68048035 -13.80664062 52.15771484 C-14.63400726 52.71950439 -15.4613739 53.28129395 -16.31381226 53.86010742 C-18.10917679 55.07944194 -19.90319329 56.30076314 -21.6960144 57.52383423 C-26.54944964 60.83366894 -31.41423584 64.12672045 -36.27929688 67.41943359 C-37.28619064 68.10117142 -38.29308441 68.78290924 -39.33049011 69.48530579 C-49.79555848 76.56042623 -60.3382954 83.51558891 -70.89648438 90.45068359 C-74.52696067 92.83569281 -78.15727072 95.22095403 -81.78710938 97.60693359 C-82.67109406 98.18797852 -83.55507874 98.76902344 -84.46585083 99.36767578 C-90.72448653 103.48590978 -96.96418936 107.63178081 -103.19335938 111.79443359 C-104.04305801 112.36215988 -104.89275665 112.92988617 -105.76820374 113.51481628 C-109.78472977 116.1997802 -113.79883981 118.88828864 -117.81030273 121.58081055 C-119.21791248 122.52314741 -120.62554456 123.46545091 -122.03320312 124.40771484 C-122.67565979 124.84051758 -123.31811646 125.27332031 -123.9800415 125.71923828 C-128.34588565 128.63818359 -128.34588565 128.63818359 -129.45898438 128.63818359 C-132.12342921 114.66390921 -134.9714624 98.22666602 -129.45898438 84.63818359 C-121.22027361 72.52464828 -105.11209158 65.75143637 -92.58740234 59.03027344 C-83.68828527 54.19986561 -75.37320395 48.50952177 -66.99282837 42.84301758 C-63.38295888 40.41573831 -59.7423957 38.036819 -56.10148621 35.65646362 C-47.64959916 30.12672744 -39.28415578 24.48493366 -30.97460938 18.74365234 C-29.11558353 17.46501657 -27.25645442 16.18653093 -25.3972168 14.90820312 C-21.87789568 12.48752029 -18.37608336 10.04395062 -14.88208008 7.58691406 C-13.30546877 6.50024141 -11.72827212 5.41441733 -10.15039062 4.32958984 C-9.44106384 3.82082809 -8.73173706 3.31206635 -8.00091553 2.78788757 C-3.2012785 -0.471038 -3.2012785 -0.471038 0 0 Z " fill="#FFFFFF" transform="translate(257.458984375,298.36181640625)"/>
</svg>
