<?xml version="1.0" encoding="UTF-8"?>
<svg version="1.1" xmlns="http://www.w3.org/2000/svg" width="512" height="512">
<path d="M0 0 C0.9005864 -0.00701431 1.80117279 -0.01402863 2.72904968 -0.02125549 C5.61759506 -0.03865309 8.50593541 -0.04510727 11.39453125 -0.046875 C12.87509003 -0.04788712 12.87509003 -0.04788712 14.38555908 -0.04891968 C28.85671684 -0.03318728 42.97697736 0.33212486 57.20703125 3.203125 C58.1088916 3.38004883 59.01075195 3.55697266 59.93994141 3.73925781 C66.4130302 5.03813787 72.81591613 6.54969626 79.20703125 8.203125 C80.02703613 8.41275879 80.84704102 8.62239258 81.69189453 8.83837891 C118.01954571 18.33900683 151.04086087 37.19789701 179.58203125 61.328125 C180.1531665 61.80685059 180.72430176 62.28557617 181.31274414 62.77880859 C184.85682322 65.82222359 187.88769118 69.06678266 190.87597656 72.65429688 C192.40998491 74.43928384 194.06008248 75.91894362 195.89453125 77.390625 C235.11987068 111.03361062 258.8567586 167.16230031 266.20703125 217.203125 C266.38435791 218.40775391 266.56168457 219.61238281 266.74438477 220.85351562 C268.34335619 232.5107981 268.56544097 244.07498566 268.51953125 255.828125 C268.51679703 257.28245941 268.51679703 257.28245941 268.51400757 258.76617432 C268.46865862 273.09791759 268.04998547 287.11208012 265.20703125 301.203125 C265.03010742 302.10498535 264.85318359 303.0068457 264.67089844 303.93603516 C263.37201838 310.40912395 261.86045999 316.81200988 260.20703125 323.203125 C259.99739746 324.02312988 259.78776367 324.84313477 259.57177734 325.68798828 C248.86569419 366.62495136 226.4807688 403.89771388 197.20703125 434.203125 C196.60810059 434.82396973 196.00916992 435.44481445 195.39208984 436.08447266 C187.72826622 443.98562759 179.98704731 451.53079455 171.20703125 458.203125 C170.66675293 458.61981445 170.12647461 459.03650391 169.56982422 459.46582031 C159.57481965 467.1491123 149.11494089 473.89155468 138.20703125 480.203125 C137.52979004 480.59741699 136.85254883 480.99170898 136.15478516 481.39794922 C102.97496584 500.48224559 62.76516415 512.20503896 24.4140625 512.40625 C23.5134761 512.41326431 22.61288971 512.42027863 21.68501282 512.42750549 C18.79646744 512.44490309 15.90812709 512.45135727 13.01953125 512.453125 C12.03249207 512.45379974 11.04545288 512.45447449 10.02850342 512.45516968 C-4.44265434 512.43943728 -18.56291486 512.07412514 -32.79296875 509.203125 C-33.6948291 509.02620117 -34.59668945 508.84927734 -35.52587891 508.66699219 C-41.9989677 507.36811213 -48.40185363 505.85655374 -54.79296875 504.203125 C-55.61297363 503.99349121 -56.43297852 503.78385742 -57.27783203 503.56787109 C-90.9632113 494.75826617 -121.75945884 477.91083121 -148.79296875 456.203125 C-149.79328125 455.4090625 -150.79359375 454.615 -151.82421875 453.796875 C-165.70089333 442.44323217 -179.04337784 429.58433447 -189.79296875 415.203125 C-190.65487291 414.08197359 -191.51685742 412.96088394 -192.37890625 411.83984375 C-199.558474 402.38636554 -205.85059757 392.47296983 -211.79296875 382.203125 C-212.18726074 381.52588379 -212.58155273 380.84864258 -212.98779297 380.15087891 C-232.07216451 346.97092889 -243.79464685 306.76135921 -243.99609375 268.41015625 C-244.00315338 267.50975113 -244.01021301 266.60934601 -244.01748657 265.68165588 C-244.24506267 228.13746095 -244.24506267 228.13746095 -240.79296875 211.203125 C-240.58897461 210.17703125 -240.38498047 209.1509375 -240.17480469 208.09375 C-231.27615591 164.36472778 -212.83992222 123.37929579 -183.17626953 89.77514648 C-182.17776085 88.64041345 -181.18755385 87.49835663 -180.20263672 86.35180664 C-170.1271045 74.66859857 -159.12666732 63.50110311 -146.79296875 54.203125 C-146.25559082 53.78933594 -145.71821289 53.37554687 -145.16455078 52.94921875 C-135.16659085 45.26235911 -124.70485028 38.51699355 -113.79296875 32.203125 C-113.11572754 31.80883301 -112.43848633 31.41454102 -111.74072266 31.00830078 C-78.56090334 11.92400441 -38.35110165 0.20121104 0 0 Z M-110.79296875 109.203125 C-111.58445312 109.88503906 -112.3759375 110.56695312 -113.19140625 111.26953125 C-152.15990461 145.62819148 -176.16462376 192.78673407 -179.45336914 244.86352539 C-181.89603875 293.47774774 -166.81294729 342.14114575 -134.79296875 379.203125 C-134.11105469 379.99460937 -133.42914063 380.78609375 -132.7265625 381.6015625 C-130.45625366 384.1764745 -128.13871584 386.69676147 -125.79296875 389.203125 C-124.48585938 390.60884766 -124.48585938 390.60884766 -123.15234375 392.04296875 C-89.55156734 427.35186262 -41.05905637 446.56870952 7.20703125 448.203125 C38.67815525 448.64884907 68.9607885 442.08526065 97.20703125 428.203125 C97.85043457 427.89294434 98.49383789 427.58276367 99.15673828 427.26318359 C126.08426625 414.16311789 151.07948917 392.73145686 168.20703125 368.203125 C168.92761719 367.17703125 169.64820313 366.1509375 170.390625 365.09375 C199.60642621 321.55647761 210.32670706 269.6362283 200.49609375 218.125 C197.08307013 201.73599594 191.58115731 186.20739813 184.20703125 171.203125 C183.74176025 170.23802002 183.74176025 170.23802002 183.26708984 169.25341797 C175.50960888 153.30771278 164.82285527 139.50718884 153.20703125 126.203125 C152.34947564 125.16708839 151.49400568 124.12932193 150.640625 123.08984375 C145.48142075 116.9700172 139.43270429 112.19622469 133.20703125 107.203125 C132.23636719 106.40390625 131.26570313 105.6046875 130.265625 104.78125 C61.14473311 49.34329329 -43.80169242 51.32550287 -110.79296875 109.203125 Z M190.20703125 75.203125 C191.20703125 77.203125 191.20703125 77.203125 191.20703125 77.203125 Z M187.20703125 78.203125 C186.87703125 78.863125 186.54703125 79.523125 186.20703125 80.203125 C186.86703125 80.203125 187.52703125 80.203125 188.20703125 80.203125 C187.87703125 79.543125 187.54703125 78.883125 187.20703125 78.203125 Z M185.20703125 80.203125 C186.20703125 82.203125 186.20703125 82.203125 186.20703125 82.203125 Z M180.58203125 84.703125 C179.79828125 85.528125 179.01453125 86.353125 178.20703125 87.203125 C178.53703125 87.863125 178.86703125 88.523125 179.20703125 89.203125 C181.18703125 86.893125 183.16703125 84.583125 185.20703125 82.203125 C182.84424389 81.97323994 182.84424389 81.97323994 180.58203125 84.703125 Z M174.20703125 91.203125 C174.53703125 91.863125 174.86703125 92.523125 175.20703125 93.203125 C175.53703125 92.543125 175.86703125 91.883125 176.20703125 91.203125 C175.54703125 91.203125 174.88703125 91.203125 174.20703125 91.203125 Z M172.20703125 93.203125 C172.53703125 93.863125 172.86703125 94.523125 173.20703125 95.203125 C173.53703125 94.543125 173.86703125 93.883125 174.20703125 93.203125 C173.54703125 93.203125 172.88703125 93.203125 172.20703125 93.203125 Z M169.20703125 96.203125 C169.20703125 97.193125 169.20703125 98.183125 169.20703125 99.203125 C169.86703125 98.213125 170.52703125 97.223125 171.20703125 96.203125 C170.54703125 96.203125 169.88703125 96.203125 169.20703125 96.203125 Z M166.20703125 99.203125 C166.53703125 99.863125 166.86703125 100.523125 167.20703125 101.203125 C167.53703125 100.543125 167.86703125 99.883125 168.20703125 99.203125 C167.54703125 99.203125 166.88703125 99.203125 166.20703125 99.203125 Z M164.20703125 101.203125 C165.20703125 103.203125 165.20703125 103.203125 165.20703125 103.203125 Z M162.20703125 103.203125 C162.20703125 104.193125 162.20703125 105.183125 162.20703125 106.203125 C162.86703125 105.213125 163.52703125 104.223125 164.20703125 103.203125 C163.54703125 103.203125 162.88703125 103.203125 162.20703125 103.203125 Z M154.20703125 111.203125 C155.20703125 113.203125 155.20703125 113.203125 155.20703125 113.203125 Z " fill="#FFFFFF" transform="translate(243.79296875,-0.203125)"/>
<path d="M0 0 C5.08284834 4.54604587 5.08284834 4.54604587 7 7 C7 7.66 7 8.32 7 9 C7.59554688 9.09796875 8.19109375 9.1959375 8.8046875 9.296875 C13.0219119 10.64758744 15.30886679 14.64635499 18 18 C18.77859375 18.95519531 19.5571875 19.91039062 20.359375 20.89453125 C34.85902948 38.99064634 45.11651893 59.58084054 51 82 C51.21172852 82.79341797 51.42345703 83.58683594 51.64160156 84.40429688 C62.04812805 125.33773388 53.76567129 170.23351567 32.43432617 206.21337891 C27.36491808 214.49397462 21.46304852 221.77887963 15 229 C14.27683594 229.84433594 13.55367188 230.68867188 12.80859375 231.55859375 C8.54481761 236.50657663 4.06940245 240.88433258 -1 245 C-2.41925781 246.15822266 -2.41925781 246.15822266 -3.8671875 247.33984375 C-21.98124779 261.84183211 -42.56362523 272.1120011 -65 278 C-65.79341797 278.21172852 -66.58683594 278.42345703 -67.40429688 278.64160156 C-106.92999501 288.69023795 -151.79585567 281.56498152 -186.70703125 260.84375 C-197.63992064 254.11352529 -208.23957618 246.4174556 -217 237 C-217.825 236.175 -218.65 235.35 -219.5 234.5 C-220.325 233.675 -221.15 232.85 -222 232 C-222.73089844 231.33871094 -222.73089844 231.33871094 -223.4765625 230.6640625 C-243.45646481 212.00984091 -255.51701182 184.09631015 -262 158 C-262.48146484 156.09927734 -262.48146484 156.09927734 -262.97265625 154.16015625 C-267.56343012 133.41978712 -267.27458826 107.55809871 -262 87 C-261.80132324 86.18499023 -261.60264648 85.36998047 -261.39794922 84.53027344 C-254.50257394 56.69051857 -241.24473272 29.72725181 -220 10 C-219.175 9.175 -218.35 8.35 -217.5 7.5 C-216.675 6.675 -215.85 5.85 -215 5 C-214.55914062 4.51273438 -214.11828125 4.02546875 -213.6640625 3.5234375 C-194.90644844 -16.56720497 -167.10225231 -28.27524391 -141 -35 C-140.31905273 -35.18079102 -139.63810547 -35.36158203 -138.93652344 -35.54785156 C-90.399148 -47.81018197 -37.64672441 -31.08162805 0 0 Z M1 13 C1 13.99 1 14.98 1 16 C1.66 15.01 2.32 14.02 3 13 C2.34 13 1.68 13 1 13 Z M-167 49 C-168.5778125 50.175625 -168.5778125 50.175625 -170.1875 51.375 C-188.9561723 68.89242748 -199.60320219 92.99629794 -200.92553711 118.49194336 C-201.75774316 144.25001644 -192.30054443 168.26636824 -175.0625 187.28515625 C-157.38381836 206.13397334 -134.21521437 216.74271584 -108.37792969 217.97631836 C-83.83757132 218.6109828 -62.03809454 210.37912142 -43 195 C-42.36835938 194.53335938 -41.73671875 194.06671875 -41.0859375 193.5859375 C-24.8323466 181.02984595 -13.60252769 158.76302899 -10.30859375 138.76171875 C-7.18100348 110.7717653 -12.06754161 85.20040024 -29.828125 62.671875 C-30.54484375 61.79015625 -31.2615625 60.9084375 -32 60 C-32.55171875 59.28328125 -33.1034375 58.5665625 -33.671875 57.828125 C-48.23591988 39.80331698 -72.11223413 29.0076779 -94.78515625 26.59765625 C-121.83781348 24.20186058 -145.86055399 31.98453194 -167 49 Z " fill="#FFFFFF" transform="translate(361,134)"/>
<path d="M0 0 C13.50470516 10.42191903 23.36451125 24.92987964 26 42 C27.64893465 61.2338943 24.74560257 78.37166457 12.67578125 94.01171875 C1.88106424 106.4332691 -12.86263239 115.787994 -29.55444336 117.21899414 C-49.59400683 118.10507841 -65.87267336 114.41921185 -81.5859375 101.25 C-89.73852868 93.65146842 -94.99425295 85.36101881 -99 75 C-99.3403125 74.17628906 -99.680625 73.35257812 -100.03125 72.50390625 C-105.20382375 57.5369683 -103.03821875 39.2241974 -96.6796875 25.05859375 C-88.39249015 8.77855305 -75.24059254 -2.97179029 -58 -9 C-38.25822295 -14.86275151 -17.0353351 -11.20689341 0 0 Z " fill="#FFFFFF" transform="translate(294,203)"/>
</svg>
