<?xml version="1.0" encoding="UTF-8"?>
<svg version="1.1" xmlns="http://www.w3.org/2000/svg" width="512" height="512">
<path d="M0 0 C0.90186035 0.17692383 1.8037207 0.35384766 2.73291016 0.53613281 C20.1840306 4.03784785 37.21255725 8.8013911 53.6875 15.5625 C54.60345947 15.92633789 55.51941895 16.29017578 56.46313477 16.66503906 C57.30416748 17.02436523 58.1452002 17.38369141 59.01171875 17.75390625 C59.75897217 18.06658447 60.50622559 18.3792627 61.27612305 18.70141602 C63 20 63 20 63.78055477 22.00259686 C64.10688334 26.45991992 62.66842637 30.06861217 61.23500061 34.2570343 C60.92550506 35.19235636 60.6160095 36.12767843 60.29713529 37.09134358 C59.25512117 40.23058345 58.1960314 43.36379079 57.13696289 46.49731445 C56.38732064 48.74398513 55.63873457 50.99100847 54.89112854 53.23835754 C53.06778033 58.71046284 51.23343174 64.17878941 49.39422018 69.64558134 C47.2546557 76.00709016 45.12865847 82.37310547 43.00349944 88.7394382 C39.21329459 100.09254562 35.41238531 111.4420389 31.60473633 122.78930664 C27.90607834 133.81184365 24.21246764 144.8360506 20.52563477 155.86254883 C20.29836038 156.5422702 20.07108599 157.22199158 19.8369245 157.92231057 C18.6967819 161.33229805 17.55673847 164.74231867 16.41674435 168.15235579 C6.95986498 196.44006597 -2.51635489 224.72124773 -12 253 C19.35 253 50.7 253 83 253 C79.92003351 256.84995812 77.63011368 259.29407961 73.875 262.25 C70.14695303 265.23639306 66.52632476 268.277863 63 271.5 C58.70008209 275.41891252 54.24080453 279.09170869 49.71875 282.75 C47.07852271 284.93501569 44.5327028 287.19171391 42 289.5 C37.70008209 293.41891252 33.24080453 297.09170869 28.71875 300.75 C26.07852271 302.93501569 23.5327028 305.19171391 21 307.5 C16.70008209 311.41891252 12.24080453 315.09170869 7.71875 318.75 C5.07852271 320.93501569 2.5327028 323.19171391 0 325.5 C-4.29991791 329.41891252 -8.75919547 333.09170869 -13.28125 336.75 C-15.92147729 338.93501569 -18.4672972 341.19171391 -21 343.5 C-25.29991791 347.41891252 -29.75919547 351.09170869 -34.28125 354.75 C-36.92147729 356.93501569 -39.4672972 359.19171391 -42 361.5 C-46.29991791 365.41891252 -50.75919547 369.09170869 -55.28125 372.75 C-57.92147729 374.93501569 -60.4672972 377.19171391 -63 379.5 C-67.29991791 383.41891252 -71.75919547 387.09170869 -76.28125 390.75 C-78.92147729 392.93501569 -81.4672972 395.19171391 -84 397.5 C-88.29857479 401.41768842 -92.75609805 405.08967142 -97.27734375 408.74609375 C-99.94137353 410.95146704 -102.50788442 413.2317631 -105.0625 415.5625 C-109.86435943 419.94043926 -114.87981739 424.00189996 -120 428 C-81.02588732 448.45700032 -30.40283472 448.06727284 10.875 435.75 C20.94815716 432.59713079 30.53390145 428.65228828 40 424 C40.64340332 423.68981934 41.28680664 423.37963867 41.94970703 423.06005859 C85.05692463 402.08868003 118.9530062 362.38671558 135.0390625 317.48046875 C151.79996511 268.17117087 149.0199754 214.83917733 126 168 C125.534729 167.03489502 125.534729 167.03489502 125.06005859 166.05029297 C112.79305889 140.83515397 93.36578446 117.85307076 71 101 C73.04196924 93.17631244 75.40433362 85.5042058 77.9765625 77.83984375 C78.34727875 76.72815323 78.717995 75.61646271 79.09994507 74.47108459 C79.87672665 72.14373919 80.65495314 69.81687558 81.43457031 67.49047852 C82.63175532 63.91733794 83.82403642 60.34258846 85.015625 56.76757812 C85.77315281 54.49990488 86.53095535 52.23232338 87.2890625 49.96484375 C87.6463443 48.89411118 88.0036261 47.8233786 88.37173462 46.72019958 C88.86762589 45.24209557 88.86762589 45.24209557 89.37353516 43.73413086 C89.6642691 42.86574081 89.95500305 41.99735077 90.25454712 41.10264587 C91 39 91 39 92 37 C96.38349402 38.50220863 99.9130495 40.85445872 103.625 43.5625 C104.23891602 44.00650146 104.85283203 44.45050293 105.48535156 44.90795898 C111.17116908 49.0572485 116.64955699 53.42557544 122 58 C123.15822266 58.99 123.15822266 58.99 124.33984375 60 C136.11686854 70.34653759 147.52857333 81.48728954 157 94 C157.41523926 94.53882812 157.83047852 95.07765625 158.25830078 95.6328125 C165.94337664 105.62929469 172.68728061 116.09010449 179 127 C179.39429199 127.67724121 179.78858398 128.35448242 180.19482422 129.05224609 C195.10285371 154.97123809 204.66151819 184.46351638 209 214 C209.17732666 215.20462891 209.35465332 216.40925781 209.53735352 217.65039062 C211.136325 229.30767354 211.3584053 240.87186098 211.3125 252.625 C211.30976578 254.07983292 211.30976578 254.07983292 211.30697632 255.5640564 C211.26158309 269.91556055 210.7562347 283.87942918 208 298 C207.83902832 298.89702637 207.67805664 299.79405273 207.51220703 300.71826172 C200.37927556 340.13781478 183.6310207 377.43743545 159 409 C158.31550781 409.89589844 157.63101562 410.79179687 156.92578125 411.71484375 C144.59221107 427.55084765 129.98908132 442.84917551 114 455 C113.45972168 455.41668945 112.91944336 455.83337891 112.36279297 456.26269531 C102.3677884 463.9459873 91.90790964 470.68842968 81 477 C80.32275879 477.39429199 79.64551758 477.78858398 78.94775391 478.19482422 C53.02876191 493.10285371 23.53648362 502.66151819 -6 507 C-7.20462891 507.17732666 -8.40925781 507.35465332 -9.65039062 507.53735352 C-21.30767354 509.136325 -32.87186098 509.3584053 -44.625 509.3125 C-46.07983292 509.30976578 -46.07983292 509.30976578 -47.5640564 509.30697632 C-61.91556055 509.26158309 -75.87942918 508.7562347 -90 506 C-90.89702637 505.83902832 -91.79405273 505.67805664 -92.71826172 505.51220703 C-113.76214898 501.7043352 -135.36249606 495.71398101 -154 485 C-153.37828841 479.24099738 -151.88310565 474.09366412 -150.03245544 468.61634827 C-149.72533459 467.69156801 -149.41821374 466.76678776 -149.1017862 465.81398386 C-148.07411702 462.72440258 -147.0379123 459.63775391 -146.00170898 456.55102539 C-145.26213906 454.33344417 -144.5230979 452.11568655 -143.7845459 449.89776611 C-141.77970859 443.88210653 -139.76748093 437.86894231 -137.75392413 431.85619664 C-135.86344211 426.20722111 -133.97849472 420.55640192 -132.0935185 414.90558725 C-128.36074227 403.71600459 -124.62261429 392.52821754 -120.88110352 381.34155273 C-117.24742606 370.47725831 -113.61628003 359.61212326 -109.98852539 348.74584961 C-109.76476345 348.07561467 -109.5410015 347.40537973 -109.31045889 346.71483464 C-108.18788286 343.35232684 -107.06535647 339.98980247 -105.94285476 336.62726986 C-96.63626448 308.74893956 -87.31999347 280.87385288 -78 253 C-109.35 253 -140.7 253 -173 253 C-169.92003351 249.15004188 -167.63011368 246.70592039 -163.875 243.75 C-160.14695303 240.76360694 -156.52632476 237.722137 -153 234.5 C-148.70008209 230.58108748 -144.24080453 226.90829131 -139.71875 223.25 C-137.07852271 221.06498431 -134.5327028 218.80828609 -132 216.5 C-127.70008209 212.58108748 -123.24080453 208.90829131 -118.71875 205.25 C-116.07852271 203.06498431 -113.5327028 200.80828609 -111 198.5 C-106.70008209 194.58108748 -102.24080453 190.90829131 -97.71875 187.25 C-95.07852271 185.06498431 -92.5327028 182.80828609 -90 180.5 C-85.70008209 176.58108748 -81.24080453 172.90829131 -76.71875 169.25 C-74.07852271 167.06498431 -71.5327028 164.80828609 -69 162.5 C-64.70008209 158.58108748 -60.24080453 154.90829131 -55.71875 151.25 C-53.07852271 149.06498431 -50.5327028 146.80828609 -48 144.5 C-43.70008209 140.58108748 -39.24080453 136.90829131 -34.71875 133.25 C-32.07852271 131.06498431 -29.5327028 128.80828609 -27 126.5 C-22.70008209 122.58108748 -18.24080453 118.90829131 -13.71875 115.25 C-11.07852271 113.06498431 -8.5327028 110.80828609 -6 108.5 C-1.70142521 104.58231158 2.75609805 100.91032858 7.27734375 97.25390625 C9.94137353 95.04853296 12.50788442 92.7682369 15.0625 90.4375 C19.86435943 86.05956074 24.87981739 81.99810004 30 78 C-8.97411268 57.54299968 -59.59716528 57.93272716 -100.875 70.25 C-110.94815716 73.40286921 -120.53390145 77.34771172 -130 82 C-130.96510498 82.465271 -130.96510498 82.465271 -131.94970703 82.93994141 C-175.05692463 103.91131997 -208.9530062 143.61328442 -225.0390625 188.51953125 C-241.79996511 237.82882913 -239.0199754 291.16082267 -216 338 C-215.68981934 338.64340332 -215.37963867 339.28680664 -215.06005859 339.94970703 C-202.79305889 365.16484603 -183.36578446 388.14692924 -161 405 C-163.04196924 412.82368756 -165.40433362 420.4957942 -167.9765625 428.16015625 C-168.34727875 429.27184677 -168.717995 430.38353729 -169.09994507 431.52891541 C-169.87672665 433.85626081 -170.65495314 436.18312442 -171.43457031 438.50952148 C-172.63175532 442.08266206 -173.82403642 445.65741154 -175.015625 449.23242188 C-175.77315281 451.50009512 -176.53095535 453.76767662 -177.2890625 456.03515625 C-177.6463443 457.10588882 -178.0036261 458.1766214 -178.37173462 459.27980042 C-178.7023288 460.26520309 -179.03292297 461.25060577 -179.37353516 462.26586914 C-179.6642691 463.13425919 -179.95500305 464.00264923 -180.25454712 464.89735413 C-181 467 -181 467 -182 469 C-186.41420985 467.49270883 -189.95535445 465.1047013 -193.6875 462.375 C-194.30544434 461.92697021 -194.92338867 461.47894043 -195.56005859 461.01733398 C-214.51821067 447.1837382 -232.76219721 430.73530367 -247 412 C-247.41668945 411.45972168 -247.83337891 410.91944336 -248.26269531 410.36279297 C-255.9459873 400.3677884 -262.68842968 389.90790964 -269 379 C-269.39429199 378.32275879 -269.78858398 377.64551758 -270.19482422 376.94775391 C-285.10285371 351.02876191 -294.66151819 321.53648362 -299 292 C-299.17732666 290.79537109 -299.35465332 289.59074219 -299.53735352 288.34960938 C-301.13632494 276.6923269 -301.35840972 265.12813934 -301.3125 253.375 C-301.30976578 251.92066559 -301.30976578 251.92066559 -301.30697632 250.43695068 C-301.26162737 236.10520741 -300.84295422 222.09104488 -298 208 C-297.82307617 207.09813965 -297.64615234 206.1962793 -297.46386719 205.26708984 C-296.16498713 198.79400105 -294.65342874 192.39111512 -293 186 C-292.79036621 185.17999512 -292.58073242 184.35999023 -292.36474609 183.51513672 C-283.55514117 149.82975745 -266.70770621 119.03350991 -245 92 C-244.2059375 90.9996875 -243.411875 89.999375 -242.59375 88.96875 C-231.2484048 75.10221698 -218.3970719 61.7100169 -204 51 C-203.40026367 50.54028809 -202.80052734 50.08057617 -202.18261719 49.60693359 C-169.0520577 24.2542212 -131.06397758 7.36894442 -90 0 C-89.16871582 -0.16226074 -88.33743164 -0.32452148 -87.48095703 -0.49169922 C-59.86348528 -5.76694663 -27.54597458 -5.55756833 0 0 Z " fill="#FFFFFF" transform="translate(301,3)"/>
</svg>
