<?xml version="1.0" encoding="UTF-8"?>
<svg version="1.1" xmlns="http://www.w3.org/2000/svg" width="512" height="512">
<path d="M0 0 C2.12540552 0.01218659 4.25078675 0.01956404 6.37621689 0.02602386 C26.92535432 0.09783499 47.26947159 0.43595074 67.64223862 3.38692474 C68.34900742 3.48638397 69.05577621 3.5858432 69.78396225 3.68831635 C95.79793378 7.35096385 123.31730598 11.42881023 147.07580185 23.22542572 C149.6661853 24.4795723 149.6661853 24.4795723 152.67351913 25.21141815 C156.47093026 26.61740051 159.37727127 27.99315087 161.64223862 31.38692474 C164.046657 39.72487298 163.12912651 48.99055561 162.95473862 57.56661224 C162.94250047 60.1806184 162.9350019 62.79465066 162.93203354 65.40868378 C162.91728789 70.88526157 162.85757632 76.35982658 162.76723862 81.83565521 C162.65187549 88.8422146 162.61035028 95.84715278 162.59251022 102.85455894 C162.57824472 108.2525992 162.5365409 113.65028172 162.48900986 119.04812241 C162.46627679 121.63078233 162.44721659 124.21347736 162.43194199 126.79619217 C162.40431719 130.41284201 162.3497117 134.02806196 162.28676987 137.64424896 C162.28229843 138.70428131 162.277827 139.76431366 162.27322006 140.8564682 C162.06404556 149.96985463 159.18587474 158.76473007 152.64223862 165.38692474 C145.33827487 170.6424368 137.33458546 174.82090233 129.39223862 179.01192474 C121.03371355 183.46399283 112.73571127 187.99397813 104.51723862 192.69942474 C93.83067124 198.80589898 82.976736 204.5779724 72.08120346 210.30025482 C70.78754366 210.98110341 69.49408372 211.6623319 68.20083237 212.34395599 C67.57471054 212.67369919 66.94858871 213.00344238 66.3034935 213.3431778 C60.56572456 216.38596643 54.95506088 219.63261166 49.35732651 222.92476654 C46.64223862 224.38692474 46.64223862 224.38692474 44.64223862 224.38692474 C44.64223862 231.31692474 44.64223862 238.24692474 44.64223862 245.38692474 C46.36313705 245.64473724 48.08403549 245.90254974 49.85708237 246.16817474 C52.45275962 246.57081268 55.04777459 246.97662176 57.64223862 247.38692474 C58.40804245 247.50761322 59.17384628 247.6283017 59.96285629 247.7526474 C65.15083999 248.57879668 70.32450099 249.46646005 75.4930687 250.40645599 C77.31408705 250.72911415 79.13817128 251.03488682 80.96474838 251.32442474 C83.63869553 251.75107538 86.29682495 252.234562 88.95864487 252.73067474 C90.17893135 252.90632965 90.17893135 252.90632965 91.42387009 253.08553314 C94.67610896 253.74130463 96.89391265 254.31068473 98.83843613 257.10729218 C99.97487074 259.82341483 100.8019484 262.56407297 101.64223862 265.38692474 C102.10601237 266.76135622 102.57672225 268.13345857 103.05277634 269.503685 C104.79369834 274.52212795 106.47689845 279.55907334 108.15786362 284.59786224 C108.7798271 286.45731704 109.40187853 288.31674241 110.02401352 290.17613983 C111.32043064 294.05347516 112.61440128 297.93161711 113.90688705 301.81026459 C115.56413169 306.7822029 117.22965649 311.75132478 118.89724731 316.71980095 C120.181268 320.54966158 121.45985231 324.38132053 122.73689651 328.21351242 C123.34897785 330.04739608 123.96300549 331.88063132 124.57901382 333.71319962 C125.43684113 336.26713388 126.28706248 338.82347854 127.13540268 341.38057709 C127.51870743 342.51363281 127.51870743 342.51363281 127.90975571 343.66957855 C129.04673766 347.12202774 129.64223862 349.70975675 129.64223862 353.38692474 C121.59533368 357.43351467 113.54629497 361.47581884 105.49447441 365.51261902 C101.75604042 367.38706176 98.01836748 369.26299031 94.28237534 371.14229584 C90.67908549 372.95478056 87.07387368 374.76338638 83.46727753 376.56928253 C82.08942529 377.26006092 80.71227968 377.95225057 79.33584595 378.64585114 C77.4126294 379.61468431 75.48699536 380.5785367 73.56069565 381.54122162 C72.46371353 382.09193329 71.36673141 382.64264496 70.23650742 383.21004486 C67.64223862 384.38692474 67.64223862 384.38692474 65.64223862 384.38692474 C65.64223862 373.82692474 65.64223862 363.26692474 65.64223862 352.38692474 C23.40223862 352.38692474 -18.83776138 352.38692474 -62.35776138 352.38692474 C-62.35776138 362.94692474 -62.35776138 373.50692474 -62.35776138 384.38692474 C-66.700804 382.93924387 -70.32886747 381.52370553 -74.36313248 379.49776459 C-75.5238829 378.91731384 -76.68463333 378.3368631 -77.88055801 377.73882294 C-79.13081514 377.10858899 -80.38102774 376.47826672 -81.63119888 375.84786224 C-82.92282226 375.20018338 -84.21462397 374.55286004 -85.50659561 373.90587616 C-88.89163169 372.20955655 -92.27423659 370.50844418 -95.65634537 368.8062973 C-99.11394612 367.06723186 -102.57384166 365.33274463 -106.03354263 363.59786224 C-112.81052701 360.1986744 -119.58494765 356.79441627 -126.35776138 353.38692474 C-125.73331627 347.77584224 -124.34675219 342.71670366 -122.58554459 337.36226654 C-122.3024292 336.48663559 -122.01931381 335.61100464 -121.72761917 334.70883942 C-120.79490186 331.83228087 -119.85279729 328.95893422 -118.90854263 326.08614349 C-118.58597174 325.1021287 -118.26340084 324.1181139 -117.93105507 323.10428047 C-116.22602047 317.90599802 -114.51324761 312.71033659 -112.79452896 307.51656342 C-111.01995494 302.148398 -109.27361041 296.77147806 -107.53328037 291.39213085 C-106.18942784 287.25621817 -104.8244252 283.12751455 -103.45354652 279.00049019 C-102.80000743 277.02035993 -102.15459569 275.03752823 -101.51745415 273.05206108 C-100.62629735 270.28158941 -99.70560601 267.52269934 -98.77695084 264.76461029 C-98.51957138 263.94123169 -98.26219193 263.11785309 -97.99701309 262.26952362 C-96.09007701 256.75303657 -96.09007701 256.75303657 -92.44183731 254.92914581 C-91.42409225 254.75021286 -90.4063472 254.57127991 -89.35776138 254.38692474 C-88.56255585 254.19480408 -87.76735031 254.00268341 -86.94804764 253.80474091 C-86.17099976 253.6492981 -85.39395187 253.49385529 -84.59335709 253.33370209 C-83.70255951 253.15366638 -82.81176193 252.97363068 -81.89397049 252.78813934 C-80.4780587 252.50832718 -80.4780587 252.50832718 -79.03354263 252.22286224 C-78.05032532 252.02592773 -77.067108 251.82899323 -76.05409622 251.626091 C-73.98438312 251.21247927 -71.91429049 250.80076269 -69.84384537 250.39083099 C-66.66970956 249.76181539 -63.49707903 249.12559283 -60.32455826 248.48848724 C-58.31097181 248.08701686 -56.29730271 247.68596077 -54.28354263 247.28536224 C-53.33352875 247.09477234 -52.38351486 246.90418243 -51.40471268 246.70781708 C-50.08270103 246.44722 -50.08270103 246.44722 -48.73398209 246.18135834 C-47.57199043 245.9505809 -47.57199043 245.9505809 -46.3865242 245.7151413 C-44.35776138 245.38692474 -44.35776138 245.38692474 -41.35776138 245.38692474 C-41.35776138 238.45692474 -41.35776138 231.52692474 -41.35776138 224.38692474 C-43.00776138 223.72692474 -44.65776138 223.06692474 -46.35776138 222.38692474 C-48.45115809 221.3322746 -50.53073316 220.24998041 -52.59994888 219.14864349 C-53.19577774 218.83192688 -53.7916066 218.51521027 -54.40549088 218.18889618 C-56.34957827 217.15382462 -58.29130096 216.11441433 -60.23276138 215.07442474 C-60.90414139 214.71589417 -61.57552139 214.35736359 -62.26724625 213.98796844 C-71.73556606 208.92972605 -81.11487142 203.73826105 -90.43124771 198.40450287 C-100.14442205 192.87597518 -110.02604884 187.66925921 -119.9197731 182.47310638 C-126.32778392 179.1024959 -132.70556325 175.68632878 -139.01010513 172.12520599 C-140.112173 171.50299164 -141.21424088 170.88077728 -142.34970474 170.23970795 C-146.97315782 167.39193703 -150.56429029 164.56729611 -153.54526138 160.01192474 C-154.03381607 159.28231537 -154.52237076 158.55270599 -155.02573013 157.80098724 C-158.65723438 151.21955139 -158.63358758 145.21198141 -158.58481216 137.87374115 C-158.58510422 136.72194366 -158.58539627 135.57014618 -158.58569717 134.38344574 C-158.58430639 130.585049 -158.56875669 126.78684962 -158.55307388 122.98848724 C-158.54934287 120.35147458 -158.54649631 117.71446053 -158.54449844 115.07744598 C-158.5382923 108.85148488 -158.52189326 102.62559436 -158.50179946 96.39966428 C-158.47941346 89.30898077 -158.46844025 82.21829382 -158.45840859 75.12758374 C-158.43752622 60.54732774 -158.40236713 45.96712723 -158.35776138 31.38692474 C-155.98336831 30.26836961 -153.60790558 29.15218974 -151.23178482 28.03731537 C-150.23385406 27.5667572 -150.23385406 27.5667572 -149.21576309 27.08669281 C-102.97708785 5.42105636 -50.52236105 -0.30629698 0 0 Z " fill="#FFFFFF" transform="translate(254.35776138305664,-0.38692474365234375)"/>
<path d="M0 0 C4.13370714 1.29043661 7.90497563 2.84177724 11.75830078 4.81323242 C12.86609894 5.37689011 13.97389709 5.94054779 15.11526489 6.52128601 C15.6986475 6.82034033 16.28203011 7.11939465 16.88309097 7.42751122 C18.72203449 8.36915188 20.56418579 9.30420961 22.40744019 10.23738098 C27.64404479 12.88915342 32.8771385 15.54766672 38.10205078 18.22241211 C41.30686584 19.86244284 44.51740498 21.49074776 47.73192978 23.1116581 C48.95338808 23.73043955 50.17260984 24.35365664 51.38949966 24.98137474 C53.08756115 25.85685099 54.79386377 26.71628694 56.50048828 27.57495117 C57.95226974 28.31535896 57.95226974 28.31535896 59.43338013 29.07072449 C62.25836238 30.0935432 63.28683468 30.20930549 66 29 C67.63613416 27.79341851 67.63613416 27.79341851 69.11621094 26.22436523 C69.69651062 25.64383896 70.2768103 25.06331268 70.87469482 24.4651947 C71.48838928 23.83601639 72.10208374 23.20683807 72.734375 22.55859375 C73.37240051 21.91632339 74.01042603 21.27405304 74.66778564 20.61231995 C76.70234118 18.56098274 78.72621379 16.49945727 80.75 14.4375 C82.12821491 13.04423766 83.50711325 11.65165102 84.88671875 10.25976562 C88.26579046 6.84763135 91.63531864 3.42632293 95 0 C97.80969467 1.28022875 99.8539238 2.60714129 102.02441406 4.79736328 C102.58469299 5.35779327 103.14497192 5.91822327 103.722229 6.49563599 C104.31404968 7.09777924 104.90587036 7.69992249 105.515625 8.3203125 C106.13145447 8.93897186 106.74728394 9.55763123 107.3817749 10.19503784 C109.34260336 12.16703814 111.29635301 14.14588737 113.25 16.125 C114.58026799 17.46530164 115.910992 18.80515083 117.2421875 20.14453125 C120.5001015 23.42446589 123.75168533 26.71055942 127 30 C129.80969467 28.71977125 131.8539238 27.39285871 134.02441406 25.20263672 C134.58469299 24.64220673 135.14497192 24.08177673 135.722229 23.50436401 C136.31404968 22.90222076 136.90587036 22.30007751 137.515625 21.6796875 C138.13145447 21.06102814 138.74728394 20.44236877 139.3817749 19.80496216 C141.34260336 17.83296186 143.29635301 15.85411263 145.25 13.875 C146.58026799 12.53469836 147.910992 11.19484917 149.2421875 9.85546875 C152.5001015 6.57553411 155.75168533 3.28944058 159 0 C161.8148558 1.27754041 163.81357854 2.58027439 165.94506836 4.81323242 C166.48920883 5.37689011 167.0333493 5.94054779 167.59397888 6.52128601 C168.17011429 7.12656631 168.74624969 7.73184662 169.33984375 8.35546875 C170.57948957 9.63012995 171.81974242 10.90420101 173.06054688 12.17773438 C175.00704567 14.18630045 176.94852079 16.19904723 178.87963867 18.22241211 C180.74883111 20.17608246 182.6362584 22.11051517 184.52734375 24.04296875 C185.10145493 24.65432175 185.6755661 25.26567474 186.26707458 25.89555359 C188.07524925 27.79569227 188.07524925 27.79569227 191 30 C195.0478418 29.69551562 198.27374841 28.04001061 201.86010742 26.22436523 C203.014478 25.64383896 204.16884857 25.06331268 205.35820007 24.4651947 C206.60729413 23.82966989 207.85638358 23.19413602 209.10546875 22.55859375 C210.39358315 21.90919574 211.68202518 21.26044724 212.97077942 20.61231995 C216.35418706 18.90924784 219.7342682 17.19968864 223.11334229 15.48803711 C228.53176574 12.74366773 233.95323528 10.00539401 239.37838173 7.27433968 C241.27360311 6.31836206 243.16618408 5.35729762 245.05863953 4.39585876 C246.20355362 3.81848465 247.34846771 3.24111053 248.52807617 2.64624023 C249.53891769 2.13407455 250.54975922 1.62190887 251.5912323 1.09422302 C254 0 254 0 256 0 C256.12517247 5.70670904 256.21506817 11.41259 256.2746582 17.12036133 C256.29954248 19.05507353 256.33346293 20.98969437 256.37719727 22.92407227 C256.84806781 44.31267422 252.23434816 59.74616181 237.2421875 75.72265625 C224.38521274 88.78122121 209.7353603 96.36280525 191.15689087 96.55322266 C189.84328583 96.54669678 188.52968079 96.5401709 187.17626953 96.53344727 C185.74057131 96.54052548 184.30488055 96.54927839 182.86920166 96.55955505 C179.00945848 96.58184784 175.15012923 96.57915684 171.29034662 96.57023358 C168.05021257 96.56508264 164.81015354 96.57244935 161.57002723 96.57970566 C153.91689657 96.59664133 146.2639656 96.59320371 138.61083984 96.57641602 C130.75527454 96.55950538 122.90026541 96.57532884 115.04476082 96.6076389 C108.26296265 96.63446036 101.48133625 96.64157702 94.69949043 96.63312382 C90.66540097 96.62823043 86.63164558 96.63021268 82.59759903 96.65091133 C78.80019402 96.66946728 75.00357923 96.66307178 71.2062149 96.63871193 C69.17552388 96.63143672 67.14478938 96.64840428 65.11416626 96.66653442 C44.89693382 96.4614006 30.07323222 87.04884185 16.06640625 73.0703125 C1.39388949 57.31941477 -0.61692768 40.65756472 -0.25 20.1875 C-0.22989287 18.22332562 -0.2116496 16.25913123 -0.1953125 14.29492188 C-0.15167707 9.52944521 -0.08288531 4.76494897 0 0 Z " fill="#FFFFFF" transform="translate(128,416)"/>
<path d="M0 0 C27.34640393 13.67320196 46.33190052 44.55158963 55.98486328 72.63818359 C58.40280042 79.97264893 60.53704275 87.41269712 62 95 C62.1681723 95.87209106 62.3363446 96.74418213 62.50961304 97.6427002 C64.45856432 109.32890362 64.32808505 120.98396841 64.3359375 132.80078125 C64.34237674 135.09091777 64.34910591 137.38105349 64.35610962 139.67118835 C64.36801893 144.4459321 64.37179649 149.2206038 64.37060547 153.99536133 C64.37040143 160.09924425 64.39781976 166.20266605 64.43214989 172.3064394 C64.45441825 177.02575288 64.45844319 181.74495478 64.45738602 186.46431541 C64.45973757 188.71488233 64.46853581 190.96545252 64.48405075 193.21596718 C64.50373032 196.36216168 64.49786686 199.50735248 64.48583984 202.65356445 C64.49707886 203.57168915 64.50831787 204.48981384 64.51989746 205.4357605 C64.42940951 214.78996584 60.68507079 223.38138121 54 230 C45.58340196 236.2955613 35.75163136 240.89527721 26.51464844 245.85888672 C14.07473902 252.54471238 1.79024114 259.50650625 -10.4453125 266.55859375 C-11.09870605 266.93459717 -11.75209961 267.31060059 -12.42529297 267.69799805 C-14.10306758 268.66528876 -15.7782247 269.6371158 -17.453125 270.609375 C-21.78370616 272.97392545 -25.0995685 273.33796079 -30 273 C-32.86801694 271.99952897 -34.41715576 271.06601342 -35.89483643 268.36335754 C-39.10511516 260.93696817 -41.9872513 253.38608274 -44.859375 245.82421875 C-45.41413378 244.36691651 -45.96892354 242.90962607 -46.52374268 241.4523468 C-47.67871059 238.41646359 -48.83143637 235.37973937 -49.98291016 232.3425293 C-51.45841547 228.45198444 -52.94243673 224.56474647 -54.42846298 220.67821026 C-55.57389018 217.67820511 -56.7133699 214.675967 -57.85120392 211.67307472 C-58.39605419 210.23813275 -58.94309014 208.80401868 -59.49236298 207.37076378 C-60.25737365 205.37278338 -61.01396584 203.37180851 -61.76855469 201.36987305 C-62.20061218 200.23341843 -62.63266968 199.09696381 -63.07781982 197.92607117 C-64 195 -64 195 -64 191 C-55.95309507 186.95341007 -47.90405636 182.9111059 -39.85223579 178.87430573 C-36.11380181 176.99986299 -32.37612887 175.12393444 -28.64013672 173.24462891 C-25.03684687 171.43214418 -21.43163506 169.62353836 -17.82503891 167.81764221 C-16.44718667 167.12686382 -15.07004106 166.43467417 -13.69360733 165.74107361 C-11.77039079 164.77224043 -9.84475674 163.80838805 -7.91845703 162.84570312 C-6.82147491 162.29499146 -5.7244928 161.74427979 -4.5942688 161.17687988 C-2 160 -2 160 0 160 C0 107.2 0 54.4 0 0 Z " fill="#FFFFFF" transform="translate(448,64)"/>
<path d="M0 0 C0 52.8 0 105.6 0 160 C1.98 160.66 3.96 161.32 6 162 C8.0189934 162.92644598 10.02022358 163.89225202 12.00537109 164.88916016 C13.16612152 165.4696109 14.32687195 166.05006165 15.52279663 166.64810181 C16.77305375 167.27833575 18.02326635 167.90865803 19.2734375 168.5390625 C20.56506088 169.18674137 21.85686259 169.83406471 23.14883423 170.48104858 C26.53387031 172.17736819 29.9164752 173.87848057 33.29858398 175.58062744 C36.75618474 177.31969289 40.21608028 179.05418011 43.67578125 180.7890625 C50.45276562 184.18825034 57.22718627 187.59250847 64 191 C63.37345999 195.60125259 62.17333073 199.67025327 60.57910156 204.02758789 C60.33339417 204.70318253 60.08768677 205.37877716 59.83453369 206.07484436 C59.0257429 208.29297201 58.20883147 210.50798587 57.390625 212.72265625 C56.82103646 214.27149442 56.25151852 215.82035856 55.68206787 217.36924744 C54.48901156 220.60940224 53.29122427 223.8477658 52.09082031 227.08520508 C50.55681709 231.22520357 49.04067738 235.37150224 47.52878189 239.51961613 C46.35936523 242.71876779 45.17749659 245.91321389 43.99217987 249.10650444 C43.42790978 250.63298483 42.86818134 252.16115233 42.31317902 253.69102669 C41.53465971 255.83304977 40.73879263 257.96784838 39.93847656 260.10180664 C39.49070862 261.31614883 39.04294067 262.53049103 38.581604 263.78163147 C36.58244778 267.84966713 34.10669732 270.94665134 30 273 C22.64248766 274.11962144 17.24991481 270.49760349 11 267 C9.84781982 266.35538818 9.84781982 266.35538818 8.67236328 265.69775391 C4.98821023 263.62899836 1.30980067 261.55046044 -2.36206055 259.45996094 C-8.0823365 256.20378273 -13.81935855 252.98184509 -19.5859375 249.80859375 C-20.2281575 249.45518921 -20.8703775 249.10178467 -21.53205872 248.7376709 C-24.67841898 247.00765833 -27.82661788 245.28105149 -30.97631836 243.55712891 C-57.913161 228.78538665 -57.913161 228.78538665 -63.05021667 216.48539734 C-64.28648973 211.94867543 -64.28724808 207.75415608 -64.2746582 203.07348633 C-64.27976913 202.08875839 -64.28488007 201.10403046 -64.29014587 200.08946228 C-64.30403061 196.83692313 -64.30308412 193.58459652 -64.30078125 190.33203125 C-64.30467238 188.05441714 -64.3090079 185.77680375 -64.31376648 183.49919128 C-64.32122895 178.7185939 -64.3209398 173.93807033 -64.31567383 169.1574707 C-64.3099177 163.0813179 -64.32671623 157.00547376 -64.3500185 150.92937183 C-64.36488633 146.2182188 -64.36560931 141.50713754 -64.36250877 136.79596519 C-64.36301674 134.55925581 -64.36815393 132.32254182 -64.37832069 130.08585548 C-64.4868413 102.84223013 -59.99755902 78.55602754 -48 54 C-47.4328125 52.83597656 -46.865625 51.67195313 -46.28125 50.47265625 C-39.4335649 37.14874066 -16.98371757 0 0 0 Z " fill="#FFFFFF" transform="translate(64,64)"/>
</svg>
