<?xml version="1.0" encoding="UTF-8"?>
<svg version="1.1" xmlns="http://www.w3.org/2000/svg" width="512" height="512">
<path d="M0 0 C-1.34578125 1.14662109 -1.34578125 1.14662109 -2.71875 2.31640625 C-15.80230574 13.52303358 -28.78743403 24.88189957 -40 38 C-40.90366704 39.0193661 -41.80870279 40.0375199 -42.71484375 41.0546875 C-48.64751377 47.77192448 -54.17189679 54.73077808 -59.5 61.9375 C-60.3811145 63.12653931 -60.3811145 63.12653931 -61.2800293 64.33959961 C-64.50461285 68.75574534 -67.38935722 73.19462567 -70 78 C-68.58074219 76.89205078 -68.58074219 76.89205078 -67.1328125 75.76171875 C-57.16535054 68.07774884 -46.88170354 61.31295304 -36 55 C-35.39430176 54.6395459 -34.78860352 54.2790918 -34.16455078 53.90771484 C14.01061822 25.36300575 75.23036921 20.36833589 128.8203125 33.625 C156.1848157 40.72739238 182.28125119 53.19541404 205 70 C205.88631104 70.650896 205.88631104 70.650896 206.79052734 71.31494141 C214.15843704 76.77364073 221.02886476 82.70204823 227.75 88.9375 C228.44222656 89.57655273 229.13445312 90.21560547 229.84765625 90.87402344 C230.81251953 91.78522949 230.81251953 91.78522949 231.796875 92.71484375 C232.65297363 93.52103149 232.65297363 93.52103149 233.52636719 94.34350586 C235.10398082 96.11688368 236.03731912 97.83984519 237 100 C233.30248547 99.33763918 229.85568898 98.35304229 226.30078125 97.14453125 C196.01466215 87.01554838 165.05337094 79.83799663 133 79 C134.12792969 79.44988281 135.25585938 79.89976563 136.41796875 80.36328125 C159.71077741 89.8141649 180.9380886 101.51159626 200 118 C200.76957031 118.65871094 201.53914063 119.31742187 202.33203125 119.99609375 C220.40732987 135.85319652 235.64142071 153.36226626 248 174 C248.39251953 174.64420898 248.78503906 175.28841797 249.18945312 175.95214844 C280.1832306 227.25642826 285.76182733 288.61626634 272.15771484 346.10791016 C270.25893956 353.74106044 270.25893956 353.74106044 268 356 C266.35568292 350.69229744 265.23502481 345.35115057 264.1496582 339.90380859 C258.23117509 310.57718707 248.66917878 282.64462103 235 256 C235.14074951 257.07604492 235.28149902 258.15208984 235.42651367 259.26074219 C236.84220103 270.62188007 237.36386776 281.80695083 237.3125 293.25 C237.30976578 294.52493317 237.30976578 294.52493317 237.30697632 295.82562256 C237.25928581 309.07861409 236.68646921 321.98335518 234 335 C233.82307617 335.87172852 233.64615234 336.74345703 233.46386719 337.64160156 C224.52833565 380.46733562 204.15365522 418.42684318 174 450 C172.69095703 451.38832031 172.69095703 451.38832031 171.35546875 452.8046875 C164.43187081 459.96143735 156.96502627 466.05176619 149 472 C148.14317627 472.64799561 148.14317627 472.64799561 147.26904297 473.30908203 C138.2978388 480.06757698 128.9646877 485.82271854 119 491 C118.2177002 491.40750488 117.43540039 491.81500977 116.62939453 492.23486328 C102.89671885 499.29264934 88.79791356 504.61292037 74 509 C73.22994629 509.22945313 72.45989258 509.45890625 71.66650391 509.6953125 C68.0244002 510.70397266 65.60265709 511.10409592 62 510 C62.90878906 509.22398437 63.81757813 508.44796875 64.75390625 507.6484375 C82.9966866 492.00161313 100.0988857 475.88910616 114.68261719 456.72021484 C116.00428144 454.99440937 117.34635842 453.28656532 118.6953125 451.58203125 C123.62545122 445.32367334 128.12365626 438.98057023 132 432 C130.58074219 433.10794922 130.58074219 433.10794922 129.1328125 434.23828125 C119.1672697 441.92077166 108.88774219 448.70026904 98 455 C97.06752441 455.54865723 97.06752441 455.54865723 96.11621094 456.10839844 C46.98038528 484.81363943 -14.67780227 489.80762633 -69.046875 475.6484375 C-103.06817839 466.39664808 -134.85237965 449.44278229 -160.59765625 425.24609375 C-162.82095751 423.16739745 -165.10589883 421.20512245 -167.4375 419.25 C-170.66593708 416.45909238 -172.84770992 413.67682888 -175 410 C-171.30248547 410.66236082 -167.85568898 411.64695771 -164.30078125 412.85546875 C-134.01466215 422.98445162 -103.05337094 430.16200337 -71 431 C-72.15113281 430.53851563 -73.30226562 430.07703125 -74.48828125 429.6015625 C-102.49256448 418.20143108 -127.16477273 402.96639805 -149 382 C-149.56364258 381.46358887 -150.12728516 380.92717773 -150.70800781 380.37451172 C-185.5822443 347.03119837 -206.79875575 303.27576745 -215 256 C-215.13277344 255.24783203 -215.26554688 254.49566406 -215.40234375 253.72070312 C-220.99629886 220.2512526 -216.39809027 185.26533297 -207 153 C-204.59860842 155.40139158 -204.55821078 156.49096981 -204.02734375 159.79296875 C-203.76896729 161.30286377 -203.76896729 161.30286377 -203.50537109 162.84326172 C-203.31797363 163.94686035 -203.13057617 165.05045898 -202.9375 166.1875 C-197.42508065 196.35608116 -187.83370691 227.06644342 -173 254 C-173.144375 253.06929687 -173.28875 252.13859375 -173.4375 251.1796875 C-181.38052888 193.33524984 -168.41629427 132.06776391 -133.37695312 84.81103516 C-126.42441676 75.77315123 -118.8623191 67.25189347 -111 59 C-110.20335938 58.15050781 -109.40671875 57.30101562 -108.5859375 56.42578125 C-101.93971557 49.5305966 -94.64057637 43.73250852 -87 38 C-86.43796875 37.57187012 -85.8759375 37.14374023 -85.296875 36.70263672 C-75.74232998 29.45022361 -65.64011609 23.51915702 -55 18 C-53.87682373 17.41387939 -53.87682373 17.41387939 -52.73095703 16.81591797 C-12.60315346 -3.85966169 -12.60315346 -3.85966169 0 0 Z M-40.0390625 159.79296875 C-57.27261666 179.18929963 -67.10566416 202.35217254 -70 228 C-70.33 228 -70.66 228 -71 228 C-74.56847913 210.78601577 -74.71635695 193.50908162 -75 176 C-90.49837846 196.08126143 -94.04699203 225.52773624 -91 250 C-86.60635404 279.07362674 -72.19466291 306.17582384 -48.859375 324.4609375 C-46.26811541 326.35455028 -43.65987683 328.20445452 -41 330 C-56.09158596 326.98860555 -70.47373104 319.54301267 -83.15112305 311.01147461 C-84.73412488 309.9559319 -86.3632384 308.97009108 -88 308 C-88.66 308.33 -89.32 308.66 -90 309 C-75.15793864 334.60778193 -51.22831066 354.33616122 -22.47119141 362.21411133 C4.61775293 369.27999804 30.46712058 366.94737081 56.28271484 356.5949707 C58 356 58 356 60 356 C47.6544975 366.95064809 34.73327075 375.87049627 20.046875 383.40625 C16.94435951 384.96063517 16.94435951 384.96063517 14 387 C48.43428862 386.23649027 78.45923841 374.83560303 102.6328125 349.7109375 C118.59821985 331.42712116 127.84870684 310.19252846 131.45703125 286.28125 C132 283 132 283 133 281 C136.67504919 298.52004582 136.72061947 316.1736698 137 334 C152.26241277 314.3135446 155.97249138 285.22712744 153.25 261.1875 C149.08739356 229.39724144 132.56705552 203.16641473 108 183 C106.3556375 181.96373278 104.69517299 180.9508766 103 180 C118.09158596 183.01139445 132.47373104 190.45698733 145.15112305 198.98852539 C146.73412488 200.0440681 148.3632384 201.02990892 150 202 C150.66 201.67 151.32 201.34 152 201 C136.34376967 174.33631764 111.88449879 155.20295715 82 147 C80.37384766 146.52240234 80.37384766 146.52240234 78.71484375 146.03515625 C54.04497894 139.88893276 28.84621272 144.13001863 5.71728516 153.4050293 C4 154 4 154 2 154 C14.3455025 143.04935191 27.26672925 134.12950373 41.953125 126.59375 C45.05564049 125.03936483 45.05564049 125.03936483 48 123 C14.35087638 122.54883857 -16.65118528 135.59367538 -40.0390625 159.79296875 Z " fill="#FFFFFF" transform="translate(225,1)"/>
</svg>
