<?xml version="1.0" encoding="UTF-8"?>
<svg version="1.1" xmlns="http://www.w3.org/2000/svg" width="2048" height="2048">
<path d="M0 0 C3.97881318 0.00675747 7.9575878 -0.00398004 11.93639255 -0.01239584 C18.89803446 -0.02472858 25.85960894 -0.02598989 32.82125807 -0.01984541 C43.17390523 -0.01073252 53.52649031 -0.0188039 63.87913272 -0.03013665 C82.37304586 -0.04978259 100.86693094 -0.05215492 119.36085203 -0.04694145 C135.54788242 -0.04238067 151.73490172 -0.04298794 167.92193175 -0.04878179 C170.09495068 -0.04953867 172.26796962 -0.05029465 174.44098856 -0.05104974 C177.71571856 -0.05219496 180.99044855 -0.05334484 184.26517854 -0.05450898 C214.70303151 -0.06521098 245.14088078 -0.06994235 275.57873488 -0.06203882 C277.29909187 -0.06159306 277.29909187 -0.06159306 279.05420354 -0.0611383 C288.36729865 -0.05868947 297.68039371 -0.05607783 306.99348877 -0.05345416 C343.31491715 -0.04335313 379.6362993 -0.05170565 415.95772124 -0.07494871 C456.787281 -0.10103452 497.61681293 -0.11386566 538.44638133 -0.10676096 C542.80189927 -0.10604492 547.15741722 -0.10537053 551.51293517 -0.10472052 C553.12153308 -0.1044658 553.12153308 -0.1044658 554.76262792 -0.10420594 C570.93412253 -0.10190524 587.10559126 -0.10986904 603.27708006 -0.12301199 C621.67385605 -0.13793703 640.07057146 -0.13874793 658.46734617 -0.12094108 C668.75458096 -0.11139297 679.04167439 -0.11278246 689.32889969 -0.13017577 C696.21104757 -0.1406951 703.09308821 -0.13652305 709.9752256 -0.12069573 C713.88938333 -0.11209654 717.8032649 -0.1095584 721.71740803 -0.12496505 C741.29505088 -0.1967625 760.33151141 0.32036719 778.79756499 7.64160402 C779.57051909 7.93897463 780.34347319 8.23634523 781.13985014 8.54272707 C802.81533827 17.11879744 819.06962537 31.31222183 835.41237784 47.6846958 C836.31009406 48.58005978 837.20781027 49.47542377 838.13273001 50.39792 C840.60612587 52.86498281 843.07646401 55.33508693 845.54627274 57.80574014 C848.24084944 60.500146 850.93829836 63.19167399 853.63536275 65.88358929 C858.97590092 71.21483956 864.31376991 76.54875488 869.6508046 81.88351217 C876.04704507 88.2767807 882.44614834 94.66718097 888.84527107 101.05756436 C904.30693842 116.49842958 919.76345736 131.94444416 935.21913789 147.39130158 C942.53408831 154.70204048 949.84954337 162.01227432 957.16501376 169.32249291 C982.21937591 194.35897088 1007.27229402 219.39689302 1032.32143546 244.43859442 C1033.8927088 246.00939301 1035.46398272 247.58019104 1037.0352572 249.1509885 C1037.81444065 249.92993558 1038.5936241 250.70888265 1039.39641917 251.51143418 C1043.34393011 255.45774396 1047.2914482 259.40404659 1051.23897124 263.35034426 C1052.02235536 264.13348824 1052.80573949 264.91663221 1053.61286253 265.72350783 C1079.01592287 291.11867405 1104.4267431 316.50605703 1129.84209971 341.88891679 C1156.7297878 368.74228831 1183.61015788 395.60296417 1210.48233903 422.47185375 C1213.43353282 425.42263002 1216.38475762 428.37337526 1219.33600569 431.32409723 C1220.06265191 432.05062027 1220.78929814 432.7771433 1221.53796394 433.52568218 C1233.21780628 445.20319516 1244.9042927 456.87403688 1256.59321276 468.54246246 C1268.34613456 480.27510444 1280.09162277 492.01514745 1291.8296604 503.76268073 C1298.79725513 510.73548143 1305.77031149 517.70271185 1312.75145871 524.66194437 C1317.42190322 529.31883788 1322.08495614 533.98304856 1326.74222796 538.65311557 C1329.39084964 541.30860511 1332.04240278 543.96095612 1334.70306187 546.60438939 C1353.50820026 565.29551345 1369.20195037 583.5642351 1377.86006499 608.95410402 C1378.1343936 609.75549807 1378.40872221 610.55689211 1378.69136382 611.38257082 C1379.54196621 614.03479085 1380.2705845 616.69934012 1380.98506499 619.39160402 C1381.37604962 620.84767057 1381.37604962 620.84767057 1381.77493292 622.33315261 C1384.90915871 636.18565548 1384.41251042 650.28607141 1384.37666901 664.40653904 C1384.36991154 668.38535221 1384.38064905 672.36412684 1384.38906485 676.34293159 C1384.40139759 683.3045735 1384.40265891 690.26614798 1384.39651442 697.22779711 C1384.38740153 707.58044426 1384.39547291 717.93302935 1384.40680566 728.28567175 C1384.4264516 746.7795849 1384.42882393 765.27346998 1384.42361046 783.76739107 C1384.41904968 799.95442146 1384.41965695 816.14144075 1384.42545081 832.32847078 C1384.42620768 834.50148972 1384.42696366 836.67450866 1384.42771875 838.8475276 C1384.42886397 842.12225759 1384.43001385 845.39698759 1384.43117799 848.67171758 C1384.44187999 879.10957054 1384.44661136 909.54741982 1384.43870783 939.98527392 C1384.43826207 941.7056309 1384.43826207 941.7056309 1384.43780731 943.46074258 C1384.43535848 952.77383768 1384.43274684 962.08693274 1384.43012317 971.4000278 C1384.42002214 1007.72145619 1384.42837466 1044.04283834 1384.45161772 1080.36426027 C1384.47770354 1121.19382004 1384.49053468 1162.02335197 1384.48342997 1202.85292037 C1384.48271394 1207.20843831 1384.48203955 1211.56395625 1384.48138953 1215.9194742 C1384.48121972 1216.99187281 1384.48104991 1218.06427142 1384.48087495 1219.16916695 C1384.47857425 1235.34066157 1384.48653805 1251.51213029 1384.499681 1267.6836191 C1384.51460604 1286.08039508 1384.51541694 1304.4771105 1384.49761009 1322.8738852 C1384.48806198 1333.16112 1384.48945147 1343.44821343 1384.50684478 1353.73543872 C1384.51736411 1360.61758661 1384.51319206 1367.49962725 1384.49736474 1374.38176464 C1384.48876555 1378.29592237 1384.48622741 1382.20980393 1384.50163406 1386.12394707 C1384.57343152 1405.70158992 1384.05630182 1424.73805045 1376.73506499 1443.20410402 C1376.43769438 1443.97705813 1376.14032378 1444.75001223 1375.83394194 1445.54638918 C1367.25787157 1467.2218773 1353.06444718 1483.47616441 1336.69197321 1499.81891687 C1335.79660923 1500.71663309 1334.90124524 1501.61434931 1333.97874901 1502.53926905 C1331.5116862 1505.01266491 1329.04158208 1507.48300304 1326.57092887 1509.95281178 C1323.87652301 1512.64738847 1321.18499502 1515.3448374 1318.49307973 1518.04190178 C1313.16182945 1523.38243996 1307.82791413 1528.72030895 1302.49315684 1534.05734364 C1296.09988831 1540.4535841 1289.70948805 1546.85268738 1283.31910465 1553.2518101 C1267.87823943 1568.71347746 1252.43222485 1584.1699964 1236.98536743 1599.62567693 C1229.67462853 1606.94062734 1222.36439469 1614.25608241 1215.0541761 1621.57155279 C1190.01769814 1646.62591495 1164.97977599 1671.67883305 1139.93807459 1696.72797449 C1138.367276 1698.29924784 1136.79647797 1699.87052176 1135.22568051 1701.44179624 C1134.0572599 1702.61057141 1134.0572599 1702.61057141 1132.86523483 1703.80295821 C1128.91892505 1707.75046914 1124.97262243 1711.69798723 1121.02632475 1715.64551027 C1120.24318078 1716.4288944 1119.4600368 1717.21227853 1118.65316118 1718.01940157 C1093.25799496 1743.42246191 1067.87061198 1768.83328214 1042.48775222 1794.24863875 C1015.6343807 1821.13632683 988.77370484 1848.01669691 961.90481526 1874.88887807 C958.95403899 1877.84007185 956.00329375 1880.79129666 953.05257178 1883.74254473 C952.32604875 1884.46919095 951.59952571 1885.19583718 950.85098683 1885.94450298 C939.17347385 1897.62434532 927.50263214 1909.31083174 915.83420656 1920.9997518 C904.10156457 1932.7526736 892.36152156 1944.4981618 880.61398828 1956.23619944 C873.64118758 1963.20379417 866.67395716 1970.17685053 859.71472464 1977.15799775 C855.05783113 1981.82844226 850.39362046 1986.49149517 845.72355344 1991.14876699 C843.0680639 1993.79738868 840.41571289 1996.44894182 837.77227962 1999.1096009 C819.08115556 2017.9147393 800.81243391 2033.60848941 775.42256499 2042.26660402 C774.62117094 2042.54093264 773.8197769 2042.81526125 772.99409819 2043.09790285 C770.34187816 2043.94850525 767.67732889 2044.67712354 764.98506499 2045.39160402 C763.52899844 2045.78258865 763.52899844 2045.78258865 762.0435164 2046.18147196 C748.19101353 2049.31569775 734.0905976 2048.81904945 719.97012997 2048.78320805 C715.9913168 2048.77645058 712.01254217 2048.78718808 708.03373742 2048.79560389 C701.07209551 2048.80793663 694.11052103 2048.80919794 687.1488719 2048.80305346 C676.79622475 2048.79394056 666.44363966 2048.80201195 656.09099726 2048.8133447 C637.59708411 2048.83299064 619.10319903 2048.83536296 600.60927794 2048.8301495 C584.42224755 2048.82558872 568.23522826 2048.82619599 552.04819823 2048.83198984 C549.87517929 2048.83274672 547.70216035 2048.8335027 545.52914141 2048.83425779 C542.25441142 2048.83540301 538.97968142 2048.83655289 535.70495143 2048.83771703 C505.26709847 2048.84841903 474.82924919 2048.8531504 444.3913951 2048.84524687 C442.67103811 2048.84480111 442.67103811 2048.84480111 440.91592644 2048.84434634 C431.60283133 2048.84189752 422.28973627 2048.83928588 412.97664121 2048.83666221 C376.65521282 2048.82656118 340.33383067 2048.83491369 304.01240874 2048.85815676 C263.18284897 2048.88424257 222.35331704 2048.89707371 181.52374864 2048.88996901 C177.1682307 2048.88925297 172.81271276 2048.88857858 168.45719481 2048.88792856 C166.8485969 2048.88767385 166.8485969 2048.88767385 165.20750206 2048.88741399 C149.03600745 2048.88511329 132.86453872 2048.89307709 116.69304991 2048.90622004 C98.29627393 2048.92114508 79.89955851 2048.92195598 61.50278381 2048.90414913 C51.21554901 2048.89460102 40.92845558 2048.8959905 30.64123029 2048.91338381 C23.7590824 2048.92390315 16.87704176 2048.9197311 9.99490438 2048.90390378 C6.08074664 2048.89530458 2.16686508 2048.89276645 -1.74727806 2048.90817309 C-37.14061424 2049.03760699 -69.82482239 2042.6750353 -97.01493501 2018.39160402 C-97.78875245 2017.70654435 -98.56256989 2017.02148468 -99.35983634 2016.31566562 C-105.227869 2011.08343434 -110.87320433 2005.67767534 -116.42663049 2000.11412962 C-117.32265834 1999.22045401 -118.21868618 1998.32677839 -119.14186638 1997.4060217 C-121.61052696 1994.94369397 -124.07613001 1992.47832515 -126.54120356 1990.01240711 C-129.23064724 1987.32313427 -131.92296317 1984.63673933 -134.61489451 1981.94995703 C-139.94523013 1976.62890918 -145.27289669 1971.3051964 -150.59972891 1965.9806416 C-156.98375824 1959.59958424 -163.37065037 1953.22139513 -169.75756192 1946.84322287 C-185.18971094 1931.43187584 -200.61671167 1916.01537959 -216.04287395 1900.59804044 C-223.34387215 1893.30125377 -230.64537499 1886.00497215 -237.94689314 1878.70870578 C-262.95353503 1853.71994807 -287.95873287 1828.72974619 -312.96015405 1803.73576506 C-314.52842981 1802.16796405 -316.09670614 1800.60016361 -317.66498304 1799.03236373 C-318.44267989 1798.25490326 -319.22037675 1797.47744278 -320.02164018 1796.67642289 C-323.96161876 1792.73764547 -327.90160449 1788.7988752 -331.84159517 1784.86010988 C-333.0144291 1783.68763618 -333.0144291 1783.68763618 -334.21095664 1782.49147614 C-359.56551517 1757.14481171 -384.92783358 1731.80593055 -410.29468839 1706.47157261 C-437.13114797 1679.66942972 -463.96028942 1652.85998238 -490.78124201 1626.04232134 C-493.72681882 1623.09716206 -496.67242664 1620.1520338 -499.61805772 1617.20692881 C-500.3433208 1616.48178893 -501.06858387 1615.75664904 -501.81582461 1615.00953523 C-513.47335096 1603.35433822 -525.13752132 1591.70581247 -536.80412544 1580.05970294 C-548.53464318 1568.34946517 -560.2577271 1556.63182622 -571.97336064 1544.9066971 C-578.92762473 1537.94722711 -585.88735013 1530.99332728 -592.85516682 1524.0474256 C-597.51672561 1519.39941808 -602.17089235 1514.74409307 -606.81927843 1510.08291203 C-609.46282507 1507.43249772 -612.10930248 1504.78522164 -614.76488672 1502.14686383 C-633.55840684 1483.46750915 -649.2373506 1465.20275567 -657.88993501 1439.82910402 C-658.16426363 1439.02770998 -658.43859224 1438.22631594 -658.72123384 1437.40063723 C-659.57183624 1434.74841719 -660.30045453 1432.08386793 -661.01493501 1429.39160402 C-661.40591964 1427.93553747 -661.40591964 1427.93553747 -661.80480295 1426.45005544 C-664.93902874 1412.59755257 -664.44238044 1398.49713664 -664.40653904 1384.37666901 C-664.39978157 1380.39785584 -664.41051907 1376.41908121 -664.41893488 1372.44027646 C-664.43126762 1365.47863455 -664.43252893 1358.51706007 -664.42638445 1351.55541094 C-664.41727155 1341.20276379 -664.42534294 1330.8501787 -664.43667569 1320.49753629 C-664.45632163 1302.00362315 -664.45869395 1283.50973807 -664.45348048 1265.01581698 C-664.44891971 1248.82878659 -664.44952698 1232.6417673 -664.45532083 1216.45473726 C-664.4560777 1214.28171833 -664.45683368 1212.10869939 -664.45758878 1209.93568045 C-664.458734 1206.66095045 -664.45988388 1203.38622046 -664.46104802 1200.11149047 C-664.47175002 1169.6736375 -664.47648138 1139.23578823 -664.46857786 1108.79793413 C-664.46828068 1107.65102947 -664.46798351 1106.50412482 -664.46767733 1105.32246547 C-664.46522851 1096.00937037 -664.46261687 1086.6962753 -664.4599932 1077.38318024 C-664.44989216 1041.06175186 -664.45824468 1004.74036971 -664.48148775 968.41894777 C-664.50757356 927.58938801 -664.5204047 886.75985608 -664.5133 845.93028768 C-664.51258396 841.57476974 -664.51190957 837.21925179 -664.51125955 832.86373385 C-664.51108974 831.79133524 -664.51091993 830.71893663 -664.51074498 829.61404109 C-664.50844428 813.44254648 -664.51640808 797.27107776 -664.52955103 781.09958895 C-664.54447607 762.70281296 -664.54528697 744.30609755 -664.52748011 725.90932285 C-664.51793201 715.62208805 -664.51932149 705.33499462 -664.5367148 695.04776932 C-664.54723414 688.16562144 -664.54306208 681.2835808 -664.52723477 674.40144341 C-664.51863557 670.48728568 -664.51609744 666.57340411 -664.53150408 662.65926098 C-664.66093797 627.2659248 -658.29836629 594.58171665 -634.01493501 567.39160402 C-633.32987534 566.61778658 -632.64481567 565.84396915 -631.93899661 565.04670269 C-626.70676532 559.17867004 -621.30100633 553.53333471 -615.73746061 547.97990854 C-614.843785 547.0838807 -613.95010938 546.18785286 -613.02935269 545.26467265 C-610.56702496 542.79601208 -608.10165614 540.33040903 -605.6357381 537.86533548 C-602.94646526 535.1758918 -600.26007032 532.48357587 -597.57328802 529.79164453 C-592.25224017 524.4613089 -586.92852739 519.13364235 -581.60397259 513.80681013 C-575.22291523 507.4227808 -568.84472612 501.03588867 -562.46655385 494.64897712 C-547.05520683 479.2168281 -531.63871058 463.78982737 -516.22137143 448.36366509 C-508.92458476 441.06266689 -501.62830314 433.76116405 -494.33203677 426.4596459 C-469.34327906 401.45300401 -444.35307718 376.44780617 -419.35909605 351.44638498 C-417.79129504 349.87810922 -416.2234946 348.30983289 -414.65569472 346.741556 C-413.87823424 345.96385914 -413.10077376 345.18616229 -412.29975388 344.38489886 C-408.36097646 340.44492028 -404.42220619 336.50493455 -400.48344087 332.56494387 C-399.70179174 331.78305458 -398.9201426 331.0011653 -398.11480713 330.1955824 C-372.7681427 304.84102386 -347.42926153 279.47870546 -322.09490359 254.11185065 C-295.29276071 227.27539107 -268.48331337 200.44624962 -241.66565233 173.62529703 C-238.72049305 170.67972022 -235.77536479 167.7341124 -232.8302598 164.78848131 C-232.10511991 164.06321824 -231.37998003 163.33795517 -230.63286622 162.59071442 C-218.97766921 150.93318808 -207.32914346 139.26901772 -195.68303393 127.6024136 C-183.97279616 115.87189585 -172.25515721 104.14881194 -160.53002809 92.4331784 C-153.5705581 85.47891431 -146.61665827 78.51918891 -139.67075659 71.55137222 C-135.02274906 66.88981343 -130.36742406 62.23564669 -125.70624302 57.58726061 C-123.0558287 54.94371397 -120.40855263 52.29723655 -117.77019482 49.64165232 C-99.09084014 30.8481322 -80.82608666 15.16918844 -55.45243501 6.51660402 C-54.65104097 6.24227541 -53.84964693 5.9679468 -53.02396822 5.6853052 C-50.37174818 4.8347028 -47.70719892 4.10608451 -45.01493501 3.39160402 C-44.04422398 3.1309476 -43.07351295 2.87029119 -42.07338643 2.60173609 C-28.22088356 -0.5324897 -14.12046763 -0.0358414 0 0 Z M-406.07093477 699.7376581 C-438.59512999 776.9981409 -454.83961688 861.46152689 -408.01493501 1344.39160402 C-376.14054625 1421.29736054 -328.66886402 1491.85834894 39.98506499 1792.39160402 C117.72922228 1824.03185768 201.98800184 1840.04363626 684.63901091 1790.44760378 C761.26468316 1757.73644846 831.50397403 1710.11910025 1128.93607283 1342.0548559 C1160.16373527 1264.09132777 1176.03554317 1179.90987758 1125.05121264 697.41893588 C1091.95826256 620.92911683 1044.23054626 550.84612508 675.30572844 254.50229128 C597.1509958 223.65194705 513.00666282 207.95253333 -406.07093477 699.7376581 Z " fill="#35B149" transform="translate(664.0149350129068,-0.3916040239855647)"/>
<path d="M0 0 C1.7953418 0.25740967 1.7953418 0.25740967 3.62695312 0.52001953 C75.14576598 10.90268061 145.0248695 37.52967189 203.28417969 80.72851562 C205.15436924 82.11439315 207.03433439 83.48646778 208.9140625 84.859375 C217.96655169 91.5151699 226.59248846 98.54861589 235 106 C235.88171875 106.78117188 236.7634375 107.56234375 237.671875 108.3671875 C240.12728025 110.5645406 242.56549944 112.77952147 245 115 C246.43279297 116.29357422 246.43279297 116.29357422 247.89453125 117.61328125 C256.77487885 125.65504881 265.49119649 133.8676357 273.2734375 142.99609375 C275.21741046 145.25233386 277.23323518 147.43363893 279.25 149.625 C284.35310006 155.2825965 289.01408627 161.24580171 293.66210938 167.27685547 C294.87887099 168.84399113 296.11794956 170.39373513 297.359375 171.94140625 C309.53037956 187.27768884 320.36972272 203.95584047 330 221 C330.45294434 221.80050781 330.90588867 222.60101562 331.37255859 223.42578125 C359.6885312 273.7735758 377.68145778 327.7934242 386 385 C386.16516113 386.10537109 386.33032227 387.21074219 386.50048828 388.34960938 C391.83038597 425.85180576 391.67907764 466.56795264 386 504 C385.82839355 505.19689453 385.65678711 506.39378906 385.47998047 507.62695312 C375.09731939 579.14576598 348.47032811 649.0248695 305.27148438 707.28417969 C303.88560685 709.15436924 302.51353222 711.03433439 301.140625 712.9140625 C294.4848301 721.96655169 287.45138411 730.59248846 280 739 C279.21882813 739.88171875 278.43765625 740.7634375 277.6328125 741.671875 C275.4354594 744.12728025 273.22047853 746.56549944 271 749 C270.13761719 749.95519531 269.27523437 750.91039062 268.38671875 751.89453125 C260.34495119 760.77487885 252.1323643 769.49119649 243.00390625 777.2734375 C240.74766614 779.21741046 238.56636107 781.23323518 236.375 783.25 C230.71334404 788.35676166 224.74555735 793.0198815 218.70996094 797.67089844 C217.18086809 798.85941663 215.67106997 800.07266253 214.1640625 801.2890625 C196.1367303 815.66153831 176.24585697 828.04000887 156 839 C154.67234619 839.72944824 154.67234619 839.72944824 153.31787109 840.47363281 C107.67681354 865.47508773 57.57189628 881.44082123 6.1875 889.25 C5.20056152 889.40114258 4.21362305 889.55228516 3.19677734 889.70800781 C-17.35458756 892.64344378 -37.82562656 893.37404225 -58.5625 893.3125 C-60.47863098 893.30976578 -60.47863098 893.30976578 -62.43347168 893.30697632 C-81.14614626 893.26204037 -99.47281315 892.81088906 -118 890 C-119.19689453 889.82839355 -120.39378906 889.65678711 -121.62695312 889.47998047 C-193.14576598 879.09731939 -263.0248695 852.47032811 -321.28417969 809.27148438 C-323.15436924 807.88560685 -325.03433439 806.51353222 -326.9140625 805.140625 C-335.96655169 798.4848301 -344.59248846 791.45138411 -353 784 C-353.88171875 783.21882813 -354.7634375 782.43765625 -355.671875 781.6328125 C-358.12728025 779.4354594 -360.56549944 777.22047853 -363 775 C-363.95519531 774.13761719 -364.91039062 773.27523437 -365.89453125 772.38671875 C-374.77487885 764.34495119 -383.49119649 756.1323643 -391.2734375 747.00390625 C-393.21741046 744.74766614 -395.23323518 742.56636107 -397.25 740.375 C-402.35310006 734.7174035 -407.01408627 728.75419829 -411.66210938 722.72314453 C-412.87887099 721.15600887 -414.11794956 719.60626487 -415.359375 718.05859375 C-427.53037956 702.72231116 -438.36972272 686.04415953 -448 669 C-448.45294434 668.19949219 -448.90588867 667.39898438 -449.37255859 666.57421875 C-477.6885312 616.2264242 -495.68145778 562.2065758 -504 505 C-504.16516113 503.89462891 -504.33032227 502.78925781 -504.50048828 501.65039062 C-509.83038597 464.14819424 -509.67907764 423.43204736 -504 386 C-503.82839355 384.80310547 -503.65678711 383.60621094 -503.47998047 382.37304688 C-493.09731939 310.85423402 -466.47032811 240.9751305 -423.27148438 182.71582031 C-421.88560685 180.84563076 -420.51353222 178.96566561 -419.140625 177.0859375 C-412.4848301 168.03344831 -405.45138411 159.40751154 -398 151 C-397.21882812 150.11828125 -396.43765625 149.2365625 -395.6328125 148.328125 C-393.4354594 145.87271975 -391.22047853 143.43450056 -389 141 C-387.70642578 139.56720703 -387.70642578 139.56720703 -386.38671875 138.10546875 C-378.34495119 129.22512115 -370.1323643 120.50880351 -361.00390625 112.7265625 C-358.74766614 110.78258954 -356.56636107 108.76676482 -354.375 106.75 C-348.7174035 101.64689994 -342.75419829 96.98591373 -336.72314453 92.33789062 C-335.15600887 91.12112901 -333.60626487 89.88205044 -332.05859375 88.640625 C-316.72231116 76.46962044 -300.04415953 65.63027728 -283 56 C-282.19949219 55.54705566 -281.39898438 55.09411133 -280.57421875 54.62744141 C-230.2264242 26.3114688 -176.2065758 8.31854222 -119 0 C-117.89462891 -0.16516113 -116.78925781 -0.33032227 -115.65039062 -0.50048828 C-78.14819424 -5.83038597 -37.43204736 -5.67907764 0 0 Z " fill="#35B149" transform="translate(1083,579)"/>
</svg>
