<?xml version="1.0" encoding="UTF-8"?>
<svg version="1.1" xmlns="http://www.w3.org/2000/svg" width="512" height="512">
<path d="M0 0 C0.78634536 0.22036198 1.57269071 0.44072397 2.38286471 0.66776359 C5.00517343 1.40509535 7.6235552 2.15548784 10.24212646 2.90597534 C12.1265523 3.43885777 14.01119663 3.97096804 15.89604187 4.50236511 C21.0082335 5.94640287 26.11700347 7.40220565 31.22503757 8.86087275 C35.49558747 10.07931425 39.76770784 11.29219701 44.03981853 12.50515258 C54.12482231 15.36871126 64.20701864 18.24200079 74.28753662 21.12130737 C84.66903332 24.08639654 95.05510591 27.03501648 105.44359231 29.97551358 C114.37566497 32.50440535 123.30475971 35.04361681 132.23157096 37.59101856 C137.55717265 39.11064595 142.88379759 40.6264001 148.2133255 42.13220596 C153.23019237 43.55015506 158.24319845 44.98102503 163.25360298 46.42163658 C165.0859881 46.94620281 166.91965389 47.46632062 168.75470543 47.98148155 C186.21265687 52.8879998 200.10087117 58.52244437 209.4598999 74.88986206 C212.25993106 80.82290106 213.20085948 86.34981894 213.16590881 92.85923767 C213.16973436 93.62557115 213.17355991 94.39190462 213.17750138 95.18146032 C213.18777051 97.73415286 213.18385066 100.28661789 213.17987061 102.83932495 C213.18422093 104.67656155 213.18940515 106.51379634 213.19535828 108.35102844 C213.20873748 113.33542369 213.20932722 118.31974303 213.20679498 123.30415273 C213.2057227 127.48027318 213.21061615 131.65637844 213.2154004 135.83249563 C213.2264958 145.70457534 213.22693538 155.57661702 213.22088623 165.44869995 C213.21487092 175.58281502 213.22709496 185.7167904 213.2484563 195.85088164 C213.26617827 204.58421201 213.27205637 213.31749839 213.26881856 222.05084604 C213.26701942 227.25161337 213.26950138 232.45228147 213.2835331 237.6530323 C213.3877972 279.95345079 213.3877972 279.95345079 209.9052124 296.95236206 C209.62591102 298.32028664 209.62591102 298.32028664 209.34096718 299.71584606 C201.92739632 335.48858084 186.41190923 367.32436053 163.9052124 395.95236206 C163.16915771 396.90240112 162.43310303 397.85244019 161.67474365 398.83126831 C147.23472094 417.00998359 130.405008 432.99208196 111.9052124 446.95236206 C111.20299561 447.48973999 110.50077881 448.02711792 109.77728271 448.58078003 C76.65760174 473.89357589 39.79716837 492.33179778 0.9052124 506.95236206 C0.07408936 507.28912964 -0.75703369 507.62589722 -1.61334229 507.97286987 C-10.6015216 511.41009912 -18.13572648 508.96948087 -26.8447876 505.70236206 C-27.78161377 505.35447632 -28.71843994 505.00659058 -29.68365479 504.64816284 C-74.56162805 487.60561758 -118.23355845 463.41294812 -153.4151001 430.44845581 C-155.6858921 428.33324285 -157.99007802 426.2851479 -160.3447876 424.26486206 C-167.14844581 418.34863753 -173.31678254 411.8659288 -179.0947876 404.95236206 C-179.72876465 404.197052 -179.72876465 404.197052 -180.37554932 403.42648315 C-204.71316891 374.26030694 -222.587961 340.51988781 -230.8447876 303.32736206 C-231.04362549 302.43420288 -231.24246338 301.5410437 -231.44732666 300.62081909 C-234.52545286 285.98256029 -235.39501428 271.67764811 -235.38531494 256.77731323 C-235.39131539 254.91104874 -235.39812436 253.04478671 -235.40567017 251.17852783 C-235.42317001 246.16028816 -235.42801833 241.14211688 -235.42930174 236.12384963 C-235.43073153 232.98118822 -235.43501637 229.83854377 -235.44029617 226.69588661 C-235.45873399 215.7124383 -235.46697349 204.72903823 -235.46539307 193.74557495 C-235.46418907 183.53547084 -235.485358 173.3255772 -235.51688039 163.11552638 C-235.54306761 154.31764241 -235.55375954 145.5198272 -235.55248225 136.72190458 C-235.55197392 131.48078392 -235.55758765 126.23985128 -235.57883835 120.99876976 C-235.59826545 116.07457138 -235.5983147 111.15073983 -235.58380508 106.22652817 C-235.58172238 104.42667794 -235.58638555 102.62680443 -235.598526 100.82699394 C-235.69382232 85.71412438 -233.38100108 74.70267163 -223.0947876 62.95236206 C-216.22617765 56.53633494 -207.83946566 52.90184319 -198.89079285 50.3833313 C-198.10485436 50.15531822 -197.31891586 49.92730514 -196.50916106 49.69238257 C-193.89908909 48.93725138 -191.28596202 48.19333081 -188.67266846 47.44943237 C-186.79105764 46.90762587 -184.90963853 46.36515325 -183.02839661 45.82206726 C-177.93563523 44.35417071 -172.84006375 42.89626961 -167.74377131 41.44068623 C-163.48570993 40.22350232 -159.22907972 39.00135619 -154.97244459 37.77919555 C-144.93183199 34.89639963 -134.8889483 32.02162167 -124.84454346 29.15206909 C-114.48619143 26.19269695 -104.13147319 23.22086734 -93.77850431 20.24272275 C-84.88172692 17.6838788 -75.98290503 15.1322423 -67.08237177 12.58649325 C-61.76976086 11.06692614 -56.45793077 9.54476174 -51.14799309 8.01587677 C-46.15744108 6.57933864 -41.16438856 5.15184806 -36.16927147 3.73126793 C-34.33780207 3.20880344 -32.50722842 2.68318701 -30.67763901 2.15417671 C-28.17805397 1.43199471 -25.67546533 0.72133838 -23.17179871 0.01345825 C-22.45058348 -0.19781543 -21.72936826 -0.4090891 -20.98629802 -0.62676501 C-13.43872352 -2.73264276 -7.42521874 -2.15559413 0 0 Z M-67.4697876 89.26486206 C-73.4531909 96.92633032 -75.22666335 105.11322148 -75.20831299 114.69210815 C-75.20845901 115.33671997 -75.20860504 115.98133179 -75.20875549 116.64547729 C-75.20806421 118.75562011 -75.20030893 120.86567235 -75.19244385 122.97579956 C-75.19057688 124.44695996 -75.18915429 125.91812098 -75.18815613 127.38928223 C-75.18435293 131.24601991 -75.17454157 135.10271944 -75.16345215 138.95944214 C-75.15319062 142.90108728 -75.14864838 146.84273864 -75.14361572 150.78439331 C-75.13291718 158.50706688 -75.11586737 166.22970911 -75.0947876 173.95236206 C-75.90165512 173.94792084 -76.70852264 173.94347961 -77.5398407 173.93890381 C-85.17470903 173.89869149 -92.8095254 173.86830909 -100.44447231 173.84873772 C-104.36889126 173.83833737 -108.29322208 173.82424738 -112.21759033 173.80148315 C-116.01069559 173.77962012 -119.80371652 173.76776529 -123.59687996 173.76260757 C-125.03802885 173.75893583 -126.47917356 173.75176636 -127.92028618 173.74090195 C-140.89429683 173.6470558 -151.83477217 174.55902919 -161.91900635 183.58517456 C-169.08982765 191.3520591 -171.2062594 200.38252284 -171.24005127 210.73287964 C-171.24340988 211.38254196 -171.24676849 212.03220428 -171.25022888 212.70155334 C-171.25966928 214.83335319 -171.26167856 216.9650739 -171.26275635 219.09689331 C-171.26597398 220.59133434 -171.26933842 222.08577507 -171.27284241 223.58021545 C-171.27881659 226.70793385 -171.2806841 229.83562469 -171.28009033 232.96334839 C-171.27998887 236.95089107 -171.29363273 240.93825508 -171.31086254 244.9257555 C-171.32203808 248.01175227 -171.32400783 251.09770662 -171.32348061 254.18372154 C-171.32465268 255.65277407 -171.32903057 257.12182798 -171.33681297 258.59086037 C-171.39939648 271.62527422 -170.53340527 282.64175332 -161.4619751 292.77658081 C-153.7123351 299.93148099 -144.68975476 302.08568575 -134.3550415 302.06588745 C-133.38812378 302.06610649 -133.38812378 302.06610649 -132.40167236 302.06632996 C-130.29152954 302.06563867 -128.18147731 302.05788339 -126.0713501 302.05001831 C-124.6001897 302.04815134 -123.12902868 302.04672875 -121.65786743 302.04573059 C-117.80112975 302.04192739 -113.94443021 302.03211604 -110.08770752 302.02102661 C-106.14606238 302.01076509 -102.20441102 302.00622284 -98.26275635 302.00119019 C-90.54008278 301.99049165 -82.81744055 301.97344183 -75.0947876 301.95236206 C-75.09922882 302.75922958 -75.10367004 303.56609711 -75.10824585 304.39741516 C-75.14845816 312.03228349 -75.17884057 319.66709986 -75.19841194 327.30204678 C-75.20881228 331.22646572 -75.22290228 335.15079655 -75.2456665 339.07516479 C-75.26752954 342.86827005 -75.27938436 346.66129098 -75.28454208 350.45445442 C-75.28821383 351.89560331 -75.2953833 353.33674803 -75.30624771 354.77786064 C-75.40009386 367.7518713 -74.48812046 378.69234663 -65.4619751 388.77658081 C-57.69509056 395.94740211 -48.66462682 398.06383386 -38.31427002 398.09762573 C-37.6646077 398.10098434 -37.01494537 398.10434296 -36.34559631 398.10780334 C-34.21379646 398.11724375 -32.08207576 398.11925302 -29.95025635 398.12033081 C-28.45581532 398.12354844 -26.96137459 398.12691289 -25.4669342 398.13041687 C-22.33921581 398.13639105 -19.21152497 398.13825856 -16.08380127 398.13766479 C-12.09625859 398.13756333 -8.10889458 398.1512072 -4.12139416 398.168437 C-1.03539739 398.17961255 2.05055696 398.1815823 5.13657188 398.18105507 C6.60562441 398.18222715 8.07467833 398.18660503 9.54371071 398.19438744 C22.57812456 398.25697094 33.59460367 397.39097973 43.72943115 388.31954956 C50.88433134 380.56990956 53.03853609 371.54732922 53.01873779 361.21261597 C53.01895683 360.24569824 53.01895683 360.24569824 53.0191803 359.25924683 C53.01848901 357.14910401 53.01073373 355.03905177 53.00286865 352.92892456 C53.00100168 351.45776416 52.9995791 349.98660314 52.99858093 348.51544189 C52.99477773 344.65870421 52.98496638 340.80200468 52.97387695 336.94528198 C52.96361543 333.00363684 52.95907318 329.06198548 52.95404053 325.12033081 C52.94334199 317.39765724 52.92629217 309.67501501 52.9052124 301.95236206 C53.71207993 301.95680328 54.51894745 301.96124451 55.3502655 301.96582031 C62.98513383 302.00603263 70.61995021 302.03641503 78.25489712 302.0559864 C82.17931606 302.06638675 86.10364689 302.08047674 90.02801514 302.10324097 C93.82112039 302.125104 97.61414132 302.13695883 101.40730476 302.14211655 C102.84845365 302.1457883 104.28959837 302.15295777 105.73071098 302.16382217 C118.70472164 302.25766832 129.64519698 301.34569493 139.72943115 292.31954956 C146.90025246 284.55266502 149.0166842 275.52220128 149.05047607 265.17184448 C149.05383469 264.52218216 149.0571933 263.87251984 149.06065369 263.20317078 C149.07009409 261.07137093 149.07210337 258.93965022 149.07318115 256.80783081 C149.07639878 255.31338978 149.07976323 253.81894906 149.08326721 252.32450867 C149.08924139 249.19679027 149.0911089 246.06909943 149.09051514 242.94137573 C149.09041367 238.95383305 149.10405754 234.96646904 149.12128735 230.97896862 C149.13246289 227.89297185 149.13443264 224.8070175 149.13390541 221.72100258 C149.13507749 220.25195005 149.13945537 218.78289614 149.14723778 217.31386375 C149.20982128 204.2794499 148.34383007 193.2629708 139.2723999 183.12814331 C131.5227599 175.97324313 122.50017956 173.81903837 112.16546631 173.83883667 C111.52085449 173.83869064 110.87624268 173.83854462 110.21209717 173.83839417 C108.10195435 173.83908545 105.99190212 173.84684073 103.8817749 173.85470581 C102.4106145 173.85657278 100.93945348 173.85799537 99.46829224 173.85899353 C95.61155456 173.86279673 91.75485502 173.87260808 87.89813232 173.88369751 C83.95648718 173.89395904 80.01483583 173.89850128 76.07318115 173.90353394 C68.35050758 173.91423247 60.62786535 173.93128229 52.9052124 173.95236206 C52.90965363 173.14549454 52.91409485 172.33862701 52.91867065 171.50730896 C52.95888297 163.87244063 52.98926537 156.23762426 53.00883675 148.60267735 C53.01923709 144.6782584 53.03332708 140.75392757 53.05609131 136.82955933 C53.07795434 133.03645407 53.08980917 129.24343314 53.09496689 125.4502697 C53.09863864 124.00912081 53.10580811 122.5679761 53.11667252 121.12686348 C53.21051866 108.15285283 52.29854527 97.21237749 43.2723999 87.12814331 C35.50551537 79.95732201 26.47505162 77.84089026 16.12469482 77.80709839 C15.4750325 77.80373978 14.82537018 77.80038116 14.15602112 77.79692078 C12.02422127 77.78748038 9.89250056 77.7854711 7.76068115 77.78439331 C6.26624012 77.78117568 4.7717994 77.77781123 3.27735901 77.77430725 C0.14964061 77.76833307 -2.97805023 77.76646556 -6.10577393 77.76705933 C-10.09331661 77.76716079 -14.08068062 77.75351692 -18.06818104 77.73628712 C-21.15417781 77.72511158 -24.24013215 77.72314183 -27.32614708 77.72366905 C-28.79519961 77.72249698 -30.26425352 77.71811909 -31.7332859 77.71033669 C-45.37649858 77.64483009 -57.65934737 78.63894443 -67.4697876 89.26486206 Z " fill="#FFFFFF" transform="translate(267.09478759765625,2.047637939453125)"/>
</svg>
