<?xml version="1.0" encoding="UTF-8"?>
<svg version="1.1" xmlns="http://www.w3.org/2000/svg" width="512" height="512">
<path d="M0 0 C1.13308594 -0.04898438 2.26617187 -0.09796875 3.43359375 -0.1484375 C13.24766006 0.46486358 22.55629235 6.8681054 30.75 11.8125 C32.84516802 13.0566871 34.94156346 14.29880916 37.0390625 15.5390625 C38.64442871 16.48894043 38.64442871 16.48894043 40.28222656 17.45800781 C45.68479255 20.61526802 51.15484893 23.64935751 56.625 26.6875 C63.53745365 30.54088413 70.44435764 34.39760112 77.25 38.4375 C78.34699219 39.08847656 79.44398438 39.73945313 80.57421875 40.41015625 C85.17206166 43.43331309 89.44366134 46.50817773 92.3125 51.3125 C92.69921875 51.94027344 93.0859375 52.56804687 93.484375 53.21484375 C96.30575593 58.867828 96.86015755 63.79910856 96.85302734 69.99145508 C96.85974457 70.83618881 96.86646179 71.68092255 96.87338257 72.55125427 C96.89231593 75.33240713 96.89628447 78.11331803 96.8984375 80.89453125 C96.9048689 82.8373779 96.91159752 84.78022359 96.91860962 86.72306824 C96.9305709 90.79237105 96.93429165 94.86158905 96.93310547 98.9309082 C96.9329024 104.12928611 96.96019704 109.32711658 96.99464989 114.52536488 C97.01695636 118.53784146 97.02094185 122.55018711 97.01988602 126.56271935 C97.02223661 128.47835869 97.03102946 130.39400194 97.04655075 132.30957985 C97.06628586 134.9968899 97.06034347 137.68302989 97.04833984 140.37036133 C97.05957886 141.15144257 97.07081787 141.9325238 97.08239746 142.73727417 C96.98220263 151.62508508 92.86608913 160.13419562 86.5625 166.375 C82.45759106 169.43028239 78.02526429 171.88882335 73.5625 174.375 C71.70830717 175.41662009 69.85414275 176.45829077 68 177.5 C64.83796373 179.27300791 61.67399117 181.0422481 58.50537109 182.8034668 C50.89877701 187.03630472 43.37381272 191.39202836 35.875 195.8125 C10.96045301 210.46491441 10.96045301 210.46491441 1.125 210.75 C-0.00808594 210.79898438 -1.14117187 210.84796875 -2.30859375 210.8984375 C-12.12266006 210.28513642 -21.43129235 203.8818946 -29.625 198.9375 C-31.72016802 197.6933129 -33.81656346 196.45119084 -35.9140625 195.2109375 C-36.98430664 194.57768555 -38.05455078 193.94443359 -39.15722656 193.29199219 C-44.55979255 190.13473198 -50.02984893 187.10064249 -55.5 184.0625 C-62.41245365 180.20911587 -69.31935764 176.35239888 -76.125 172.3125 C-77.77048828 171.33603516 -77.77048828 171.33603516 -79.44921875 170.33984375 C-84.04706166 167.31668691 -88.31866134 164.24182227 -91.1875 159.4375 C-91.57421875 158.80972656 -91.9609375 158.18195313 -92.359375 157.53515625 C-95.18075593 151.882172 -95.73515755 146.95089144 -95.72802734 140.75854492 C-95.73474457 139.91381119 -95.74146179 139.06907745 -95.74838257 138.19874573 C-95.76731593 135.41759287 -95.77128447 132.63668197 -95.7734375 129.85546875 C-95.7798689 127.9126221 -95.78659752 125.96977641 -95.79360962 124.02693176 C-95.8055709 119.95762895 -95.80929165 115.88841095 -95.80810547 111.8190918 C-95.8079024 106.62071389 -95.83519704 101.42288342 -95.86964989 96.22463512 C-95.89195636 92.21215854 -95.89594185 88.19981289 -95.89488602 84.18728065 C-95.89723661 82.27164131 -95.90602946 80.35599806 -95.92155075 78.44042015 C-95.94128586 75.7531101 -95.93534347 73.06697011 -95.92333984 70.37963867 C-95.93457886 69.59855743 -95.94581787 68.8174762 -95.95739746 68.01272583 C-95.85720263 59.12491492 -91.74108913 50.61580438 -85.4375 44.375 C-81.33259106 41.31971761 -76.90026429 38.86117665 -72.4375 36.375 C-70.58330717 35.33337991 -68.72914275 34.29170923 -66.875 33.25 C-63.71296373 31.47699209 -60.54899117 29.7077519 -57.38037109 27.9465332 C-49.77377701 23.71369528 -42.24881272 19.35797164 -34.75 14.9375 C-9.83545301 0.28508559 -9.83545301 0.28508559 0 0 Z " fill="#FFFFFF" transform="translate(255.4375,150.625)"/>
<path d="M0 0 C1.13308594 -0.04898437 2.26617187 -0.09796875 3.43359375 -0.1484375 C13.24783874 0.46487474 22.55602403 6.86824375 30.75 11.8125 C32.85691533 13.06315012 34.96502673 14.31178705 37.07421875 15.55859375 C38.14591309 16.19265137 39.21760742 16.82670898 40.32177734 17.47998047 C45.5254432 20.52283525 50.79329587 23.44761842 56.0625 26.375 C59.16834453 28.1111666 62.272724 29.84991943 65.37646484 31.58984375 C67.56039125 32.81351194 69.745684 34.03474381 71.93212891 35.25390625 C75.254869 37.11307549 78.56595991 38.99157791 81.875 40.875 C82.88949219 41.43832031 83.90398437 42.00164062 84.94921875 42.58203125 C90.17409167 45.58096516 93.96486251 47.83734301 96.5625 53.375 C97.51953587 57.99129067 97.19640437 62.0796302 95.125 66.3125 C94.279375 67.323125 93.43375 68.33375 92.5625 69.375 C91.59570312 70.59123047 91.59570312 70.59123047 90.609375 71.83203125 C77.92825694 87.68342883 63.78803412 103.09317209 47.5625 115.375 C47.02367187 115.79023926 46.48484375 116.20547852 45.9296875 116.63330078 C35.93320531 124.31837664 25.47239551 131.06228061 14.5625 137.375 C13.88525879 137.76929199 13.20801758 138.16358398 12.51025391 138.56982422 C-12.14230855 152.74943152 -54.05852771 172.63452668 -83.4375 167.375 C-89.00705263 165.40617894 -92.8113309 161.6273382 -95.4375 156.375 C-95.55186309 153.43258999 -95.60537367 150.51332275 -95.61450195 147.57006836 C-95.62107315 146.65764374 -95.62764435 145.74521912 -95.63441467 144.80514526 C-95.65417907 141.77504396 -95.66581992 138.7449924 -95.67578125 135.71484375 C-95.67985678 134.67981783 -95.6839323 133.64479191 -95.68813133 132.57840157 C-95.70900975 127.09564538 -95.72330136 121.61291432 -95.73266602 116.13012695 C-95.74370815 110.47655403 -95.77807777 104.82337712 -95.81783772 99.16994381 C-95.8440402 94.81605824 -95.85236131 90.46226627 -95.85594749 86.10830879 C-95.86080743 84.02519634 -95.87240442 81.94208791 -95.89098549 79.85905266 C-95.91544407 76.93428554 -95.91439903 74.01053234 -95.9074707 71.08569336 C-95.92028076 70.23287277 -95.93309082 69.38005219 -95.94628906 68.50138855 C-95.86785006 59.36469567 -91.94370951 50.81640662 -85.4375 44.375 C-81.33259106 41.31971761 -76.90026429 38.86117665 -72.4375 36.375 C-70.58330717 35.33337991 -68.72914275 34.29170923 -66.875 33.25 C-63.71296373 31.47699209 -60.54899117 29.7077519 -57.38037109 27.9465332 C-49.77377701 23.71369528 -42.24881272 19.35797164 -34.75 14.9375 C-9.83545301 0.28508559 -9.83545301 0.28508559 0 0 Z " fill="#FFFFFF" transform="translate(367.4375,342.625)"/>
<path d="M0 0 C3.5541525 2.6837478 6.0682293 5.3239586 8.0625 9.3125 C8.17686309 12.25491001 8.23037367 15.17417725 8.23950195 18.11743164 C8.24607315 19.02985626 8.25264435 19.94228088 8.25941467 20.88235474 C8.27917907 23.91245604 8.29081992 26.9425076 8.30078125 29.97265625 C8.30485678 31.00768217 8.3089323 32.04270809 8.31313133 33.10909843 C8.33400975 38.59185462 8.34830136 44.07458568 8.35766602 49.55737305 C8.36870815 55.21094597 8.40307777 60.86412288 8.44283772 66.51755619 C8.4690402 70.87144176 8.47736131 75.22523373 8.48094749 79.57919121 C8.48580743 81.66230366 8.49740442 83.74541209 8.51598549 85.82844734 C8.54044407 88.75321446 8.53939903 91.67696766 8.5324707 94.60180664 C8.55168579 95.88103752 8.55168579 95.88103752 8.57128906 97.18611145 C8.49285006 106.32280433 4.56870951 114.87109338 -1.9375 121.3125 C-6.04240894 124.36778239 -10.47473571 126.82632335 -14.9375 129.3125 C-16.79169283 130.35412009 -18.64585725 131.39579077 -20.5 132.4375 C-23.66203627 134.21050791 -26.82600883 135.9797481 -29.99462891 137.7409668 C-37.60122299 141.97380472 -45.12618728 146.32952836 -52.625 150.75 C-77.53954699 165.40241441 -77.53954699 165.40241441 -87.375 165.6875 C-88.50808594 165.73648438 -89.64117187 165.78546875 -90.80859375 165.8359375 C-100.62283874 165.22262526 -109.93102403 158.81925625 -118.125 153.875 C-120.23191533 152.62434988 -122.34002673 151.37571295 -124.44921875 150.12890625 C-125.52091309 149.49484863 -126.59260742 148.86079102 -127.69677734 148.20751953 C-132.9004432 145.16466475 -138.16829587 142.23988158 -143.4375 139.3125 C-146.54334453 137.5763334 -149.647724 135.83758057 -152.75146484 134.09765625 C-154.93539125 132.87398806 -157.120684 131.65275619 -159.30712891 130.43359375 C-162.629869 128.57442451 -165.94095991 126.69592209 -169.25 124.8125 C-170.26449219 124.24917969 -171.27898437 123.68585938 -172.32421875 123.10546875 C-177.54909167 120.10653484 -181.33986251 117.85015699 -183.9375 112.3125 C-184.89453587 107.69620933 -184.57140437 103.6078698 -182.5 99.375 C-181.654375 98.364375 -180.80875 97.35375 -179.9375 96.3125 C-178.97070312 95.09626953 -178.97070312 95.09626953 -177.984375 93.85546875 C-165.31676461 78.02095576 -151.18014645 62.54225733 -134.9375 50.3125 C-134.33341309 49.8484375 -133.72932617 49.384375 -133.10693359 48.90625 C-107.37655424 29.22084633 -34.08211006 -18.2163002 0 0 Z " fill="#FFFFFF" transform="translate(231.9375,3.6875)"/>
<path d="M0 0 C1.65902344 -0.05994141 1.65902344 -0.05994141 3.3515625 -0.12109375 C13.12361606 0.60831704 22.38723818 6.94173631 30.5625 11.875 C32.65766802 13.1191871 34.75406346 14.36130916 36.8515625 15.6015625 C38.45692871 16.55144043 38.45692871 16.55144043 40.09472656 17.52050781 C45.49729255 20.67776802 50.96734893 23.71185751 56.4375 26.75 C63.34995365 30.60338413 70.25685764 34.46010112 77.0625 38.5 C78.15949219 39.15097656 79.25648438 39.80195313 80.38671875 40.47265625 C84.98456166 43.49581309 89.25616134 46.57067773 92.125 51.375 C92.51171875 52.00277344 92.8984375 52.63054687 93.296875 53.27734375 C96.23307038 59.16037291 96.67234068 64.29951657 96.66552734 70.74414062 C96.67224457 71.66196823 96.67896179 72.57979584 96.68588257 73.5254364 C96.70482367 76.54826319 96.70878439 79.57086762 96.7109375 82.59375 C96.71736661 84.7007252 96.72409506 86.80769951 96.73110962 88.91467285 C96.74307156 93.32611156 96.7467914 97.737472 96.74560547 102.14892578 C96.745402 107.79822367 96.77273845 113.4470201 96.80714989 119.09619904 C96.829395 123.44568178 96.83344379 127.79504321 96.83238602 132.14457703 C96.83474425 134.2273685 96.84358024 136.31016321 96.85905075 138.39289856 C96.87866813 141.30590954 96.8728899 144.21783048 96.86083984 147.13085938 C96.87207886 147.98818161 96.88331787 148.84550385 96.89489746 149.72880554 C96.83832287 155.11666919 95.93566479 158.15280429 92.375 162.4375 C87.1328044 167.16826188 83.28333495 167.66883927 76.44726562 167.59814453 C71.40472449 167.33447701 66.55980557 166.40889936 61.625 165.375 C60.54081787 165.15021973 59.45663574 164.92543945 58.33959961 164.69384766 C18.86302582 156.21839166 -17.20879967 138.66447383 -48.625 113.4375 C-49.6253125 112.6434375 -50.625625 111.849375 -51.65625 111.03125 C-65.51149521 99.69514029 -78.94677627 86.84348201 -89.625 72.4375 C-90.23859375 71.67566406 -90.8521875 70.91382813 -91.484375 70.12890625 C-95.06046977 65.39632212 -96.28564351 61.8321731 -96.2265625 55.89453125 C-95.13544981 51.43797358 -92.71618275 48.23936651 -89.04492188 45.54150391 C-88.07103516 45.00444824 -87.09714844 44.46739258 -86.09375 43.9140625 C-84.98733154 43.29378174 -83.88091309 42.67350098 -82.7409668 42.03442383 C-81.5357186 41.37698008 -80.33039426 40.7196759 -79.125 40.0625 C-77.87001269 39.36437673 -76.61587588 38.66472258 -75.36254883 37.96362305 C-72.75615233 36.50712741 -70.14621585 35.05728907 -67.53369141 33.61181641 C-62.0099439 30.54831303 -56.53594589 27.39857141 -51.05914307 24.25219727 C-48.16878733 22.59375504 -45.27361167 20.9438074 -42.37890625 19.29296875 C-37.90348718 16.74009339 -33.43281252 14.17916999 -28.96484375 11.61328125 C-26.89337779 10.4294274 -24.82177035 9.24582108 -22.75 8.0625 C-21.81115967 7.52085205 -20.87231934 6.9792041 -19.9050293 6.42114258 C-13.26759857 2.64240423 -7.76836365 0.15179561 0 0 Z " fill="#FFFFFF" transform="translate(143.625,342.5625)"/>
<path d="M0 0 C1.08418213 0.22478027 2.16836426 0.44956055 3.28540039 0.68115234 C42.76197418 9.15660834 78.83379967 26.71052617 110.25 51.9375 C111.75046875 53.12859375 111.75046875 53.12859375 113.28125 54.34375 C127.13649521 65.67985971 140.57177627 78.53151799 151.25 92.9375 C151.86359375 93.69933594 152.4771875 94.46117188 153.109375 95.24609375 C156.68546977 99.97867788 157.91064351 103.5428269 157.8515625 109.48046875 C156.76044981 113.93702642 154.34118275 117.13563349 150.66992188 119.83349609 C149.2090918 120.63907959 149.2090918 120.63907959 147.71875 121.4609375 C146.61233154 122.08121826 145.50591309 122.70149902 144.3659668 123.34057617 C143.1607186 123.99801992 141.95539426 124.6553241 140.75 125.3125 C139.49501269 126.01062327 138.24087588 126.71027742 136.98754883 127.41137695 C134.38115233 128.86787259 131.77121585 130.31771093 129.15869141 131.76318359 C123.6349439 134.82668697 118.16094589 137.97642859 112.68414307 141.12280273 C109.79378733 142.78124496 106.89861167 144.4311926 104.00390625 146.08203125 C99.52848718 148.63490661 95.05781252 151.19583001 90.58984375 153.76171875 C88.51837779 154.9455726 86.44677035 156.12917892 84.375 157.3125 C83.43615967 157.85414795 82.49731934 158.3957959 81.5300293 158.95385742 C74.89259857 162.73259577 69.39336365 165.22320439 61.625 165.375 C60.51898438 165.41496094 59.41296875 165.45492187 58.2734375 165.49609375 C48.50138394 164.76668296 39.23776182 158.43326369 31.0625 153.5 C28.96733198 152.2558129 26.87093654 151.01369084 24.7734375 149.7734375 C23.70319336 149.14018555 22.63294922 148.50693359 21.53027344 147.85449219 C16.12770745 144.69723198 10.65765107 141.66314249 5.1875 138.625 C-1.72495365 134.77161587 -8.63185764 130.91489888 -15.4375 126.875 C-16.53449219 126.22402344 -17.63148438 125.57304687 -18.76171875 124.90234375 C-23.35956166 121.87918691 -27.63116134 118.80432227 -30.5 114 C-30.88671875 113.37222656 -31.2734375 112.74445313 -31.671875 112.09765625 C-34.60807038 106.21462709 -35.04734068 101.07548343 -35.04052734 94.63085938 C-35.04724457 93.71303177 -35.05396179 92.79520416 -35.06088257 91.8495636 C-35.07982367 88.82673681 -35.08378439 85.80413238 -35.0859375 82.78125 C-35.09236661 80.6742748 -35.09909506 78.56730049 -35.10610962 76.46032715 C-35.11807156 72.04888844 -35.1217914 67.637528 -35.12060547 63.22607422 C-35.120402 57.57677633 -35.14773845 51.9279799 -35.18214989 46.27880096 C-35.204395 41.92931822 -35.20844379 37.57995679 -35.20738602 33.23042297 C-35.20974425 31.1476315 -35.21858024 29.06483679 -35.23405075 26.98210144 C-35.25366813 24.06909046 -35.2478899 21.15716952 -35.23583984 18.24414062 C-35.24707886 17.38681839 -35.25831787 16.52949615 -35.26989746 15.64619446 C-35.21332287 10.25833081 -34.31066479 7.22219571 -30.75 2.9375 C-21.96824767 -4.98749601 -10.72942092 -2.2479389 0 0 Z " fill="#FFFFFF" transform="translate(306.75,4.0625)"/>
<path d="M0 0 C6.73752015 4.34195743 8.63809321 10.88088655 11.1875 18.125 C11.5788916 19.22859863 11.9702832 20.33219727 12.37353516 21.46923828 C20.49385866 44.91646397 25.88503025 69.71392951 26.015625 94.60546875 C26.02263931 95.50605515 26.02965363 96.40664154 26.03688049 97.33451843 C26.05427809 100.22306381 26.06073227 103.11140416 26.0625 106 C26.06317474 106.98703918 26.06384949 107.97407837 26.06454468 108.99102783 C26.04881228 123.46218559 25.68350014 137.58244611 22.8125 151.8125 C22.63557617 152.71436035 22.45865234 153.6162207 22.27636719 154.54541016 C19.02413185 170.75322548 14.63032081 186.76861482 8.8125 202.25 C8.379375 203.40371094 7.94625 204.55742187 7.5 205.74609375 C4.98158874 210.32237347 1.86084746 213.12971751 -3.1875 214.8125 C-10.07407812 215.67222568 -14.35935895 213.01540298 -20.125 209.6875 C-21.08301514 209.1497998 -22.04103027 208.61209961 -23.02807617 208.05810547 C-31.06459067 203.52408553 -39.02969495 198.86118492 -46.98291016 194.18286133 C-55.43198223 189.21856999 -63.968639 184.4218724 -72.55200195 179.69384766 C-97.92201786 165.63244199 -97.92201786 165.63244199 -102.1875 150.8125 C-102.58363977 147.85636779 -102.60875 144.94862285 -102.59155273 141.96899414 C-102.59841599 141.12396835 -102.60527924 140.27894257 -102.61235046 139.40830994 C-102.63052811 136.63791709 -102.626794 133.86809545 -102.62109375 131.09765625 C-102.62565983 129.15766722 -102.63096667 127.2176798 -102.63697815 125.2776947 C-102.64589148 121.2203004 -102.64350632 117.16310312 -102.63354492 113.10571289 C-102.6220566 107.92305519 -102.64227386 102.741079 -102.67146206 97.55851078 C-102.68986531 93.55459826 -102.68952339 89.55084784 -102.68382454 85.54690361 C-102.68367184 83.63685589 -102.68967384 81.72679683 -102.70211601 79.81678963 C-102.71710285 77.13923298 -102.70629327 74.46291987 -102.68920898 71.78540039 C-102.69887695 71.00746124 -102.70854492 70.22952209 -102.71850586 69.42800903 C-102.60076015 60.55282806 -98.48226708 52.04457019 -92.1875 45.8125 C-88.08259106 42.75721761 -83.65026429 40.29867665 -79.1875 37.8125 C-77.33330717 36.77087991 -75.47914275 35.72920923 -73.625 34.6875 C-70.45831177 32.91204414 -67.28979584 31.14010263 -64.1171875 29.37524414 C-56.64784765 25.21623007 -49.2463144 20.95501959 -41.875 16.625 C-37.98171779 14.34977149 -34.08508721 12.08034389 -30.1875 9.8125 C-29.23810547 9.25771973 -28.28871094 8.70293945 -27.31054688 8.13134766 C-24.59106773 6.55030976 -21.86030894 4.99095144 -19.125 3.4375 C-18.32215576 2.96675049 -17.51931152 2.49600098 -16.69213867 2.01098633 C-10.89646064 -1.24000654 -6.48848653 -2.4172793 0 0 Z " fill="#FFFFFF" transform="translate(486.1875,149.1875)"/>
<path d="M0 0 C2.61357864 1.33299393 5.15478722 2.75501769 7.69580078 4.22167969 C8.65381592 4.75937988 9.61183105 5.29708008 10.59887695 5.85107422 C18.63539145 10.38509415 26.60049573 15.04799476 34.55371094 19.72631836 C43.00278301 24.69060969 51.53943978 29.48730729 60.12280273 34.21533203 C85.49281864 48.2767377 85.49281864 48.2767377 89.75830078 63.09667969 C90.15444055 66.0528119 90.17955078 68.96055684 90.16235352 71.94018555 C90.16921677 72.78521133 90.17608002 73.63023712 90.18315125 74.50086975 C90.20132889 77.27126259 90.19759478 80.04108424 90.19189453 82.81152344 C90.19646061 84.75151247 90.20176745 86.69149989 90.20777893 88.63148499 C90.21669226 92.68887928 90.2143071 96.74607656 90.2043457 100.8034668 C90.19285738 105.98612449 90.21307465 111.16810069 90.24226284 116.35066891 C90.26066609 120.35458142 90.26032418 124.35833185 90.25462532 128.36227608 C90.25447262 130.2723238 90.26047462 132.18238286 90.27291679 134.09239006 C90.28790363 136.76994671 90.27709405 139.44625982 90.26000977 142.1237793 C90.27451172 143.29068802 90.27451172 143.29068802 90.28930664 144.48117065 C90.17156093 153.35635163 86.05306786 161.86460949 79.75830078 168.09667969 C75.65339184 171.15196208 71.22106507 173.61050304 66.75830078 176.09667969 C64.90410795 177.13829978 63.04994353 178.17997045 61.19580078 179.22167969 C58.02911255 180.99713555 54.86059662 182.76907706 51.68798828 184.53393555 C44.21864843 188.69294962 36.81711518 192.9541601 29.44580078 197.28417969 C25.55251857 199.5594082 21.65588799 201.8288358 17.75830078 204.09667969 C16.80890625 204.65145996 15.85951172 205.20624023 14.88134766 205.77783203 C12.16186851 207.35886993 9.43110972 208.91822824 6.69580078 210.47167969 C5.89295654 210.9424292 5.0901123 211.41317871 4.26293945 211.89819336 C-0.425796 214.5282645 -3.72122472 215.73524204 -9.24169922 215.09667969 C-14.0299212 213.31283228 -16.39688716 211.29238016 -19.24169922 207.09667969 C-20.91038364 203.39897894 -22.27049787 199.60939711 -23.61669922 195.78417969 C-24.00809082 194.68058105 -24.39948242 193.57698242 -24.80273438 192.43994141 C-32.92305788 168.99271572 -38.31422947 144.19525018 -38.44482422 119.30371094 C-38.45534569 117.95283134 -38.45534569 117.95283134 -38.46607971 116.57466125 C-38.48347731 113.68611588 -38.48993149 110.79777553 -38.49169922 107.90917969 C-38.49271133 106.42862091 -38.49271133 106.42862091 -38.4937439 104.91815186 C-38.4780115 90.44699409 -38.11269936 76.32673358 -35.24169922 62.09667969 C-34.97631348 60.74388916 -34.97631348 60.74388916 -34.70556641 59.36376953 C-31.45333107 43.15595421 -27.05952002 27.14056487 -21.24169922 11.65917969 C-20.80857422 10.50546875 -20.37544922 9.35175781 -19.92919922 8.16308594 C-15.85503852 0.75980781 -8.34742473 -3.36369761 0 0 Z " fill="#FFFFFF" transform="translate(38.24169921875,148.9033203125)"/>
</svg>
