<?xml version="1.0" encoding="UTF-8"?>
<svg version="1.1" xmlns="http://www.w3.org/2000/svg" width="512" height="512">
<path d="M0 0 C2.63650463 2.39455819 5.20284464 4.84775281 7.76953125 7.31640625 C8.80078125 8.12078125 9.83203125 8.92515625 10.89453125 9.75390625 C33.65313435 30.03874814 46.35811045 62.40390173 48.65625 92.14453125 C48.97182383 100.98059846 48.58977184 109.51717824 47.50883484 118.29330444 C47.37433196 119.41852583 47.23982908 120.54374722 47.10125035 121.70306623 C45.55987071 134.38904088 43.76148656 147.03773634 41.94067383 159.68603516 C41.56555044 162.31048399 41.19070745 164.93497149 40.81620789 167.55950928 C40.01805492 173.1491694 39.21739235 178.73846506 38.41489601 184.3275032 C37.254704 192.40776341 36.09849752 200.48859017 34.94318374 208.56954913 C33.06749098 221.68852461 31.18868924 234.80705279 29.30786133 247.92529297 C27.48360468 260.64901321 25.66085643 273.37294808 23.84008789 286.09716797 C23.72737023 286.88487798 23.61465257 287.67258799 23.49851922 288.48416801 C22.93291216 292.436891 22.36733425 296.38961815 21.80177081 300.34234738 C17.12887307 333.00101436 12.45089995 365.65895242 7.76953125 398.31640625 C7.10953125 398.31640625 6.44953125 398.31640625 5.76953125 398.31640625 C5.47568542 397.53207718 5.1818396 396.74774811 4.87908936 395.93965149 C1.09351679 385.83571483 -2.69307408 375.73216005 -6.48046875 365.62890625 C-6.78403416 364.81911316 -7.08759956 364.00932007 -7.40036392 363.17498779 C-18.6351484 333.20624179 -29.91175705 303.25356428 -41.23046875 273.31640625 C-44.01427707 276.68182622 -46.43052313 280.09388598 -48.69921875 283.82421875 C-49.34640869 284.88334473 -49.99359863 285.9424707 -50.66040039 287.03369141 C-51.34352295 288.1582373 -52.02664551 289.2827832 -52.73046875 290.44140625 C-54.17520203 292.80714212 -55.62266243 295.17120439 -57.0703125 297.53515625 C-57.42886826 298.12124664 -57.78742401 298.70733704 -58.15684509 299.31118774 C-61.15996716 304.21506409 -64.21156134 309.08645055 -67.29296875 313.94140625 C-71.73567477 320.94613575 -76.14925827 327.96832567 -80.54296875 335.00390625 C-81.17340088 336.01340332 -81.80383301 337.02290039 -82.45336914 338.06298828 C-83.73807025 340.12053397 -85.0226562 342.17815157 -86.30712891 344.23583984 C-88.20132217 347.26972288 -90.0965232 350.30297343 -91.9921875 353.3359375 C-92.6102124 354.32480957 -93.2282373 355.31368164 -93.86499023 356.33251953 C-95.10231377 358.31165424 -96.34010198 360.29049851 -97.57836914 362.26904297 C-100.86559113 367.52323408 -104.14144498 372.78411226 -107.40234375 378.0546875 C-108.42618164 379.70500977 -108.42618164 379.70500977 -109.47070312 381.38867188 C-110.78261939 383.50380218 -112.09136111 385.62090576 -113.39648438 387.74023438 C-113.98623047 388.68962891 -114.57597656 389.63902344 -115.18359375 390.6171875 C-115.70083008 391.45419189 -116.21806641 392.29119629 -116.75097656 393.15356445 C-118.23046875 395.31640625 -118.23046875 395.31640625 -121.23046875 398.31640625 C-121.23046875 366.96640625 -121.23046875 335.61640625 -121.23046875 303.31640625 C-132.12046875 308.76140625 -132.12046875 308.76140625 -143.23046875 314.31640625 C-154.10362671 319.52510467 -154.10362671 319.52510467 -159.40625 322.046875 C-168.08108407 326.18915127 -176.7160846 330.41333738 -185.35546875 334.62890625 C-196.88683471 340.25463914 -208.42232802 345.87085484 -219.98046875 351.44140625 C-230.48939708 356.5064937 -240.98807422 361.59217657 -251.48046875 366.69140625 C-252.21589905 367.0488089 -252.95132935 367.40621155 -253.70904541 367.77444458 C-254.81237213 368.31063919 -254.81237213 368.31063919 -255.93798828 368.85766602 C-257.42350092 369.57959331 -258.90901524 370.30151713 -260.39453125 371.0234375 C-261.13027374 371.38099625 -261.86601624 371.73855499 -262.62405396 372.10694885 C-270.36565776 375.86880848 -278.11027254 379.62444973 -285.85546875 383.37890625 C-286.53218628 383.70695251 -287.20890381 384.03499878 -287.90612793 384.37298584 C-291.31661436 386.02623808 -294.72714305 387.67940311 -298.13769531 389.33251953 C-302.93835048 391.65947153 -307.73877377 393.9869017 -312.53912354 396.31448364 C-315.96477676 397.97550301 -319.39050063 399.63637625 -322.81640625 401.296875 C-329.17163432 404.37737288 -335.52615768 407.45929706 -341.87811279 410.54653931 C-344.82820708 411.98026048 -347.77871344 413.41313251 -350.72924805 414.84594727 C-352.11470623 415.51902955 -353.49996994 416.19251233 -354.88500977 416.86645508 C-358.68689936 418.71634095 -362.49249518 420.55814372 -366.30383301 422.38848877 C-367.64435845 423.03412041 -368.98336181 423.68291795 -370.32116699 424.33416748 C-372.39935857 425.34493024 -374.48227044 426.34531281 -376.56640625 427.34375 C-377.2058316 427.65735977 -377.84525696 427.97096954 -378.50405884 428.29408264 C-380.05201697 429.02916948 -381.63897484 429.68105266 -383.23046875 430.31640625 C-383.89046875 429.98640625 -384.55046875 429.65640625 -385.23046875 429.31640625 C-372.7496452 419.47395769 -360.15703335 409.78456237 -347.52807617 400.13330078 C-343.25652721 396.86831865 -338.99038967 393.59654536 -334.73046875 390.31640625 C-329.00614533 385.90867721 -323.26776258 381.519551 -317.52734375 377.1328125 C-313.25609548 373.86791949 -308.99015761 370.59636667 -304.73046875 367.31640625 C-296.17836724 360.73213904 -287.59927237 354.18318672 -279.0234375 347.62988281 C-270.87448651 341.4023763 -262.7316686 335.16733013 -254.60546875 328.91015625 C-249.92111054 325.30680378 -245.22312508 321.72125533 -240.52734375 318.1328125 C-236.25609548 314.86791949 -231.99015761 311.59636667 -227.73046875 308.31640625 C-222.00614533 303.90867721 -216.26776258 299.519551 -210.52734375 295.1328125 C-206.25609548 291.86791949 -201.99015761 288.59636667 -197.73046875 285.31640625 C-192.00614533 280.90867721 -186.26776258 276.519551 -180.52734375 272.1328125 C-176.25609548 268.86791949 -171.99015761 265.59636667 -167.73046875 262.31640625 C-162.00614533 257.90867721 -156.26776258 253.519551 -150.52734375 249.1328125 C-146.25609548 245.86791949 -141.99015761 242.59636667 -137.73046875 239.31640625 C-129.17836724 232.73213904 -120.59927237 226.18318672 -112.0234375 219.62988281 C-103.87448651 213.4023763 -95.7316686 207.16733013 -87.60546875 200.91015625 C-82.92111054 197.30680378 -78.22312508 193.72125533 -73.52734375 190.1328125 C-68.21902456 186.07519441 -62.92086564 182.00472224 -57.62890625 177.92578125 C-55.05789241 175.94760203 -52.47762095 173.9819134 -49.89453125 172.01953125 C-49.14236328 171.4471875 -48.39019531 170.87484375 -47.61523438 170.28515625 C-46.15433637 169.17401516 -44.69218092 168.06452455 -43.22851562 166.95703125 C-26.55428851 154.26494591 -14.63429147 138.48979168 -11.23046875 117.31640625 C-8.45973815 95.94219878 -13.29726211 75.91137509 -26.44140625 58.73388672 C-36.18017973 46.5188335 -48.41015937 39.08870696 -63.23046875 34.31640625 C-63.91109375 34.08308594 -64.59171875 33.84976563 -65.29296875 33.609375 C-83.74374531 28.08209495 -103.67333124 32.1792734 -120.33203125 40.94921875 C-137.70506374 51.47091448 -148.6715001 68.22382135 -160.26708984 84.42578125 C-164.32546333 90.09306674 -168.4745846 95.68589823 -172.66796875 101.25390625 C-179.92424564 110.8914107 -187.08803 120.59436438 -194.23046875 130.31640625 C-201.34523332 139.99686318 -208.4745171 149.6641734 -215.69628906 159.26513672 C-221.93581623 167.57009152 -228.07818518 175.94675112 -234.23046875 184.31640625 C-241.34591862 193.99636668 -248.4745107 203.66416489 -255.69628906 213.26513672 C-261.93581623 221.57009152 -268.07818518 229.94675112 -274.23046875 238.31640625 C-281.34591862 247.99636668 -288.4745107 257.66416489 -295.69628906 267.26513672 C-301.93581623 275.57009152 -308.07818518 283.94675112 -314.23046875 292.31640625 C-321.34591862 301.99636668 -328.4745107 311.66416489 -335.69628906 321.26513672 C-341.93581623 329.57009152 -348.07818518 337.94675112 -354.23046875 346.31640625 C-361.34591862 355.99636668 -368.4745107 365.66416489 -375.69628906 375.26513672 C-381.93581623 383.57009152 -388.07818518 391.94675112 -394.23046875 400.31640625 C-401.3400056 409.98832253 -408.46100873 419.64940468 -415.67871094 429.2409668 C-420.27281743 435.35394427 -424.80857998 441.5093545 -429.3359375 447.671875 C-432.9393031 452.57481508 -436.57013992 457.45583391 -440.23046875 462.31640625 C-440.56046875 461.65640625 -440.89046875 460.99640625 -441.23046875 460.31640625 C-440.33515459 458.02898395 -440.33515459 458.02898395 -438.87035465 455.10398674 C-438.04255138 453.4364339 -438.04255138 453.4364339 -437.19802481 451.73519313 C-436.57031438 450.49118639 -435.94245689 449.24725384 -435.31446838 448.00338745 C-434.65880401 446.69031623 -434.00384232 445.37689394 -433.34952778 444.06314957 C-431.54161404 440.43833464 -429.72370161 436.81861281 -427.904199 433.19960427 C-425.9467975 429.30200765 -423.99859012 425.39981965 -422.04928589 421.49816895 C-418.668102 414.73369949 -415.28105186 407.97219393 -411.89004707 401.21264267 C-406.98717857 391.43935592 -402.0931083 381.66168499 -397.20120322 371.88290693 C-389.26498115 356.0192264 -381.32161329 340.15913518 -373.3737793 324.30126953 C-365.65129013 308.8929837 -357.93214964 293.48302799 -350.2175293 278.07080078 C-349.74233428 277.12146163 -349.26713926 276.17212249 -348.77754439 275.19401549 C-346.39375145 270.43164961 -344.01002455 265.66925068 -341.62633049 260.90683532 C-321.83794524 221.37156006 -302.03666791 181.84276117 -282.23046875 142.31640625 C-313.58046875 142.31640625 -344.93046875 142.31640625 -377.23046875 142.31640625 C-374.66015716 139.74609466 -372.5770685 138.15172922 -369.53125 136.26953125 C-368.1071582 135.38491211 -368.1071582 135.38491211 -366.65429688 134.48242188 C-365.62755859 133.85013672 -364.60082031 133.21785156 -363.54296875 132.56640625 C-361.35149605 131.20713837 -359.16009167 129.84776035 -356.96875 128.48828125 C-355.28579834 127.44704102 -355.28579834 127.44704102 -353.56884766 126.38476562 C-348.44625654 123.21096191 -343.33866602 120.01330432 -338.23046875 116.81640625 C-336.23055119 115.56627436 -334.2305509 114.3162748 -332.23046875 113.06640625 C-331.24046875 112.44765625 -330.25046875 111.82890625 -329.23046875 111.19140625 C-296.23046875 90.56640625 -296.23046875 90.56640625 -293.22509766 88.68823242 C-291.24278142 87.44916356 -289.26068185 86.20974799 -287.27880859 84.9699707 C-282.57858779 82.03029906 -277.87617609 79.09432766 -273.16607666 76.17050171 C-271.47998494 75.12362668 -269.79467441 74.07549379 -268.109375 73.02734375 C-265.98053452 71.70352698 -263.85037673 70.38182564 -261.71875 69.0625 C-260.76613281 68.46953125 -259.81351563 67.8765625 -258.83203125 67.265625 C-257.98979004 66.74315186 -257.14754883 66.22067871 -256.27978516 65.68237305 C-254.12846296 64.34519847 -254.12846296 64.34519847 -252.23046875 62.31640625 C-262.56346154 58.41966943 -272.89681883 54.52390008 -283.23046875 50.62890625 C-284.00206203 50.33807411 -284.77365532 50.04724197 -285.56863022 49.74759674 C-316.10977524 38.2363072 -346.6650097 26.76298107 -377.23046875 15.31640625 C-377.23046875 14.65640625 -377.23046875 13.99640625 -377.23046875 13.31640625 C-341.76497404 8.23354534 -306.29895056 3.15439041 -270.83221702 -1.91981923 C-266.64172159 -2.51935476 -262.45123054 -3.11892086 -258.26074219 -3.71850586 C-257.00940557 -3.89754928 -257.00940557 -3.89754928 -255.73278943 -4.08020974 C-242.23850837 -6.01106929 -228.74458292 -7.94440314 -215.25078806 -9.87865727 C-201.39715 -11.86443633 -187.54313126 -13.84754284 -173.68875813 -15.82818705 C-165.14509318 -17.04968898 -156.60172925 -18.27325577 -148.05874291 -19.49949492 C-142.19448639 -20.3410317 -136.32986091 -21.17996406 -130.46494374 -22.01688402 C-127.0850544 -22.49926945 -123.70533465 -22.98276818 -120.3260498 -23.4693718 C-116.65229177 -23.99776406 -112.97793632 -24.52179551 -109.30340576 -25.04478455 C-107.72163862 -25.27387218 -107.72163862 -25.27387218 -106.10791659 -25.50758785 C-68.98656909 -30.75780437 -29.42473531 -25.21204367 0 0 Z " fill="#FFFFFF" transform="translate(441.23046875,49.68359375)"/>
</svg>
