<?xml version="1.0" encoding="UTF-8"?>
<svg version="1.1" xmlns="http://www.w3.org/2000/svg" width="512" height="512">
<path d="M0 0 C2.52096309 2.2275585 4.98034211 4.50638231 7.42578125 6.81640625 C8.55113281 7.84507813 8.55113281 7.84507813 9.69921875 8.89453125 C14.30566434 13.25853233 18.16845889 17.92913059 21.86328125 23.06640625 C22.28867187 23.65703857 22.7140625 24.2476709 23.15234375 24.85620117 C25.39103907 28.0571189 27.1539913 31.11918083 28.42578125 34.81640625 C29.37195313 34.77 30.318125 34.72359375 31.29296875 34.67578125 C58.23660081 33.77167884 83.20765037 44.40148243 103.42578125 61.81640625 C104.15925781 62.40550781 104.89273437 62.99460937 105.6484375 63.6015625 C125.66969682 80.23297897 138.17563913 106.24905751 141.42578125 131.81640625 C142.35590899 144.65342177 142.89954535 157.92215784 137.42578125 169.81640625 C137.03648437 170.73808594 136.6471875 171.65976563 136.24609375 172.609375 C128.91497393 187.98737485 115.63517295 196.48542016 100.078125 202.00390625 C87.81477528 204.73200972 73.91392747 203.84148259 62.42578125 198.81640625 C61.49894531 198.42710937 60.57210938 198.0378125 59.6171875 197.63671875 C46.38172686 191.29120712 37.48284378 180.16492134 32.07714844 166.75463867 C30.21361292 161.20943309 29.90914151 156.81967865 32.57373047 151.38891602 C32.89615723 150.76686279 33.21858398 150.14480957 33.55078125 149.50390625 C36.45329247 143.4214486 38.60975484 137.40410449 40.30078125 130.87890625 C40.5033252 130.1108667 40.70586914 129.34282715 40.91455078 128.55151367 C42.22257342 123.32224456 42.92485382 118.18272459 43.42578125 112.81640625 C43.12027344 113.41066406 42.81476563 114.00492188 42.5 114.6171875 C30.15243154 136.98193826 5.48955159 148.15881511 -18.03466797 155.11230469 C-22.70348329 156.40675416 -27.40805287 157.51410494 -32.13671875 158.56640625 C-33.46316406 158.86442139 -33.46316406 158.86442139 -34.81640625 159.16845703 C-50.58865459 162.4980905 -66.19246959 163.19156343 -82.26171875 163.12890625 C-83.23255402 163.12708344 -84.20338928 163.12526062 -85.2036438 163.12338257 C-99.18380056 163.0791721 -112.85531605 162.75335525 -126.57421875 159.81640625 C-127.45464844 159.63416504 -128.33507812 159.45192383 -129.2421875 159.26416016 C-156.58278204 153.49429209 -188.99868537 143.75909376 -205.3671875 119.1171875 C-206.52851156 117.04502103 -207.60542727 114.98414409 -208.57421875 112.81640625 C-207.22188009 125.73426809 -203.95589192 137.46449984 -198.82421875 149.37890625 C-195.88055191 156.36308395 -194.82156961 160.45765734 -197.63671875 167.69140625 C-205.02614713 183.92392105 -216.12537497 194.22231981 -232.57421875 200.81640625 C-245.28116401 205.34297814 -261.35520129 204.16117592 -273.57421875 198.81640625 C-274.50105469 198.42710937 -275.42789063 198.0378125 -276.3828125 197.63671875 C-291.79788918 190.24622809 -300.03041186 177.10262092 -305.76171875 161.60546875 C-309.07316833 146.16265099 -307.25434823 128.79640688 -302.57421875 113.81640625 C-302.36522949 113.13433105 -302.15624023 112.45225586 -301.94091797 111.74951172 C-297.30627466 97.08876362 -289.58696687 84.44086433 -279.57421875 72.81640625 C-278.98511719 72.08292969 -278.39601563 71.34945312 -277.7890625 70.59375 C-261.88781797 51.45148748 -236.79210262 38.69415819 -212.34765625 35.015625 C-206.09666498 34.56661013 -199.83556223 34.67499573 -193.57421875 34.81640625 C-193.31769531 34.09839844 -193.06117188 33.38039062 -192.796875 32.640625 C-188.86314306 23.55408125 -181.2979515 15.93428886 -174.57421875 8.81640625 C-173.8884375 8.06617188 -173.20265625 7.3159375 -172.49609375 6.54296875 C-157.06300091 -9.74751814 -136.00812874 -20.30501021 -114.57421875 -26.18359375 C-113.39988281 -26.52261719 -112.22554687 -26.86164062 -111.015625 -27.2109375 C-72.53579317 -36.35674638 -29.92130312 -25.38089294 0 0 Z " fill="#FFFFFF" transform="translate(338.57421875,29.18359375)"/>
<path d="M0 0 C8.44430539 1.22591472 16.52857504 2.22339813 25.0625 1.6875 C25.86429687 1.64012695 26.66609375 1.59275391 27.4921875 1.54394531 C31.2461065 1.26847116 34.8740757 0.8071751 38.55859375 0.03515625 C48.05813037 -1.91624972 48.05813037 -1.91624972 51.671875 0.36328125 C53.1166019 1.89219337 54.50305702 3.47742909 55.83984375 5.1015625 C70.19787012 21.20614184 93.9636532 28.80523064 114.3125 32.875 C114.3125 86.335 114.3125 139.795 114.3125 194.875 C112.25721425 192.134619 110.76492157 190.02810747 109.28805542 187.05989075 C108.91515381 186.31539169 108.5422522 185.57089264 108.15805054 184.80383301 C107.75897491 183.99692017 107.35989929 183.19000732 106.94873047 182.35864258 C106.30674713 181.07270454 106.30674713 181.07270454 105.65179443 179.76078796 C104.24073655 176.93219089 102.83527764 174.10084875 101.4296875 171.26953125 C100.45028674 169.30445928 99.47047354 167.33959281 98.49026489 165.37492371 C95.91279906 160.20669493 93.33979845 155.03625723 90.76806641 149.86517334 C86.64535601 141.57660864 82.5172375 133.29074134 78.38656998 125.00613976 C76.94159476 122.10593031 75.49934091 119.20437905 74.05734253 116.3026886 C73.1774795 114.53613835 72.29753025 112.76963105 71.41748047 111.00317383 C71.01435638 110.19018829 70.6112323 109.37720276 70.19589233 108.5395813 C68.60095655 104.97354414 68.60095655 104.97354414 66.3125 101.875 C65.94491074 103.10447357 65.57732147 104.33394714 65.19859314 105.60067749 C61.65691656 117.44638882 58.11498696 129.29202447 54.57283688 141.13759422 C52.75376199 147.22092592 50.93476292 153.30428026 49.1159668 159.38769531 C39.19949264 192.55554498 29.2666005 225.71842235 19.3125 258.875 C18.6525 258.875 17.9925 258.875 17.3125 258.875 C13.25102353 245.3446853 9.19014311 231.81419182 5.12987328 218.28351498 C3.24275852 211.99484257 1.35548069 205.7062192 -0.53222656 199.41772461 C-10.28892847 166.91483183 -20.01599607 134.40335217 -29.6875 101.875 C-36.19920419 114.14808046 -42.56176866 126.48278384 -48.7578125 138.91796875 C-49.57289162 140.55000023 -50.38815224 142.18194107 -51.20358276 143.813797 C-53.31282875 148.036043 -55.41966696 152.25948563 -57.52593994 156.48321533 C-59.69026877 160.82224336 -61.85696377 165.16008952 -64.0234375 169.49804688 C-68.24705885 177.95590079 -72.46812788 186.41502555 -76.6875 194.875 C-77.0175 194.875 -77.3475 194.875 -77.6875 194.875 C-77.6875 141.415 -77.6875 87.955 -77.6875 32.875 C-72.0775 31.555 -66.4675 30.235 -60.6875 28.875 C-46.23515672 23.630198 -28.07657643 16.6148842 -18.19506836 3.96435547 C-12.80675582 -2.68806524 -7.91071852 -1.41057127 0 0 Z " fill="#FFFFFF" transform="translate(237.6875,253.125)"/>
<path d="M0 0 C11.48201522 3.24455189 21.2195841 13.62805651 27.03271484 23.80859375 C35.50557633 39.82881325 38.08020484 57.96456175 33.375 75.6875 C27.62230399 92.56341591 16.4592913 107.02395619 0.31860352 115.0168457 C-15.47359114 122.49735896 -34.2888419 123.9423614 -50.96484375 118.2578125 C-64.45266822 112.66826362 -75.81595663 104.24078901 -84 92 C-85.25 88.6640625 -85.25 88.6640625 -86 86 C-85.45287354 85.83508057 -84.90574707 85.67016113 -84.34204102 85.50024414 C-53.32883068 76.01526 -27.92711353 59.88242511 -11.82275391 30.87988281 C-6.62252171 20.98920049 -3.00652654 10.7396597 0 0 Z " fill="#FFFFFF" transform="translate(477,199)"/>
<path d="M0 0 C0.16491943 0.54712646 0.32983887 1.09425293 0.49975586 1.65795898 C9.98474 32.67116932 26.11757489 58.07288647 55.12011719 74.17724609 C65.01079951 79.37747829 75.2603403 82.99347346 86 86 C82.75544811 97.48201522 72.37194349 107.2195841 62.19140625 113.03271484 C46.17118675 121.50557633 28.03543825 124.08020484 10.3125 119.375 C-6.56341591 113.62230399 -21.02395619 102.4592913 -29.0168457 86.31860352 C-36.49735896 70.52640886 -37.9423614 51.7111581 -32.2578125 35.03515625 C-27.51329624 23.58643222 -14.59165473 0 0 0 Z " fill="#FFFFFF" transform="translate(35,199)"/>
</svg>
