<?xml version="1.0" encoding="UTF-8"?>
<svg version="1.1" xmlns="http://www.w3.org/2000/svg" width="2048" height="2048">
<path d="M0 0 C2.67696505 0.26587657 5.35488212 0.52012728 8.03308105 0.77325439 C100.58676963 9.62756645 192.19160097 30.44158205 502.54968262 183.25323486 C503.87769567 184.18828972 505.20580839 185.12320303 506.53405762 186.05792236 C515.33918532 192.27801395 523.95989036 198.74043707 532.54968262 205.25323486 C533.11541992 205.68104248 533.68115723 206.1088501 534.26403809 206.54962158 C542.91041451 213.09738817 551.33837753 219.89503737 559.72937012 226.76495361 C561.32230126 228.06732865 562.91997782 229.36389518 564.51843262 230.65948486 C574.98263218 239.15395275 585.18858532 247.92740213 595.11999512 257.03839111 C597.15483677 258.89330304 599.21289509 260.70752285 601.29968262 262.50323486 C614.49647022 274.02543674 626.87361733 286.41861175 639.24108887 298.81427002 C641.59909075 301.1767813 643.96036565 303.53590999 646.32358551 305.8931942 C648.62014501 308.18524506 650.91286407 310.48112981 653.20593262 312.77667236 C654.04144653 313.61016205 654.87696045 314.44365173 655.73779297 315.30239868 C660.00207916 319.58365829 664.12285997 323.9306511 668.05471802 328.52015686 C670.4319292 331.276003 672.9350725 333.9118549 675.42468262 336.56573486 C679.96316785 341.43909036 684.24317059 346.45627464 688.41296387 351.65167236 C690.50850755 354.20310215 692.68931416 356.6365026 694.92468262 359.06573486 C698.90723542 363.44103077 702.56786332 368.00052753 706.1907959 372.67193604 C709.13743807 376.46835702 712.1376221 380.21132923 715.19128418 383.92218018 C722.67007083 393.01751088 729.77482171 402.36801906 736.76794434 411.84063721 C737.88350505 413.35118407 739.00187567 414.85966431 740.12438965 416.36505127 C756.36300908 438.15297305 771.3427723 461.09667435 785.54968262 484.25323486 C786.10075684 485.14824707 786.10075684 485.14824707 786.66296387 486.06134033 C789.34314655 490.42881985 791.9543373 494.83493428 794.54968262 499.25323486 C795.06836914 500.13205322 795.58705566 501.01087158 796.12145996 501.9163208 C806.4831184 519.51203355 816.21412182 537.39948386 825.64141846 555.50958252 C826.46228612 557.08545426 827.28631445 558.65967863 828.11071777 560.23370361 C837.1200465 577.50237148 844.87118321 595.35759112 852.65386963 613.20245361 C853.4649924 615.05935388 854.2807502 616.9142278 855.0970459 618.76885986 C876.13496849 666.63658146 892.59831986 716.62671659 905.54968262 767.25323486 C905.74779541 768.02612854 905.9459082 768.79902222 906.15002441 769.59533691 C919.48598742 821.82328344 928.53423221 875.14814871 933.32965088 928.83239746 C933.54597635 931.21245772 933.77513583 933.59097166 934.00720215 935.96954346 C939.43930377 992.61943455 939.44769266 1052.07186806 933.80291748 1108.70355225 C933.53704091 1111.3805173 933.28279021 1114.05843436 933.02966309 1116.7366333 C924.17535103 1209.29032187 903.36133543 1300.89515321 750.54968262 1611.25323486 C749.61462776 1612.58124791 748.67971445 1613.90936064 747.74499512 1615.23760986 C741.52490353 1624.04273756 735.06248041 1632.66344261 728.54968262 1641.25323486 C728.121875 1641.81897217 727.69406738 1642.38470947 727.2532959 1642.96759033 C720.70552931 1651.61396676 713.90788011 1660.04192978 707.03796387 1668.43292236 C705.73558883 1670.02585351 704.4390223 1671.62353006 703.14343262 1673.22198486 C694.64896473 1683.68618443 685.87551535 1693.89213757 676.76452637 1703.82354736 C674.90961444 1705.85838901 673.09539463 1707.91644733 671.29968262 1710.00323486 C659.77748074 1723.20002246 647.38430573 1735.57716957 634.98864746 1747.94464111 C632.62613618 1750.302643 630.26700749 1752.66391789 627.90972328 1755.02713776 C625.61767242 1757.32369726 623.32178767 1759.61641632 621.02624512 1761.90948486 C620.19275543 1762.74499878 619.35926575 1763.5805127 618.5005188 1764.44134521 C614.21925919 1768.70563141 609.87226638 1772.82641222 605.28276062 1776.75827026 C602.52691449 1779.13548145 599.89106258 1781.63862475 597.23718262 1784.12823486 C592.36382712 1788.6667201 587.34664284 1792.94672284 582.15124512 1797.11651611 C579.59981533 1799.2120598 577.16641488 1801.39286641 574.73718262 1803.62823486 C570.36188671 1807.61078767 565.80238995 1811.27141556 561.13098145 1814.89434814 C557.33456047 1817.84099032 553.59158825 1820.84117435 549.8807373 1823.89483643 C540.7854066 1831.37362308 531.43489842 1838.47837395 521.96228027 1845.47149658 C520.45173341 1846.5870573 518.94325317 1847.70542792 517.43786621 1848.82794189 C495.64994443 1865.06656133 472.70624313 1880.04632454 449.54968262 1894.25323486 C448.95300781 1894.62061768 448.35633301 1894.98800049 447.74157715 1895.36651611 C443.37409764 1898.0466988 438.9679832 1900.65788954 434.54968262 1903.25323486 C433.67086426 1903.77192139 432.7920459 1904.29060791 431.88659668 1904.82501221 C414.29088393 1915.18667065 396.40343362 1924.91767406 378.29333496 1934.3449707 C376.71746322 1935.16583837 375.14323885 1935.9898667 373.56921387 1936.81427002 C356.30054601 1945.82359875 338.44532636 1953.57473545 320.60046387 1961.35742188 C318.7435636 1962.16854465 316.88868968 1962.98430245 315.03405762 1963.80059814 C267.16633602 1984.83852074 217.17620089 2001.30187211 166.54968262 2014.25323486 C165.77678894 2014.45134766 165.00389526 2014.64946045 164.20758057 2014.85357666 C111.97963404 2028.18953967 58.65476877 2037.23778445 4.97052002 2042.03320312 C2.59045976 2042.2495286 0.21194582 2042.47868808 -2.16662598 2042.71075439 C-58.81651707 2048.14285601 -118.26895058 2048.1512449 -174.90063477 2042.50646973 C-177.57759982 2042.24059315 -180.25551688 2041.98634245 -182.93371582 2041.73321533 C-275.48740439 2032.87890327 -367.09223573 2012.06488768 -677.45031738 1859.25323486 C-678.77833043 1858.31818001 -680.10644316 1857.3832667 -681.43469238 1856.44854736 C-690.23982008 1850.22845578 -698.86052513 1843.76603266 -707.45031738 1837.25323486 C-708.01605469 1836.82542725 -708.58179199 1836.39761963 -709.16467285 1835.95684814 C-717.81104928 1829.40908156 -726.2390123 1822.61143235 -734.63000488 1815.74151611 C-736.22293603 1814.43914108 -737.82061258 1813.14257454 -739.41906738 1811.84698486 C-749.88326695 1803.35251698 -760.08922009 1794.5790676 -770.02062988 1785.46807861 C-772.05547153 1783.61316669 -774.11352985 1781.79894688 -776.20031738 1780.00323486 C-789.39710498 1768.48103299 -801.77425209 1756.08785798 -814.14172363 1743.69219971 C-816.49972552 1741.32968843 -818.86100041 1738.97055974 -821.22422028 1736.61327553 C-823.52077977 1734.32122466 -825.81349884 1732.02533992 -828.10656738 1729.72979736 C-829.35983826 1728.47956284 -829.35983826 1728.47956284 -830.63842773 1727.20407104 C-834.90271393 1722.92281143 -839.02349474 1718.57581862 -842.95535278 1713.98631287 C-845.33256397 1711.23046673 -847.83570727 1708.59461483 -850.32531738 1705.94073486 C-854.86380262 1701.06737937 -859.14380536 1696.05019509 -863.31359863 1690.85479736 C-865.40914232 1688.30336757 -867.58994893 1685.86996713 -869.82531738 1683.44073486 C-873.80787019 1679.06543896 -877.46849808 1674.5059422 -881.09143066 1669.83453369 C-884.03807284 1666.03811271 -887.03825687 1662.2951405 -890.09191895 1658.58428955 C-897.5707056 1649.48895885 -904.67545647 1640.13845067 -911.6685791 1630.66583252 C-912.78413982 1629.15528566 -913.90251044 1627.64680542 -915.02502441 1626.14141846 C-931.26364385 1604.35349667 -946.24340706 1581.40979537 -960.45031738 1558.25323486 C-960.8177002 1557.65656006 -961.18508301 1557.05988525 -961.56359863 1556.44512939 C-964.24378132 1552.07764988 -966.85497206 1547.67153544 -969.45031738 1543.25323486 C-969.96900391 1542.3744165 -970.48769043 1541.49559814 -971.02209473 1540.59014893 C-981.38375317 1522.99443618 -991.11475658 1505.10698587 -1000.54205322 1486.99688721 C-1001.36292089 1485.42101546 -1002.18694922 1483.84679109 -1003.01135254 1482.27276611 C-1012.02068126 1465.00409825 -1019.77181797 1447.14887861 -1027.55450439 1429.30401611 C-1028.36562717 1427.44711585 -1029.18138497 1425.59224193 -1029.99768066 1423.73760986 C-1051.03560326 1375.86988826 -1067.49895463 1325.87975313 -1080.45031738 1275.25323486 C-1080.64843018 1274.48034119 -1080.84654297 1273.70744751 -1081.05065918 1272.91113281 C-1094.38662219 1220.68318629 -1103.43486697 1167.35832102 -1108.23028564 1113.67407227 C-1108.44661112 1111.29401201 -1108.6757706 1108.91549807 -1108.90783691 1106.53692627 C-1114.33993853 1049.88703518 -1114.34832742 990.43460167 -1108.70355225 933.80291748 C-1108.43767567 931.12595243 -1108.18342497 928.44803536 -1107.93029785 925.76983643 C-1099.07598579 833.21614786 -1078.2619702 741.61131651 -925.45031738 431.25323486 C-924.51526253 429.92522182 -923.58034922 428.59710909 -922.64562988 427.26885986 C-916.4255383 418.46373216 -909.96311518 409.84302712 -903.45031738 401.25323486 C-903.02250977 400.68749756 -902.59470215 400.12176025 -902.15393066 399.53887939 C-895.60616408 390.89250297 -888.80851487 382.46453995 -881.93859863 374.07354736 C-880.6362236 372.48061622 -879.33965706 370.88293966 -878.04406738 369.28448486 C-869.5495995 358.8202853 -860.77615012 348.61433216 -851.66516113 338.68292236 C-849.81024921 336.64808071 -847.9960294 334.59002239 -846.20031738 332.50323486 C-834.67811551 319.30644726 -822.2849405 306.92930015 -809.88928223 294.56182861 C-807.52677095 292.20382673 -805.16764226 289.84255183 -802.81035805 287.47933197 C-800.51830718 285.18277247 -798.22242244 282.89005341 -795.92687988 280.59698486 C-795.0933902 279.76147095 -794.25990051 278.92595703 -793.40115356 278.06512451 C-789.11989395 273.80083832 -784.77290114 269.68005751 -780.18339539 265.74819946 C-777.42754925 263.37098828 -774.79169734 260.86784498 -772.13781738 258.37823486 C-767.26446189 253.83974963 -762.24727761 249.55974689 -757.05187988 245.38995361 C-754.50045009 243.29440993 -752.06704965 241.11360332 -749.63781738 238.87823486 C-745.26252148 234.89568206 -740.70302472 231.23505416 -736.03161621 227.61212158 C-732.23519523 224.66547941 -728.49222302 221.66529538 -724.78137207 218.6116333 C-715.68604137 211.13284665 -706.33553319 204.02809577 -696.86291504 197.03497314 C-695.35236818 195.91941243 -693.84388794 194.80104181 -692.33850098 193.67852783 C-670.55057919 177.4399084 -647.60687789 162.46014518 -624.45031738 148.25323486 C-623.85364258 147.88585205 -623.25696777 147.51846924 -622.64221191 147.13995361 C-618.2747324 144.45977093 -613.86861796 141.84858019 -609.45031738 139.25323486 C-608.57149902 138.73454834 -607.69268066 138.21586182 -606.78723145 137.68145752 C-589.1915187 127.31979908 -571.30406839 117.58879566 -553.19396973 108.16149902 C-551.61809798 107.34063136 -550.04387361 106.51660303 -548.46984863 105.69219971 C-531.20118077 96.68287098 -513.34596112 88.93173427 -495.50109863 81.14904785 C-493.64419837 80.33792508 -491.78932445 79.52216728 -489.93469238 78.70587158 C-442.06697078 57.66794899 -392.07683565 41.20459762 -341.45031738 28.25323486 C-340.67742371 28.05512207 -339.90453003 27.85700928 -339.10821533 27.65289307 C-286.88026881 14.31693006 -233.55540354 5.26868527 -179.87115479 0.4732666 C-177.49109453 0.25694113 -175.11258058 0.02778165 -172.73400879 -0.20428467 C-116.0841177 -5.63638629 -56.63168419 -5.64477517 0 0 Z M-117.45031738 159.25323486 C-118.09404297 159.41420654 -118.73776855 159.57517822 -119.40100098 159.74102783 C-135.39588113 163.87373328 -150.48918332 171.06896518 -163.70715332 180.95635986 C-165.6612445 182.41015991 -167.63569306 183.83309897 -169.61437988 185.25323486 C-172.67458663 187.45014329 -175.72930019 189.6542743 -178.77844238 191.86651611 C-181.82659174 194.07775685 -184.87832184 196.28384007 -187.93469238 198.48370361 C-195.63885023 204.03049445 -203.31458455 209.6125496 -210.95031738 215.25323486 C-220.80439559 222.53266108 -230.73606072 229.7015381 -240.67980957 236.85772705 C-249.13624775 242.94562237 -257.56920647 249.06192227 -265.95031738 255.25323486 C-274.32980196 261.44334605 -282.76139101 267.55797795 -291.21643066 273.64434814 C-294.96391507 276.34335604 -298.70692939 279.0485498 -302.45031738 281.75323486 C-306.93642118 284.9945494 -311.42336569 288.2346544 -315.91516113 291.46807861 C-323.62494711 297.0212811 -331.30789369 302.60760691 -338.95031738 308.25323486 C-347.32980196 314.44334605 -355.76139101 320.55797795 -364.21643066 326.64434814 C-367.96391507 329.34335604 -371.70692939 332.0485498 -375.45031738 334.75323486 C-379.93642118 337.9945494 -384.42336569 341.2346544 -388.91516113 344.46807861 C-396.62494711 350.0212811 -404.30789369 355.60760691 -411.95031738 361.25323486 C-421.80439559 368.53266108 -431.73606072 375.7015381 -441.67980957 382.85772705 C-450.13624775 388.94562237 -458.56920647 395.06192227 -466.95031738 401.25323486 C-475.32980196 407.44334605 -483.76139101 413.55797795 -492.21643066 419.64434814 C-495.96391507 422.34335604 -499.70692939 425.0485498 -503.45031738 427.75323486 C-507.93642118 430.9945494 -512.42336569 434.2346544 -516.91516113 437.46807861 C-524.62494711 443.0212811 -532.30789369 448.60760691 -539.95031738 454.25323486 C-548.32980196 460.44334605 -556.76139101 466.55797795 -565.21643066 472.64434814 C-568.96391507 475.34335604 -572.70692939 478.0485498 -576.45031738 480.75323486 C-580.93642118 483.9945494 -585.42336569 487.2346544 -589.91516113 490.46807861 C-597.62494711 496.0212811 -605.30789369 501.60760691 -612.95031738 507.25323486 C-622.80439559 514.53266108 -632.73606072 521.7015381 -642.67980957 528.85772705 C-651.13624775 534.94562237 -659.56920647 541.06192227 -667.95031738 547.25323486 C-676.32980196 553.44334605 -684.76139101 559.55797795 -693.21643066 565.64434814 C-696.96391507 568.34335604 -700.70692939 571.0485498 -704.45031738 573.75323486 C-708.93642118 576.9945494 -713.42336569 580.2346544 -717.91516113 583.46807861 C-725.62494711 589.0212811 -733.30789369 594.60760691 -740.95031738 600.25323486 C-750.80439559 607.53266108 -760.73606072 614.7015381 -770.67980957 621.85772705 C-779.22084732 628.00652665 -787.73623503 634.18629483 -796.20031738 640.44073486 C-802.71899817 645.25717702 -809.27480018 650.01346421 -815.88000488 654.71026611 C-827.96024903 663.30255244 -839.94764859 672.02539969 -851.85266113 680.85870361 C-854.76208099 683.0162851 -857.68910291 685.14350922 -860.64172363 687.24151611 C-875.26720989 697.73305849 -887.986325 709.84719321 -897.45031738 725.25323486 C-898.06004395 726.1903833 -898.66977051 727.12753174 -899.29797363 728.09307861 C-911.35042452 747.40348893 -916.57904211 769.88538278 -916.76281738 792.44073486 C-916.79182129 793.57704346 -916.8208252 794.71335205 -916.85070801 795.88409424 C-916.98437605 814.50508032 -911.27931453 831.99246484 -905.51281738 849.50323486 C-904.81399035 851.65398094 -904.1161026 853.80503241 -903.41906738 855.95635986 C-901.11245875 863.06069125 -898.78185663 870.15705452 -896.45031738 877.25323486 C-895.60213371 879.83840178 -894.75449743 882.42374806 -893.90686035 885.00909424 C-890.5782643 895.15963624 -887.24841302 905.30976513 -883.90932274 915.45686054 C-878.36635495 932.30216275 -872.88902295 949.16630608 -867.51281738 966.06573486 C-861.04447822 986.39766905 -854.40577542 1006.67095139 -847.73144531 1026.93591309 C-841.57793062 1045.62074413 -835.47391311 1064.31838513 -829.51281738 1083.06573486 C-823.11982828 1103.17088311 -816.55324818 1123.21633842 -809.95031738 1143.25323486 C-803.02604788 1164.26524835 -796.1586694 1185.29169214 -789.45471191 1206.37530518 C-783.56954567 1224.87329258 -777.5226862 1243.31610432 -771.45031738 1261.75323486 C-765.05677693 1281.16551755 -758.70604123 1300.58835376 -752.51281738 1320.06573486 C-746.11982828 1340.17088311 -739.55324818 1360.21633842 -732.95031738 1380.25323486 C-726.02604788 1401.26524835 -719.1586694 1422.29169214 -712.45471191 1443.37530518 C-706.56954567 1461.87329258 -700.5226862 1480.31610432 -694.45031738 1498.75323486 C-688.05677362 1518.16552758 -681.70686191 1537.58860796 -675.51281738 1557.06573486 C-669.14887061 1577.06878334 -662.64535781 1597.02469969 -656.09617233 1616.96770859 C-655.33551251 1619.28468047 -654.57557682 1621.60188871 -653.81582642 1623.91915894 C-645.6177891 1651.71986056 -645.6177891 1651.71986056 -634.07531738 1678.12823486 C-633.50297363 1679.17926392 -633.50297363 1679.17926392 -632.91906738 1680.25152588 C-627.33032198 1690.30826042 -620.3328157 1698.90865906 -612.45031738 1707.25323486 C-611.42164551 1708.37858643 -611.42164551 1708.37858643 -610.37219238 1709.52667236 C-604.10785495 1716.13902854 -597.00325023 1721.2352497 -589.45031738 1726.25323486 C-588.51703613 1726.88229736 -587.58375488 1727.51135986 -586.62219238 1728.15948486 C-580.53335505 1731.98675405 -574.11732022 1734.79847861 -567.45031738 1737.44073486 C-566.66326416 1737.76187256 -565.87621094 1738.08301025 -565.06530762 1738.41387939 C-544.80535365 1746.10149797 -524.06421993 1745.83532057 -502.75361274 1745.76710508 C-498.15806252 1745.75687096 -493.56256539 1745.77003216 -488.9670229 1745.78007841 C-480.92873199 1745.79446739 -472.89054871 1745.79412267 -464.85225296 1745.78388977 C-452.89872457 1745.76871431 -440.9452864 1745.77651836 -428.99175856 1745.788723 C-407.63861124 1745.80975426 -386.28551187 1745.80797305 -364.93236002 1745.79640735 C-346.24560183 1745.78633585 -327.55886118 1745.78372264 -308.87210083 1745.78849792 C-307.01110765 1745.78895624 -307.01110765 1745.78895624 -305.11251865 1745.7894238 C-300.07597106 1745.79066921 -295.03942348 1745.79194281 -290.00287591 1745.79326286 C-254.86523173 1745.80236241 -219.72759315 1745.80398173 -184.58995056 1745.78900909 C-183.92825937 1745.7887281 -183.26656818 1745.7884471 -182.58482574 1745.78815759 C-171.84058544 1745.78357825 -161.09634527 1745.77870019 -150.35210511 1745.7737969 C-107.74387518 1745.75437277 -65.13569553 1745.75527435 -22.52746582 1745.77471924 C-11.78853867 1745.77960433 -1.0496115 1745.78444866 9.6893158 1745.78900909 C10.35062412 1745.78929089 11.01193244 1745.78957268 11.69328041 1745.78986301 C47.42542945 1745.80498443 83.15757539 1745.80163536 118.88972569 1745.79227018 C123.91697247 1745.79098736 128.94421927 1745.789736 133.97146606 1745.78849792 C135.20925673 1745.78818162 136.44704739 1745.78786531 137.72234686 1745.78753941 C156.39505464 1745.782994 175.06774292 1745.78830228 193.740448 1745.79841614 C214.97711659 1745.80986156 236.21372982 1745.80697595 257.45039153 1745.78529316 C269.32843559 1745.77356487 281.20635972 1745.7727569 293.08440062 1745.78787786 C301.02679905 1745.79687163 308.96910167 1745.79122152 316.91148594 1745.77385878 C321.43112637 1745.76437922 325.95052917 1745.76101532 330.4701618 1745.77548271 C372.22248873 1745.89919736 407.12500327 1737.41911018 437.79968262 1707.44073486 C444.24601031 1700.91632364 449.70498867 1694.03489888 454.54968262 1686.25323486 C454.94574707 1685.63077881 455.34181152 1685.00832275 455.74987793 1684.36700439 C464.34292967 1670.5372377 468.94146746 1655.08572581 473.8493042 1639.6869812 C476.18180799 1632.37055266 478.57110382 1625.07368313 480.97546387 1617.78057861 C488.84428705 1593.89643499 496.62174041 1569.98534475 504.24829102 1546.02270508 C510.63782158 1525.96052101 517.21416369 1505.9614276 523.80393982 1485.96440125 C530.13448877 1466.75289117 536.42156489 1447.53053314 542.54968262 1428.25323486 C548.92117425 1408.21035219 555.46732249 1388.2275742 562.04968262 1368.25323486 C568.97397111 1347.24122784 575.84133069 1326.21477728 582.54528809 1305.13116455 C588.66282156 1285.90281104 594.95683374 1266.73443083 601.26895905 1247.56934357 C607.42235376 1228.88492206 613.52621617 1210.187678 619.48718262 1191.44073486 C626.12365284 1170.56986903 632.94969552 1149.76392557 639.80410004 1128.96392059 C646.47648737 1108.71491758 653.08481825 1088.44902101 659.54528809 1068.13116455 C665.66282156 1048.90281104 671.95683374 1029.73443083 678.26895905 1010.56934357 C684.74199373 990.91435406 691.14642085 971.24095608 697.41574097 951.51980591 C701.63045839 938.2706637 705.91531709 925.04596839 710.26062012 911.83917236 C710.63661819 910.69622302 710.63661819 910.69622302 711.02021217 909.53018379 C713.51368909 901.95222456 716.01117566 894.37560225 718.51593876 886.80136585 C721.30781611 878.3574198 724.08129384 869.90764418 726.8338089 861.45078278 C727.57389781 859.17890047 728.31641863 856.90782052 729.05889893 854.63671875 C730.33047546 850.74134855 731.58828814 846.84173459 732.83762169 842.93917656 C733.30890484 841.47257881 733.78384994 840.00715115 734.26301003 838.54310799 C739.10050766 823.7407361 742.12865726 809.0991481 741.98718262 793.44073486 C741.9769104 791.64406372 741.9769104 791.64406372 741.96643066 789.81109619 C741.7780777 779.25980287 740.32226999 769.41628202 737.54968262 759.25323486 C737.22226074 757.99253174 736.89483887 756.73182861 736.55749512 755.43292236 C731.7245375 739.09964226 722.98473878 722.88563968 711.54968262 710.25323486 C710.70542725 709.32051758 710.70542725 709.32051758 709.84411621 708.36895752 C700.74148289 698.4907095 690.92184038 690.47267539 679.87927246 682.8772583 C675.87496471 680.08574131 671.96782921 677.16380081 668.04968262 674.25323486 C658.93409616 667.51518244 649.7502355 660.87457012 640.54968262 654.25323486 C630.54417864 647.05260278 620.57279784 639.810727 610.65759277 632.48614502 C603.07299422 626.88891313 595.43379932 621.36914859 587.78356934 615.86212158 C583.28445093 612.62177292 578.79144143 609.37295785 574.29724121 606.12579346 C570.56173762 603.42725465 566.82486782 600.73065533 563.08483887 598.03839111 C554.57047581 591.90566807 546.0975206 585.72090697 537.65759277 579.48614502 C530.07299422 573.88891313 522.43379932 568.36914859 514.78356934 562.86212158 C510.28445093 559.62177292 505.79144143 556.37295785 501.29724121 553.12579346 C497.56173762 550.42725465 493.82486782 547.73065533 490.08483887 545.03839111 C481.57047581 538.90566807 473.0975206 532.72090697 464.65759277 526.48614502 C456.33465513 520.34403853 447.94536046 514.29532803 439.54968262 508.25323486 C429.54417864 501.05260278 419.57279784 493.810727 409.65759277 486.48614502 C402.07299422 480.88891313 394.43379932 475.36914859 386.78356934 469.86212158 C382.28445093 466.62177292 377.79144143 463.37295785 373.29724121 460.12579346 C369.56173762 457.42725465 365.82486782 454.73065533 362.08483887 452.03839111 C353.57047581 445.90566807 345.0975206 439.72090697 336.65759277 433.48614502 C329.07299422 427.88891313 321.43379932 422.36914859 313.78356934 416.86212158 C309.28445093 413.62177292 304.79144143 410.37295785 300.29724121 407.12579346 C296.56173762 404.42725465 292.82486782 401.73065533 289.08483887 399.03839111 C280.57047581 392.90566807 272.0975206 386.72090697 263.65759277 380.48614502 C255.33465513 374.34403853 246.94536046 368.29532803 238.54968262 362.25323486 C228.54417864 355.05260278 218.57279784 347.810727 208.65759277 340.48614502 C201.07299422 334.88891313 193.43379932 329.36914859 185.78356934 323.86212158 C181.28445093 320.62177292 176.79144143 317.37295785 172.29724121 314.12579346 C168.56173762 311.42725465 164.82486782 308.73065533 161.08483887 306.03839111 C152.57047581 299.90566807 144.0975206 293.72090697 135.65759277 287.48614502 C128.07299422 281.88891313 120.43379932 276.36914859 112.78356934 270.86212158 C108.28445093 267.62177292 103.79144143 264.37295785 99.29724121 261.12579346 C95.56173762 258.42725465 91.82486782 255.73065533 88.08483887 253.03839111 C79.57047581 246.90566807 71.0975206 240.72090697 62.65759277 234.48614502 C54.33465513 228.34403853 45.94536046 222.29532803 37.54968262 216.25323486 C28.34907388 209.63185941 19.16798868 202.98767006 10.04968262 196.25323486 C7.67498884 194.50243436 5.29980845 192.7522981 2.92419434 191.00274658 C1.33385738 189.83100541 -0.2556541 188.6581431 -1.84436035 187.48419189 C-35.85988617 162.38894328 -74.95082507 148.53068675 -117.45031738 159.25323486 Z " fill="#FFCC00" transform="translate(1111.4503173828125,2.74676513671875)"/>
<path d="M0 0 C2.3578744 0.8542703 3.99706427 1.94768948 5.99829102 3.45825195 C6.74989502 4.01971924 7.50149902 4.58118652 8.27587891 5.15966797 C9.07888428 5.76866943 9.88188965 6.3776709 10.70922852 7.00512695 C12.42869726 8.29106358 14.14876337 9.57620177 15.86938477 10.8605957 C16.74095215 11.51334473 17.61251953 12.16609375 18.51049805 12.83862305 C22.3603011 15.70534227 26.25034583 18.51470914 30.14672852 21.31762695 C30.8842334 21.84904297 31.62173828 22.38045898 32.3815918 22.92797852 C33.87095028 24.00104457 35.36053292 25.07379957 36.8503418 26.14624023 C41.3494602 29.3865889 45.8424697 32.63540397 50.33666992 35.88256836 C54.07217351 38.58110717 57.80904332 41.27770648 61.54907227 43.9699707 C70.06343532 50.10269374 78.53639054 56.28745485 86.97631836 62.5222168 C95.29925601 68.66432329 103.68855067 74.71303378 112.08422852 80.75512695 C121.36943929 87.43738771 130.63372551 94.14401702 139.83422852 100.94262695 C146.3529093 105.75906911 152.90871132 110.5153563 159.51391602 115.2121582 C170.74938694 123.20358471 181.88567279 131.3293509 192.9753418 139.52148438 C200.56024999 145.11898211 208.19978159 150.63897551 215.8503418 156.14624023 C220.3494602 159.3865889 224.8424697 162.63540397 229.33666992 165.88256836 C233.07217351 168.58110717 236.80904332 171.27770648 240.54907227 173.9699707 C249.06343532 180.10269374 257.53639054 186.28745485 265.97631836 192.5222168 C274.29925601 198.66432329 282.68855067 204.71303378 291.08422852 210.75512695 C301.08973249 217.95575903 311.0611133 225.19763482 320.97631836 232.5222168 C328.56091692 238.11944869 336.20011181 243.63921322 343.8503418 249.14624023 C348.3494602 252.3865889 352.8424697 255.63540397 357.33666992 258.88256836 C361.07217351 261.58110717 364.80904332 264.27770648 368.54907227 266.9699707 C377.06343532 273.10269374 385.53639054 279.28745485 393.97631836 285.5222168 C401.56091692 291.11944869 409.20011181 296.63921322 416.8503418 302.14624023 C421.3494602 305.3865889 425.8424697 308.63540397 430.33666992 311.88256836 C434.07217351 314.58110717 437.80904332 317.27770648 441.54907227 319.9699707 C456.5080174 330.74407008 471.36780179 341.65171517 486.08422852 352.75512695 C484.70455822 361.21201481 482.1338785 369.17795758 479.42016602 377.28637695 C478.95097835 378.70322123 478.48237487 380.12025908 478.01431274 381.53747559 C477.01960937 384.54614 476.02156357 387.55366472 475.02075195 390.56030273 C472.63586599 397.72619684 470.26914117 404.89809677 467.90149689 412.06970215 C467.37144742 413.67499569 466.84118858 415.28022011 466.31072235 416.88537598 C461.81750404 430.48212943 457.41695509 444.10632949 453.08422852 457.75512695 C446.71494991 477.79869371 440.16657923 497.78081616 433.58422852 517.75512695 C426.65994002 538.76713398 419.79258044 559.79358454 413.08862305 580.87719727 C407.2034567 599.37518498 401.15657902 617.81799015 395.08422852 636.25512695 C388.67013105 655.72996983 382.29889532 675.21546436 376.08422852 694.75512695 C369.63745865 715.02454958 363.01922582 735.23489436 356.36560059 755.43707275 C349.87163355 775.15583086 343.44667986 794.89320639 337.15481567 814.6776123 C330.3760636 835.98017251 323.39748214 857.21621028 316.39851952 878.44721222 C315.49132705 881.1992963 314.58460435 883.95153493 313.67808914 886.70384216 C313.24053324 888.03215556 312.80280895 889.3604135 312.36491013 890.68861389 C309.21151643 900.25642246 306.11737258 909.84159303 303.1292572 919.46246338 C301.19053263 925.64882284 301.19053263 925.64882284 300.08422852 926.75512695 C296.90225359 926.85431688 293.74194414 926.88685456 290.55952358 926.87817478 C289.54196878 926.87932863 288.52441398 926.88048247 287.47602418 926.88167128 C284.02057555 926.88434634 280.56517228 926.87980852 277.10972595 926.87538147 C274.62573297 926.87581699 272.14174002 926.87669154 269.65774733 926.87797064 C264.23350128 926.87974833 258.80926961 926.87839081 253.38502502 926.87433243 C245.31928714 926.86831439 237.2535562 926.86799504 229.18781648 926.86887442 C215.62205987 926.87019049 202.05630811 926.86683867 188.4905529 926.86085701 C175.05229608 926.85494671 161.61404127 926.85109243 148.17578316 926.8500042 C147.34127114 926.84993546 146.50675911 926.84986672 145.64695885 926.84979589 C141.40916077 926.84945758 137.17136269 926.84915619 132.93356461 926.84886902 C102.89125524 926.84676675 72.84894851 926.84002421 42.80664062 926.83056641 C13.614909 926.82138696 -15.57682191 926.81430091 -44.76855469 926.81005859 C-45.66784482 926.80992707 -46.56713495 926.80979554 -47.4936763 926.80966003 C-56.52444343 926.80834155 -65.55521057 926.80706573 -74.5859777 926.80582117 C-92.98386778 926.80328473 -111.38175782 926.80046348 -129.77964783 926.79747009 C-130.62561487 926.7973328 -131.47158191 926.79719551 -132.34318432 926.79705406 C-188.86738115 926.78784823 -245.39157648 926.77198168 -301.91577148 926.75512695 C-305.22785424 919.07926849 -305.22785424 919.07926849 -306.34423828 915.52905273 C-306.58784592 914.76122467 -306.83145355 913.99339661 -307.08244324 913.20230103 C-307.34068375 912.37668671 -307.59892426 911.55107239 -307.86499023 910.70043945 C-308.4593197 908.82476573 -309.05372496 906.94911602 -309.64819336 905.07348633 C-309.96457764 904.0708374 -310.28096191 903.06818848 -310.60693359 902.03515625 C-317.61503382 879.84312509 -324.84326592 857.72674324 -332.13364029 835.62624359 C-339.46415426 813.40298521 -346.74754726 791.1686284 -353.83374023 768.8659668 C-360.05989112 749.28445955 -366.48176954 729.7690406 -372.91577148 710.25512695 C-380.00499829 688.75388641 -387.0439075 667.24046433 -393.90112305 645.66381836 C-399.94685799 626.65249308 -406.17191118 607.70203729 -412.41577148 588.75512695 C-418.97759666 568.84335645 -425.50328494 548.92324599 -431.85327148 528.94262695 C-438.65574817 507.53874737 -445.66687837 486.20593503 -452.6999321 464.87702942 C-460.15666714 442.26233222 -467.54500423 419.62937622 -474.74389648 396.9309082 C-475.03353271 396.01914825 -475.32316895 395.10738831 -475.62158203 394.16799927 C-476.18437299 392.3955646 -476.74577705 390.62268884 -477.30566406 388.84933472 C-478.85986455 383.95577888 -480.47964965 379.09114443 -482.16186523 374.23999023 C-482.72442017 372.6037545 -482.72442017 372.6037545 -483.29833984 370.9344635 C-484.02703222 368.8229651 -484.76567187 366.71486555 -485.515625 364.61082458 C-485.84361084 363.6575679 -486.17159668 362.70431122 -486.50952148 361.72216797 C-486.80536133 360.88250992 -487.10120117 360.04285187 -487.40600586 359.17774963 C-488.00054985 356.35222419 -487.73961195 354.50765587 -486.91577148 351.75512695 C-485.34375 350.10864258 -485.34375 350.10864258 -483.29467773 348.66137695 C-482.15276978 347.83851196 -482.15276978 347.83851196 -480.98779297 346.99902344 C-479.74557983 346.13579468 -479.74557983 346.13579468 -478.47827148 345.25512695 C-477.62370361 344.64419189 -476.76913574 344.03325684 -475.88867188 343.40380859 C-474.10907819 342.13262345 -472.32540032 340.86713801 -470.5378418 339.60717773 C-467.35868851 337.36164172 -464.20775494 335.07886871 -461.05810547 332.79223633 C-458.83576279 331.17992438 -456.60896211 329.57397216 -454.38061523 327.9699707 C-449.88881979 324.73654649 -445.40187528 321.49644149 -440.91577148 318.25512695 C-436.42966769 315.01381242 -431.94272318 311.77370741 -427.45092773 308.5402832 C-419.74114176 302.98708072 -412.05819517 297.4007549 -404.41577148 291.75512695 C-396.0362869 285.56501577 -387.60469786 279.45038387 -379.1496582 273.36401367 C-375.40217379 270.66500577 -371.65915948 267.95981201 -367.91577148 265.25512695 C-363.42966769 262.01381242 -358.94272318 258.77370741 -354.45092773 255.5402832 C-346.74114176 249.98708072 -339.05819517 244.4007549 -331.41577148 238.75512695 C-321.56169328 231.47570074 -311.63002815 224.30682371 -301.6862793 217.15063477 C-293.22984112 211.06273945 -284.79688239 204.94643954 -276.41577148 198.75512695 C-268.0362869 192.56501577 -259.60469786 186.45038387 -251.1496582 180.36401367 C-247.40217379 177.66500577 -243.65915948 174.95981201 -239.91577148 172.25512695 C-235.42966769 169.01381242 -230.94272318 165.77370741 -226.45092773 162.5402832 C-218.74114176 156.98708072 -211.05819517 151.4007549 -203.41577148 145.75512695 C-195.0362869 139.56501577 -186.60469786 133.45038387 -178.1496582 127.36401367 C-174.40217379 124.66500577 -170.65915948 121.95981201 -166.91577148 119.25512695 C-162.42966769 116.01381242 -157.94272318 112.77370741 -153.45092773 109.5402832 C-145.74114176 103.98708072 -138.05819517 98.4007549 -130.41577148 92.75512695 C-120.56169328 85.47570074 -110.63002815 78.30682371 -100.6862793 71.15063477 C-92.14524155 65.00183516 -83.62985384 58.82206699 -75.16577148 52.56762695 C-68.6470907 47.75118479 -62.09128868 42.9948976 -55.48608398 38.2980957 C-45.77399047 31.3901982 -36.12082042 24.40021947 -26.54174805 17.30908203 C-23.39617563 14.98202611 -20.24388159 12.66424326 -17.08862305 10.3503418 C-15.68479702 9.31971267 -14.28295727 8.28637005 -12.88354492 7.24975586 C-11.09081218 5.92602543 -9.28705251 4.61930003 -7.47827148 3.31762695 C-5.99520508 2.23674805 -5.99520508 2.23674805 -4.48217773 1.1340332 C-1.91577148 -0.24487305 -1.91577148 -0.24487305 0 0 Z " fill="#FFCC00" transform="translate(1024.915771484375,512.244873046875)"/>
</svg>
