<?xml version="1.0" encoding="UTF-8"?>
<svg version="1.1" xmlns="http://www.w3.org/2000/svg" width="2048" height="2048">
<path d="M0 0 C4.96986944 0.00500734 9.93969552 0.00256724 14.90956274 -0.00363405 C84.57345684 -0.08395085 154.14780057 1.34575621 768.93004806 243.13943625 C793.3241224 267.52502565 816.45615961 293.09456825 839.13985959 319.0672149 C839.79932181 319.82222169 840.45878403 320.57722848 841.13822996 321.35511426 C900.24987298 389.09928046 954.96563351 460.0004951 1018.07716122 554.9366607 C1018.73618586 555.94387825 1019.3952105 556.9510958 1020.07420558 557.98883509 C1021.88445945 560.76494263 1023.67619049 563.55194992 1025.46086922 566.3445472 C1025.99004733 567.15385841 1026.51922543 567.96316962 1027.06443923 568.79700542 C1027.53177102 569.53847203 1027.9991028 570.27993865 1028.48059615 571.04387395 C1028.88884399 571.68089882 1029.29709182 572.31792369 1029.7177108 572.97425235 C1030.65637908 575.32902449 1030.31015203 576.47039737 1029.45235959 578.8172149 C1028.42629758 580.6792907 1028.42629758 580.6792907 1027.1369299 582.62800591 C1026.40479275 583.74333451 1026.40479275 583.74333451 1025.65786496 584.881195 C1025.12082944 585.68637063 1024.58379391 586.49154626 1024.03048459 587.32112115 C1023.46750668 588.17451577 1022.90452878 589.02791039 1022.32449093 589.90716546 C1020.45624503 592.73523261 1018.57948465 595.55753492 1016.70235959 598.3797149 C1015.3850115 600.3691057 1014.06795866 602.35869204 1012.75118771 604.3484649 C1003.29765193 618.61492022 993.74038557 632.81071598 984.14755002 646.98374932 C974.98052094 660.52895271 965.92970384 674.14562894 956.95235959 687.8172149 C946.79405768 703.28727973 936.5151194 718.6691513 926.13985959 733.99446099 C916.97546862 747.53613245 907.92728608 761.14931094 898.95235959 774.8172149 C888.79405768 790.28727973 878.5151194 805.6691513 868.13985959 820.99446099 C858.97546862 834.53613245 849.92728608 848.14931094 840.95235959 861.8172149 C830.79405768 877.28727973 820.5151194 892.6691513 810.13985959 907.99446099 C800.97546862 921.53613245 791.92728608 935.14931094 782.95235959 948.8172149 C772.79405768 964.28727973 762.5151194 979.6691513 752.13985959 994.99446099 C742.97546862 1008.53613245 733.92728608 1022.14931094 724.95235959 1035.8172149 C714.79405768 1051.28727973 704.5151194 1066.6691513 694.13985959 1081.99446099 C684.97546862 1095.53613245 675.92728608 1109.14931094 666.95235959 1122.8172149 C656.79405768 1138.28727973 646.5151194 1153.6691513 636.13985959 1168.99446099 C626.97546862 1182.53613245 617.92728608 1196.14931094 608.95235959 1209.8172149 C598.79405768 1225.28727973 588.5151194 1240.6691513 578.13985959 1255.99446099 C568.97546862 1269.53613245 559.92728608 1283.14931094 550.95235959 1296.8172149 C540.79405768 1312.28727973 530.5151194 1327.6691513 520.13985959 1342.99446099 C510.97546862 1356.53613245 501.92728608 1370.14931094 492.95235959 1383.8172149 C482.79405768 1399.28727973 472.5151194 1414.6691513 462.13985959 1429.99446099 C452.97546862 1443.53613245 443.92728608 1457.14931094 434.95235959 1470.8172149 C424.79405768 1486.28727973 414.5151194 1501.6691513 404.13985959 1516.99446099 C394.97546862 1530.53613245 385.92728608 1544.14931094 376.95235959 1557.8172149 C366.79405768 1573.28727973 356.5151194 1588.6691513 346.13985959 1603.99446099 C336.97546862 1617.53613245 327.92728608 1631.14931094 318.95235959 1644.8172149 C308.79405768 1660.28727973 298.5151194 1675.6691513 288.13985959 1690.99446099 C278.97546862 1704.53613245 269.92728608 1718.14931094 260.95235959 1731.8172149 C250.79405768 1747.28727973 240.5151194 1762.6691513 230.13985959 1777.99446099 C220.97546862 1791.53613245 211.92728608 1805.14931094 202.95235959 1818.8172149 C192.79405768 1834.28727973 182.5151194 1849.6691513 172.13985959 1864.99446099 C162.97546862 1878.53613245 153.92728608 1892.14931094 144.95235959 1905.8172149 C134.79405768 1921.28727973 124.5151194 1936.6691513 114.13985959 1951.99446099 C104.97546862 1965.53613245 95.92728608 1979.14931094 86.95235959 1992.8172149 C76.80137625 2008.2761343 66.53117156 2023.64787166 56.16201535 2038.96122735 C45.27398286 2055.046252 34.55447673 2071.23840631 23.90353146 2087.4812774 C12.9290538 2104.20708458 12.9290538 2104.20708458 7.45235959 2111.8172149 C4.08183904 2110.69370805 3.75902016 2110.20047736 1.90987912 2107.34700005 C1.42193875 2106.60322106 0.93399838 2105.85944207 0.43127194 2105.09312432 C-0.35879749 2103.86213509 -0.35879749 2103.86213509 -1.16482791 2102.6062774 C-1.72497592 2101.74863793 -2.28512393 2100.89099846 -2.86224613 2100.00736992 C-4.08074047 2098.14032852 -5.29562338 2096.27092643 -6.50735721 2094.39949029 C-9.7823893 2089.34270715 -13.08443687 2084.30360063 -16.38357791 2079.2625274 C-17.40309543 2077.70257043 -17.40309543 2077.70257043 -18.44320926 2076.11109917 C-25.2073484 2065.77564525 -32.11653724 2055.54110716 -39.04764041 2045.3172149 C-49.43846453 2029.97459874 -59.689285 2014.54614355 -69.86014041 1999.05696099 C-78.82468904 1985.40969152 -87.89388624 1971.83823702 -97.04764041 1958.3172149 C-107.43583901 1942.97279331 -117.68925726 1927.5461858 -127.86014041 1912.05696099 C-136.82468904 1898.40969152 -145.89388624 1884.83823702 -155.04764041 1871.3172149 C-165.43583901 1855.97279331 -175.68925726 1840.5461858 -185.86014041 1825.05696099 C-194.82468904 1811.40969152 -203.89388624 1797.83823702 -213.04764041 1784.3172149 C-223.43583901 1768.97279331 -233.68925726 1753.5461858 -243.86014041 1738.05696099 C-252.82468904 1724.40969152 -261.89388624 1710.83823702 -271.04764041 1697.3172149 C-281.43583901 1681.97279331 -291.68925726 1666.5461858 -301.86014041 1651.05696099 C-310.82468904 1637.40969152 -319.89388624 1623.83823702 -329.04764041 1610.3172149 C-339.43583901 1594.97279331 -349.68925726 1579.5461858 -359.86014041 1564.05696099 C-368.82468904 1550.40969152 -377.89388624 1536.83823702 -387.04764041 1523.3172149 C-397.43583901 1507.97279331 -407.68925726 1492.5461858 -417.86014041 1477.05696099 C-426.82468904 1463.40969152 -435.89388624 1449.83823702 -445.04764041 1436.3172149 C-455.43583901 1420.97279331 -465.68925726 1405.5461858 -475.86014041 1390.05696099 C-484.82468904 1376.40969152 -493.89388624 1362.83823702 -503.04764041 1349.3172149 C-513.43583901 1333.97279331 -523.68925726 1318.5461858 -533.86014041 1303.05696099 C-542.82468904 1289.40969152 -551.89388624 1275.83823702 -561.04764041 1262.3172149 C-571.43583901 1246.97279331 -581.68925726 1231.5461858 -591.86014041 1216.05696099 C-600.82468904 1202.40969152 -609.89388624 1188.83823702 -619.04764041 1175.3172149 C-629.43583901 1159.97279331 -639.68925726 1144.5461858 -649.86014041 1129.05696099 C-658.82468904 1115.40969152 -667.89388624 1101.83823702 -677.04764041 1088.3172149 C-687.43583901 1072.97279331 -697.68925726 1057.5461858 -707.86014041 1042.05696099 C-716.82468904 1028.40969152 -725.89388624 1014.83823702 -735.04764041 1001.3172149 C-745.43583901 985.97279331 -755.68925726 970.5461858 -765.86014041 955.05696099 C-774.82468904 941.40969152 -783.89388624 927.83823702 -793.04764041 914.3172149 C-803.43583901 898.97279331 -813.68925726 883.5461858 -823.86014041 868.05696099 C-832.82468904 854.40969152 -841.89388624 840.83823702 -851.04764041 827.3172149 C-861.43583901 811.97279331 -871.68925726 796.5461858 -881.86014041 781.05696099 C-890.82468904 767.40969152 -899.89388624 753.83823702 -909.04764041 740.3172149 C-919.43583901 724.97279331 -929.68925726 709.5461858 -939.86014041 694.05696099 C-949.40916095 679.51991491 -959.08617415 665.07485093 -968.83798465 650.67320244 C-979.72601714 634.58817779 -990.44552327 618.39602348 -1001.09646854 602.1531524 C-1001.67491519 601.27200768 -1002.25336185 600.39086297 -1002.84933719 599.4830169 C-1003.95618977 597.79640247 -1005.0615932 596.10883592 -1006.16537723 594.42021172 C-1009.47324432 589.37852603 -1012.88475517 584.46583368 -1016.57547244 579.69441216 C-1017.54764041 577.8172149 -1017.54764041 577.8172149 -1017.24676019 575.93532312 C-1016.51269078 573.71132874 -1015.59470712 572.02132328 -1014.33389202 570.05028598 C-1013.86349907 569.31025278 -1013.39310612 568.57021958 -1012.90845883 567.80776113 C-1012.12497923 566.59620084 -1012.12497923 566.59620084 -1011.32567176 565.36016457 C-1010.77074251 564.49448991 -1010.21581326 563.62881525 -1009.64406797 562.73690803 C-1007.76152928 559.81031838 -1005.86752819 556.89144934 -1003.96989688 553.97462456 C-1002.96704372 552.43228658 -1002.96704372 552.43228658 -1001.94393089 550.85879026 C-953.71267386 476.8552375 -900.95137135 406.33348584 -825.61014041 318.5672149 C-824.62671319 317.44021735 -824.62671319 317.44021735 -823.62341874 316.29045218 C-755.21134149 237.98133853 -679.53361419 165.14372382 0 0 Z M-376.54764041 575.8172149 C-375.33270843 581.8918748 -374.14864917 587.58937312 -372.46428165 593.49208062 C-372.26335515 594.20028191 -372.06242865 594.9084832 -371.85541347 595.63814514 C-371.18761276 597.98829995 -370.5142488 600.33682168 -369.8408533 602.68537896 C-369.35333015 604.39661838 -368.8661503 606.10795563 -368.37928256 607.81938164 C-367.04576769 612.50307703 -365.70733426 617.18535431 -364.36803421 621.86739819 C-362.92568123 626.91284379 -361.48780656 631.95956567 -360.04933414 637.0061187 C-357.22967963 646.8954196 -354.40568535 656.7834763 -351.58024362 666.6711251 C-349.25879065 674.79551858 -346.93922924 682.92045011 -344.6208826 691.04573052 C-344.28865164 692.21011509 -343.95642068 693.37449966 -343.61412212 694.57416861 C-343.28059321 695.7431055 -342.9470643 696.91204239 -342.60342845 698.1164016 C-322.57778363 768.30135284 -302.48566637 838.46727062 -282.37579593 908.62812798 C-263.56609207 974.25320158 -244.8244918 1039.89741572 -226.12576541 1105.55419152 C-221.5172814 1121.73586984 -216.90825034 1137.91739216 -212.29764041 1154.0984649 C-211.99342166 1155.16612965 -211.68920291 1156.23379441 -211.37576541 1157.33381264 C-201.87401485 1190.67899494 -192.3469532 1224.01687281 -182.79764041 1257.3484649 C-182.49342166 1258.41033139 -182.18920291 1259.47219788 -181.87576541 1260.56624215 C-177.26764347 1276.65025888 -172.65778774 1292.73377861 -168.04764041 1308.8172149 C-148.32208106 1377.63383936 -128.65591593 1446.46708049 -109.04764041 1515.3172149 C-86.66380852 1593.91286488 -64.20294072 1672.48619439 -41.68650088 1751.04395669 C-40.81181099 1754.09576979 -39.93720086 1757.14760574 -39.06261119 1760.19944756 C-36.51359723 1769.09385325 -33.96415212 1777.98813351 -31.41186067 1786.88159936 C-25.5978537 1807.14152745 -19.80629936 1827.4074962 -14.06106946 1847.68704646 C-12.24069132 1854.10976397 -10.41640557 1860.53137302 -8.59220734 1866.95300644 C-6.85382609 1873.07476924 -5.1225348 1879.19848048 -3.39649686 1885.32373421 C-2.33976019 1889.0677424 -1.27658528 1892.80989902 -0.21158537 1896.55156415 C0.28196749 1898.29084153 0.77273104 1900.03091308 1.2605764 1901.77179997 C1.92451538 1904.13986345 2.59799186 1906.50500268 3.2739996 1908.86964409 C3.46689354 1909.5667856 3.65978747 1910.26392711 3.85852668 1910.98219411 C4.33009338 1912.61233906 4.88340416 1914.21845368 5.45235959 1915.8172149 C6.11235959 1916.1472149 6.77235959 1916.4772149 7.45235959 1916.8172149 C7.70204401 1915.94028166 7.95172843 1915.06334843 8.20897904 1914.15984147 C16.55821073 1884.83652199 24.91048534 1855.51406964 33.26485959 1826.1922149 C33.59410805 1825.03662072 33.92335652 1823.88102654 34.26258221 1822.69041436 C49.95554311 1767.61198702 65.65967334 1712.53680061 81.43282834 1657.4812774 C81.73364449 1656.43129114 82.03446065 1655.38130489 82.34439245 1654.29950087 C86.87912194 1638.4717112 91.41560894 1622.64442534 95.95235959 1606.8172149 C100.86997192 1589.66123584 105.78707968 1572.50511238 110.70235959 1555.3484649 C111.00682436 1554.28573939 111.31128914 1553.22301389 111.62498012 1552.12808459 C121.17519722 1518.79183182 130.69970709 1485.44830665 140.20235959 1452.0984649 C140.65868771 1450.49696776 140.65868771 1450.49696776 141.12423459 1448.86311715 C145.73485687 1432.68150498 150.34375264 1416.49940114 154.95235959 1400.3172149 C174.86601036 1330.39447911 194.84138275 1260.48974331 214.87423459 1190.60106652 C219.48450552 1174.51712267 224.09422515 1158.43302101 228.70235959 1142.3484649 C229.15868771 1140.75566516 229.15868771 1140.75566516 229.62423459 1139.13068764 C244.11736687 1088.54056177 258.53804871 1037.92984402 272.95235959 987.3172149 C296.14445505 905.88364889 319.42154867 824.4746913 342.75320378 743.08100312 C345.57727284 733.22891073 348.40067535 723.37662827 351.2223486 713.52384942 C352.05667182 710.61066321 352.89100048 707.69747856 353.72533384 704.78429525 C354.28209967 702.84024603 354.83884508 700.89619096 355.39556995 698.95213001 C359.04803092 686.19852545 362.70699089 673.44680521 366.37190112 660.69677245 C369.01978304 651.48429657 371.66401457 642.27077767 374.30579397 633.05655002 C375.88940457 627.53380967 377.47491613 622.01163099 379.06502858 616.49075883 C380.54071694 611.36711624 382.01154425 606.24210399 383.4786016 601.11598365 C384.01902678 599.23103605 384.56128858 597.34661394 385.10548463 595.46275156 C385.84834564 592.89020158 386.5847017 590.31587676 387.31944028 587.74099724 C387.5380295 586.98987497 387.75661873 586.23875269 387.98183188 585.46486913 C388.94252836 582.07343834 389.45235959 579.37697922 389.45235959 575.8172149 C136.67235959 575.8172149 -116.10764041 575.8172149 -376.54764041 575.8172149 Z " fill="#00D3FF" transform="translate(1017.5476404129877,-63.81721489530173)"/>
</svg>
