<?xml version="1.0" encoding="UTF-8"?>
<svg version="1.1" xmlns="http://www.w3.org/2000/svg" width="2048" height="2048">
<path d="M0 0 C-1.69801141 5.86194699 -4.4241834 11.12419267 -7.15359938 16.55559576 C-7.95428899 18.16080924 -7.95428899 18.16080924 -8.77115415 19.79845127 C-10.25855902 22.77834365 -11.74954077 25.75639672 -13.24203309 28.73374109 C-14.8690376 31.98162885 -16.49138886 35.23183999 -18.11433434 38.48175734 C-20.97199303 44.20255093 -23.83263815 49.92184334 -26.69520743 55.64018123 C-30.9805295 64.20068438 -35.26123573 72.76348975 -39.54102922 81.32675795 C-46.83434021 95.91931738 -54.13144817 110.50997514 -61.43060112 125.09961319 C-68.83004736 139.88975734 -76.2277527 154.68077028 -83.62331963 169.47285461 C-84.08998175 170.40623625 -84.55664388 171.33961789 -85.03744728 172.30128382 C-87.4168423 177.06038659 -89.79620885 181.8195036 -92.17556535 186.57862562 C-109.4092261 221.04876408 -126.64676121 255.51696388 -143.88634109 289.9841423 C-160.962399 324.12441873 -178.03680478 358.2655206 -195.10898972 392.40773392 C-195.90388239 393.99741603 -195.90388239 393.99741603 -196.7148335 395.61921292 C-201.55481515 405.29854985 -206.39477641 414.97789698 -211.23471318 424.65725634 C-223.26699208 448.72053524 -235.29952689 472.78368616 -247.33223534 496.84675026 C-248.15420738 498.49053438 -248.15420738 498.49053438 -248.99278491 500.16752627 C-275.65785781 553.4924273 -302.32587897 606.81585379 -328.99414062 660.13916016 C-338.25020977 678.64671518 -347.50626589 697.15427672 -356.76226807 715.66186523 C-357.33631553 716.80968627 -357.910363 717.9575073 -358.50180584 719.14011079 C-385.18097518 772.48576451 -411.8580519 825.83246461 -438.53458787 879.17943524 C-440.26615714 882.64217767 -441.99772732 886.10491964 -443.72929768 889.56766152 C-455.2043715 912.51516963 -466.67940923 935.46269578 -478.15442279 958.41023401 C-500.98742825 1004.07129175 -523.82064578 1049.73224344 -546.65400897 1095.39312229 C-547.74142692 1097.56767971 -548.82884472 1099.7422372 -549.91626238 1101.91679477 C-598.87788375 1199.82752915 -647.84197228 1297.73702965 -696.80712891 1395.64599609 C-697.26568126 1396.56290093 -697.72423361 1397.47980577 -698.19668149 1398.4244956 C-721.13097047 1444.28307234 -744.06539821 1490.14157969 -767 1536 C-766.31684585 1536.20303348 -765.6336917 1536.40606696 -764.92983592 1536.61525297 C-764.03182713 1536.8831679 -763.13381835 1537.15108283 -762.20859718 1537.42711639 C-761.31919304 1537.69202487 -760.42978889 1537.95693336 -759.5134331 1538.22986937 C-756.52213997 1539.14641911 -753.5987008 1540.19029293 -750.67333984 1541.29882812 C-749.52214157 1541.73308609 -748.3709433 1542.16734406 -747.18486023 1542.61476135 C-745.95596573 1543.08220261 -744.72707123 1543.54964386 -743.4609375 1544.03125 C-742.12734339 1544.5355925 -740.79362493 1545.03960628 -739.45979309 1545.5433197 C-736.59905691 1546.62432153 -733.7390946 1547.70733653 -730.87973022 1548.79196167 C-726.28617324 1550.53427085 -721.69077472 1552.27168456 -717.0949707 1554.00805664 C-716.31268254 1554.30362866 -715.53039438 1554.59920069 -714.72440052 1554.90372944 C-713.12713428 1555.50721464 -711.52986232 1556.11068471 -709.93258476 1556.71413994 C-707.49351906 1557.63578332 -705.05461276 1558.55784743 -702.61573792 1559.47999573 C-686.56054207 1565.54957701 -670.49060437 1571.57960639 -654.41761017 1577.60186768 C-650.66745547 1579.00706753 -646.91747958 1580.4127444 -643.16748047 1581.81835938 C-637.88240779 1583.79930527 -632.59726174 1585.78005521 -627.31203842 1587.76059914 C-617.53694158 1591.42367219 -607.76246165 1595.08838861 -597.98828125 1598.75390625 C-597.24613058 1599.03222731 -596.50397991 1599.31054836 -595.73933983 1599.59730339 C-591.9918783 1601.00268371 -588.24442637 1602.40808964 -584.49697876 1603.81350708 C-577.7481033 1606.34454578 -570.99914263 1608.87535727 -564.25018883 1611.40618706 C-560.50012244 1612.81244884 -556.75006149 1614.21872515 -553 1615.625 C-551.50000003 1616.18750007 -550.00000003 1616.75000007 -548.5 1617.3125 C-474.25 1645.15625 -400 1673 -249.24995708 1729.53126621 C-247.75010024 1730.09371245 -246.25024329 1730.65615841 -244.75038624 1731.21860409 C-240.9981951 1732.62567437 -237.24600578 1734.03274951 -233.49382019 1735.43983459 C-226.76998687 1737.96129451 -220.04614154 1740.48272236 -213.32222652 1743.00396442 C-209.60673562 1744.3971498 -205.8912556 1745.79036422 -202.17578125 1747.18359375 C-201.43874781 1747.45996611 -200.70171436 1747.73633846 -199.94234657 1748.02108574 C-189.74389004 1751.84536029 -179.54593964 1755.67098185 -169.34835815 1759.49758911 C-163.65076259 1761.6355851 -157.95302712 1763.77320817 -152.25526237 1765.91075325 C-148.39849257 1767.35767219 -144.54179849 1768.80479219 -140.68530273 1770.25244141 C-122.14019474 1777.21377659 -103.58271084 1784.13954737 -85 1791 C-85 1791.66 -85 1792.32 -85 1793 C-85.90303738 1793.14627429 -86.80607475 1793.29254858 -87.7364769 1793.44325542 C-118.07440989 1798.35743604 -148.41223963 1803.27225382 -178.75 1808.1875 C-179.95017258 1808.38194828 -181.15034515 1808.57639656 -182.3868866 1808.77673721 C-241.09748572 1818.28888435 -299.80760123 1827.80400069 -358.515625 1837.33203125 C-359.68195308 1837.52132068 -360.84828115 1837.71061012 -362.04995251 1837.9056356 C-379.70000779 1840.77018066 -397.35000789 1843.63506572 -415 1846.5 C-434.12497055 1849.60434814 -453.24995654 1852.70860106 -472.375 1855.8125 C-474.14564174 1856.09986633 -474.14564174 1856.09986633 -475.95205402 1856.39303803 C-530.74766645 1865.28597654 -585.54557923 1874.16470223 -640.34378052 1883.04167175 C-657.10421695 1885.75676303 -673.86463474 1888.47196938 -690.625 1891.1875 C-691.73489792 1891.36732674 -692.84479584 1891.54715347 -693.98832703 1891.7324295 C-729.86803069 1897.54578003 -765.7468364 1903.36465251 -801.625 1909.1875 C-802.80447708 1909.37892326 -803.98395416 1909.57034653 -805.19917297 1909.7675705 C-823.13282123 1912.6781385 -841.06641505 1915.58904195 -859 1918.5 C-934.11270902 1930.69220507 -1009.22721445 1942.87325286 -1084.34378052 1955.04167175 C-1101.10421695 1957.75676303 -1117.86463474 1960.47196938 -1134.625 1963.1875 C-1135.73489792 1963.36732674 -1136.84479584 1963.54715347 -1137.98832703 1963.7324295 C-1191.80435512 1972.45188377 -1245.61801829 1981.1859011 -1299.43154478 1989.92077875 C-1375.25381947 2002.22802935 -1451.07728514 2014.52790089 -1526.9028455 2026.8148936 C-1535.21999534 2028.16263192 -1543.53712572 2029.51049031 -1551.85424805 2030.85839844 C-1562.95263533 2032.65703736 -1574.05107241 2034.45536878 -1585.14954567 2036.2534771 C-1589.19704618 2036.90923539 -1593.24452996 2037.56509676 -1597.29199791 2038.22105598 C-1599.21311288 2038.53238716 -1601.13422812 2038.84371671 -1603.05534363 2039.15504456 C-1603.98068686 2039.30501603 -1604.9060301 2039.4549875 -1605.85941404 2039.60950357 C-1610.26522431 2040.32341374 -1614.67115068 2041.03659064 -1619.07737255 2041.74795628 C-1620.70810726 2042.01125604 -1622.33884109 2042.27456125 -1623.96957397 2042.53787231 C-1624.74677136 2042.66334354 -1625.52396876 2042.78881476 -1626.32471758 2042.91808814 C-1631.18919437 2043.70438733 -1636.05175328 2044.50154507 -1640.91348267 2045.30465698 C-1642.08421483 2045.49646766 -1643.25494699 2045.68827833 -1644.46115589 2045.88590145 C-1646.54449752 2046.22736693 -1648.62727389 2046.57231226 -1650.70927715 2046.92184544 C-1655.19337556 2047.6527973 -1659.43706097 2048.19088398 -1664 2048 C-1662.67229076 2045.22121713 -1661.19640659 2042.69353891 -1659.453125 2040.15625 C-1658.69140991 2039.04455444 -1658.69140991 2039.04455444 -1657.91430664 2037.91040039 C-1657.36508545 2037.11496826 -1656.81586426 2036.31953613 -1656.25 2035.5 C-1655.67435303 2034.66267334 -1655.09870605 2033.82534668 -1654.50561523 2032.96264648 C-1648.64055227 2024.44685091 -1642.70860531 2015.97797261 -1636.76611328 2007.51611328 C-1633.83978136 2003.34708138 -1630.92021901 1999.1733148 -1628 1995 C-1626.83336611 1993.33331039 -1625.66669943 1991.66664373 -1624.5 1990 C-1623.9225 1989.175 -1623.345 1988.35 -1622.75 1987.5 C-1536.125 1863.75 -1536.125 1863.75 -805.5 820 C-804.9220166 819.1742749 -804.3440332 818.3485498 -803.74853516 817.49780273 C-802.58688249 815.83836844 -801.42509955 814.17902534 -800.26318359 812.51977539 C-797.26870425 808.24320842 -794.276802 803.96487264 -791.2890625 799.68359375 C-785.2706336 791.06401992 -779.2458779 782.45715145 -773 774 C-776.78412787 775.26137596 -779.69976133 777.42258262 -782.9375 779.6875 C-783.63842773 780.17371826 -784.33935547 780.65993652 -785.06152344 781.16088867 C-787.37740269 782.76958861 -789.68907123 784.38419785 -792 786 C-792.78713379 786.54946289 -793.57426758 787.09892578 -794.38525391 787.66503906 C-799.40649446 791.17087389 -804.42203247 794.68478813 -809.43554688 798.20166016 C-813.62173125 801.13724984 -817.81099592 804.06843609 -822 807 C-823.66668197 808.16664481 -825.33334862 809.3333115 -827 810.5 C-909.5 868.25 -992 926 -1999.50146484 1631.25097656 C-2001.16330991 1632.41430058 -2002.82509405 1633.57771164 -2004.48681641 1634.74121094 C-2008.72675092 1637.70974716 -2012.96782728 1640.67662944 -2017.2109375 1643.640625 C-2018.93230155 1644.84373586 -2020.65365584 1646.04686068 -2022.375 1647.25 C-2023.20241699 1647.82766113 -2024.02983398 1648.40532227 -2024.88232422 1649.00048828 C-2028.70648606 1651.67488216 -2032.51804253 1654.3634057 -2036.296875 1657.1015625 C-2036.94865723 1657.57303711 -2037.60043945 1658.04451172 -2038.27197266 1658.53027344 C-2039.47269417 1659.40162707 -2040.67048797 1660.2770352 -2041.86474609 1661.15722656 C-2045.78051529 1664 -2045.78051529 1664 -2048 1664 C-2047.39108586 1653.40641059 -2045.67237555 1643.04018948 -2043.95361328 1632.58496094 C-2043.63467671 1630.62340361 -2043.31615211 1628.66177927 -2042.99800205 1626.70009422 C-2042.12758718 1621.34049253 -2041.25145322 1615.98183942 -2040.37437987 1610.62332392 C-2039.43233749 1604.86132877 -2038.4957452 1599.09844767 -2037.55854797 1593.33566284 C-2035.9380628 1583.3757494 -2034.31434574 1573.41636735 -2032.68844604 1563.45733643 C-2030.20480472 1548.24395603 -2027.72716123 1533.02960353 -2025.2509741 1517.81500843 C-2024.37007238 1512.40250732 -2023.48905868 1506.99002444 -2022.60804763 1501.57754113 C-2022.38656078 1500.2168341 -2022.16507677 1498.8561266 -2021.94359557 1497.49541865 C-2020.37592991 1487.86425771 -2018.80751995 1478.23321824 -2017.23853315 1468.60227244 C-2011.47339864 1433.21384643 -2005.72127436 1397.82333738 -1999.98828125 1362.4296875 C-1999.81001832 1361.32917242 -1999.63175539 1360.22865734 -1999.44809055 1359.09479332 C-1997.48669026 1346.98567933 -1995.5258779 1334.87647019 -1993.56536865 1322.76721191 C-1990.15205374 1301.68457999 -1986.73662248 1280.60229086 -1983.32104588 1259.52002525 C-1982.7777773 1256.16673857 -1982.23452616 1252.81344906 -1981.69127655 1249.4601593 C-1976.07154605 1214.7720703 -1970.44590192 1180.08494301 -1964.81640625 1145.3984375 C-1964.62492532 1144.21861439 -1964.43344438 1143.03879128 -1964.23616099 1141.82321596 C-1961.51884153 1125.08041552 -1958.80121676 1108.33766464 -1956.083529 1091.59492397 C-1952.7846497 1071.27164892 -1949.48587556 1050.94835681 -1946.1875 1030.625 C-1945.90037136 1028.85582191 -1945.90037136 1028.85582191 -1945.60744214 1027.05090284 C-1939.79608026 991.2430322 -1933.98937515 955.43440898 -1928.1875 919.625 C-1928.00767326 918.51510208 -1927.82784653 917.40520416 -1927.6425705 916.26167297 C-1924.92812314 899.50782365 -1922.21403085 882.7539168 -1919.5 866 C-1907.31807495 790.80005942 -1895.12240936 715.60235968 -1882.91667175 640.40628052 C-1880.00677588 622.47921492 -1877.09698442 604.55213238 -1874.1875 586.625 C-1873.9003651 584.85578438 -1873.9003651 584.85578438 -1873.6074295 583.05082703 C-1866.15883253 537.15481372 -1858.71955377 491.25729364 -1851.28456104 445.35907471 C-1848.78092966 429.90364034 -1846.27584235 414.44844268 -1843.76954591 398.99344027 C-1842.15989064 389.06728608 -1840.55061986 379.14106955 -1838.94140625 369.21484375 C-1838.76364883 368.11842772 -1838.5858914 367.02201169 -1838.40274739 365.89237094 C-1833.45295858 335.36103794 -1828.51806135 304.82732777 -1823.59735298 274.29129601 C-1823.15946483 271.57396677 -1822.72156747 268.85663901 -1822.28366089 266.13931274 C-1822.17501877 265.46515461 -1822.06637664 264.79099647 -1821.95444234 264.09640931 C-1820.32320846 253.97450019 -1818.69012409 243.85289102 -1817.05545044 233.73153687 C-1816.94891757 233.07190884 -1816.8423847 232.41228082 -1816.73262356 231.73266406 C-1815.77066687 225.77659152 -1814.80857 219.82054162 -1813.84610724 213.86455083 C-1811.34075537 198.36065125 -1808.84042411 182.85596598 -1806.34932798 167.34976918 C-1804.80246577 157.72403444 -1803.24920967 148.09934562 -1801.6908465 138.47546619 C-1800.78885439 132.90369672 -1799.88992676 127.33147452 -1798.99873161 121.757967 C-1798.18140654 116.6467458 -1797.35598613 111.53690297 -1796.52390194 106.42806435 C-1796.22277694 104.56987084 -1795.92473848 102.71117422 -1795.62996197 100.85196304 C-1795.23137125 98.34074041 -1794.82199016 95.83152114 -1794.40965271 93.32252502 C-1794.23826315 92.21724774 -1794.23826315 92.21724774 -1794.06341118 91.08964163 C-1793.77651292 89.38036954 -1793.39767264 87.68694344 -1793 86 C-1792.34 85.67 -1791.68 85.34 -1791 85 C-1790.73200592 85.72374313 -1790.46401184 86.44748627 -1790.18789673 87.19316101 C-1777.56211769 121.28495287 -1764.89966194 155.36215987 -1752.0625 189.375 C-1751.66397764 190.430965 -1751.66397764 190.430965 -1751.25740433 191.50826263 C-1750.4464429 193.65704556 -1749.63545595 195.80581885 -1748.82446289 197.95458984 C-1747.73711465 200.83560169 -1746.64979951 203.71662602 -1745.5625 206.59765625 C-1745.29316084 207.31127068 -1745.02382168 208.0248851 -1744.74632072 208.76012421 C-1738.32739335 225.76846249 -1731.94278665 242.78963614 -1725.5625 259.8125 C-1724.99830401 261.31768905 -1724.4341052 262.82287704 -1723.86990356 264.32806396 C-1721.60908823 270.35963437 -1719.34845296 276.39127223 -1717.08815002 282.42303467 C-1713.14217377 292.95311217 -1709.19471624 303.48263327 -1705.24609375 314.01171875 C-1704.96777269 314.75386942 -1704.68945164 315.49602009 -1704.40269661 316.26066017 C-1702.99731629 320.0081217 -1701.59191036 323.75557363 -1700.18649292 327.50302124 C-1697.65545422 334.2518967 -1695.12464273 341.00085737 -1692.59381294 347.74981117 C-1691.18755116 351.49987756 -1689.78127485 355.24993851 -1688.375 359 C-1687.81249993 360.49999997 -1687.24999993 361.99999997 -1686.6875 363.5 C-1686.26984375 364.61375 -1686.26984375 364.61375 -1685.84375 365.75 C-1658 440 -1630.15625 514.25 -1601.4687376 590.75003338 C-1600.90627921 592.24992222 -1600.34382053 593.74981096 -1599.78136158 595.24969959 C-1598.37447274 599.00139945 -1596.96758876 602.75310112 -1595.56071472 606.50480652 C-1593.03709828 613.2345102 -1590.51344939 619.9642017 -1587.98961544 626.69382381 C-1586.59331305 630.41696717 -1585.19703959 634.14012138 -1583.80078125 637.86328125 C-1583.38549384 638.9706536 -1583.38549384 638.9706536 -1582.96181679 640.10039711 C-1579.17474129 650.19887832 -1575.38899212 660.29785586 -1571.60426331 670.3972168 C-1569.50995271 675.98577037 -1567.41531797 681.57420242 -1565.32057476 687.16259384 C-1563.86807819 691.03761824 -1562.41572208 694.91269514 -1560.9637146 698.78790283 C-1553.11306817 719.74057966 -1553.11306817 719.74057966 -1545.1953125 740.66796875 C-1544.8495668 741.57792099 -1544.50382111 742.48787323 -1544.14759827 743.42539978 C-1542.63752377 747.39776845 -1541.12375054 751.36864635 -1539.60229492 755.33666992 C-1539.10589071 756.63848383 -1538.60954759 757.94032103 -1538.11328125 759.2421875 C-1537.69860596 760.3235498 -1537.28393066 761.40491211 -1536.85668945 762.51904297 C-1536 765 -1536 765 -1536 767 C-1535.45391353 766.72689276 -1534.90782707 766.45378552 -1534.34519253 766.17240231 C-1487.96865498 742.97870196 -1441.59202651 719.78518343 -1395.21533203 696.59179688 C-1393.83794916 695.90295574 -1393.83794916 695.90295574 -1392.43274036 695.20019862 C-1294.07068031 646.00848457 -1195.70803624 596.81793857 -1097.34420776 547.62976074 C-1095.16010546 546.53757014 -1092.97600317 545.44537954 -1090.79190087 544.35318894 C-1044.95036478 521.42949842 -999.1087464 498.50597249 -953.2670329 475.58263677 C-930.2403591 464.06805444 -907.21370112 452.55344048 -884.18705809 441.0387966 C-880.71350381 439.30182022 -877.23994909 437.56484473 -873.76639434 435.82786929 C-820.25752739 409.07037463 -766.74900055 382.31220014 -713.24145508 355.55206299 C-712.0903698 354.97638345 -710.93928453 354.40070392 -709.75331789 353.80757955 C-691.19357292 344.5254946 -672.63385641 335.24335277 -654.07414367 325.9612034 C-600.63804028 299.23655088 -547.20172781 272.51231677 -493.76402092 245.79087067 C-492.11681819 244.967189 -492.11681819 244.967189 -490.43633864 244.1268673 C-466.33374423 232.07440452 -442.23104156 220.02215825 -418.12823629 207.97011716 C-408.43112967 203.12130222 -398.73403864 198.27245609 -389.03695297 193.42359924 C-387.97562693 192.89290279 -386.91430089 192.36220635 -385.82081345 191.81542819 C-351.584372 174.69610975 -317.34920244 157.5742496 -283.11469447 140.45106503 C-248.6490855 123.21230439 -214.18224018 105.97601846 -179.71365735 88.74320469 C-174.95776906 86.36546364 -170.20189505 83.98769401 -165.44602966 81.60990715 C-164.51368872 81.14376656 -163.58134778 80.67762597 -162.62075408 80.19735991 C-147.81745379 72.79609141 -133.01550554 65.39212306 -118.21411043 57.98704535 C-103.68368033 50.71759897 -89.1518435 43.45097155 -74.6184733 36.18740484 C-66.08242739 31.9211051 -57.54750153 27.65258274 -49.0141653 23.38086565 C-43.36121656 20.55131584 -37.70684733 17.72461963 -32.05126739 14.90033262 C-28.83601242 13.29459332 -25.62141914 11.68756488 -22.40855668 10.07704309 C-18.96932391 8.35308159 -15.5270695 6.63521569 -12.08444989 4.91802645 C-11.07817311 4.41237918 -10.07189633 3.90673191 -9.03512632 3.385762 C-8.12752084 2.93431216 -7.21991535 2.48286232 -6.28480668 2.01773217 C-5.49944593 1.6249878 -4.71408519 1.23224342 -3.90492564 0.82759769 C-2 0 -2 0 0 0 Z " fill="#FF3232" transform="translate(2048,0)"/>
</svg>
