<?xml version="1.0" encoding="UTF-8"?>
<svg version="1.1" xmlns="http://www.w3.org/2000/svg" width="2048" height="2048">
<path d="M0 0 C2.70376324 0.2646858 5.40837583 0.51922016 8.11315918 0.77325439 C99.40713848 9.46972337 189.47612931 30.01787996 329.58679199 85.25323486 C330.64350098 85.72374268 331.70020996 86.19425049 332.78894043 86.67901611 C360.47097317 99.05184787 387.87304692 112.46707313 414.0526123 127.78106689 C416.62154473 129.27342359 419.2061455 130.73420561 421.79772949 132.18682861 C453.48905677 149.9791267 484.41912548 170.03677266 513.57067871 191.75811768 C515.80567373 193.41555404 518.05643675 195.0500683 520.30944824 196.68292236 C529.36237659 203.26317712 538.18068394 210.05015856 546.81726074 217.16729736 C550.39891645 220.11603161 554.04692661 222.97160658 557.71179199 225.81573486 C564.26625812 230.92445822 570.56754017 236.29825065 576.84118652 241.74591064 C578.56867174 243.23758809 580.30769414 244.71444012 582.05163574 246.18682861 C588.90200223 251.98092025 595.5654829 257.93105887 602.08654785 264.09454346 C605.40377898 267.22922182 608.76172006 270.30408459 612.17492676 273.33428955 C617.60313616 278.21472611 622.7874789 283.3093703 627.94226074 288.47589111 C628.89754493 289.43049882 629.85297726 290.38495829 630.80854797 291.33927917 C632.79248707 293.32175889 634.77464487 295.30599711 636.75549316 297.29156494 C639.27333029 299.815114 641.79565394 302.33412344 644.31933117 304.85183048 C646.28674025 306.81559932 648.2517287 308.78177652 650.21602821 310.74865532 C651.58991656 312.12351865 652.96578946 313.49639794 654.34172058 314.86921692 C658.75795881 319.30186898 663.04537492 323.78611276 667.11338806 328.54171753 C669.48123384 331.29222539 671.97914787 333.91928053 674.46179199 336.56573486 C679.00027723 341.43909036 683.28027997 346.45627464 687.45007324 351.65167236 C689.54561693 354.20310215 691.72642354 356.6365026 693.96179199 359.06573486 C698.02551978 363.5252344 701.74563176 368.18847213 705.43884277 372.95318604 C708.32410686 376.66945015 711.28537465 380.29547619 714.33679199 383.87823486 C720.79536164 391.57333447 726.73272001 399.65745809 732.70935059 407.7288208 C734.421879 410.0314923 736.15086368 412.3203442 737.88757324 414.60479736 C748.06724663 428.08428967 757.33557647 442.17320061 766.62969971 456.26966858 C768.78948154 459.54451588 770.95857599 462.81201473 773.15588379 466.06182861 C779.04709157 474.78633517 784.56258745 483.68002402 789.89929199 492.75323486 C790.73155097 494.1629939 791.56382663 495.57274309 792.39611816 496.98248291 C803.76415489 516.26956538 814.61526271 535.74932212 824.77770996 555.70245361 C825.98886117 558.07964433 827.20306726 560.45490729 828.42321777 562.82745361 C850.33549227 605.47033798 868.21020534 649.86503487 883.58679199 695.25323486 C883.91296509 696.21178375 883.91296509 696.21178375 884.24572754 697.18969727 C905.84882698 760.72259685 920.21839056 826.71659917 928.58679199 893.25323486 C928.68520386 894.03170776 928.78361572 894.81018066 928.88500977 895.61224365 C930.23427846 906.35369185 931.3778353 917.10660646 932.36676025 927.88702393 C932.58427111 930.22612537 932.81339005 932.56386089 933.04431152 934.90167236 C938.59005149 992.20344367 938.44880445 1052.37688492 932.84002686 1109.66644287 C932.57534105 1112.37020611 932.32080669 1115.0748187 932.06677246 1117.77960205 C923.37030348 1209.07358135 902.8221469 1299.14257218 847.58679199 1439.25323486 C846.88103027 1440.83829834 846.88103027 1440.83829834 846.16101074 1442.4553833 C833.78817899 1470.13741604 820.37295372 1497.53948979 805.05895996 1523.71905518 C803.56660326 1526.2879876 802.10582124 1528.87258838 800.65319824 1531.46417236 C782.86090016 1563.15549965 762.8032542 1594.08556835 741.08190918 1623.23712158 C739.42447281 1625.47211661 737.78995856 1627.72287962 736.15710449 1629.97589111 C729.57684973 1639.02881946 722.7898683 1647.84712681 715.67272949 1656.48370361 C712.72399525 1660.06535932 709.86842028 1663.71336949 707.02429199 1667.37823486 C701.91556864 1673.93270099 696.54177621 1680.23398305 691.09411621 1686.50762939 C689.60243877 1688.23511461 688.12558673 1689.97413702 686.65319824 1691.71807861 C680.85910661 1698.5684451 674.90896798 1705.23192577 668.7454834 1711.75299072 C665.61080503 1715.07022185 662.53594227 1718.42816293 659.5057373 1721.84136963 C654.62530074 1727.26957903 649.53065656 1732.45392177 644.36413574 1737.60870361 C643.40952804 1738.5639878 642.45506857 1739.51942013 641.50074768 1740.47499084 C639.51826796 1742.45892994 637.53402974 1744.44108774 635.54846191 1746.42193604 C633.02491286 1748.93977316 630.50590341 1751.46209681 627.98819637 1753.98577404 C626.02442754 1755.95318312 624.05825034 1757.91817157 622.09137154 1759.88247108 C620.7165082 1761.25635943 619.34362891 1762.63223233 617.97080994 1764.00816345 C613.53815788 1768.42440168 609.05391409 1772.71181779 604.29830933 1776.77983093 C601.54780146 1779.14767671 598.92074633 1781.64559075 596.27429199 1784.12823486 C591.4009365 1788.6667201 586.38375222 1792.94672284 581.18835449 1797.11651611 C578.6369247 1799.2120598 576.20352426 1801.39286641 573.77429199 1803.62823486 C569.31479245 1807.69196265 564.65155472 1811.41207463 559.88684082 1815.10528564 C556.17057671 1817.99054973 552.54455066 1820.95181752 548.96179199 1824.00323486 C541.26669239 1830.46180452 533.18256876 1836.39916288 525.11120605 1842.37579346 C522.80853455 1844.08832187 520.51968265 1845.81730655 518.23522949 1847.55401611 C504.75573719 1857.7336895 490.66682625 1867.00201934 476.57035828 1876.29614258 C473.29551097 1878.45592441 470.02801212 1880.62501886 466.77819824 1882.82232666 C458.05369169 1888.71353445 449.16000283 1894.22903032 440.08679199 1899.56573486 C438.67703296 1900.39799384 437.26728376 1901.2302695 435.85754395 1902.06256104 C416.57046148 1913.43059776 397.09070473 1924.28170558 377.13757324 1934.44415283 C374.76038252 1935.65530404 372.38511957 1936.86951013 370.01257324 1938.08966064 C327.36968888 1960.00193514 282.97499198 1977.87664821 237.58679199 1993.25323486 C236.6282431 1993.57940796 236.6282431 1993.57940796 235.65032959 1993.91217041 C172.11743001 2015.51526985 106.12342769 2029.88483343 39.58679199 2038.25323486 C38.80831909 2038.35164673 38.02984619 2038.45005859 37.2277832 2038.55145264 C26.48633501 2039.90072133 15.73342039 2041.04427817 4.95300293 2042.03320312 C2.61390148 2042.25071398 0.27616596 2042.47983292 -2.06164551 2042.71075439 C-59.36341682 2048.25649436 -119.53685806 2048.11524732 -176.82641602 2042.50646973 C-179.53017926 2042.24178392 -182.23479185 2041.98724957 -184.9395752 2041.73321533 C-276.2335545 2033.03674636 -366.30254533 2012.48858977 -506.41320801 1957.25323486 C-507.46991699 1956.78272705 -508.52662598 1956.31221924 -509.61535645 1955.82745361 C-537.29738919 1943.45462186 -564.69946293 1930.03939659 -590.87902832 1914.72540283 C-593.44796075 1913.23304613 -596.03256152 1911.77226411 -598.62414551 1910.31964111 C-630.31547279 1892.52734303 -661.24554149 1872.46969707 -690.39709473 1850.74835205 C-692.63208975 1849.09091568 -694.88285277 1847.45640143 -697.13586426 1845.82354736 C-706.18879261 1839.2432926 -715.00709996 1832.45631117 -723.64367676 1825.33917236 C-727.22533247 1822.39043812 -730.87334263 1819.53486315 -734.53820801 1816.69073486 C-741.09267414 1811.58201151 -747.39395619 1806.20821908 -753.66760254 1800.76055908 C-755.39508775 1799.26888164 -757.13411016 1797.7920296 -758.87805176 1796.31964111 C-765.72841825 1790.52554948 -772.39189891 1784.57541085 -778.91296387 1778.41192627 C-782.230195 1775.2772479 -785.58813607 1772.20238514 -789.00134277 1769.17218018 C-794.42955218 1764.29174361 -799.61389492 1759.19709943 -804.76867676 1754.03057861 C-805.72396094 1753.07597091 -806.67939328 1752.12151144 -807.63496399 1751.16719055 C-809.61890308 1749.18471083 -811.60106088 1747.20047261 -813.58190918 1745.21490479 C-816.09974631 1742.69135573 -818.62206995 1740.17234629 -821.14574718 1737.65463924 C-823.11315627 1735.69087041 -825.07814471 1733.72469321 -827.04244423 1731.75781441 C-828.41633258 1730.38295107 -829.79220548 1729.01007178 -831.1681366 1727.63725281 C-835.58437482 1723.20460075 -839.87179093 1718.72035696 -843.93980408 1713.9647522 C-846.30764986 1711.21424433 -848.80556389 1708.5871892 -851.28820801 1705.94073486 C-855.82669324 1701.06737937 -860.10669598 1696.05019509 -864.27648926 1690.85479736 C-866.37203294 1688.30336757 -868.55283955 1685.86996713 -870.78820801 1683.44073486 C-874.8519358 1678.98123533 -878.57204777 1674.31799759 -882.26525879 1669.55328369 C-885.15052287 1665.83701958 -888.11179067 1662.21099353 -891.16320801 1658.62823486 C-897.62177766 1650.93313526 -903.55913602 1642.84901163 -909.5357666 1634.77764893 C-911.24829502 1632.47497743 -912.97727969 1630.18612552 -914.71398926 1627.90167236 C-924.89366264 1614.42218006 -934.16199249 1600.33326912 -943.45611572 1586.23680115 C-945.61589756 1582.96195384 -947.78499201 1579.69445499 -949.9822998 1576.44464111 C-955.87350759 1567.72013456 -961.38900347 1558.8264457 -966.72570801 1549.75323486 C-967.55796699 1548.34347583 -968.39024265 1546.93372663 -969.22253418 1545.52398682 C-980.59057091 1526.23690435 -991.44167872 1506.75714761 -1001.60412598 1486.80401611 C-1002.81527719 1484.42682539 -1004.02948328 1482.05156244 -1005.24963379 1479.67901611 C-1027.16190829 1437.03613175 -1045.03662136 1392.64143486 -1060.41320801 1347.25323486 C-1060.63065674 1346.61420227 -1060.84810547 1345.97516968 -1061.07214355 1345.31677246 C-1082.67524299 1281.78387288 -1097.04480658 1215.78987056 -1105.41320801 1149.25323486 C-1105.51161987 1148.47476196 -1105.61003174 1147.69628906 -1105.71142578 1146.89422607 C-1107.06069448 1136.15277788 -1108.20425131 1125.39986326 -1109.19317627 1114.6194458 C-1109.41068712 1112.28034435 -1109.63980606 1109.94260883 -1109.87072754 1107.60479736 C-1115.41646751 1050.30302605 -1115.27522046 990.12958481 -1109.66644287 932.84002686 C-1109.40175707 930.13626361 -1109.14722271 927.43165102 -1108.89318848 924.72686768 C-1100.1967195 833.43288837 -1079.64856291 743.36389754 -1024.41320801 603.25323486 C-1023.9427002 602.19652588 -1023.47219238 601.13981689 -1022.98742676 600.05108643 C-1010.614595 572.36905369 -997.19936974 544.96697994 -981.88537598 518.78741455 C-980.39301928 516.21848212 -978.93223726 513.63388135 -977.47961426 511.04229736 C-959.68731617 479.35097008 -939.62967021 448.42090138 -917.9083252 419.26934814 C-916.25088883 417.03435312 -914.61637457 414.78359011 -912.98352051 412.53057861 C-906.40326575 403.47765026 -899.61628431 394.65934291 -892.49914551 386.02276611 C-889.55041126 382.44111041 -886.69483629 378.79310024 -883.85070801 375.12823486 C-878.74198465 368.57376873 -873.36819222 362.27248668 -867.92053223 355.99884033 C-866.42885478 354.27135512 -864.95200275 352.53233271 -863.47961426 350.78839111 C-857.68552262 343.93802462 -851.735384 337.27454396 -845.57189941 330.753479 C-842.43722105 327.43624788 -839.36235828 324.0783068 -836.33215332 320.6651001 C-831.45171676 315.23689069 -826.35707257 310.05254796 -821.19055176 304.89776611 C-820.23594406 303.94248193 -819.28148459 302.98704959 -818.3271637 302.03147888 C-816.34468398 300.04753979 -814.36044576 298.06538199 -812.37487793 296.08453369 C-809.85132887 293.56669656 -807.33231943 291.04437292 -804.81461239 288.52069569 C-802.85084355 286.55328661 -800.88466636 284.58829816 -798.91778755 282.62399864 C-797.54292422 281.2501103 -796.17004493 279.87423739 -794.79722595 278.49830627 C-790.36457389 274.08206805 -785.88033011 269.79465194 -781.12472534 265.72663879 C-778.37421748 263.35879301 -775.74716234 260.86087898 -773.10070801 258.37823486 C-768.22735251 253.83974963 -763.21016823 249.55974689 -758.01477051 245.38995361 C-755.46334072 243.29440993 -753.02994028 241.11360332 -750.60070801 238.87823486 C-746.14120847 234.81450708 -741.47797074 231.0943951 -736.71325684 227.40118408 C-732.99699272 224.51592 -729.37096668 221.5546522 -725.78820801 218.50323486 C-718.09310841 212.04466521 -710.00898478 206.10730685 -701.93762207 200.13067627 C-699.63495057 198.41814785 -697.34609867 196.68916318 -695.06164551 194.95245361 C-681.58215321 184.77278023 -667.49324226 175.50445038 -653.39677429 166.21032715 C-650.12192699 164.05054531 -646.85442814 161.88145086 -643.60461426 159.68414307 C-634.8801077 153.79293528 -625.98641885 148.2774394 -616.91320801 142.94073486 C-615.50344897 142.10847588 -614.09369978 141.27620022 -612.68395996 140.44390869 C-593.39687749 129.07587196 -573.91712075 118.22476415 -553.96398926 108.06231689 C-551.58679854 106.85116568 -549.21153558 105.63695959 -546.83898926 104.41680908 C-504.19610489 82.50453458 -459.801408 64.62982151 -414.41320801 49.25323486 C-413.77417542 49.03578613 -413.13514282 48.8183374 -412.47674561 48.59429932 C-348.94384602 26.99119988 -282.9498437 12.62163629 -216.41320801 4.25323486 C-215.63473511 4.154823 -214.85626221 4.05641113 -214.05419922 3.95501709 C-203.31275102 2.60574839 -192.55983641 1.46219156 -181.77941895 0.4732666 C-179.4403175 0.25575575 -177.10258198 0.02663681 -174.76477051 -0.20428467 C-117.4629992 -5.75002464 -57.28955795 -5.60877759 0 0 Z M-103.93566895 125.30743408 C-189.51043411 126.82095626 -274.36309524 140.59532851 -375.41320801 172.25323486 C-376.06511108 172.46939453 -376.71701416 172.6855542 -377.38867188 172.90826416 C-408.40869645 183.23587035 -438.81208433 195.67594238 -468.30773926 209.77032471 C-471.60790048 211.34620358 -474.91655159 212.90337345 -478.22570801 214.46026611 C-492.56686648 221.24522193 -506.59667541 228.4561775 -520.41320801 236.25323486 C-521.55040283 236.89494629 -521.55040283 236.89494629 -522.71057129 237.54962158 C-526.62334707 239.76378718 -530.52449908 241.99698736 -534.41320801 244.25323486 C-534.41320801 248.56422775 -533.78047033 249.8654554 -531.70227051 253.51495361 C-531.12227295 254.54225586 -530.54227539 255.56955811 -529.94470215 256.62799072 C-529.00098755 258.26779907 -529.00098755 258.26779907 -528.03820801 259.94073486 C-527.07419067 261.63758423 -527.07419067 261.63758423 -526.09069824 263.36871338 C-521.82308831 270.85981587 -517.48290875 278.30676937 -513.08508301 285.72198486 C-509.75318893 291.35191342 -506.49173128 297.02242656 -503.22570801 302.69073486 C-502.58770264 303.79795898 -501.94969727 304.90518311 -501.2923584 306.04595947 C-499.98431324 308.31660554 -498.67645353 310.58735844 -497.36877441 312.85821533 C-494.21988747 318.32493466 -491.06637537 323.78898373 -487.91320801 329.25323486 C-486.66318451 331.41988797 -485.41318454 333.58655466 -484.16320801 335.75323486 C-483.54445801 336.82573486 -482.92570801 337.89823486 -482.28820801 339.00323486 C-461.66320801 374.75323486 -461.66320801 374.75323486 -459.78796387 378.00372314 C-458.53885283 380.16880557 -457.28966672 382.33384469 -456.04040527 384.49884033 C-452.90118491 389.93939192 -449.76330238 395.38070702 -446.62805176 400.82354736 C-440.60573472 411.27529686 -434.56651464 421.71623034 -428.47570801 432.12823486 C-423.05399623 441.39823264 -417.71115885 450.71155239 -412.39398193 460.04168701 C-407.19275672 469.16606326 -401.93292923 478.25456261 -396.62976074 487.32012939 C-390.47554059 497.84408111 -384.38950805 508.40703624 -378.30432129 518.9710083 C-375.17640653 524.39983429 -372.04462353 529.82642767 -368.91320801 535.25323486 C-367.66318922 537.41989069 -366.41318922 539.58655736 -365.16320801 541.75323486 C-364.54445801 542.82573486 -363.92570801 543.89823486 -363.28820801 545.00323486 C-282.66320801 684.75323486 -282.66320801 684.75323486 -280.78796387 688.00372314 C-279.53885283 690.16880557 -278.28966672 692.33384469 -277.04040527 694.49884033 C-273.90118491 699.93939192 -270.76330238 705.38070702 -267.62805176 710.82354736 C-261.04152492 722.25448468 -254.4259421 733.66723149 -247.76379395 745.05426025 C-243.51029978 752.33851879 -239.31807499 759.65619618 -235.14349365 766.98580933 C-232.24097123 772.07928173 -229.32806337 777.16681225 -226.41320801 782.25323486 C-225.65523926 783.57822998 -225.65523926 783.57822998 -224.88195801 784.92999268 C-223.63171016 787.10638293 -222.36963697 789.27520066 -221.10070801 791.44073486 C-220.4445752 792.56866455 -219.78844238 793.69659424 -219.11242676 794.85870361 C-217.57244664 797.52830553 -217.57244664 797.52830553 -214.41320801 798.25323486 C-211.95698745 797.06187601 -209.64644311 795.80459323 -207.28820801 794.44073486 C-182.69886766 780.89364333 -155.11406276 772.4424727 -127.41320801 768.25323486 C-126.29075684 768.0766333 -125.16830566 767.90003174 -124.01184082 767.71807861 C-112.39873058 766.06117626 -100.88140856 765.85449974 -89.16320801 765.87823486 C-88.15119324 765.87877869 -87.13917847 765.87932251 -86.09649658 765.87988281 C-69.5643351 765.9206241 -53.639216 766.83641203 -37.41320801 770.25323486 C-36.38195801 770.4675415 -35.35070801 770.68184814 -34.28820801 770.90264893 C-10.75089156 775.95581655 14.71928602 784.00517167 35.20959473 796.90435791 C37.56612387 798.49999015 37.56612387 798.49999015 40.58679199 798.25323486 C40.93757813 797.62159424 41.28836426 796.98995361 41.64978027 796.33917236 C48.70654335 783.64751425 55.8456704 771.01586573 63.19274902 758.48956299 C67.71279543 750.77528362 72.1613373 743.02195379 76.58679199 735.25323486 C82.12632303 725.53180502 87.72054386 715.84428182 93.37023926 706.18634033 C99.52445941 695.66238862 105.61049195 685.09943349 111.69567871 674.53546143 C114.82359347 669.10663544 117.95537647 663.68004205 121.08679199 658.25323486 C122.33681078 656.08657904 123.58681078 653.91991237 124.83679199 651.75323486 C167.33679199 578.0865682 209.83679199 504.41990153 252.33679199 430.75323486 C252.95562256 429.68057373 253.57445312 428.6079126 254.21203613 427.50274658 C255.46114717 425.33766416 256.71033328 423.17262504 257.95959473 421.00762939 C261.09881509 415.5670778 264.23669762 410.12576271 267.37194824 404.68292236 C273.39426528 394.23117287 279.43348536 383.79023938 285.52429199 373.37823486 C290.59954322 364.70061245 295.60937966 355.98717919 300.58679199 347.25323486 C306.12680929 337.5320787 311.72054008 327.84428828 317.37023926 318.18634033 C321.61296478 310.9311175 325.82675809 303.65969344 330.02429199 296.37823486 C330.64046387 295.30944092 331.25663574 294.24064697 331.89147949 293.13946533 C334.46586131 288.67251064 337.03905123 284.20487065 339.61120605 279.7366333 C340.96794457 277.37977196 342.3251242 275.02316562 343.68273926 272.66680908 C344.95225318 270.46316617 346.22102467 268.25909531 347.4888916 266.05450439 C348.06905029 265.04758545 348.64920898 264.0406665 349.24694824 263.00323486 C349.79882812 262.03901611 350.35070801 261.07479736 350.91931152 260.08135986 C352.04567463 258.17099527 353.2149312 256.28537578 354.42224121 254.42510986 C354.99087891 253.54339111 355.5595166 252.66167236 356.14538574 251.75323486 C356.66286377 250.97979736 357.1803418 250.20635986 357.71350098 249.40948486 C358.81877371 247.29439542 358.81877371 247.29439542 358.04772949 245.15704346 C356.18283963 242.72682769 354.36591487 241.71745559 351.65319824 240.29229736 C350.6261377 239.74573486 349.59907715 239.19917236 348.54089355 238.63604736 C347.42166504 238.05596924 346.30243652 237.47589111 345.14929199 236.87823486 C343.98494629 236.26464111 342.82060059 235.65104736 341.62097168 235.01885986 C339.16861269 233.72715079 336.712504 232.44298694 334.2532959 231.16436768 C330.79612644 229.36586126 327.35291534 227.54174138 323.91101074 225.71417236 C283.58168458 204.40556398 241.7120551 187.03006078 198.58679199 172.25323486 C197.89132263 172.01453674 197.19585327 171.77583862 196.47930908 171.52990723 C119.0015579 145.00748408 37.31934242 130.25462772 -60.53820801 125.69073486 C-61.250979 125.66988831 -61.96375 125.64904175 -62.69812012 125.62756348 C-76.45250726 125.23140473 -90.17698864 125.09573274 -103.93566895 125.30743408 Z M-171.41320801 924.25323486 C-172.23434082 924.94030518 -173.05547363 925.62737549 -173.90148926 926.33526611 C-198.98301247 947.98417028 -213.56906576 979.45721042 -216.00354004 1012.24835205 C-218.11111324 1046.13709786 -207.55354824 1078.40175189 -185.41320801 1104.25323486 C-184.7261377 1105.07436768 -184.03906738 1105.89550049 -183.33117676 1106.74151611 C-161.68227259 1131.82303932 -130.20923245 1146.40909261 -97.41809082 1148.84356689 C-63.52934501 1150.95114009 -31.26469098 1140.39357509 -5.41320801 1118.25323486 C-4.5920752 1117.56616455 -3.77094238 1116.87909424 -2.92492676 1116.17120361 C22.15659645 1094.52229944 36.74264974 1063.04925931 39.17712402 1030.25811768 C41.28469722 996.36937187 30.72713222 964.10471784 8.58679199 938.25323486 C7.89972168 937.43210205 7.21265137 936.61096924 6.50476074 935.76495361 C-15.14414343 910.6834304 -46.61718356 896.09737711 -79.4083252 893.66290283 C-113.297071 891.55532963 -145.56172504 902.11289463 -171.41320801 924.25323486 Z M-984.41320801 1021.25323486 C-981.81229851 1135.69325291 -963.63930353 1246.09353142 -819.41320801 1539.25323486 C-818.83973633 1540.06373291 -818.26626465 1540.87423096 -817.67541504 1541.70928955 C-802.72633289 1562.80201034 -786.58198389 1582.99547131 -769.7857666 1602.64239502 C-768.38002233 1604.2921817 -766.98393692 1605.94978231 -765.58898926 1607.60870361 C-758.41921192 1616.10116668 -750.90744608 1624.2249103 -743.26281738 1632.29034424 C-741.52364493 1634.13603411 -739.80083887 1635.99516232 -738.08508301 1637.86260986 C-731.06642892 1645.49153634 -723.85800792 1652.91239738 -716.53820801 1660.25323486 C-715.65826172 1661.13777344 -714.77831543 1662.02231201 -713.8717041 1662.93365479 C-709.48105956 1667.31389495 -705.03012501 1671.54578226 -700.32531738 1675.58624268 C-696.98709779 1678.49652911 -693.80832427 1681.57573648 -690.60070801 1684.62823486 C-685.19889316 1689.73419724 -679.72448823 1694.59057335 -673.90930176 1699.22198486 C-671.3859747 1701.27539656 -668.99388528 1703.42511543 -666.60070801 1705.62823486 C-661.63250478 1710.14976998 -656.40517224 1714.26475692 -651.10070801 1718.37823486 C-648.05246617 1720.74336119 -645.04770065 1723.15732278 -642.0513916 1725.58770752 C-633.49462189 1732.51505224 -624.67848164 1739.05887947 -615.77453613 1745.53155518 C-613.54751769 1747.15530766 -611.33074962 1748.79204579 -609.11633301 1750.43292236 C-590.38092461 1764.24102177 -570.67962098 1776.75985495 -550.77648926 1788.80938721 C-549.075144 1789.8488248 -547.38643297 1790.90904482 -545.70617676 1791.98223877 C-544.37006348 1792.82214355 -544.37006348 1792.82214355 -543.00695801 1793.67901611 C-541.79556152 1794.45305786 -541.79556152 1794.45305786 -540.55969238 1795.24273682 C-538.31147657 1796.60275903 -538.31147657 1796.60275903 -535.41320801 1795.25323486 C-533.73636658 1792.90727603 -533.73636658 1792.90727603 -532.14758301 1789.94464111 C-531.51263916 1788.81848389 -530.87769531 1787.69232666 -530.22351074 1786.53204346 C-529.53671132 1785.29329158 -528.84994461 1784.05452157 -528.16320801 1782.81573486 C-527.44688213 1781.53992215 -526.72950092 1780.26470143 -526.0111084 1778.99005127 C-524.53077412 1776.36260156 -523.05414065 1773.7331236 -521.57971191 1771.10235596 C-518.38626283 1765.41579269 -515.11848869 1759.77230752 -511.85070801 1754.12823486 C-510.60967627 1751.97988188 -509.36879103 1749.83144427 -508.12805176 1747.68292236 C-507.51558594 1746.62299072 -506.90312012 1745.56305908 -506.27209473 1744.4710083 C-503.14996196 1739.06652841 -500.03179597 1733.65976074 -496.91320801 1728.25323486 C-495.66322679 1726.08655736 -494.4132268 1723.91989069 -493.16320801 1721.75323486 C-492.54445801 1720.68073486 -491.92570801 1719.60823486 -491.28820801 1718.50323486 C-479.41320801 1697.91990153 -467.53820801 1677.3365682 -455.66320801 1656.75323486 C-455.04437744 1655.68057373 -454.42554688 1654.6079126 -453.78796387 1653.50274658 C-452.53885283 1651.33766416 -451.28966672 1649.17262504 -450.04040527 1647.00762939 C-446.90118491 1641.5670778 -443.76330238 1636.12576271 -440.62805176 1630.68292236 C-434.60573472 1620.23117287 -428.56651464 1609.79023938 -422.47570801 1599.37823486 C-417.40045678 1590.70061245 -412.39062034 1581.98717919 -407.41320801 1573.25323486 C-401.87319071 1563.5320787 -396.27945992 1553.84428828 -390.62976074 1544.18634033 C-384.47554059 1533.66238862 -378.38950805 1523.09943349 -372.30432129 1512.53546143 C-369.17640653 1507.10663544 -366.04462353 1501.68004205 -362.91320801 1496.25323486 C-361.66318922 1494.08657904 -360.41318922 1491.91991237 -359.16320801 1489.75323486 C-331.66320801 1442.0865682 -304.16320801 1394.41990153 -276.66320801 1346.75323486 C-276.04437744 1345.68057373 -275.42554688 1344.6079126 -274.78796387 1343.50274658 C-273.53885283 1341.33766416 -272.28966672 1339.17262504 -271.04040527 1337.00762939 C-267.90118491 1331.5670778 -264.76330238 1326.12576271 -261.62805176 1320.68292236 C-255.60573501 1310.23117337 -249.56658843 1299.79019598 -243.47570801 1289.37823486 C-237.46427064 1279.10142436 -231.54495486 1268.77354497 -225.65368652 1258.42755127 C-224.69353638 1256.74218262 -224.69353638 1256.74218262 -223.71398926 1255.02276611 C-222.86574585 1253.53160278 -222.86574585 1253.53160278 -222.00036621 1252.01031494 C-220.9353036 1250.16017618 -219.83670858 1248.32897158 -218.70690918 1246.51763916 C-217.24785189 1244.39845855 -217.24785189 1244.39845855 -217.41320801 1242.25323486 C-219.55524061 1240.88061052 -221.6968576 1239.62071363 -223.91320801 1238.37823486 C-248.69466414 1223.97303145 -272.22249298 1203.15244159 -289.41320801 1180.25323486 C-289.82554687 1179.71730713 -290.23788574 1179.18137939 -290.66271973 1178.62921143 C-298.35136307 1168.62977363 -305.09819021 1158.16710257 -311.41320801 1147.25323486 C-311.8075 1146.57599365 -312.20179199 1145.89875244 -312.60803223 1145.20098877 C-334.63095371 1106.91209713 -342.43251683 1064.82844071 -344.41320801 1021.25323486 C-555.61320801 1021.25323486 -766.81320801 1021.25323486 -984.41320801 1021.25323486 Z M167.58679199 1021.25323486 C167.25679199 1028.51323486 166.92679199 1035.77323486 166.58679199 1043.25323486 C166.23708278 1047.10712491 165.87376959 1050.87139765 165.33679199 1054.69073486 C165.20675781 1055.63207275 165.07672363 1056.57341064 164.94274902 1057.54327393 C155.74230582 1121.0084159 122.49714653 1183.35723266 70.58679199 1222.25323486 C69.75099609 1222.88769531 69.75099609 1222.88769531 68.89831543 1223.53497314 C61.44259285 1229.18379355 53.8587996 1234.53245395 45.89025879 1239.43682861 C42.69887154 1241.31511712 42.69887154 1241.31511712 40.58679199 1244.25323486 C41.7468371 1246.81906433 41.7468371 1246.81906433 43.49694824 1249.72979736 C44.47643433 1251.42966797 44.47643433 1251.42966797 45.47570801 1253.16387939 C46.2000618 1254.40209981 46.92459439 1255.64021564 47.64929199 1256.87823486 C48.38817296 1258.15371946 49.12636563 1259.42960301 49.8638916 1260.70587158 C51.74147194 1263.95023854 53.62854375 1267.18895929 55.51940918 1270.42559814 C57.09697543 1273.12680148 58.66968743 1275.8308268 60.24304199 1278.53448486 C62.52294495 1282.44826422 64.80762288 1286.35921341 67.09460449 1290.26885986 C72.67108356 1299.8114642 78.1789069 1309.39381279 83.69567871 1318.9710083 C86.82359347 1324.39983429 89.95537647 1329.82642767 93.08679199 1335.25323486 C94.33681078 1337.41989069 95.58681078 1339.58655736 96.83679199 1341.75323486 C97.45554199 1342.82573486 98.07429199 1343.89823486 98.71179199 1345.00323486 C179.33679199 1484.75323486 179.33679199 1484.75323486 181.21203613 1488.00372314 C182.46114717 1490.16880557 183.71033328 1492.33384469 184.95959473 1494.49884033 C188.09881509 1499.93939192 191.23669762 1505.38070702 194.37194824 1510.82354736 C200.39426528 1521.27529686 206.43348536 1531.71623034 212.52429199 1542.12823486 C217.94600377 1551.39823264 223.28884115 1560.71155239 228.60601807 1570.04168701 C233.80724328 1579.16606326 239.06707077 1588.25456261 244.37023926 1597.32012939 C250.52445941 1607.84408111 256.61049195 1618.40703624 262.69567871 1628.9710083 C265.82359347 1634.39983429 268.95537647 1639.82642767 272.08679199 1645.25323486 C273.33681078 1647.41989069 274.58681078 1649.58655736 275.83679199 1651.75323486 C276.45554199 1652.82573486 277.07429199 1653.89823486 277.71179199 1655.00323486 C328.33679199 1742.75323486 328.33679199 1742.75323486 330.2142334 1746.00762939 C331.45590726 1748.15975617 332.69776721 1750.31177559 333.93981934 1752.46368408 C336.84846023 1757.50354463 339.75531097 1762.54440978 342.65533447 1767.5892334 C343.67954864 1769.37073064 344.7043685 1771.15187808 345.72937012 1772.93292236 C347.01312575 1775.16400111 348.29575138 1777.39573059 349.57702637 1779.62823486 C352.80880535 1785.24188851 356.11250497 1790.78614925 359.58679199 1796.25323486 C364.80185944 1794.26458324 369.41721719 1791.58752109 374.21179199 1788.75323486 C375.16457031 1788.19007568 376.11734863 1787.6269165 377.09899902 1787.04669189 C389.56761074 1779.58157456 401.56817899 1771.4145094 413.58679199 1763.25323486 C415.12048427 1762.21914055 416.65431658 1761.18525387 418.18835449 1760.15167236 C444.2322321 1742.51650929 469.07738437 1723.05675472 492.97595215 1702.62579346 C494.62573883 1701.22004918 496.28333944 1699.82396378 497.94226074 1698.42901611 C506.43472381 1691.25923878 514.55846743 1683.74747293 522.62390137 1676.10284424 C524.46959124 1674.36367179 526.32871945 1672.64086573 528.19616699 1670.92510986 C535.82509347 1663.90645578 543.24595451 1656.69803478 550.58679199 1649.37823486 C551.47133057 1648.49828857 552.35586914 1647.61834229 553.26721191 1646.71173096 C557.64745208 1642.32108642 561.87933938 1637.87015187 565.9197998 1633.16534424 C568.83008624 1629.82712465 571.90929361 1626.64835113 574.96179199 1623.44073486 C580.06775437 1618.03892001 584.92413047 1612.56451509 589.55554199 1606.74932861 C591.60895368 1604.22600155 593.75867256 1601.83391213 595.96179199 1599.44073486 C599.94291055 1595.06701465 603.60345519 1590.50994708 607.22351074 1585.83892822 C610.1999444 1582.00205516 613.23806956 1578.22711597 616.32995605 1574.48272705 C623.25834891 1566.07826725 629.67618105 1557.38000791 635.97937012 1548.50030518 C637.533177 1546.3281851 639.10935855 1544.17476677 640.69616699 1542.02667236 C695.04024803 1468.26307361 736.01362227 1384.00649099 780.58679199 1240.25323486 C780.77994995 1239.48295959 780.97310791 1238.71268433 781.17211914 1237.91906738 C799.04251701 1166.35365604 805.91222261 1094.93428786 807.58679199 1021.25323486 C596.38679199 1021.25323486 385.18679199 1021.25323486 167.58679199 1021.25323486 Z " fill="#FFCB00" transform="translate(1112.4132080078125,2.74676513671875)"/>
</svg>
