<?xml version="1.0" encoding="UTF-8"?>
<svg version="1.1" xmlns="http://www.w3.org/2000/svg" width="2048" height="2048">
<path d="M0 0 C1.87410989 0.00028275 3.74821989 0.00012242 5.62232971 -0.0004425 C10.66261293 -0.00072704 15.70287189 0.00511366 20.74314952 0.01213145 C26.02819235 0.01842267 31.31323586 0.01897332 36.59828186 0.02015686 C46.5850904 0.02325327 56.57188787 0.03144369 66.55869156 0.04150635 C80.06882978 0.05482088 93.57897106 0.06018106 107.08911419 0.06600857 C128.34465249 0.07538487 149.60018147 0.0944705 170.85571289 0.11352539 C181.72802913 83.19891046 181.72802913 83.19891046 161.68663633 110.36932715 C148.92350969 126.72950098 132.82135564 140.32706581 117.05066305 153.68091581 C109.03641196 160.4996624 101.36935845 167.67040034 93.7098254 174.88233774 C79.98706468 187.79757548 66.11300827 200.5341007 52.08129883 213.11279297 C51.24990792 213.85823793 50.41851701 214.60368289 49.56193244 215.37171709 C40.31176064 223.65985076 31.0316554 231.91362652 21.72595215 240.13934326 C-74.26066973 316.69714749 -74.26066973 316.69714749 -122.80209988 423.66625631 C-125.46257699 479.31633958 -95.29892021 521.57152307 -59.60782462 561.07562253 C-42.82932683 579.42297239 -24.82402083 596.57829564 -6.77846847 613.66224209 C3.9024599 623.78373691 14.2075004 634.19231379 24.32324219 644.87744141 C97.72701555 724.45900233 97.72701555 724.45900233 196.87501049 758.90819335 C245.05904681 760.06087151 277.75916973 736.34840786 311.39767915 704.42846209 C341.95123006 675.1358275 370.05421805 643.40315251 398.06678024 611.7127115 C406.29554401 602.40693638 414.5637334 593.13675814 422.85644531 583.88793945 C423.60084175 583.05755468 424.34523818 582.22716991 425.11219209 581.37162197 C437.66565755 567.38240651 450.41928793 553.58909127 463.30402476 539.90468693 C470.46651496 532.27855738 477.49174459 524.58326034 484.25327873 516.59799194 C527.87315965 465.1515589 527.87315965 465.1515589 560.30257243 461.84338474 C585.49762387 459.8439533 610.85039352 461.8414007 635.85571289 465.11352539 C635.91581508 487.04059639 635.97356351 508.96763649 636.00219727 530.89477539 C636.01989337 544.33686822 636.04052048 557.77890404 636.08203125 571.22094727 C636.11226888 581.01732473 636.13136583 590.81365525 636.13797837 600.6100781 C636.14183355 605.78011733 636.15065739 610.95002249 636.17290306 616.12001801 C636.52233894 700.76991785 621.07124981 783.26925559 544.85571289 946.11352539 C544.3160791 946.99524414 543.77644531 947.87696289 543.22045898 948.78540039 C529.6264823 970.98386881 514.27053421 991.92635383 497.85571289 1012.11352539 C497.1402832 1013.00297852 496.42485352 1013.89243164 495.68774414 1014.80883789 C491.25751137 1020.28372107 486.69601165 1025.59469399 481.95336914 1030.80102539 C480.16063843 1032.77736911 478.40776062 1034.77809269 476.66821289 1036.80102539 C468.13030437 1046.56979944 459.13597794 1055.92497947 449.98071289 1065.11352539 C449.29187012 1065.80696045 448.60302734 1066.50039551 447.89331055 1067.21484375 C443.95952338 1071.13680211 439.9189874 1074.87300472 435.71313477 1078.5012207 C433.09860479 1080.77072069 430.57661304 1083.12874287 428.04321289 1085.48852539 C423.45011914 1089.7266324 418.74301067 1093.76952732 413.87133789 1097.68774414 C411.65929073 1099.46712404 409.4636445 1101.25983092 407.27758789 1103.07055664 C381.8969622 1124.03421891 354.42560171 1142.76007332 325.85571289 1159.11352539 C325.13657715 1159.52683105 324.41744141 1159.94013672 323.67651367 1160.3659668 C318.44387987 1163.35891508 313.16039851 1166.25064602 307.85571289 1169.11352539 C306.53385986 1169.83378906 306.53385986 1169.83378906 305.18530273 1170.56860352 C277.48807569 1185.60026442 248.6449903 1197.87752749 218.85571289 1208.11352539 C217.6447998 1208.5344043 216.43388672 1208.9552832 215.1862793 1209.38891602 C163.3227124 1227.27906414 108.62656522 1237.98000969 53.85571289 1241.11352539 C52.41760254 1241.19812012 52.41760254 1241.19812012 50.95043945 1241.28442383 C-33.64300209 1246.04826642 -117.2715567 1233.22458616 -224.8449707 1193.99731445 C-226.52647217 1193.27946777 -226.52647217 1193.27946777 -228.24194336 1192.54711914 C-229.21655518 1192.12487061 -230.19116699 1191.70262207 -231.1953125 1191.26757812 C-234.46290418 1189.98883768 -237.76688658 1189.0586666 -241.14428711 1188.11352539 C-253.15215453 1200.09798392 -265.15712042 1212.08534038 -277.15868473 1224.07611084 C-282.7318683 1229.64414839 -288.30598045 1235.21125026 -293.88232422 1240.77612305 C-298.74530831 1245.62910839 -303.60650422 1250.48387676 -308.46560282 1255.3407526 C-311.03609932 1257.90995079 -313.60745422 1260.47827584 -316.18095589 1263.04446411 C-319.06089989 1265.91629093 -321.93684294 1268.79209341 -324.8125 1271.66821289 C-325.65695175 1272.50906937 -326.5014035 1273.34992584 -327.3714447 1274.21626282 C-328.16358368 1275.00977646 -328.95572266 1275.8032901 -329.77186584 1276.62084961 C-330.45122727 1277.29928925 -331.1305887 1277.97772888 -331.83053684 1278.67672729 C-333.66154572 1280.60511127 -335.38558826 1282.55813941 -337.10981274 1284.57887644 C-341.83698197 1289.98953339 -346.92607587 1295.03337245 -352.00962734 1300.10470676 C-353.11046153 1301.20658547 -354.21107676 1302.30868297 -355.31149414 1303.41097793 C-358.33259582 1306.43596663 -361.35679264 1309.45784418 -364.38151055 1312.47921639 C-367.67295882 1315.76812545 -370.96150456 1319.05993461 -374.25042349 1322.35137266 C-380.01399426 1328.1185546 -385.77942265 1333.88387425 -391.54607391 1339.64797592 C-400.12125998 1348.21938097 -408.6935878 1356.79364031 -417.26535444 1365.36846475 C-432.57423639 1380.68261445 -447.88598077 1395.99389963 -463.19894043 1411.30397183 C-476.59947741 1424.70199434 -489.99908592 1438.10094457 -503.39776802 1451.50082207 C-504.73035671 1452.83352533 -504.73035671 1452.83352533 -506.08986638 1454.19315189 C-509.69604172 1457.79963857 -513.30221353 1461.40612877 -516.90837952 1465.0126248 C-542.07891321 1490.18543462 -567.25038449 1515.35730663 -592.42392635 1540.52710819 C-593.13555535 1541.23863182 -593.13555535 1541.23863182 -593.8615607 1541.96452966 C-601.56574194 1549.66756597 -609.26996045 1557.37056501 -616.97418211 1565.0735609 C-647.52968861 1595.6242111 -678.08265317 1626.17740106 -708.63330078 1656.73291016 C-716.3324201 1664.43325067 -724.03154449 1672.13358612 -731.73070431 1679.83388615 C-732.44180978 1680.5450973 -732.44180978 1680.5450973 -733.16728103 1681.27067635 C-758.76210372 1706.86927643 -784.35923162 1732.4655712 -809.95711428 1758.06111139 C-813.55707618 1761.66075257 -817.15703414 1765.26039769 -820.75699043 1768.86004448 C-821.64340815 1769.74638312 -822.52982588 1770.63272177 -823.44310474 1771.54591916 C-836.83529919 1784.93697561 -850.22625833 1798.32926652 -863.61662102 1811.72215462 C-878.84039739 1826.94878784 -894.06595463 1842.1736378 -909.29387444 1857.39612729 C-917.81879546 1865.91810866 -926.34233577 1874.44146553 -934.86390226 1882.9668013 C-940.55358291 1888.65872124 -946.24507457 1894.34882598 -951.93805313 1900.03744739 C-955.18328797 1903.28029971 -958.42772724 1906.5239372 -961.66997551 1909.76977576 C-964.62062737 1912.72366171 -967.57357736 1915.67522994 -970.52836205 1918.62498164 C-971.5891478 1919.68476182 -972.64910144 1920.74537574 -973.70810815 1921.80693367 C-979.34405327 1927.45548952 -985.03992884 1932.96806522 -991.14428711 1938.11352539 C-992.0582822 1938.88628668 -992.0582822 1938.88628668 -992.99074185 1939.67465932 C-1025.8123832 1967.27108709 -1065.60838906 1984.66853081 -1108.14428711 1990.11352539 C-1108.8580249 1990.20778809 -1109.5717627 1990.30205078 -1110.30712891 1990.39916992 C-1164.41620941 1996.71839608 -1220.13739223 1982.01575296 -1264.14428711 1950.11352539 C-1265.04195801 1949.46818848 -1265.04195801 1949.46818848 -1265.95776367 1948.80981445 C-1274.60769196 1942.53898359 -1282.45037015 1935.50699652 -1290.14428711 1928.11352539 C-1291.04276367 1927.25629883 -1291.94124023 1926.39907227 -1292.86694336 1925.51586914 C-1330.70793764 1888.61066452 -1354.46637617 1833.25539818 -1355.34741211 1780.50805664 C-1356.00994503 1722.54943749 -1338.79704069 1666.84875878 -1298.66381836 1623.84399414 C-1296.8083052 1621.83313569 -1295.03108674 1619.80550077 -1293.26002496 1617.72377014 C-1288.04077137 1611.75529775 -1282.38277275 1606.21589683 -1276.77295017 1600.61914062 C-1275.50767864 1599.35312869 -1274.24262665 1598.08689731 -1272.97777346 1596.82046741 C-1269.50016703 1593.33979773 -1266.01945401 1589.86224929 -1262.5382281 1586.38520019 C-1258.75202891 1582.6024395 -1254.96873766 1578.81677233 -1251.18507761 1575.03147221 C-1244.55308384 1568.3974054 -1237.91923485 1561.76519831 -1231.28417015 1555.13420296 C-1221.41807281 1545.27413977 -1211.5548431 1535.41121179 -1201.6922014 1525.54769222 C-1185.10172095 1508.95589767 -1168.50891699 1492.36642878 -1151.91478157 1475.77828979 C-1135.48270375 1459.35213566 -1119.05166235 1442.92494591 -1102.62200737 1426.49636841 C-1102.11164957 1425.98604502 -1101.60129178 1425.47572164 -1101.0754686 1424.94993391 C-1096.41409485 1420.28887337 -1091.75273386 1415.62780006 -1087.09138817 1410.96671146 C-1075.50412217 1399.38008483 -1063.91669621 1387.79361818 -1052.32916164 1376.20726013 C-1051.80150761 1375.67965941 -1051.27385357 1375.1520587 -1050.73021002 1374.60847008 C-1025.06669904 1348.94758023 -999.40134519 1323.28853378 -973.73583984 1297.62963867 C-964.83002075 1288.72611125 -955.92420981 1279.82257568 -947.01843262 1270.91900635 C-946.46609081 1270.36680149 -945.913749 1269.81459663 -945.34466957 1269.24565829 C-919.66471113 1243.57204467 -893.9860625 1217.89712113 -868.30775137 1192.2218599 C-866.6405686 1190.55487519 -864.97338525 1188.88789104 -863.3062018 1187.220907 C-852.25763331 1176.1736583 -841.20908739 1165.12638703 -830.16055658 1154.07910065 C-808.17697351 1132.09799403 -786.19325783 1110.11702004 -764.20945105 1088.13613716 C-763.16253952 1087.08936487 -762.11562808 1086.04259249 -761.06871674 1084.99582001 C-702.23688099 1026.17178998 -643.40257346 967.35023233 -552.14428711 876.11352539 C-552.37292513 875.54215536 -552.60156315 874.97078533 -552.83712959 874.38210106 C-553.88507067 871.7631482 -554.93289266 869.1441477 -555.98071289 866.52514648 C-556.34034622 865.62642319 -556.69997955 864.72769989 -557.07051086 863.80174255 C-586.22494906 790.92709978 -604.98222744 714.91987104 -606.14428711 636.11352539 C-606.16475098 635.06745117 -606.18521484 634.02137695 -606.20629883 632.94360352 C-607.72021527 547.21339296 -592.05036978 460.71245203 -479.14428711 244.11352539 C-478.65669922 243.47576172 -478.16911133 242.83799805 -477.66674805 242.1809082 C-471.53504907 234.19010811 -465.14319632 226.43868592 -458.58422852 218.79614258 C-457.05954685 217.01450371 -455.54473205 215.22479129 -454.03100586 213.43383789 C-444.88712286 202.64445314 -444.88712286 202.64445314 -439.82128906 197.79150391 C-438.13973163 196.10896726 -436.60633822 194.35941201 -435.06616211 192.54711914 C-430.66924254 187.49097996 -425.95365773 182.77652976 -421.20678711 178.05102539 C-420.35149414 177.19186523 -419.49620117 176.33270508 -418.61499023 175.44750977 C-414.18182387 171.02110644 -409.6859843 166.7396288 -404.93359375 162.65771484 C-402.33670678 160.41657552 -399.84182681 158.07654839 -397.33178711 155.73852539 C-392.73869335 151.50041838 -388.03158489 147.45752346 -383.15991211 143.53930664 C-380.94786495 141.75992674 -378.75221871 139.96721986 -376.56616211 138.15649414 C-345.38453506 112.40137263 -311.26920013 90.52954396 -275.65014648 71.46264648 C-273.44560191 70.27574924 -271.25372285 69.06960706 -269.06616211 67.85180664 C-197.70155218 28.48321969 -114.96737019 7.79046188 -34.14428711 1.11352539 C-33.06113944 1.02402398 -31.97799177 0.93452257 -30.86202145 0.842309 C-20.56104074 0.07309157 -10.32432564 -0.0220888 0 0 Z " fill="#BEE400" transform="translate(1412.144287109375,-0.113525390625)"/>
</svg>
