<?xml version="1.0" encoding="UTF-8"?>
<svg version="1.1" xmlns="http://www.w3.org/2000/svg" width="2048" height="2048">
<path d="M0 0 C3.15627007 1.57813503 5.26747814 3.47543811 7.8203125 5.91015625 C11.54177783 9.38685406 15.28902942 12.71261186 19.2578125 15.91015625 C22.83359719 18.79614418 26.29932568 21.75210429 29.6953125 24.84765625 C33.11270622 27.96224293 36.600536 30.93952245 40.1953125 33.84765625 C44.65807463 37.45798067 48.92250783 41.23193554 53.1640625 45.09765625 C55.7837606 47.42627678 58.4704656 49.64328572 61.1953125 51.84765625 C65.65807463 55.45798067 69.92250783 59.23193554 74.1640625 63.09765625 C76.7837606 65.42627678 79.4704656 67.64328572 82.1953125 69.84765625 C86.65807463 73.45798067 90.92250783 77.23193554 95.1640625 81.09765625 C97.7837606 83.42627678 100.4704656 85.64328572 103.1953125 87.84765625 C107.65807463 91.45798067 111.92250783 95.23193554 116.1640625 99.09765625 C118.7837606 101.42627678 121.4704656 103.64328572 124.1953125 105.84765625 C128.65807463 109.45798067 132.92250783 113.23193554 137.1640625 117.09765625 C139.7837606 119.42627678 142.4704656 121.64328572 145.1953125 123.84765625 C149.65807463 127.45798067 153.92250783 131.23193554 158.1640625 135.09765625 C160.7837606 137.42627678 163.4704656 139.64328572 166.1953125 141.84765625 C170.65807463 145.45798067 174.92250783 149.23193554 179.1640625 153.09765625 C181.7837606 155.42627678 184.4704656 157.64328572 187.1953125 159.84765625 C191.65807463 163.45798067 195.92250783 167.23193554 200.1640625 171.09765625 C202.7837606 173.42627678 205.4704656 175.64328572 208.1953125 177.84765625 C212.65807463 181.45798067 216.92250783 185.23193554 221.1640625 189.09765625 C223.7837606 191.42627678 226.4704656 193.64328572 229.1953125 195.84765625 C233.65807463 199.45798067 237.92250783 203.23193554 242.1640625 207.09765625 C244.7837606 209.42627678 247.4704656 211.64328572 250.1953125 213.84765625 C254.65807463 217.45798067 258.92250783 221.23193554 263.1640625 225.09765625 C265.7837606 227.42627678 268.4704656 229.64328572 271.1953125 231.84765625 C275.65807463 235.45798067 279.92250783 239.23193554 284.1640625 243.09765625 C286.7837606 245.42627678 289.4704656 247.64328572 292.1953125 249.84765625 C296.65807463 253.45798067 300.92250783 257.23193554 305.1640625 261.09765625 C307.7837606 263.42627678 310.4704656 265.64328572 313.1953125 267.84765625 C317.65807463 271.45798067 321.92250783 275.23193554 326.1640625 279.09765625 C328.7837606 281.42627678 331.4704656 283.64328572 334.1953125 285.84765625 C338.65807463 289.45798067 342.92250783 293.23193554 347.1640625 297.09765625 C349.7837606 299.42627678 352.4704656 301.64328572 355.1953125 303.84765625 C359.65807463 307.45798067 363.92250783 311.23193554 368.1640625 315.09765625 C370.7837606 317.42627678 373.4704656 319.64328572 376.1953125 321.84765625 C380.65807463 325.45798067 384.92250783 329.23193554 389.1640625 333.09765625 C391.7837606 335.42627678 394.4704656 337.64328572 397.1953125 339.84765625 C401.65807463 343.45798067 405.92250783 347.23193554 410.1640625 351.09765625 C412.7837606 353.42627678 415.4704656 355.64328572 418.1953125 357.84765625 C422.65807463 361.45798067 426.92250783 365.23193554 431.1640625 369.09765625 C433.7837606 371.42627678 436.4704656 373.64328572 439.1953125 375.84765625 C443.65807463 379.45798067 447.92250783 383.23193554 452.1640625 387.09765625 C454.7837606 389.42627678 457.4704656 391.64328572 460.1953125 393.84765625 C464.65807463 397.45798067 468.92250783 401.23193554 473.1640625 405.09765625 C475.7837606 407.42627678 478.4704656 409.64328572 481.1953125 411.84765625 C485.65807463 415.45798067 489.92250783 419.23193554 494.1640625 423.09765625 C496.7837606 425.42627678 499.4704656 427.64328572 502.1953125 429.84765625 C506.65807463 433.45798067 510.92250783 437.23193554 515.1640625 441.09765625 C517.7837606 443.42627678 520.4704656 445.64328572 523.1953125 447.84765625 C527.65807463 451.45798067 531.92250783 455.23193554 536.1640625 459.09765625 C538.7837606 461.42627678 541.4704656 463.64328572 544.1953125 465.84765625 C548.65807463 469.45798067 552.92250783 473.23193554 557.1640625 477.09765625 C559.7837606 479.42627678 562.4704656 481.64328572 565.1953125 483.84765625 C569.65807463 487.45798067 573.92250783 491.23193554 578.1640625 495.09765625 C580.7837606 497.42627678 583.4704656 499.64328572 586.1953125 501.84765625 C590.65807463 505.45798067 594.92250783 509.23193554 599.1640625 513.09765625 C601.7837606 515.42627678 604.4704656 517.64328572 607.1953125 519.84765625 C611.65807463 523.45798067 615.92250783 527.23193554 620.1640625 531.09765625 C622.7837606 533.42627678 625.4704656 535.64328572 628.1953125 537.84765625 C632.65807463 541.45798067 636.92250783 545.23193554 641.1640625 549.09765625 C643.7837606 551.42627678 646.4704656 553.64328572 649.1953125 555.84765625 C653.65807463 559.45798067 657.92250783 563.23193554 662.1640625 567.09765625 C664.7837606 569.42627678 667.4704656 571.64328572 670.1953125 573.84765625 C674.65807463 577.45798067 678.92250783 581.23193554 683.1640625 585.09765625 C685.7837606 587.42627678 688.4704656 589.64328572 691.1953125 591.84765625 C695.65807463 595.45798067 699.92250783 599.23193554 704.1640625 603.09765625 C706.7837606 605.42627678 709.4704656 607.64328572 712.1953125 609.84765625 C716.65807463 613.45798067 720.92250783 617.23193554 725.1640625 621.09765625 C727.7837606 623.42627678 730.4704656 625.64328572 733.1953125 627.84765625 C737.65807463 631.45798067 741.92250783 635.23193554 746.1640625 639.09765625 C748.7837606 641.42627678 751.4704656 643.64328572 754.1953125 645.84765625 C758.65807463 649.45798067 762.92250783 653.23193554 767.1640625 657.09765625 C769.7837606 659.42627678 772.4704656 661.64328572 775.1953125 663.84765625 C779.66240213 667.46148156 783.93098288 671.23892105 788.17578125 675.109375 C790.72736167 677.37612783 793.34702782 679.52305712 796.0078125 681.66015625 C800.9050165 685.61959778 805.53009331 689.80872576 810.12670898 694.10766602 C812.88341725 696.68443574 815.65514632 699.19885358 818.5703125 701.59765625 C821.63105526 704.17945638 824.18586166 707.06375981 826.76953125 710.1171875 C828.10928962 711.66891575 829.49068312 713.18525894 830.90234375 714.671875 C843.54084162 728.00457146 853.54468869 743.47943999 862.6953125 759.34765625 C863.0867041 760.02054688 863.4780957 760.6934375 863.88134766 761.38671875 C884.66015381 797.50837581 895.09461733 839.65501199 894.93582153 881.18495178 C894.9366961 882.91554132 894.93845167 884.64613058 894.94099987 886.37671846 C894.94542815 891.08139899 894.93753273 895.7859868 894.92744374 900.49065554 C894.91874561 905.5831103 894.92173387 910.67556052 894.92324829 915.76802063 C894.92429314 924.57421656 894.9180585 933.38038269 894.90677261 942.18657112 C894.89046614 954.91858221 894.88530436 967.650579 894.88279663 980.38259941 C894.87842758 1001.04324174 894.86513998 1021.70386822 894.84619141 1042.36450195 C894.82781212 1062.42537355 894.81366565 1082.48624082 894.80517578 1102.54711914 C894.80465033 1103.785243 894.80412489 1105.02336686 894.80358352 1106.29900963 C894.8009733 1112.51078246 894.79844592 1118.72255532 894.79595971 1124.9343282 C894.77525183 1176.40544851 894.74004789 1227.8765516 894.6953125 1279.34765625 C891.09572628 1277.24249116 888.12270598 1275.07087626 885.0703125 1272.22265625 C881.53030882 1268.97677751 877.93227885 1265.86475373 874.1953125 1262.84765625 C869.73255037 1259.23733183 865.46811717 1255.46337696 861.2265625 1251.59765625 C858.6068644 1249.26903572 855.9201594 1247.05202678 853.1953125 1244.84765625 C848.73255037 1241.23733183 844.46811717 1237.46337696 840.2265625 1233.59765625 C837.6068644 1231.26903572 834.9201594 1229.05202678 832.1953125 1226.84765625 C827.73255037 1223.23733183 823.46811717 1219.46337696 819.2265625 1215.59765625 C816.6068644 1213.26903572 813.9201594 1211.05202678 811.1953125 1208.84765625 C806.73255037 1205.23733183 802.46811717 1201.46337696 798.2265625 1197.59765625 C795.6068644 1195.26903572 792.9201594 1193.05202678 790.1953125 1190.84765625 C785.73255037 1187.23733183 781.46811717 1183.46337696 777.2265625 1179.59765625 C774.6068644 1177.26903572 771.9201594 1175.05202678 769.1953125 1172.84765625 C764.73255037 1169.23733183 760.46811717 1165.46337696 756.2265625 1161.59765625 C753.6068644 1159.26903572 750.9201594 1157.05202678 748.1953125 1154.84765625 C743.73255037 1151.23733183 739.46811717 1147.46337696 735.2265625 1143.59765625 C732.6068644 1141.26903572 729.9201594 1139.05202678 727.1953125 1136.84765625 C722.73255037 1133.23733183 718.46811717 1129.46337696 714.2265625 1125.59765625 C711.6068644 1123.26903572 708.9201594 1121.05202678 706.1953125 1118.84765625 C701.73255037 1115.23733183 697.46811717 1111.46337696 693.2265625 1107.59765625 C690.6068644 1105.26903572 687.9201594 1103.05202678 685.1953125 1100.84765625 C680.73255037 1097.23733183 676.46811717 1093.46337696 672.2265625 1089.59765625 C669.6068644 1087.26903572 666.9201594 1085.05202678 664.1953125 1082.84765625 C659.73255037 1079.23733183 655.46811717 1075.46337696 651.2265625 1071.59765625 C648.6068644 1069.26903572 645.9201594 1067.05202678 643.1953125 1064.84765625 C638.73255037 1061.23733183 634.46811717 1057.46337696 630.2265625 1053.59765625 C627.6068644 1051.26903572 624.9201594 1049.05202678 622.1953125 1046.84765625 C617.73255037 1043.23733183 613.46811717 1039.46337696 609.2265625 1035.59765625 C606.6068644 1033.26903572 603.9201594 1031.05202678 601.1953125 1028.84765625 C596.73255037 1025.23733183 592.46811717 1021.46337696 588.2265625 1017.59765625 C585.6068644 1015.26903572 582.9201594 1013.05202678 580.1953125 1010.84765625 C575.73255037 1007.23733183 571.46811717 1003.46337696 567.2265625 999.59765625 C564.6068644 997.26903572 561.9201594 995.05202678 559.1953125 992.84765625 C554.73255037 989.23733183 550.46811717 985.46337696 546.2265625 981.59765625 C543.6068644 979.26903572 540.9201594 977.05202678 538.1953125 974.84765625 C533.73255037 971.23733183 529.46811717 967.46337696 525.2265625 963.59765625 C522.6068644 961.26903572 519.9201594 959.05202678 517.1953125 956.84765625 C512.73255037 953.23733183 508.46811717 949.46337696 504.2265625 945.59765625 C501.6068644 943.26903572 498.9201594 941.05202678 496.1953125 938.84765625 C491.73255037 935.23733183 487.46811717 931.46337696 483.2265625 927.59765625 C480.6068644 925.26903572 477.9201594 923.05202678 475.1953125 920.84765625 C470.73255037 917.23733183 466.46811717 913.46337696 462.2265625 909.59765625 C459.6068644 907.26903572 456.9201594 905.05202678 454.1953125 902.84765625 C449.73255037 899.23733183 445.46811717 895.46337696 441.2265625 891.59765625 C438.6068644 889.26903572 435.9201594 887.05202678 433.1953125 884.84765625 C428.73255037 881.23733183 424.46811717 877.46337696 420.2265625 873.59765625 C417.6068644 871.26903572 414.9201594 869.05202678 412.1953125 866.84765625 C407.73255037 863.23733183 403.46811717 859.46337696 399.2265625 855.59765625 C396.6068644 853.26903572 393.9201594 851.05202678 391.1953125 848.84765625 C386.73255037 845.23733183 382.46811717 841.46337696 378.2265625 837.59765625 C375.6068644 835.26903572 372.9201594 833.05202678 370.1953125 830.84765625 C365.73255037 827.23733183 361.46811717 823.46337696 357.2265625 819.59765625 C354.6068644 817.26903572 351.9201594 815.05202678 349.1953125 812.84765625 C344.73255037 809.23733183 340.46811717 805.46337696 336.2265625 801.59765625 C333.6068644 799.26903572 330.9201594 797.05202678 328.1953125 794.84765625 C323.73255037 791.23733183 319.46811717 787.46337696 315.2265625 783.59765625 C312.6068644 781.26903572 309.9201594 779.05202678 307.1953125 776.84765625 C302.73255037 773.23733183 298.46811717 769.46337696 294.2265625 765.59765625 C291.6068644 763.26903572 288.9201594 761.05202678 286.1953125 758.84765625 C281.73255037 755.23733183 277.46811717 751.46337696 273.2265625 747.59765625 C270.6068644 745.26903572 267.9201594 743.05202678 265.1953125 740.84765625 C260.73255037 737.23733183 256.46811717 733.46337696 252.2265625 729.59765625 C249.6068644 727.26903572 246.9201594 725.05202678 244.1953125 722.84765625 C239.73255037 719.23733183 235.46811717 715.46337696 231.2265625 711.59765625 C228.6068644 709.26903572 225.9201594 707.05202678 223.1953125 704.84765625 C218.73255037 701.23733183 214.46811717 697.46337696 210.2265625 693.59765625 C207.6068644 691.26903572 204.9201594 689.05202678 202.1953125 686.84765625 C197.73255037 683.23733183 193.46811717 679.46337696 189.2265625 675.59765625 C186.6068644 673.26903572 183.9201594 671.05202678 181.1953125 668.84765625 C176.73255037 665.23733183 172.46811717 661.46337696 168.2265625 657.59765625 C165.6068644 655.26903572 162.9201594 653.05202678 160.1953125 650.84765625 C155.73255037 647.23733183 151.46811717 643.46337696 147.2265625 639.59765625 C144.6068644 637.26903572 141.9201594 635.05202678 139.1953125 632.84765625 C134.73255037 629.23733183 130.46811717 625.46337696 126.2265625 621.59765625 C123.6068644 619.26903572 120.9201594 617.05202678 118.1953125 614.84765625 C113.73255037 611.23733183 109.46811717 607.46337696 105.2265625 603.59765625 C102.6068644 601.26903572 99.9201594 599.05202678 97.1953125 596.84765625 C92.73255037 593.23733183 88.46811717 589.46337696 84.2265625 585.59765625 C81.6068644 583.26903572 78.9201594 581.05202678 76.1953125 578.84765625 C71.73255037 575.23733183 67.46811717 571.46337696 63.2265625 567.59765625 C60.6068644 565.26903572 57.9201594 563.05202678 55.1953125 560.84765625 C50.73255037 557.23733183 46.46811717 553.46337696 42.2265625 549.59765625 C39.6068644 547.26903572 36.9201594 545.05202678 34.1953125 542.84765625 C30.600536 539.93952245 27.11270622 536.96224293 23.6953125 533.84765625 C19.36335108 529.90075807 14.87865966 526.18631135 10.32421875 522.5 C6.70380563 519.53588762 3.1882384 516.46026357 -0.3046875 513.34765625 C-4.36465029 515.03105546 -7.41743118 517.85912015 -10.6796875 520.72265625 C-11.93740522 521.81391133 -13.19522042 522.90505407 -14.453125 523.99609375 C-15.0934668 524.55393555 -15.73380859 525.11177734 -16.39355469 525.68652344 C-19.35014758 528.25635712 -22.32777418 530.8014238 -25.3046875 533.34765625 C-26.47146922 534.347522 -27.63813556 535.34752242 -28.8046875 536.34765625 C-86.5546875 585.84765625 -144.3046875 635.34765625 -861.8046875 1250.34765625 C-862.38250977 1250.84297852 -862.96033203 1251.33830078 -863.55566406 1251.84863281 C-864.71889162 1252.84559222 -865.88230223 1253.84233808 -867.04589844 1254.83886719 C-870.01674367 1257.38364162 -872.98402448 1259.93238881 -875.9453125 1262.48828125 C-895.4997685 1279.34765625 -895.4997685 1279.34765625 -897.3046875 1279.34765625 C-897.37344739 1226.74322616 -897.42626382 1174.13880063 -897.45788349 1121.53433439 C-897.46163533 1115.31512585 -897.46551832 1109.09591739 -897.46948242 1102.87670898 C-897.47026935 1101.63864638 -897.47105628 1100.40058377 -897.47186706 1099.12500412 C-897.48489886 1079.11369588 -897.50854038 1059.10241367 -897.53614589 1039.09112083 C-897.56426214 1018.53721584 -897.58087688 997.98332441 -897.58695298 977.42940098 C-897.59105655 964.76024578 -897.60398803 952.09116413 -897.6284369 939.42203159 C-897.64437097 930.71853126 -897.64907061 922.01506862 -897.64519163 913.31155478 C-897.64328196 908.30017067 -897.64607953 903.28891455 -897.66230392 898.27755356 C-897.74668381 870.81291436 -896.21776962 845.0692818 -889.3046875 818.34765625 C-889.09505371 817.52765137 -888.88541992 816.70764648 -888.66943359 815.86279297 C-878.4056754 776.61715252 -857.53066252 740.52212523 -829.8125 711.06640625 C-828.03739259 709.14199074 -826.36010892 707.22535774 -824.70703125 705.203125 C-822.79405939 702.92933243 -821.00800933 701.05087559 -818.7421875 699.16015625 C-815.77311452 696.63197945 -812.87670989 694.04489328 -810.01928711 691.39086914 C-804.8175656 686.56004576 -799.48517316 681.98151433 -793.953125 677.52734375 C-791.33193631 675.37008226 -788.81314469 673.13454625 -786.3046875 670.84765625 C-782.00476959 666.92874373 -777.54549203 663.25594756 -773.0234375 659.59765625 C-770.38321021 657.41264056 -767.8373903 655.15594234 -765.3046875 652.84765625 C-761.00476959 648.92874373 -756.54549203 645.25594756 -752.0234375 641.59765625 C-749.38321021 639.41264056 -746.8373903 637.15594234 -744.3046875 634.84765625 C-740.00476959 630.92874373 -735.54549203 627.25594756 -731.0234375 623.59765625 C-728.38321021 621.41264056 -725.8373903 619.15594234 -723.3046875 616.84765625 C-719.00476959 612.92874373 -714.54549203 609.25594756 -710.0234375 605.59765625 C-707.38321021 603.41264056 -704.8373903 601.15594234 -702.3046875 598.84765625 C-698.00476959 594.92874373 -693.54549203 591.25594756 -689.0234375 587.59765625 C-686.38321021 585.41264056 -683.8373903 583.15594234 -681.3046875 580.84765625 C-677.00476959 576.92874373 -672.54549203 573.25594756 -668.0234375 569.59765625 C-665.38321021 567.41264056 -662.8373903 565.15594234 -660.3046875 562.84765625 C-656.00476959 558.92874373 -651.54549203 555.25594756 -647.0234375 551.59765625 C-644.38321021 549.41264056 -641.8373903 547.15594234 -639.3046875 544.84765625 C-635.00476959 540.92874373 -630.54549203 537.25594756 -626.0234375 533.59765625 C-623.38321021 531.41264056 -620.8373903 529.15594234 -618.3046875 526.84765625 C-614.00476959 522.92874373 -609.54549203 519.25594756 -605.0234375 515.59765625 C-602.38321021 513.41264056 -599.8373903 511.15594234 -597.3046875 508.84765625 C-593.00476959 504.92874373 -588.54549203 501.25594756 -584.0234375 497.59765625 C-581.38321021 495.41264056 -578.8373903 493.15594234 -576.3046875 490.84765625 C-572.00476959 486.92874373 -567.54549203 483.25594756 -563.0234375 479.59765625 C-560.38321021 477.41264056 -557.8373903 475.15594234 -555.3046875 472.84765625 C-551.00476959 468.92874373 -546.54549203 465.25594756 -542.0234375 461.59765625 C-539.38321021 459.41264056 -536.8373903 457.15594234 -534.3046875 454.84765625 C-530.00476959 450.92874373 -525.54549203 447.25594756 -521.0234375 443.59765625 C-518.38321021 441.41264056 -515.8373903 439.15594234 -513.3046875 436.84765625 C-509.00476959 432.92874373 -504.54549203 429.25594756 -500.0234375 425.59765625 C-497.38321021 423.41264056 -494.8373903 421.15594234 -492.3046875 418.84765625 C-488.00476959 414.92874373 -483.54549203 411.25594756 -479.0234375 407.59765625 C-476.38321021 405.41264056 -473.8373903 403.15594234 -471.3046875 400.84765625 C-467.00476959 396.92874373 -462.54549203 393.25594756 -458.0234375 389.59765625 C-455.38321021 387.41264056 -452.8373903 385.15594234 -450.3046875 382.84765625 C-446.00476959 378.92874373 -441.54549203 375.25594756 -437.0234375 371.59765625 C-434.38321021 369.41264056 -431.8373903 367.15594234 -429.3046875 364.84765625 C-425.00476959 360.92874373 -420.54549203 357.25594756 -416.0234375 353.59765625 C-413.38321021 351.41264056 -410.8373903 349.15594234 -408.3046875 346.84765625 C-404.00476959 342.92874373 -399.54549203 339.25594756 -395.0234375 335.59765625 C-392.38321021 333.41264056 -389.8373903 331.15594234 -387.3046875 328.84765625 C-383.00476959 324.92874373 -378.54549203 321.25594756 -374.0234375 317.59765625 C-371.38321021 315.41264056 -368.8373903 313.15594234 -366.3046875 310.84765625 C-362.00476959 306.92874373 -357.54549203 303.25594756 -353.0234375 299.59765625 C-350.38321021 297.41264056 -347.8373903 295.15594234 -345.3046875 292.84765625 C-341.00476959 288.92874373 -336.54549203 285.25594756 -332.0234375 281.59765625 C-329.38321021 279.41264056 -326.8373903 277.15594234 -324.3046875 274.84765625 C-320.00476959 270.92874373 -315.54549203 267.25594756 -311.0234375 263.59765625 C-308.38321021 261.41264056 -305.8373903 259.15594234 -303.3046875 256.84765625 C-299.00476959 252.92874373 -294.54549203 249.25594756 -290.0234375 245.59765625 C-287.38321021 243.41264056 -284.8373903 241.15594234 -282.3046875 238.84765625 C-278.00476959 234.92874373 -273.54549203 231.25594756 -269.0234375 227.59765625 C-266.38321021 225.41264056 -263.8373903 223.15594234 -261.3046875 220.84765625 C-257.00476959 216.92874373 -252.54549203 213.25594756 -248.0234375 209.59765625 C-245.38321021 207.41264056 -242.8373903 205.15594234 -240.3046875 202.84765625 C-236.00476959 198.92874373 -231.54549203 195.25594756 -227.0234375 191.59765625 C-224.38321021 189.41264056 -221.8373903 187.15594234 -219.3046875 184.84765625 C-215.00476959 180.92874373 -210.54549203 177.25594756 -206.0234375 173.59765625 C-203.38321021 171.41264056 -200.8373903 169.15594234 -198.3046875 166.84765625 C-194.00476959 162.92874373 -189.54549203 159.25594756 -185.0234375 155.59765625 C-182.38321021 153.41264056 -179.8373903 151.15594234 -177.3046875 148.84765625 C-173.00476959 144.92874373 -168.54549203 141.25594756 -164.0234375 137.59765625 C-161.38321021 135.41264056 -158.8373903 133.15594234 -156.3046875 130.84765625 C-152.00476959 126.92874373 -147.54549203 123.25594756 -143.0234375 119.59765625 C-140.38321021 117.41264056 -137.8373903 115.15594234 -135.3046875 112.84765625 C-131.00476959 108.92874373 -126.54549203 105.25594756 -122.0234375 101.59765625 C-119.38321021 99.41264056 -116.8373903 97.15594234 -114.3046875 94.84765625 C-110.00476959 90.92874373 -105.54549203 87.25594756 -101.0234375 83.59765625 C-98.38321021 81.41264056 -95.8373903 79.15594234 -93.3046875 76.84765625 C-89.00476959 72.92874373 -84.54549203 69.25594756 -80.0234375 65.59765625 C-77.38321021 63.41264056 -74.8373903 61.15594234 -72.3046875 58.84765625 C-68.00476959 54.92874373 -63.54549203 51.25594756 -59.0234375 47.59765625 C-56.38321021 45.41264056 -53.8373903 43.15594234 -51.3046875 40.84765625 C-47.00476959 36.92874373 -42.54549203 33.25594756 -38.0234375 29.59765625 C-35.38321021 27.41264056 -32.8373903 25.15594234 -30.3046875 22.84765625 C-26.01632301 18.93927343 -21.57079077 15.2746074 -17.05859375 11.62890625 C-13.36385959 8.56830377 -9.82818806 5.34851436 -6.30078125 2.09765625 C-2.95432414 -0.83622395 -2.95432414 -0.83622395 0 0 Z " fill="#FFFF00" transform="translate(1025.3046875,768.65234375)"/>
<path d="M0 0 C3.15627007 1.57813503 5.26747814 3.47543811 7.8203125 5.91015625 C11.54177783 9.38685406 15.28902942 12.71261186 19.2578125 15.91015625 C22.83359719 18.79614418 26.29932568 21.75210429 29.6953125 24.84765625 C33.11270622 27.96224293 36.600536 30.93952245 40.1953125 33.84765625 C44.65807463 37.45798067 48.92250783 41.23193554 53.1640625 45.09765625 C55.7837606 47.42627678 58.4704656 49.64328572 61.1953125 51.84765625 C65.65807463 55.45798067 69.92250783 59.23193554 74.1640625 63.09765625 C76.7837606 65.42627678 79.4704656 67.64328572 82.1953125 69.84765625 C86.65807463 73.45798067 90.92250783 77.23193554 95.1640625 81.09765625 C97.7837606 83.42627678 100.4704656 85.64328572 103.1953125 87.84765625 C107.65807463 91.45798067 111.92250783 95.23193554 116.1640625 99.09765625 C118.7837606 101.42627678 121.4704656 103.64328572 124.1953125 105.84765625 C128.65807463 109.45798067 132.92250783 113.23193554 137.1640625 117.09765625 C139.7837606 119.42627678 142.4704656 121.64328572 145.1953125 123.84765625 C149.65807463 127.45798067 153.92250783 131.23193554 158.1640625 135.09765625 C160.7837606 137.42627678 163.4704656 139.64328572 166.1953125 141.84765625 C170.65807463 145.45798067 174.92250783 149.23193554 179.1640625 153.09765625 C181.7837606 155.42627678 184.4704656 157.64328572 187.1953125 159.84765625 C191.65807463 163.45798067 195.92250783 167.23193554 200.1640625 171.09765625 C202.7837606 173.42627678 205.4704656 175.64328572 208.1953125 177.84765625 C212.65807463 181.45798067 216.92250783 185.23193554 221.1640625 189.09765625 C223.7837606 191.42627678 226.4704656 193.64328572 229.1953125 195.84765625 C233.65807463 199.45798067 237.92250783 203.23193554 242.1640625 207.09765625 C244.7837606 209.42627678 247.4704656 211.64328572 250.1953125 213.84765625 C254.65807463 217.45798067 258.92250783 221.23193554 263.1640625 225.09765625 C265.7837606 227.42627678 268.4704656 229.64328572 271.1953125 231.84765625 C275.65807463 235.45798067 279.92250783 239.23193554 284.1640625 243.09765625 C286.7837606 245.42627678 289.4704656 247.64328572 292.1953125 249.84765625 C296.65807463 253.45798067 300.92250783 257.23193554 305.1640625 261.09765625 C307.7837606 263.42627678 310.4704656 265.64328572 313.1953125 267.84765625 C317.65807463 271.45798067 321.92250783 275.23193554 326.1640625 279.09765625 C328.7837606 281.42627678 331.4704656 283.64328572 334.1953125 285.84765625 C338.65807463 289.45798067 342.92250783 293.23193554 347.1640625 297.09765625 C349.7837606 299.42627678 352.4704656 301.64328572 355.1953125 303.84765625 C359.65807463 307.45798067 363.92250783 311.23193554 368.1640625 315.09765625 C370.7837606 317.42627678 373.4704656 319.64328572 376.1953125 321.84765625 C380.65807463 325.45798067 384.92250783 329.23193554 389.1640625 333.09765625 C391.7837606 335.42627678 394.4704656 337.64328572 397.1953125 339.84765625 C401.65807463 343.45798067 405.92250783 347.23193554 410.1640625 351.09765625 C412.7837606 353.42627678 415.4704656 355.64328572 418.1953125 357.84765625 C422.65807463 361.45798067 426.92250783 365.23193554 431.1640625 369.09765625 C433.7837606 371.42627678 436.4704656 373.64328572 439.1953125 375.84765625 C443.65807463 379.45798067 447.92250783 383.23193554 452.1640625 387.09765625 C454.7837606 389.42627678 457.4704656 391.64328572 460.1953125 393.84765625 C464.65807463 397.45798067 468.92250783 401.23193554 473.1640625 405.09765625 C475.7837606 407.42627678 478.4704656 409.64328572 481.1953125 411.84765625 C485.65807463 415.45798067 489.92250783 419.23193554 494.1640625 423.09765625 C496.7837606 425.42627678 499.4704656 427.64328572 502.1953125 429.84765625 C506.65807463 433.45798067 510.92250783 437.23193554 515.1640625 441.09765625 C517.7837606 443.42627678 520.4704656 445.64328572 523.1953125 447.84765625 C527.65807463 451.45798067 531.92250783 455.23193554 536.1640625 459.09765625 C538.7837606 461.42627678 541.4704656 463.64328572 544.1953125 465.84765625 C548.65807463 469.45798067 552.92250783 473.23193554 557.1640625 477.09765625 C559.7837606 479.42627678 562.4704656 481.64328572 565.1953125 483.84765625 C569.65807463 487.45798067 573.92250783 491.23193554 578.1640625 495.09765625 C580.7837606 497.42627678 583.4704656 499.64328572 586.1953125 501.84765625 C590.65807463 505.45798067 594.92250783 509.23193554 599.1640625 513.09765625 C601.7837606 515.42627678 604.4704656 517.64328572 607.1953125 519.84765625 C611.65807463 523.45798067 615.92250783 527.23193554 620.1640625 531.09765625 C622.7837606 533.42627678 625.4704656 535.64328572 628.1953125 537.84765625 C632.65807463 541.45798067 636.92250783 545.23193554 641.1640625 549.09765625 C643.7837606 551.42627678 646.4704656 553.64328572 649.1953125 555.84765625 C653.65807463 559.45798067 657.92250783 563.23193554 662.1640625 567.09765625 C664.7837606 569.42627678 667.4704656 571.64328572 670.1953125 573.84765625 C674.65807463 577.45798067 678.92250783 581.23193554 683.1640625 585.09765625 C685.7837606 587.42627678 688.4704656 589.64328572 691.1953125 591.84765625 C695.65807463 595.45798067 699.92250783 599.23193554 704.1640625 603.09765625 C706.7837606 605.42627678 709.4704656 607.64328572 712.1953125 609.84765625 C716.65807463 613.45798067 720.92250783 617.23193554 725.1640625 621.09765625 C727.7837606 623.42627678 730.4704656 625.64328572 733.1953125 627.84765625 C737.65807463 631.45798067 741.92250783 635.23193554 746.1640625 639.09765625 C748.7837606 641.42627678 751.4704656 643.64328572 754.1953125 645.84765625 C758.65807463 649.45798067 762.92250783 653.23193554 767.1640625 657.09765625 C769.7837606 659.42627678 772.4704656 661.64328572 775.1953125 663.84765625 C779.66240213 667.46148156 783.93098288 671.23892105 788.17578125 675.109375 C790.72736167 677.37612783 793.34702782 679.52305712 796.0078125 681.66015625 C800.9050165 685.61959778 805.53009331 689.80872576 810.12670898 694.10766602 C812.88341725 696.68443574 815.65514632 699.19885358 818.5703125 701.59765625 C821.63105526 704.17945638 824.18586166 707.06375981 826.76953125 710.1171875 C828.10928962 711.66891575 829.49068312 713.18525894 830.90234375 714.671875 C843.54084162 728.00457146 853.54468869 743.47943999 862.6953125 759.34765625 C863.0867041 760.02054688 863.4780957 760.6934375 863.88134766 761.38671875 C884.66015381 797.50837581 895.09461733 839.65501199 894.93582153 881.18495178 C894.9366961 882.91554132 894.93845167 884.64613058 894.94099987 886.37671846 C894.94542815 891.08139899 894.93753273 895.7859868 894.92744374 900.49065554 C894.91874561 905.5831103 894.92173387 910.67556052 894.92324829 915.76802063 C894.92429314 924.57421656 894.9180585 933.38038269 894.90677261 942.18657112 C894.89046614 954.91858221 894.88530436 967.650579 894.88279663 980.38259941 C894.87842758 1001.04324174 894.86513998 1021.70386822 894.84619141 1042.36450195 C894.82781212 1062.42537355 894.81366565 1082.48624082 894.80517578 1102.54711914 C894.80465033 1103.785243 894.80412489 1105.02336686 894.80358352 1106.29900963 C894.8009733 1112.51078246 894.79844592 1118.72255532 894.79595971 1124.9343282 C894.77525183 1176.40544851 894.74004789 1227.8765516 894.6953125 1279.34765625 C891.09572628 1277.24249116 888.12270598 1275.07087626 885.0703125 1272.22265625 C881.53030882 1268.97677751 877.93227885 1265.86475373 874.1953125 1262.84765625 C869.73255037 1259.23733183 865.46811717 1255.46337696 861.2265625 1251.59765625 C858.6068644 1249.26903572 855.9201594 1247.05202678 853.1953125 1244.84765625 C848.73255037 1241.23733183 844.46811717 1237.46337696 840.2265625 1233.59765625 C837.6068644 1231.26903572 834.9201594 1229.05202678 832.1953125 1226.84765625 C827.73255037 1223.23733183 823.46811717 1219.46337696 819.2265625 1215.59765625 C816.6068644 1213.26903572 813.9201594 1211.05202678 811.1953125 1208.84765625 C806.73255037 1205.23733183 802.46811717 1201.46337696 798.2265625 1197.59765625 C795.6068644 1195.26903572 792.9201594 1193.05202678 790.1953125 1190.84765625 C785.73255037 1187.23733183 781.46811717 1183.46337696 777.2265625 1179.59765625 C774.6068644 1177.26903572 771.9201594 1175.05202678 769.1953125 1172.84765625 C764.73255037 1169.23733183 760.46811717 1165.46337696 756.2265625 1161.59765625 C753.6068644 1159.26903572 750.9201594 1157.05202678 748.1953125 1154.84765625 C743.73255037 1151.23733183 739.46811717 1147.46337696 735.2265625 1143.59765625 C732.6068644 1141.26903572 729.9201594 1139.05202678 727.1953125 1136.84765625 C722.73255037 1133.23733183 718.46811717 1129.46337696 714.2265625 1125.59765625 C711.6068644 1123.26903572 708.9201594 1121.05202678 706.1953125 1118.84765625 C701.73255037 1115.23733183 697.46811717 1111.46337696 693.2265625 1107.59765625 C690.6068644 1105.26903572 687.9201594 1103.05202678 685.1953125 1100.84765625 C680.73255037 1097.23733183 676.46811717 1093.46337696 672.2265625 1089.59765625 C669.6068644 1087.26903572 666.9201594 1085.05202678 664.1953125 1082.84765625 C659.73255037 1079.23733183 655.46811717 1075.46337696 651.2265625 1071.59765625 C648.6068644 1069.26903572 645.9201594 1067.05202678 643.1953125 1064.84765625 C638.73255037 1061.23733183 634.46811717 1057.46337696 630.2265625 1053.59765625 C627.6068644 1051.26903572 624.9201594 1049.05202678 622.1953125 1046.84765625 C617.73255037 1043.23733183 613.46811717 1039.46337696 609.2265625 1035.59765625 C606.6068644 1033.26903572 603.9201594 1031.05202678 601.1953125 1028.84765625 C596.73255037 1025.23733183 592.46811717 1021.46337696 588.2265625 1017.59765625 C585.6068644 1015.26903572 582.9201594 1013.05202678 580.1953125 1010.84765625 C575.73255037 1007.23733183 571.46811717 1003.46337696 567.2265625 999.59765625 C564.6068644 997.26903572 561.9201594 995.05202678 559.1953125 992.84765625 C554.73255037 989.23733183 550.46811717 985.46337696 546.2265625 981.59765625 C543.6068644 979.26903572 540.9201594 977.05202678 538.1953125 974.84765625 C533.73255037 971.23733183 529.46811717 967.46337696 525.2265625 963.59765625 C522.6068644 961.26903572 519.9201594 959.05202678 517.1953125 956.84765625 C512.73255037 953.23733183 508.46811717 949.46337696 504.2265625 945.59765625 C501.6068644 943.26903572 498.9201594 941.05202678 496.1953125 938.84765625 C491.73255037 935.23733183 487.46811717 931.46337696 483.2265625 927.59765625 C480.6068644 925.26903572 477.9201594 923.05202678 475.1953125 920.84765625 C470.73255037 917.23733183 466.46811717 913.46337696 462.2265625 909.59765625 C459.6068644 907.26903572 456.9201594 905.05202678 454.1953125 902.84765625 C449.73255037 899.23733183 445.46811717 895.46337696 441.2265625 891.59765625 C438.6068644 889.26903572 435.9201594 887.05202678 433.1953125 884.84765625 C428.73255037 881.23733183 424.46811717 877.46337696 420.2265625 873.59765625 C417.6068644 871.26903572 414.9201594 869.05202678 412.1953125 866.84765625 C407.73255037 863.23733183 403.46811717 859.46337696 399.2265625 855.59765625 C396.6068644 853.26903572 393.9201594 851.05202678 391.1953125 848.84765625 C386.73255037 845.23733183 382.46811717 841.46337696 378.2265625 837.59765625 C375.6068644 835.26903572 372.9201594 833.05202678 370.1953125 830.84765625 C365.73255037 827.23733183 361.46811717 823.46337696 357.2265625 819.59765625 C354.6068644 817.26903572 351.9201594 815.05202678 349.1953125 812.84765625 C344.73255037 809.23733183 340.46811717 805.46337696 336.2265625 801.59765625 C333.6068644 799.26903572 330.9201594 797.05202678 328.1953125 794.84765625 C323.73255037 791.23733183 319.46811717 787.46337696 315.2265625 783.59765625 C312.6068644 781.26903572 309.9201594 779.05202678 307.1953125 776.84765625 C302.73255037 773.23733183 298.46811717 769.46337696 294.2265625 765.59765625 C291.6068644 763.26903572 288.9201594 761.05202678 286.1953125 758.84765625 C281.73255037 755.23733183 277.46811717 751.46337696 273.2265625 747.59765625 C270.6068644 745.26903572 267.9201594 743.05202678 265.1953125 740.84765625 C260.73255037 737.23733183 256.46811717 733.46337696 252.2265625 729.59765625 C249.6068644 727.26903572 246.9201594 725.05202678 244.1953125 722.84765625 C239.73255037 719.23733183 235.46811717 715.46337696 231.2265625 711.59765625 C228.6068644 709.26903572 225.9201594 707.05202678 223.1953125 704.84765625 C218.73255037 701.23733183 214.46811717 697.46337696 210.2265625 693.59765625 C207.6068644 691.26903572 204.9201594 689.05202678 202.1953125 686.84765625 C197.73255037 683.23733183 193.46811717 679.46337696 189.2265625 675.59765625 C186.6068644 673.26903572 183.9201594 671.05202678 181.1953125 668.84765625 C176.73255037 665.23733183 172.46811717 661.46337696 168.2265625 657.59765625 C165.6068644 655.26903572 162.9201594 653.05202678 160.1953125 650.84765625 C155.73255037 647.23733183 151.46811717 643.46337696 147.2265625 639.59765625 C144.6068644 637.26903572 141.9201594 635.05202678 139.1953125 632.84765625 C134.73255037 629.23733183 130.46811717 625.46337696 126.2265625 621.59765625 C123.6068644 619.26903572 120.9201594 617.05202678 118.1953125 614.84765625 C113.73255037 611.23733183 109.46811717 607.46337696 105.2265625 603.59765625 C102.6068644 601.26903572 99.9201594 599.05202678 97.1953125 596.84765625 C92.73255037 593.23733183 88.46811717 589.46337696 84.2265625 585.59765625 C81.6068644 583.26903572 78.9201594 581.05202678 76.1953125 578.84765625 C71.73255037 575.23733183 67.46811717 571.46337696 63.2265625 567.59765625 C60.6068644 565.26903572 57.9201594 563.05202678 55.1953125 560.84765625 C50.73255037 557.23733183 46.46811717 553.46337696 42.2265625 549.59765625 C39.6068644 547.26903572 36.9201594 545.05202678 34.1953125 542.84765625 C30.600536 539.93952245 27.11270622 536.96224293 23.6953125 533.84765625 C19.36335108 529.90075807 14.87865966 526.18631135 10.32421875 522.5 C6.70380563 519.53588762 3.1882384 516.46026357 -0.3046875 513.34765625 C-4.36465029 515.03105546 -7.41743118 517.85912015 -10.6796875 520.72265625 C-11.93740522 521.81391133 -13.19522042 522.90505407 -14.453125 523.99609375 C-15.0934668 524.55393555 -15.73380859 525.11177734 -16.39355469 525.68652344 C-19.35014758 528.25635712 -22.32777418 530.8014238 -25.3046875 533.34765625 C-26.47146922 534.347522 -27.63813556 535.34752242 -28.8046875 536.34765625 C-86.5546875 585.84765625 -144.3046875 635.34765625 -861.8046875 1250.34765625 C-862.38250977 1250.84297852 -862.96033203 1251.33830078 -863.55566406 1251.84863281 C-864.71889162 1252.84559222 -865.88230223 1253.84233808 -867.04589844 1254.83886719 C-870.01674367 1257.38364162 -872.98402448 1259.93238881 -875.9453125 1262.48828125 C-895.4997685 1279.34765625 -895.4997685 1279.34765625 -897.3046875 1279.34765625 C-897.37344739 1226.74322616 -897.42626382 1174.13880063 -897.45788349 1121.53433439 C-897.46163533 1115.31512585 -897.46551832 1109.09591739 -897.46948242 1102.87670898 C-897.47026935 1101.63864638 -897.47105628 1100.40058377 -897.47186706 1099.12500412 C-897.48489886 1079.11369588 -897.50854038 1059.10241367 -897.53614589 1039.09112083 C-897.56426214 1018.53721584 -897.58087688 997.98332441 -897.58695298 977.42940098 C-897.59105655 964.76024578 -897.60398803 952.09116413 -897.6284369 939.42203159 C-897.64437097 930.71853126 -897.64907061 922.01506862 -897.64519163 913.31155478 C-897.64328196 908.30017067 -897.64607953 903.28891455 -897.66230392 898.27755356 C-897.74668381 870.81291436 -896.21776962 845.0692818 -889.3046875 818.34765625 C-889.09505371 817.52765137 -888.88541992 816.70764648 -888.66943359 815.86279297 C-878.4056754 776.61715252 -857.53066252 740.52212523 -829.8125 711.06640625 C-828.03739259 709.14199074 -826.36010892 707.22535774 -824.70703125 705.203125 C-822.79405939 702.92933243 -821.00800933 701.05087559 -818.7421875 699.16015625 C-815.77311452 696.63197945 -812.87670989 694.04489328 -810.01928711 691.39086914 C-804.8175656 686.56004576 -799.48517316 681.98151433 -793.953125 677.52734375 C-791.33193631 675.37008226 -788.81314469 673.13454625 -786.3046875 670.84765625 C-782.00476959 666.92874373 -777.54549203 663.25594756 -773.0234375 659.59765625 C-770.38321021 657.41264056 -767.8373903 655.15594234 -765.3046875 652.84765625 C-761.00476959 648.92874373 -756.54549203 645.25594756 -752.0234375 641.59765625 C-749.38321021 639.41264056 -746.8373903 637.15594234 -744.3046875 634.84765625 C-740.00476959 630.92874373 -735.54549203 627.25594756 -731.0234375 623.59765625 C-728.38321021 621.41264056 -725.8373903 619.15594234 -723.3046875 616.84765625 C-719.00476959 612.92874373 -714.54549203 609.25594756 -710.0234375 605.59765625 C-707.38321021 603.41264056 -704.8373903 601.15594234 -702.3046875 598.84765625 C-698.00476959 594.92874373 -693.54549203 591.25594756 -689.0234375 587.59765625 C-686.38321021 585.41264056 -683.8373903 583.15594234 -681.3046875 580.84765625 C-677.00476959 576.92874373 -672.54549203 573.25594756 -668.0234375 569.59765625 C-665.38321021 567.41264056 -662.8373903 565.15594234 -660.3046875 562.84765625 C-656.00476959 558.92874373 -651.54549203 555.25594756 -647.0234375 551.59765625 C-644.38321021 549.41264056 -641.8373903 547.15594234 -639.3046875 544.84765625 C-635.00476959 540.92874373 -630.54549203 537.25594756 -626.0234375 533.59765625 C-623.38321021 531.41264056 -620.8373903 529.15594234 -618.3046875 526.84765625 C-614.00476959 522.92874373 -609.54549203 519.25594756 -605.0234375 515.59765625 C-602.38321021 513.41264056 -599.8373903 511.15594234 -597.3046875 508.84765625 C-593.00476959 504.92874373 -588.54549203 501.25594756 -584.0234375 497.59765625 C-581.38321021 495.41264056 -578.8373903 493.15594234 -576.3046875 490.84765625 C-572.00476959 486.92874373 -567.54549203 483.25594756 -563.0234375 479.59765625 C-560.38321021 477.41264056 -557.8373903 475.15594234 -555.3046875 472.84765625 C-551.00476959 468.92874373 -546.54549203 465.25594756 -542.0234375 461.59765625 C-539.38321021 459.41264056 -536.8373903 457.15594234 -534.3046875 454.84765625 C-530.00476959 450.92874373 -525.54549203 447.25594756 -521.0234375 443.59765625 C-518.38321021 441.41264056 -515.8373903 439.15594234 -513.3046875 436.84765625 C-509.00476959 432.92874373 -504.54549203 429.25594756 -500.0234375 425.59765625 C-497.38321021 423.41264056 -494.8373903 421.15594234 -492.3046875 418.84765625 C-488.00476959 414.92874373 -483.54549203 411.25594756 -479.0234375 407.59765625 C-476.38321021 405.41264056 -473.8373903 403.15594234 -471.3046875 400.84765625 C-467.00476959 396.92874373 -462.54549203 393.25594756 -458.0234375 389.59765625 C-455.38321021 387.41264056 -452.8373903 385.15594234 -450.3046875 382.84765625 C-446.00476959 378.92874373 -441.54549203 375.25594756 -437.0234375 371.59765625 C-434.38321021 369.41264056 -431.8373903 367.15594234 -429.3046875 364.84765625 C-425.00476959 360.92874373 -420.54549203 357.25594756 -416.0234375 353.59765625 C-413.38321021 351.41264056 -410.8373903 349.15594234 -408.3046875 346.84765625 C-404.00476959 342.92874373 -399.54549203 339.25594756 -395.0234375 335.59765625 C-392.38321021 333.41264056 -389.8373903 331.15594234 -387.3046875 328.84765625 C-383.00476959 324.92874373 -378.54549203 321.25594756 -374.0234375 317.59765625 C-371.38321021 315.41264056 -368.8373903 313.15594234 -366.3046875 310.84765625 C-362.00476959 306.92874373 -357.54549203 303.25594756 -353.0234375 299.59765625 C-350.38321021 297.41264056 -347.8373903 295.15594234 -345.3046875 292.84765625 C-341.00476959 288.92874373 -336.54549203 285.25594756 -332.0234375 281.59765625 C-329.38321021 279.41264056 -326.8373903 277.15594234 -324.3046875 274.84765625 C-320.00476959 270.92874373 -315.54549203 267.25594756 -311.0234375 263.59765625 C-308.38321021 261.41264056 -305.8373903 259.15594234 -303.3046875 256.84765625 C-299.00476959 252.92874373 -294.54549203 249.25594756 -290.0234375 245.59765625 C-287.38321021 243.41264056 -284.8373903 241.15594234 -282.3046875 238.84765625 C-278.00476959 234.92874373 -273.54549203 231.25594756 -269.0234375 227.59765625 C-266.38321021 225.41264056 -263.8373903 223.15594234 -261.3046875 220.84765625 C-257.00476959 216.92874373 -252.54549203 213.25594756 -248.0234375 209.59765625 C-245.38321021 207.41264056 -242.8373903 205.15594234 -240.3046875 202.84765625 C-236.00476959 198.92874373 -231.54549203 195.25594756 -227.0234375 191.59765625 C-224.38321021 189.41264056 -221.8373903 187.15594234 -219.3046875 184.84765625 C-215.00476959 180.92874373 -210.54549203 177.25594756 -206.0234375 173.59765625 C-203.38321021 171.41264056 -200.8373903 169.15594234 -198.3046875 166.84765625 C-194.00476959 162.92874373 -189.54549203 159.25594756 -185.0234375 155.59765625 C-182.38321021 153.41264056 -179.8373903 151.15594234 -177.3046875 148.84765625 C-173.00476959 144.92874373 -168.54549203 141.25594756 -164.0234375 137.59765625 C-161.38321021 135.41264056 -158.8373903 133.15594234 -156.3046875 130.84765625 C-152.00476959 126.92874373 -147.54549203 123.25594756 -143.0234375 119.59765625 C-140.38321021 117.41264056 -137.8373903 115.15594234 -135.3046875 112.84765625 C-131.00476959 108.92874373 -126.54549203 105.25594756 -122.0234375 101.59765625 C-119.38321021 99.41264056 -116.8373903 97.15594234 -114.3046875 94.84765625 C-110.00476959 90.92874373 -105.54549203 87.25594756 -101.0234375 83.59765625 C-98.38321021 81.41264056 -95.8373903 79.15594234 -93.3046875 76.84765625 C-89.00476959 72.92874373 -84.54549203 69.25594756 -80.0234375 65.59765625 C-77.38321021 63.41264056 -74.8373903 61.15594234 -72.3046875 58.84765625 C-68.00476959 54.92874373 -63.54549203 51.25594756 -59.0234375 47.59765625 C-56.38321021 45.41264056 -53.8373903 43.15594234 -51.3046875 40.84765625 C-47.00476959 36.92874373 -42.54549203 33.25594756 -38.0234375 29.59765625 C-35.38321021 27.41264056 -32.8373903 25.15594234 -30.3046875 22.84765625 C-26.01632301 18.93927343 -21.57079077 15.2746074 -17.05859375 11.62890625 C-13.36385959 8.56830377 -9.82818806 5.34851436 -6.30078125 2.09765625 C-2.95432414 -0.83622395 -2.95432414 -0.83622395 0 0 Z " fill="#FFFF00" transform="translate(1025.3046875,0.65234375)"/>
</svg>
